<?xml version="1.0" encoding="utf-8"?>
<!-- Generator: Adobe Illustrator 22.0.1, SVG Export Plug-In . SVG Version: 6.00 Build 0)  -->
<svg version="1.1" id="Layer_1" xmlns="http://www.w3.org/2000/svg" xmlns:xlink="http://www.w3.org/1999/xlink" x="0px" y="0px"
	 width="180px" height="180px" viewBox="0 0 180 180" style="enable-background:new 0 0 180 180;" xml:space="preserve">
<style type="text/css">
	.st0{fill:#BFC3C9;}
	.st1{fill:#3D595E;}
	.st2{fill:#FFFFFF;}
	.st3{fill:#8E96A2;}
	.st4{fill:#E4E7E8;}
</style>
<g id="Lid">
	<g>
		<path class="st0" d="M90,138.6c-28.4,0-57.2-3.2-85.7-9.5c-0.5-0.1-0.8-0.5-0.8-1c0-21.9,8.2-42.8,23.1-58.8
			C41.2,53.6,60.9,44,82.2,42.1v-7.2c-4.7-1-7.3-2.8-7.3-5c0-3.8,7.6-5.8,15.2-5.8c7.5,0,15.2,2,15.2,5.8c0,2.2-2.7,4-7.3,5v7.2
			c21.3,1.9,40.9,11.6,55.5,27.3c14.9,16,23.1,36.9,23.1,58.8c0,0.5-0.3,0.9-0.8,1C147.3,135.4,118.4,138.6,90,138.6z"/>
		<path class="st1" d="M90,25.1c7.8,0,14.2,2.1,14.2,4.8c0,1.8-3,3.4-7.3,4.2v9c44,3.5,78.6,40.3,78.6,85.2
			c-28.5,6.3-57,9.4-85.4,9.4s-57-3.1-85.4-9.4c0-44.9,34.6-81.7,78.6-85.2v-9c-4.4-0.8-7.3-2.4-7.3-4.2
			C75.9,27.2,82.2,25.1,90,25.1 M90,23.1c-7.8,0-16.2,2.1-16.2,6.8c0,2.6,2.6,4.6,7.3,5.8v5.5C60,43.3,40.5,53,25.9,68.7
			C10.9,84.9,2.6,106,2.6,128.1c0,0.9,0.7,1.8,1.6,2c28.5,6.3,57.4,9.5,85.9,9.5s57.4-3.2,85.9-9.5c0.9-0.2,1.6-1,1.6-2
			c0-22.1-8.3-43.3-23.3-59.5C139.6,53,120,43.3,98.9,41.1v-5.5c4.7-1.2,7.3-3.2,7.3-5.8C106.2,25.2,97.8,23.1,90,23.1L90,23.1z"/>
	</g>
	<path class="st2" d="M12.7,122.3c5.7,3.2,14.2,3.9,24.1,3.9c3.7-40,18-64.3,45.6-80.4C45.2,55.1,21.8,80.9,12.7,122.3z"/>
	<path class="st3" d="M96.9,43c36.8,11.7,50,71.5,40.5,91.7c12.7-1.6,25.4-3.7,38.1-6.5C175.5,83.3,140.8,46.5,96.9,43z"/>
	<path class="st3" d="M83.2,34c4.5,1,9.1,1.1,13.7,0C93.3,36.7,86.1,36.5,83.2,34z"/>
	<path class="st4" d="M83.2,43.5c3.8,1.5,11.7,2.6,15.7,4.3c1-2.1,0.5-3.6-2.1-4.5C93.1,44.6,88,44.3,83.2,43.5z"/>
	<path class="st2" d="M82.7,26.5c-6,3.3-0.5,5.2,9.6,6.4C79,32.1,73.8,30.2,82.7,26.5z"/>
</g>
</svg>
