<?xml version="1.0" encoding="utf-8"?>
<!-- Generator: Adobe Illustrator 22.0.1, SVG Export Plug-In . SVG Version: 6.00 Build 0)  -->
<svg version="1.1" id="Layer_1" xmlns="http://www.w3.org/2000/svg" xmlns:xlink="http://www.w3.org/1999/xlink" x="0px" y="0px"
	 viewBox="0 0 180 180" style="enable-background:new 0 0 180 180;" xml:space="preserve">
<style type="text/css">
	.st0{fill:url(#SVGID_1_);}
	.st1{display:none;fill:url(#SVGID_2_);}
	.st2{display:none;}
	.st3{display:inline;}
	.st4{fill:#FFFFFF;}
	.st5{display:inline;fill:none;stroke:#FFFFFF;stroke-width:1.0017;stroke-miterlimit:10;}
	.st6{fill:none;stroke:#FFFFFF;stroke-width:0.5112;stroke-miterlimit:10;}
	.st7{display:none;clip-path:url(#SVGID_4_);}
	.st8{fill:#A4AEB3;}
	.st9{fill:#C3D4D4;}
	.st10{fill:#8B9E9C;}
	.st11{fill:#D1E3DC;}
	.st12{fill:#AAC2C0;}
</style>
<linearGradient id="SVGID_1_" gradientUnits="userSpaceOnUse" x1="90" y1="182" x2="90" y2="2.8821" gradientTransform="matrix(1 0 0 -1 0 182)">
	<stop  offset="0" style="stop-color:#F2F2F5"/>
	<stop  offset="1" style="stop-color:#EEF0E6"/>
</linearGradient>
<path class="st0" d="M31,0h118c2.8,0,5,2.2,5,5v170c0,2.8-2.2,5-5,5H31c-2.8,0-5-2.2-5-5V5C26,2.2,28.2,0,31,0z"/>
<linearGradient id="SVGID_2_" gradientUnits="userSpaceOnUse" x1="90" y1="181.2742" x2="90" y2="0.9475" gradientTransform="matrix(1 0 0 -1 0 182)">
	<stop  offset="0" style="stop-color:#82D1FF"/>
	<stop  offset="1" style="stop-color:#279EC8"/>
</linearGradient>
<path class="st1" d="M34.8,0.4h110.4c4.9,0,8.8,3.9,8.8,8.8v162c0,4.9-3.9,8.8-8.8,8.8H34.8c-4.9,0-8.8-3.9-8.8-8.8V9.2
	C26,4.3,29.9,0.4,34.8,0.4z"/>
<g id="Card_Back_1_" class="st2">
	<g class="st3">
		<path class="st4" d="M149,3.9c0.8,0,1.5,0.7,1.5,1.5V175c0,0.8-0.7,1.5-1.5,1.5H31c-0.8,0-1.5-0.7-1.5-1.5V5.4
			c0-0.8,0.7-1.5,1.5-1.5H149 M149,0.4H31c-2.8,0-5,2.2-5,5V175c0,2.8,2.2,5,5,5h118c2.8,0,5-2.2,5-5V5.4C154,2.6,151.8,0.4,149,0.4
			L149,0.4z"/>
	</g>
	<path class="st5" d="M146.2,173.7H33.8c-0.8,0-1.5-0.7-1.5-1.5V8.1c0-0.8,0.7-1.5,1.5-1.5h112.5c0.8,0,1.5,0.7,1.5,1.5v164.1
		C147.8,173.1,147.1,173.7,146.2,173.7z"/>
	<g class="st3">
		<path class="st4" d="M140.7,13.7v153H39.3v-153L140.7,13.7 M141.5,10.2h-103c-1.5,0-2.8,1.3-2.8,2.8v154.5c0,1.5,1.3,2.8,2.8,2.8
			h102.9c1.5,0,2.8-1.3,2.8-2.8V13C144.2,11.4,143,10.2,141.5,10.2L141.5,10.2z"/>
	</g>
	<g class="st3">
		<g>
			<path class="st4" d="M137.4,7.6c-0.6,0-1,0.4-1,1s0.4,1,1,1c0.6,0,1-0.4,1-1S137.9,7.6,137.4,7.6L137.4,7.6z"/>
		</g>
		<g>
			<path class="st4" d="M130.9,7.6c-0.6,0-1,0.4-1,1s0.4,1,1,1c0.6,0,1-0.4,1-1S131.5,7.6,130.9,7.6L130.9,7.6z"/>
		</g>
		<g>
			<path class="st4" d="M124.4,7.6c-0.6,0-1,0.4-1,1s0.4,1,1,1s1-0.4,1-1S125,7.6,124.4,7.6L124.4,7.6z"/>
		</g>
		<g>
			<path class="st4" d="M117.9,7.6c-0.6,0-1,0.4-1,1s0.4,1,1,1s1-0.4,1-1S118.5,7.6,117.9,7.6L117.9,7.6z"/>
		</g>
		<g>
			<path class="st4" d="M111.5,7.6c-0.6,0-1,0.4-1,1s0.4,1,1,1s1-0.4,1-1S112,7.6,111.5,7.6L111.5,7.6z"/>
		</g>
		<g>
			<path class="st4" d="M105,7.6c-0.6,0-1,0.4-1,1s0.4,1,1,1s1-0.4,1-1S105.5,7.6,105,7.6L105,7.6z"/>
		</g>
		<g>
			<path class="st4" d="M98.5,7.6c-0.6,0-1,0.4-1,1s0.4,1,1,1s1-0.4,1-1S99,7.6,98.5,7.6L98.5,7.6z"/>
		</g>
		<g>
			<path class="st4" d="M92,7.6c-0.6,0-1,0.4-1,1s0.4,1,1,1s1-0.4,1-1S92.5,7.6,92,7.6L92,7.6z"/>
		</g>
		<g>
			<path class="st4" d="M85.5,7.6c-0.6,0-1,0.4-1,1s0.4,1,1,1s1-0.4,1-1S86.1,7.6,85.5,7.6L85.5,7.6z"/>
		</g>
		<g>
			<path class="st4" d="M79,7.6c-0.6,0-1,0.4-1,1s0.4,1,1,1s1-0.4,1-1S79.6,7.6,79,7.6L79,7.6z"/>
		</g>
		<g>
			<path class="st4" d="M72.5,7.6c-0.6,0-1,0.4-1,1s0.4,1,1,1s1-0.4,1-1S73.1,7.6,72.5,7.6L72.5,7.6z"/>
		</g>
		<g>
			<path class="st4" d="M66,7.6c-0.6,0-1,0.4-1,1s0.4,1,1,1s1-0.4,1-1S66.6,7.6,66,7.6L66,7.6z"/>
		</g>
		<g>
			<path class="st4" d="M59.6,7.6c-0.6,0-1,0.4-1,1s0.4,1,1,1s1-0.4,1-1S60.1,7.6,59.6,7.6L59.6,7.6z"/>
		</g>
		<g>
			<path class="st4" d="M53.1,7.6c-0.6,0-1,0.4-1,1s0.4,1,1,1c0.6,0,1-0.4,1-1S53.6,7.6,53.1,7.6L53.1,7.6z"/>
		</g>
		<g>
			<path class="st4" d="M46.6,7.6c-0.6,0-1,0.4-1,1s0.4,1,1,1c0.6,0,1-0.4,1-1S47.1,7.6,46.6,7.6L46.6,7.6z"/>
		</g>
		<g>
			<path class="st4" d="M40.1,7.6c-0.6,0-1,0.4-1,1s0.4,1,1,1c0.6,0,1-0.4,1-1S40.7,7.6,40.1,7.6L40.1,7.6z"/>
		</g>
		<g>
			<path class="st4" d="M34.4,9.4c-0.6,0-1,0.4-1,1s0.4,1,1,1c0.6,0,1-0.4,1-1S34.9,9.4,34.4,9.4L34.4,9.4z"/>
		</g>
		<g>
			<path class="st4" d="M34.2,15.8c-0.6,0-1,0.4-1,1s0.4,1,1,1c0.6,0,1-0.4,1-1S34.7,15.8,34.2,15.8L34.2,15.8z"/>
		</g>
		<g>
			<path class="st4" d="M34.2,22.3c-0.6,0-1,0.4-1,1s0.4,1,1,1c0.6,0,1-0.4,1-1S34.7,22.3,34.2,22.3L34.2,22.3z"/>
		</g>
		<g>
			<path class="st4" d="M34.2,28.8c-0.6,0-1,0.4-1,1s0.4,1,1,1c0.6,0,1-0.4,1-1C35.2,29.3,34.7,28.8,34.2,28.8L34.2,28.8z"/>
		</g>
		<g>
			<path class="st4" d="M34.2,35.3c-0.6,0-1,0.4-1,1s0.4,1,1,1c0.6,0,1-0.4,1-1S34.7,35.3,34.2,35.3L34.2,35.3z"/>
		</g>
		<g>
			<path class="st4" d="M34.2,41.8c-0.6,0-1,0.4-1,1s0.4,1,1,1c0.6,0,1-0.4,1-1S34.7,41.8,34.2,41.8L34.2,41.8z"/>
		</g>
		<g>
			<path class="st4" d="M34.2,48.3c-0.6,0-1,0.4-1,1s0.4,1,1,1c0.6,0,1-0.4,1-1S34.7,48.3,34.2,48.3L34.2,48.3z"/>
		</g>
		<g>
			<path class="st4" d="M34.2,54.8c-0.6,0-1,0.4-1,1s0.4,1,1,1c0.6,0,1-0.4,1-1S34.7,54.8,34.2,54.8L34.2,54.8z"/>
		</g>
		<g>
			<path class="st4" d="M34.2,61.2c-0.6,0-1,0.4-1,1s0.4,1,1,1c0.6,0,1-0.4,1-1S34.7,61.2,34.2,61.2L34.2,61.2z"/>
		</g>
		<g>
			<path class="st4" d="M34.2,67.7c-0.6,0-1,0.4-1,1s0.4,1,1,1c0.6,0,1-0.4,1-1C35.2,68.2,34.7,67.7,34.2,67.7L34.2,67.7z"/>
		</g>
		<g>
			<path class="st4" d="M34.2,74.2c-0.6,0-1,0.4-1,1s0.4,1,1,1c0.6,0,1-0.4,1-1C35.2,74.7,34.7,74.2,34.2,74.2L34.2,74.2z"/>
		</g>
		<g>
			<path class="st4" d="M34.2,80.7c-0.6,0-1,0.4-1,1s0.4,1,1,1c0.6,0,1-0.4,1-1S34.7,80.7,34.2,80.7L34.2,80.7z"/>
		</g>
		<g>
			<path class="st4" d="M34.2,87.2c-0.6,0-1,0.4-1,1s0.4,1,1,1c0.6,0,1-0.4,1-1S34.7,87.2,34.2,87.2L34.2,87.2z"/>
		</g>
		<g>
			<path class="st4" d="M34.2,93.7c-0.6,0-1,0.4-1,1s0.4,1,1,1c0.6,0,1-0.4,1-1S34.7,93.7,34.2,93.7L34.2,93.7z"/>
		</g>
		<g>
			<path class="st4" d="M34.2,100.2c-0.6,0-1,0.4-1,1s0.4,1,1,1c0.6,0,1-0.4,1-1S34.7,100.2,34.2,100.2L34.2,100.2z"/>
		</g>
		<g>
			<path class="st4" d="M34.2,106.7c-0.6,0-1,0.4-1,1s0.4,1,1,1c0.6,0,1-0.4,1-1S34.7,106.7,34.2,106.7L34.2,106.7z"/>
		</g>
		<g>
			<path class="st4" d="M34.2,113.1c-0.6,0-1,0.4-1,1s0.4,1,1,1c0.6,0,1-0.4,1-1C35.2,113.6,34.7,113.1,34.2,113.1L34.2,113.1z"/>
		</g>
		<g>
			<path class="st4" d="M34.2,119.6c-0.6,0-1,0.4-1,1s0.4,1,1,1c0.6,0,1-0.4,1-1C35.2,120.1,34.7,119.6,34.2,119.6L34.2,119.6z"/>
		</g>
		<g>
			<path class="st4" d="M34.2,126.1c-0.6,0-1,0.4-1,1s0.4,1,1,1c0.6,0,1-0.4,1-1C35.2,126.6,34.7,126.1,34.2,126.1L34.2,126.1z"/>
		</g>
		<g>
			<path class="st4" d="M34.2,132.6c-0.6,0-1,0.4-1,1s0.4,1,1,1c0.6,0,1-0.4,1-1S34.7,132.6,34.2,132.6L34.2,132.6z"/>
		</g>
		<g>
			<path class="st4" d="M34.2,139.1c-0.6,0-1,0.4-1,1s0.4,1,1,1c0.6,0,1-0.4,1-1S34.7,139.1,34.2,139.1L34.2,139.1z"/>
		</g>
		<g>
			<path class="st4" d="M34.2,145.6c-0.6,0-1,0.4-1,1s0.4,1,1,1c0.6,0,1-0.4,1-1S34.7,145.6,34.2,145.6L34.2,145.6z"/>
		</g>
		<g>
			<path class="st4" d="M34.2,152.1c-0.6,0-1,0.4-1,1s0.4,1,1,1c0.6,0,1-0.4,1-1S34.7,152.1,34.2,152.1L34.2,152.1z"/>
		</g>
		<g>
			<path class="st4" d="M34.2,158.5c-0.6,0-1,0.4-1,1s0.4,1,1,1c0.6,0,1-0.4,1-1C35.2,159,34.7,158.5,34.2,158.5L34.2,158.5z"/>
		</g>
		<g>
			<path class="st4" d="M34.2,165c-0.6,0-1,0.4-1,1s0.4,1,1,1c0.6,0,1-0.4,1-1C35.2,165.5,34.7,165,34.2,165L34.2,165z"/>
		</g>
		<g>
			<path class="st4" d="M36.1,170.6c-0.6,0-1,0.4-1,1s0.4,1,1,1c0.6,0,1-0.4,1-1S36.7,170.6,36.1,170.6L36.1,170.6z"/>
		</g>
		<g>
			<path class="st4" d="M42.6,170.8c-0.6,0-1,0.4-1,1s0.4,1,1,1c0.6,0,1-0.4,1-1C43.6,171.3,43.2,170.8,42.6,170.8L42.6,170.8z"/>
		</g>
		<g>
			<path class="st4" d="M49.1,170.8c-0.6,0-1,0.4-1,1s0.4,1,1,1c0.6,0,1-0.4,1-1C50.1,171.3,49.6,170.8,49.1,170.8L49.1,170.8z"/>
		</g>
		<g>
			<path class="st4" d="M55.6,170.8c-0.6,0-1,0.4-1,1s0.4,1,1,1c0.6,0,1-0.4,1-1C56.6,171.3,56.1,170.8,55.6,170.8L55.6,170.8z"/>
		</g>
		<g>
			<path class="st4" d="M62.1,170.8c-0.6,0-1,0.4-1,1s0.4,1,1,1s1-0.4,1-1C63.1,171.3,62.6,170.8,62.1,170.8L62.1,170.8z"/>
		</g>
		<g>
			<path class="st4" d="M68.5,170.8c-0.6,0-1,0.4-1,1s0.4,1,1,1s1-0.4,1-1C69.5,171.3,69.1,170.8,68.5,170.8L68.5,170.8z"/>
		</g>
		<g>
			<path class="st4" d="M75,170.8c-0.6,0-1,0.4-1,1s0.4,1,1,1s1-0.4,1-1C76,171.3,75.6,170.8,75,170.8L75,170.8z"/>
		</g>
		<g>
			<path class="st4" d="M81.5,170.8c-0.6,0-1,0.4-1,1s0.4,1,1,1s1-0.4,1-1C82.5,171.3,82.1,170.8,81.5,170.8L81.5,170.8z"/>
		</g>
		<g>
			<path class="st4" d="M88,170.8c-0.6,0-1,0.4-1,1s0.4,1,1,1s1-0.4,1-1C89,171.3,88.6,170.8,88,170.8L88,170.8z"/>
		</g>
		<g>
			<path class="st4" d="M94.5,170.8c-0.6,0-1,0.4-1,1s0.4,1,1,1s1-0.4,1-1C95.5,171.3,95,170.8,94.5,170.8L94.5,170.8z"/>
		</g>
		<g>
			<path class="st4" d="M101,170.8c-0.6,0-1,0.4-1,1s0.4,1,1,1s1-0.4,1-1C102,171.3,101.5,170.8,101,170.8L101,170.8z"/>
		</g>
		<g>
			<path class="st4" d="M107.5,170.8c-0.6,0-1,0.4-1,1s0.4,1,1,1s1-0.4,1-1C108.5,171.3,108,170.8,107.5,170.8L107.5,170.8z"/>
		</g>
		<g>
			<path class="st4" d="M114,170.8c-0.6,0-1,0.4-1,1s0.4,1,1,1s1-0.4,1-1C115,171.3,114.5,170.8,114,170.8L114,170.8z"/>
		</g>
		<g>
			<path class="st4" d="M120.4,170.8c-0.6,0-1,0.4-1,1s0.4,1,1,1s1-0.4,1-1C121.4,171.3,121,170.8,120.4,170.8L120.4,170.8z"/>
		</g>
		<g>
			<path class="st4" d="M126.9,170.8c-0.6,0-1,0.4-1,1s0.4,1,1,1s1-0.4,1-1C127.9,171.3,127.5,170.8,126.9,170.8L126.9,170.8z"/>
		</g>
		<g>
			<path class="st4" d="M133.4,170.8c-0.6,0-1,0.4-1,1s0.4,1,1,1c0.6,0,1-0.4,1-1C134.4,171.3,134,170.8,133.4,170.8L133.4,170.8z"
				/>
		</g>
		<g>
			<path class="st4" d="M139.9,170.8c-0.6,0-1,0.4-1,1s0.4,1,1,1c0.6,0,1-0.4,1-1C140.9,171.3,140.5,170.8,139.9,170.8L139.9,170.8z
				"/>
		</g>
		<g>
			<path class="st4" d="M145.6,169c-0.6,0-1,0.4-1,1s0.4,1,1,1c0.6,0,1-0.4,1-1C146.6,169.5,146.2,169,145.6,169L145.6,169z"/>
		</g>
		<g>
			<path class="st4" d="M145.8,162.5c-0.6,0-1,0.4-1,1s0.4,1,1,1s1-0.4,1-1C146.8,163,146.4,162.5,145.8,162.5L145.8,162.5z"/>
		</g>
		<g>
			<path class="st4" d="M145.8,156c-0.6,0-1,0.4-1,1s0.4,1,1,1s1-0.4,1-1C146.8,156.5,146.4,156,145.8,156L145.8,156z"/>
		</g>
		<g>
			<path class="st4" d="M145.8,149.6c-0.6,0-1,0.4-1,1s0.4,1,1,1s1-0.4,1-1S146.4,149.6,145.8,149.6L145.8,149.6z"/>
		</g>
		<g>
			<path class="st4" d="M145.8,143.1c-0.6,0-1,0.4-1,1s0.4,1,1,1s1-0.4,1-1S146.4,143.1,145.8,143.1L145.8,143.1z"/>
		</g>
		<g>
			<path class="st4" d="M145.8,136.6c-0.6,0-1,0.4-1,1s0.4,1,1,1s1-0.4,1-1S146.4,136.6,145.8,136.6L145.8,136.6z"/>
		</g>
		<g>
			<path class="st4" d="M145.8,130.1c-0.6,0-1,0.4-1,1s0.4,1,1,1s1-0.4,1-1S146.4,130.1,145.8,130.1L145.8,130.1z"/>
		</g>
		<g>
			<path class="st4" d="M145.8,123.6c-0.6,0-1,0.4-1,1s0.4,1,1,1s1-0.4,1-1C146.8,124.1,146.4,123.6,145.8,123.6L145.8,123.6z"/>
		</g>
		<g>
			<path class="st4" d="M145.8,117.1c-0.6,0-1,0.4-1,1s0.4,1,1,1s1-0.4,1-1C146.8,117.6,146.4,117.1,145.8,117.1L145.8,117.1z"/>
		</g>
		<g>
			<path class="st4" d="M145.8,110.6c-0.6,0-1,0.4-1,1s0.4,1,1,1s1-0.4,1-1C146.8,111.1,146.4,110.6,145.8,110.6L145.8,110.6z"/>
		</g>
		<g>
			<path class="st4" d="M145.8,104.1c-0.6,0-1,0.4-1,1s0.4,1,1,1s1-0.4,1-1C146.8,104.6,146.4,104.1,145.8,104.1L145.8,104.1z"/>
		</g>
		<g>
			<path class="st4" d="M145.8,97.7c-0.6,0-1,0.4-1,1s0.4,1,1,1s1-0.4,1-1S146.4,97.7,145.8,97.7L145.8,97.7z"/>
		</g>
		<g>
			<path class="st4" d="M145.8,91.2c-0.6,0-1,0.4-1,1s0.4,1,1,1s1-0.4,1-1S146.4,91.2,145.8,91.2L145.8,91.2z"/>
		</g>
		<g>
			<path class="st4" d="M145.8,84.7c-0.6,0-1,0.4-1,1s0.4,1,1,1s1-0.4,1-1S146.4,84.7,145.8,84.7L145.8,84.7z"/>
		</g>
		<g>
			<path class="st4" d="M145.8,78.2c-0.6,0-1,0.4-1,1s0.4,1,1,1s1-0.4,1-1S146.4,78.2,145.8,78.2L145.8,78.2z"/>
		</g>
		<g>
			<path class="st4" d="M145.8,71.7c-0.6,0-1,0.4-1,1s0.4,1,1,1s1-0.4,1-1S146.4,71.7,145.8,71.7L145.8,71.7z"/>
		</g>
		<g>
			<path class="st4" d="M145.8,65.2c-0.6,0-1,0.4-1,1s0.4,1,1,1s1-0.4,1-1C146.8,65.7,146.4,65.2,145.8,65.2L145.8,65.2z"/>
		</g>
		<g>
			<path class="st4" d="M145.8,58.7c-0.6,0-1,0.4-1,1s0.4,1,1,1s1-0.4,1-1C146.8,59.2,146.4,58.7,145.8,58.7L145.8,58.7z"/>
		</g>
		<g>
			<path class="st4" d="M145.8,52.3c-0.6,0-1,0.4-1,1s0.4,1,1,1s1-0.4,1-1S146.4,52.3,145.8,52.3L145.8,52.3z"/>
		</g>
		<g>
			<path class="st4" d="M145.8,45.8c-0.6,0-1,0.4-1,1s0.4,1,1,1s1-0.4,1-1S146.4,45.8,145.8,45.8L145.8,45.8z"/>
		</g>
		<g>
			<path class="st4" d="M145.8,39.3c-0.6,0-1,0.4-1,1s0.4,1,1,1s1-0.4,1-1S146.4,39.3,145.8,39.3L145.8,39.3z"/>
		</g>
		<g>
			<path class="st4" d="M145.8,32.8c-0.6,0-1,0.4-1,1s0.4,1,1,1s1-0.4,1-1S146.4,32.8,145.8,32.8L145.8,32.8z"/>
		</g>
		<g>
			<path class="st4" d="M145.8,26.3c-0.6,0-1,0.4-1,1s0.4,1,1,1s1-0.4,1-1S146.4,26.3,145.8,26.3L145.8,26.3z"/>
		</g>
		<g>
			<path class="st4" d="M145.8,19.8c-0.6,0-1,0.4-1,1s0.4,1,1,1s1-0.4,1-1C146.8,20.3,146.4,19.8,145.8,19.8L145.8,19.8z"/>
		</g>
		<g>
			<path class="st4" d="M145.8,13.3c-0.6,0-1,0.4-1,1s0.4,1,1,1s1-0.4,1-1S146.4,13.3,145.8,13.3L145.8,13.3z"/>
		</g>
		<g>
			<path class="st4" d="M143.9,7.7c-0.6,0-1,0.4-1,1s0.4,1,1,1c0.6,0,1-0.4,1-1S144.4,7.7,143.9,7.7L143.9,7.7z"/>
		</g>
		<g>
			<path class="st4" d="M137.4,7.6c-0.6,0-1,0.4-1,1s0.4,1,1,1c0.6,0,1-0.4,1-1S137.9,7.6,137.4,7.6L137.4,7.6z"/>
		</g>
	</g>
	<ellipse class="st5" cx="90" cy="90.2" rx="47.4" ry="73.2"/>
	<g class="st3">
		<ellipse class="st4" cx="123.9" cy="161.5" rx="0.8" ry="0.8"/>
		<g>
			<path class="st4" d="M130.7,158.4l-2.7,3.2c-0.5,0.6-1.2,1.1-2.1,1.2c-0.4,0.1-0.9,0.1-1.3-0.1c-0.2-0.1-0.4-0.2-0.7-0.3
				c-0.2-0.2-0.4-0.3-0.6-0.7l1.4-0.5c-0.1-0.1,0,0,0,0.1c0.1,0.1,0.2,0.1,0.3,0.2c0.2,0.1,0.5,0.2,0.7,0.2c0.5,0,1.1-0.3,1.6-0.7
				s1-1,1.5-1.4c0.5-0.5,1-1,1.5-1.5L130.7,158.4z"/>
		</g>
		<path class="st6" d="M129.8,156.1l-0.4,1c-1.3,0.4-2.5,0.2-3.7-0.4c0,0,0.1,0.8,0.5,1.2s0.9,0.4,0.9,0.4c0.2,0.3,0.1,0.6-0.2,1
			c0.8,0.3,1.5,0,2.2-0.4c0.3-0.6,0.4-1.1,0.3-1.6"/>
		<path class="st6" d="M130.5,157c-0.4,0.1-0.7,0-0.9-0.4"/>
		<path class="st6" d="M130.3,157.7c-0.3,0.2-0.5,0.2-0.8,0"/>
		<path class="st6" d="M138.5,164.1c0,0-0.8-1.1-1.6-1.8c0.1-1.1-1.5-2.7-1.8-2.8c0.7-0.3,1.2-1.1,1.2-1.1s-1-0.5-2-0.2
			c1.5-2.2,1.6-2.8,1-3.7c0,1.1-1.5,2.9-2.8,3c-0.2,0.4-0.4,0.6-0.4,0.6s-0.2,0.2-0.5,0.5c0.1,1.3-1.6,2.9-2.7,3
			c0.9,0.6,1.5,0.4,3.6-1.3c-0.2,1.1,0.3,2,0.3,2s0.8-0.6,1-1.3c0.2,0.4,1.9,1.8,2.9,1.6C137.3,163.4,138.5,164.1,138.5,164.1z"/>
		<ellipse class="st4" cx="134.7" cy="149.8" rx="0.8" ry="0.8"/>
		<g>
			<path class="st4" d="M131.8,156.4l1.4-1.6c0.4-0.5,0.9-1.1,1.3-1.6c0.4-0.5,0.6-1.1,0.5-1.7c0-0.3-0.1-0.5-0.2-0.7
				c-0.1-0.1-0.1-0.2-0.2-0.3c-0.1-0.1-0.2-0.1-0.1,0l0.3-1.4c0.4,0.1,0.6,0.4,0.8,0.6c0.2,0.2,0.3,0.4,0.4,0.6
				c0.2,0.4,0.2,0.9,0.2,1.3c-0.1,0.9-0.5,1.6-1,2.2l-1.5,1.5c-0.5,0.5-1,1-1.5,1.5L131.8,156.4z"/>
		</g>
		<path class="st6" d="M129.8,156.1l0.9-0.4c0.3-1.3,0-2.5-0.7-3.7c0,0,0.8,0,1.3,0.4c0.4,0.4,0.5,0.9,0.5,0.9
			c0.3,0.2,0.6,0,0.9-0.3c0.4,0.8,0.2,1.5-0.2,2.2c-0.5,0.4-1.1,0.5-1.6,0.4"/>
		<path class="st6" d="M129.8,156.1c0,0,0.6-1.8-1.1-3.4c-1.7-1.6-2.6-1-2.6-1s-0.2-0.5-0.7-0.8s-1.3,0-1.3,0s-0.2,0.8,0.1,1.3
			c0.4,0.5,0.9,0.6,0.9,0.6s-0.5,0.9,1.2,2.5C128.1,156.8,129.8,156.1,129.8,156.1"/>
		<path class="st6" d="M130.6,156.8c0,0,0.8-0.6,1.4-0.2c0.8,0.6,0,1.5,0,1.5s-0.9,0.9-1.5,0.1C130,157.7,130.6,156.8,130.6,156.8z"
			/>
		<path class="st6" d="M130.7,156.7c0.1-0.4-0.1-0.6-0.5-0.8"/>
		<path class="st6" d="M131.4,156.4c0.2-0.3,0.2-0.5,0-0.8"/>
		<ellipse transform="matrix(0.68 -0.7332 0.7332 0.68 -76.5014 155.3988)" class="st4" cx="139.8" cy="165.3" rx="0.3" ry="0.5"/>
	</g>
	<g class="st3">
		<ellipse class="st4" cx="43.9" cy="149.6" rx="0.8" ry="0.8"/>
		<g>
			<path class="st4" d="M47,156.3l-3.2-2.8c-0.6-0.5-1.1-1.2-1.2-2.1c-0.1-0.4-0.1-0.9,0.1-1.3c0.1-0.2,0.2-0.4,0.3-0.7
				c0.2-0.2,0.3-0.4,0.7-0.6l0.5,1.4c0.1-0.1,0,0-0.1,0c-0.1,0.1-0.1,0.2-0.2,0.3c-0.1,0.2-0.2,0.5-0.2,0.7c0,0.5,0.3,1.1,0.7,1.6
				c0.4,0.5,1,1,1.4,1.5c0.5,0.5,1,1,1.5,1.5L47,156.3z"/>
		</g>
		<path class="st6" d="M49.3,155.4l-1-0.4c-0.4-1.3-0.2-2.5,0.4-3.7c0,0-0.8,0.1-1.2,0.5s-0.4,0.9-0.4,0.9c-0.3,0.2-0.6,0.1-0.9-0.2
			c-0.3,0.8,0,1.5,0.4,2.2c0.6,0.3,1.1,0.4,1.6,0.3"/>
		<path class="st6" d="M48.5,156.1c-0.1-0.4,0-0.7,0.4-0.9"/>
		<path class="st6" d="M47.8,155.9c-0.2-0.3-0.2-0.5,0-0.8"/>
		<path class="st6" d="M41.3,164.2c0,0,1.1-0.8,1.8-1.6c1.1,0.1,2.7-1.5,2.8-1.8c0.3,0.7,1.1,1.2,1.1,1.2s0.5-1,0.2-2
			c2.2,1.5,2.8,1.6,3.7,1c-1.1,0-2.9-1.5-3-2.8c-0.3-0.2-0.6-0.4-0.6-0.4s-0.2-0.2-0.5-0.5c-1.3,0.1-2.9-1.6-3-2.7
			c-0.6,0.9-0.4,1.5,1.3,3.6c-1.1-0.2-2,0.3-2,0.3s0.6,0.8,1.3,1c-0.4,0.2-1.8,1.9-1.6,3C42,163,41.3,164.2,41.3,164.2z"/>
		<ellipse class="st4" cx="55.6" cy="160.4" rx="0.8" ry="0.8"/>
		<g>
			<path class="st4" d="M49,157.4l1.6,1.4c0.5,0.4,1.1,1,1.6,1.3c0.5,0.4,1.1,0.6,1.6,0.5c0.3,0,0.5-0.1,0.7-0.2
				c0.1-0.1,0.2-0.1,0.3-0.2c0.1-0.1,0.1-0.2,0-0.1l1.4,0.3c-0.1,0.4-0.4,0.6-0.6,0.8c-0.2,0.2-0.4,0.3-0.6,0.4
				c-0.4,0.2-0.9,0.2-1.3,0.2c-0.9-0.1-1.6-0.5-2.2-1l-1.5-1.5c-0.5-0.5-1-1-1.5-1.5L49,157.4z"/>
		</g>
		<path class="st6" d="M49.3,155.4l0.4,1c1.3,0.3,2.5,0,3.7-0.7c0,0,0,0.8-0.4,1.3c-0.4,0.4-0.9,0.5-0.9,0.5c-0.2,0.3,0,0.6,0.3,0.9
			c-0.8,0.4-1.5,0.2-2.2-0.2c-0.4-0.5-0.5-1.1-0.4-1.6"/>
		<path class="st6" d="M49.3,155.4c0,0,1.8,0.6,3.4-1.1c1.6-1.7,1-2.6,1-2.6s0.5-0.2,0.8-0.7c0.3-0.5,0-1.3,0-1.3s-0.8-0.2-1.3,0.1
			c-0.5,0.4-0.6,0.9-0.6,0.9s-0.9-0.5-2.5,1.2C48.6,153.7,49.3,155.4,49.3,155.4"/>
		<path class="st6" d="M48.6,156.2c0,0,0.6,0.8,0.2,1.4c-0.6,0.8-1.5,0-1.5,0s-0.9-0.9-0.1-1.5C47.7,155.7,48.6,156.2,48.6,156.2z"
			/>
		<path class="st6" d="M48.7,156.4c0.4,0.1,0.6-0.1,0.8-0.5"/>
		<path class="st6" d="M49,157.1c0.3,0.2,0.5,0.2,0.8,0"/>
		
			<ellipse transform="matrix(0.6735 -0.7392 0.7392 0.6735 -109.2521 83.6808)" class="st4" cx="40.1" cy="165.5" rx="0.5" ry="0.3"/>
	</g>
	<g class="st3">
		<g>
			<g>
				<path class="st4" d="M89.3,165.6c0,0.1-0.9,0.2-2.4,0.2c-1.6,0-3.9-0.1-6.6-0.7c-1.4-0.3-2.9-0.9-4.4-1.4
					c-0.8-0.3-1.5-0.4-2.3-0.3c-0.8,0.1-1.6,0.3-2.5,0.6c-1.7,0.6-3.5,1.4-5.5,1.9c-1,0.3-2.1,0.4-3.2,0.4c-1.2,0-2.4-0.5-3.3-1.2
					c-1.9-1.5-2.6-4.3-1.3-6.4c1.2-2,4-2.8,5.8-1.5c0.9,0.6,1.5,1.7,1.5,2.7c0.1,1-0.4,2.1-1.2,2.7c-0.8,0.6-1.9,0.7-2.8,0.3
					c-0.9-0.4-1.4-1.3-1.3-2.2c0-0.9,0.7-1.7,1.4-1.9c0.4-0.1,0.8-0.1,1.1,0c0.4,0.1,0.6,0.4,0.8,0.7c0.4,0.6,0.2,1.4-0.3,1.8
					c-0.5,0.4-1.2,0.3-1.5-0.1c-0.3-0.4-0.3-0.9-0.1-1.2c0.3-0.3,0.6-0.3,0.9-0.2c0.2,0.1,0.3,0.3,0.3,0.4c0,0.1,0,0.2,0,0.2
					s-0.1-0.3-0.4-0.4c-0.1,0-0.4,0-0.5,0.2s-0.1,0.5,0.1,0.7c0.2,0.2,0.6,0.2,0.8,0c0.3-0.2,0.3-0.6,0.1-1s-0.7-0.5-1.1-0.4
					c-0.4,0.1-0.8,0.6-0.8,1.1s0.4,1.1,0.9,1.3s1.2,0.1,1.8-0.3c0.5-0.4,0.8-1.1,0.8-1.8c-0.1-0.7-0.5-1.4-1.1-1.8
					c-1.2-0.9-3.3-0.3-4.2,1.2c-0.9,1.5-0.4,3.7,1.1,4.8c0.7,0.6,1.6,0.9,2.5,0.9c1,0,1.9-0.1,2.9-0.4c1.9-0.5,3.7-1.2,5.5-1.8
					c0.9-0.3,1.8-0.5,2.8-0.6s1.9,0.2,2.7,0.5c1.6,0.6,2.9,1.2,4.3,1.5c2.7,0.7,4.9,0.9,6.5,1.1C88.4,165.4,89.3,165.5,89.3,165.6z"
					/>
			</g>
		</g>
	</g>
	<g class="st3">
		<g>
			<g>
				<path class="st4" d="M91,165.6c0-0.1,0.9-0.2,2.4-0.3s3.8-0.3,6.4-1c1.3-0.3,2.7-0.9,4.2-1.5c0.8-0.3,1.7-0.5,2.7-0.5
					c0.9,0,1.9,0.3,2.7,0.6c1.8,0.6,3.5,1.3,5.4,1.8c0.9,0.2,1.9,0.4,2.8,0.3c0.9,0,1.8-0.4,2.5-0.9c1.4-1.2,1.9-3.3,1.1-4.8
					s-2.9-2.1-4.1-1.2c-0.6,0.4-1,1.1-1.1,1.8s0.2,1.4,0.8,1.7c0.5,0.4,1.2,0.5,1.7,0.3s0.9-0.8,0.9-1.3s-0.3-1-0.8-1.1
					c-0.5-0.2-0.9,0-1.1,0.4s-0.2,0.8,0.1,1c0.3,0.2,0.6,0.2,0.8,0c0.2-0.2,0.2-0.5,0.1-0.7s-0.3-0.2-0.5-0.2
					c-0.3,0.1-0.3,0.4-0.4,0.4c0,0,0-0.1,0-0.2c0-0.1,0.1-0.3,0.3-0.4c0.2-0.1,0.6-0.1,0.9,0.2s0.3,0.8-0.1,1.2
					c-0.3,0.4-1,0.5-1.5,0.1s-0.7-1.2-0.3-1.8c0.2-0.3,0.4-0.6,0.8-0.7c0.4-0.1,0.8-0.1,1.1,0c0.8,0.2,1.4,1,1.4,1.9
					c0,0.8-0.5,1.7-1.3,2.2c-0.9,0.4-1.9,0.3-2.7-0.3c-0.8-0.5-1.3-1.6-1.2-2.6c0.1-1,0.6-2,1.5-2.7c1.8-1.3,4.6-0.5,5.8,1.5
					c1.2,2,0.5,4.8-1.3,6.3c-0.9,0.8-2.1,1.2-3.2,1.2s-2.2-0.2-3.2-0.4c-2-0.5-3.8-1.3-5.5-1.9c-0.8-0.3-1.7-0.5-2.5-0.6
					s-1.5,0.1-2.3,0.3c-1.5,0.5-3,1.1-4.3,1.4c-2.8,0.6-5,0.7-6.6,0.7C91.9,165.7,91,165.6,91,165.6z"/>
			</g>
		</g>
	</g>
	<g class="st3">
		<ellipse class="st4" cx="123.9" cy="18.3" rx="0.8" ry="0.8"/>
		<g>
			<path class="st4" d="M130.3,21.7l-1.5-1.5c-0.5-0.5-1-1-1.5-1.5c-0.5-0.4-1.1-0.7-1.6-0.7c-0.3,0-0.5,0-0.7,0.2
				c-0.1,0.1-0.2,0.1-0.3,0.2c-0.1,0.1-0.1,0.2-0.1,0.1l-1.4-0.5c0.2-0.4,0.4-0.6,0.6-0.7c0.2-0.2,0.4-0.2,0.7-0.3
				c0.4-0.1,0.9-0.2,1.3-0.1c0.9,0.2,1.6,0.7,2.1,1.2l1.4,1.6c0.4,0.5,0.9,1.1,1.4,1.6L130.3,21.7z"/>
		</g>
		<path class="st6" d="M129.8,23.7l-0.4-1c-1.3-0.4-2.5-0.2-3.7,0.4c0,0,0.1-0.8,0.5-1.2s0.9-0.4,0.9-0.4c0.2-0.3,0.1-0.6-0.2-1
			c0.8-0.3,1.5,0,2.2,0.4c0.3,0.6,0.4,1.1,0.3,1.6"/>
		<path class="st6" d="M130.5,22.8c-0.4-0.1-0.7,0-0.9,0.4"/>
		<path class="st6" d="M130.3,22.1c-0.3-0.2-0.5-0.2-0.8,0"/>
		<path class="st6" d="M138.5,15.7c0,0-0.8,1.1-1.6,1.8c0.1,1.1-1.5,2.7-1.8,2.8c0.7,0.3,1.2,1.1,1.2,1.1s-1,0.5-2,0.2
			c1.5,2.2,1.6,2.8,1,3.7c0-1.1-1.5-2.9-2.8-3c-0.2-0.4-0.4-0.6-0.4-0.6s-0.2-0.2-0.5-0.5c0.1-1.3-1.6-2.9-2.7-3
			c0.9-0.6,1.5-0.4,3.6,1.3c-0.2-1.1,0.3-2,0.3-2s0.8,0.6,1,1.3c0.2-0.4,1.9-1.8,2.9-1.6C137.3,16.4,138.5,15.7,138.5,15.7z"/>
		<ellipse class="st4" cx="134.7" cy="30" rx="0.8" ry="0.8"/>
		<g>
			<path class="st4" d="M132.2,23l3,3c0.5,0.6,1,1.3,1,2.2c0,0.4,0,0.9-0.2,1.3c-0.1,0.2-0.2,0.4-0.4,0.6c-0.2,0.2-0.3,0.4-0.8,0.5
				l-0.3-1.4c-0.1,0.1,0,0,0.1,0c0.1-0.1,0.1-0.2,0.2-0.3c0.1-0.2,0.2-0.5,0.2-0.7c0-0.5-0.2-1.1-0.5-1.7c-0.4-0.5-0.9-1.1-1.3-1.6
				s-0.9-1.1-1.4-1.6L132.2,23z"/>
		</g>
		<path class="st6" d="M129.8,23.7l0.9,0.4c0.3,1.3,0,2.5-0.7,3.7c0,0,0.8,0,1.3-0.4c0.4-0.4,0.5-0.9,0.5-0.9c0.3-0.2,0.6,0,0.9,0.3
			c0.4-0.8,0.2-1.5-0.2-2.2c-0.5-0.4-1.1-0.5-1.6-0.4"/>
		<path class="st6" d="M129.8,23.7c0,0,0.6,1.8-1.1,3.4c-1.7,1.6-2.6,1-2.6,1s-0.2,0.5-0.7,0.8s-1.3,0-1.3,0s-0.2-0.8,0.1-1.3
			c0.4-0.5,0.9-0.6,0.9-0.6s-0.5-0.9,1.2-2.5C128.1,22.9,129.8,23.7,129.8,23.7"/>
		<path class="st6" d="M130.6,23c0,0,0.8,0.6,1.4,0.2c0.8-0.6,0-1.5,0-1.5s-0.9-0.9-1.5-0.1C130,22.1,130.6,23,130.6,23z"/>
		<path class="st6" d="M130.7,23.1c0.1,0.4-0.1,0.6-0.5,0.8"/>
		<path class="st6" d="M131.4,23.3c0.2,0.3,0.2,0.5,0,0.8"/>
		<ellipse transform="matrix(0.7332 -0.68 0.68 0.7332 27.4791 98.9025)" class="st4" cx="139.8" cy="14.4" rx="0.5" ry="0.3"/>
	</g>
	<g class="st3">
		<g>
			<g>
				<path class="st4" d="M89.3,15c0,0.1-0.9,0.2-2.4,0.3s-3.8,0.4-6.5,1.1c-1.3,0.4-2.7,0.9-4.3,1.5c-0.8,0.3-1.7,0.5-2.7,0.5
					s-1.9-0.3-2.8-0.6c-1.8-0.6-3.6-1.4-5.5-1.8c-0.9-0.2-1.9-0.4-2.9-0.4c-0.9,0-1.8,0.4-2.5,0.9c-1.4,1.2-2,3.4-1.1,4.8
					c0.8,1.5,2.9,2.1,4.2,1.2c0.6-0.4,1-1.1,1.1-1.8c0.1-0.7-0.2-1.4-0.8-1.8c-0.5-0.4-1.2-0.5-1.8-0.3c-0.5,0.2-0.9,0.8-0.9,1.3
					s0.3,1,0.8,1.1c0.5,0.2,0.9,0,1.1-0.4c0.2-0.4,0.2-0.8-0.1-1s-0.6-0.2-0.8,0s-0.2,0.5-0.1,0.7c0.1,0.2,0.3,0.3,0.5,0.2
					c0.3-0.1,0.3-0.4,0.4-0.4c0,0,0,0.1,0,0.2s-0.1,0.3-0.3,0.4s-0.6,0.1-0.9-0.2c-0.3-0.3-0.3-0.9,0.1-1.2c0.3-0.4,1.1-0.5,1.5-0.1
					c0.5,0.4,0.7,1.2,0.3,1.8c-0.2,0.3-0.5,0.6-0.8,0.7c-0.4,0.2-0.8,0.1-1.1,0c-0.8-0.2-1.4-1-1.4-1.9s0.5-1.8,1.3-2.2
					c0.9-0.4,1.9-0.3,2.8,0.3c0.8,0.6,1.3,1.6,1.2,2.7c-0.1,1-0.6,2.1-1.5,2.7c-1.9,1.3-4.7,0.5-5.8-1.5c-1.2-2.1-0.5-4.9,1.3-6.4
					c0.9-0.8,2.1-1.2,3.3-1.2c1.1,0,2.2,0.2,3.2,0.4c2,0.5,3.8,1.3,5.5,1.9c0.9,0.3,1.7,0.5,2.5,0.6c0.8,0.1,1.5-0.1,2.3-0.3
					c1.5-0.5,3-1.1,4.4-1.4c2.8-0.6,5.1-0.7,6.6-0.7C88.4,14.8,89.3,14.9,89.3,15z"/>
			</g>
		</g>
	</g>
	<g class="st3">
		<g>
			<g>
				<path class="st4" d="M91,15c0-0.1,0.9-0.2,2.4-0.2c1.6,0,3.8,0.1,6.6,0.7c1.4,0.3,2.9,0.9,4.3,1.4c0.7,0.3,1.5,0.4,2.3,0.3
					s1.6-0.3,2.5-0.6c1.7-0.6,3.5-1.4,5.5-1.9c1-0.2,2.1-0.4,3.2-0.4c1.2,0,2.3,0.5,3.2,1.2c1.8,1.5,2.5,4.3,1.3,6.3
					c-1.1,2-3.9,2.8-5.8,1.5c-0.9-0.6-1.4-1.6-1.5-2.7c-0.1-1,0.4-2.1,1.2-2.6c0.8-0.6,1.9-0.7,2.7-0.3c0.9,0.4,1.4,1.3,1.3,2.2
					c0,0.9-0.6,1.7-1.4,1.9c-0.4,0.1-0.8,0.1-1.1,0c-0.4-0.1-0.6-0.4-0.8-0.7c-0.4-0.6-0.2-1.4,0.3-1.8s1.2-0.3,1.5,0.1
					s0.3,0.9,0.1,1.2c-0.3,0.3-0.6,0.3-0.9,0.2c-0.2-0.1-0.3-0.3-0.3-0.4s0-0.2,0-0.2s0.1,0.3,0.4,0.4c0.1,0,0.4,0,0.5-0.2
					s0.1-0.5-0.1-0.7s-0.6-0.2-0.8,0c-0.3,0.2-0.3,0.6-0.1,1c0.2,0.3,0.7,0.5,1.1,0.4s0.8-0.6,0.8-1.1s-0.3-1.1-0.9-1.3
					c-0.5-0.2-1.2-0.1-1.7,0.3s-0.8,1-0.8,1.7c0.1,0.7,0.5,1.4,1.1,1.8c1.2,0.9,3.3,0.3,4.1-1.2c0.9-1.4,0.4-3.6-1.1-4.8
					c-0.7-0.6-1.6-0.9-2.5-0.9c-1,0-1.9,0.1-2.8,0.3c-1.9,0.4-3.6,1.2-5.4,1.8c-0.9,0.3-1.8,0.5-2.7,0.6c-0.9,0.1-1.9-0.2-2.7-0.5
					c-1.6-0.6-2.9-1.2-4.2-1.5c-2.6-0.7-4.9-0.9-6.4-1C91.9,15.1,91,15.1,91,15z"/>
			</g>
		</g>
	</g>
	<g class="st3">
		<ellipse class="st4" cx="55.7" cy="18" rx="0.8" ry="0.8"/>
		<g>
			<path class="st4" d="M49,21.1l2.7-3.2c0.5-0.6,1.2-1.1,2.1-1.2c0.4-0.1,0.9-0.1,1.3,0.1c0.2,0.1,0.4,0.2,0.7,0.3
				c0.2,0.2,0.4,0.3,0.6,0.7L55,18.2c0.1,0.1,0,0,0-0.1c-0.1-0.1-0.2-0.1-0.3-0.2c-0.2-0.1-0.5-0.2-0.7-0.2c-0.5,0-1.1,0.3-1.6,0.7
				c-0.5,0.4-1,1-1.5,1.4c-0.5,0.5-1,1-1.5,1.5L49,21.1z"/>
		</g>
		<path class="st6" d="M49.9,23.4l0.4-1c1.3-0.4,2.5-0.2,3.7,0.4c0,0-0.1-0.8-0.5-1.2s-0.9-0.4-0.9-0.4c-0.2-0.3-0.1-0.6,0.2-1
			c-0.8-0.3-1.5,0-2.2,0.4c-0.3,0.6-0.4,1.1-0.3,1.6"/>
		<path class="st6" d="M49.2,22.5c0.4-0.1,0.7,0,0.9,0.4"/>
		<path class="st6" d="M49.4,21.8c0.3-0.2,0.5-0.2,0.8,0"/>
		<path class="st6" d="M41.2,15.4c0,0,0.8,1.1,1.6,1.8c-0.1,1.1,1.5,2.7,1.8,2.8c-0.7,0.3-1.2,1.1-1.2,1.1s1,0.5,2,0.2
			c-1.5,2.2-1.6,2.8-1,3.7c0-1.1,1.5-2.9,2.8-3c0.2-0.4,0.4-0.6,0.4-0.6s0.2-0.2,0.5-0.5c-0.1-1.3,1.6-2.9,2.7-3
			c-0.9-0.6-1.5-0.4-3.6,1.3c0.2-1.1-0.3-2-0.3-2s-0.8,0.6-1,1.3c-0.2-0.4-1.9-1.8-2.9-1.6C42.3,16.1,41.2,15.4,41.2,15.4z"/>
		<ellipse class="st4" cx="45" cy="29.7" rx="0.8" ry="0.8"/>
		<g>
			<path class="st4" d="M47.9,23.1l-1.4,1.6c-0.4,0.5-0.9,1.1-1.3,1.6s-0.6,1.1-0.5,1.7c0,0.3,0.1,0.5,0.2,0.7
				c0.1,0.1,0.1,0.2,0.2,0.3c0.1,0.1,0.2,0.1,0.1,0l-0.3,1.4c-0.4-0.1-0.6-0.4-0.8-0.6c-0.2-0.2-0.3-0.4-0.4-0.6
				c-0.2-0.4-0.2-0.9-0.2-1.3c0.1-0.9,0.5-1.6,1-2.2l1.5-1.5c0.5-0.5,1-1,1.5-1.5L47.9,23.1z"/>
		</g>
		<path class="st6" d="M49.9,23.4L49,23.8c-0.3,1.3,0,2.5,0.7,3.7c0,0-0.8,0-1.3-0.4s-0.5-0.9-0.5-0.9c-0.3-0.2-0.6,0-0.9,0.3
			c-0.4-0.8-0.2-1.5,0.2-2.2c0.5-0.4,1.1-0.5,1.6-0.4"/>
		<path class="st6" d="M49.9,23.4c0,0-0.6,1.8,1.1,3.4s2.6,1,2.6,1s0.2,0.5,0.7,0.8s1.3,0,1.3,0s0.2-0.8-0.1-1.3
			c-0.4-0.5-0.9-0.6-0.9-0.6s0.5-0.9-1.2-2.5C51.6,22.6,49.9,23.4,49.9,23.4"/>
		<path class="st6" d="M49.1,22.7c0,0-0.8,0.6-1.4,0.2c-0.8-0.6,0-1.5,0-1.5s0.9-0.9,1.5-0.1C49.7,21.8,49.1,22.7,49.1,22.7z"/>
		<path class="st6" d="M48.9,22.8c-0.1,0.4,0.1,0.6,0.5,0.8"/>
		<path class="st6" d="M48.3,23c-0.2,0.3-0.2,0.5,0,0.8"/>
		<ellipse transform="matrix(0.68 -0.7332 0.7332 0.68 2.3611 33.6886)" class="st4" cx="39.8" cy="14.1" rx="0.3" ry="0.5"/>
	</g>
	<g class="st3">
		<g>
			<g>
				<path class="st4" d="M40.5,89.1c-0.1,0-0.2-1.2-0.2-3.4c0-2.2,0.1-5.4,0.3-9.4c0.2-3.9,0.5-8.6,1-13.8c0.2-2.6,0.4-5.3,0.7-8.2
					c0.1-1.4,0.2-2.8,0.3-4.3c0-0.7,0.1-1.5,0.1-2.2s-0.2-1.4-0.4-2.1c-0.8-2.8-2.3-5.5-2.4-8.6c-0.1-0.7,0-1.6,0.2-2.3
					s0.6-1.4,1.2-2c1-1.1,2.5-1.8,4-1.7c1.5,0,2.9,0.9,3.6,2.1c0.7,1.2,0.9,2.7,0.2,4c-0.6,1.2-2,1.9-3.2,1.9c-1.3,0-2.4-1-2.7-2.1
					c-0.1-0.6-0.1-1.2,0.1-1.7c0.2-0.5,0.6-0.9,1.1-1.2c0.5-0.2,1-0.3,1.5-0.2s0.9,0.5,1.2,0.9c0.2,0.4,0.3,0.9,0.2,1.3
					c-0.1,0.4-0.4,0.8-0.8,1s-0.8,0.2-1.2,0.1c-0.4-0.1-0.6-0.4-0.7-0.8c-0.1-0.3-0.1-0.7,0.1-0.9c0.2-0.3,0.4-0.4,0.7-0.5
					c0.6-0.1,0.9,0.4,0.9,0.7c0,0.4-0.2,0.6-0.4,0.6c-0.2,0-0.2,0-0.2,0s0.1,0,0.2-0.1c0.1-0.1,0.2-0.2,0.2-0.5
					c0-0.2-0.3-0.5-0.6-0.4s-0.6,0.5-0.4,0.9c0.2,0.4,0.7,0.6,1.2,0.3s0.6-0.9,0.3-1.5c-0.3-0.5-1.1-0.7-1.7-0.4
					c-0.6,0.3-1,1.1-0.7,1.9c0.2,0.8,1,1.4,1.9,1.4s1.8-0.5,2.3-1.4c0.5-0.8,0.3-2-0.2-2.9c-0.6-0.9-1.6-1.5-2.7-1.5
					s-2.3,0.5-3.1,1.4c-0.8,0.9-1.2,2.1-1.1,3.4c0.1,1.3,0.4,2.7,0.9,4.1c0.5,1.4,1,2.7,1.5,4.2c0.2,0.7,0.4,1.5,0.4,2.4
					c0,0.8-0.1,1.5-0.1,2.3c-0.1,1.5-0.2,2.9-0.4,4.3c-0.3,2.8-0.5,5.6-0.7,8.2c-0.5,5.2-0.9,9.9-1.2,13.8c-0.3,3.9-0.6,7.1-0.7,9.3
					C40.7,87.9,40.6,89.1,40.5,89.1z"/>
			</g>
		</g>
	</g>
	<g class="st3">
		<g>
			<g>
				<path class="st4" d="M40.5,90.8c0.1,0,0.2,1.2,0.3,3.4c0.1,2.2,0.4,5.3,0.7,9.2c0.3,3.9,0.7,8.5,1.2,13.7
					c0.2,2.6,0.5,5.3,0.7,8.1c0.1,1.4,0.2,2.8,0.3,4.3c0,0.7,0.1,1.5,0.1,2.2c0,0.8-0.2,1.6-0.4,2.4c-0.4,1.5-1,2.9-1.5,4.2
					s-0.8,2.7-0.9,4c0,0.7,0,1.3,0.1,1.9c0.2,0.6,0.5,1.1,0.9,1.6c0.8,0.9,1.9,1.4,3.1,1.4c1.1,0,2.2-0.6,2.7-1.5
					c0.6-0.9,0.7-2,0.3-2.9c-0.4-0.9-1.3-1.4-2.2-1.4s-1.7,0.6-1.9,1.4c-0.3,0.8,0.1,1.6,0.7,1.9c0.6,0.4,1.4,0.2,1.7-0.3
					c0.4-0.5,0.2-1.2-0.2-1.5c-0.5-0.3-1-0.1-1.2,0.3c-0.2,0.4,0.1,0.8,0.4,0.9c0.3,0.1,0.6-0.1,0.6-0.4c0.1-0.2-0.1-0.4-0.2-0.5
					c-0.1-0.1-0.2-0.1-0.2-0.1s0.1-0.1,0.2,0c0.2,0,0.4,0.3,0.4,0.6s-0.4,0.8-0.9,0.7c-0.3,0-0.5-0.2-0.7-0.5
					c-0.2-0.3-0.2-0.6-0.1-0.9c0.1-0.3,0.4-0.6,0.7-0.7c0.4-0.1,0.8-0.1,1.1,0.1c0.4,0.2,0.7,0.6,0.8,1c0.1,0.4,0,0.9-0.2,1.3
					c-0.2,0.4-0.7,0.7-1.2,0.9c-0.5,0.1-1,0-1.5-0.2s-0.9-0.7-1.1-1.2s-0.2-1.1-0.1-1.7c0.3-1.1,1.4-2.1,2.7-2.1
					c1.2,0,2.5,0.7,3.1,1.9s0.5,2.7-0.3,3.9c-0.7,1.2-2.1,2-3.6,2c-1.4,0-2.9-0.6-3.9-1.8c-0.5-0.6-0.9-1.3-1.1-2
					c-0.2-0.7-0.2-1.6-0.2-2.3c0.2-3,1.6-5.7,2.4-8.5c0.2-0.7,0.3-1.4,0.3-2c0-0.7-0.1-1.4-0.1-2.2c-0.1-1.4-0.2-2.9-0.3-4.3
					c-0.2-2.8-0.4-5.5-0.6-8.1c-0.4-5.2-0.7-9.8-0.9-13.7c-0.2-3.9-0.3-7.1-0.3-9.3C40.4,92,40.5,90.8,40.5,90.8z"/>
			</g>
		</g>
	</g>
	<g class="st3">
		<g>
			<g>
				<path class="st4" d="M139.3,89.1c-0.1,0-0.2-1.2-0.3-3.4c-0.1-2.2-0.4-5.4-0.7-9.3s-0.8-8.6-1.2-13.8c-0.2-2.6-0.5-5.3-0.7-8.2
					c-0.1-1.4-0.2-2.9-0.4-4.3c0-0.7-0.1-1.5-0.1-2.3s0.2-1.6,0.4-2.4c0.4-1.5,1-2.9,1.5-4.2c0.5-1.4,0.8-2.7,0.9-4.1
					c0.1-1.3-0.2-2.5-1.1-3.4c-0.8-0.9-2-1.4-3.1-1.4s-2.2,0.6-2.7,1.5c-0.6,0.9-0.7,2.1-0.2,2.9c0.4,0.9,1.4,1.4,2.3,1.4
					s1.7-0.6,1.9-1.4c0.3-0.8-0.1-1.6-0.7-1.9c-0.6-0.4-1.4-0.2-1.7,0.4c-0.4,0.5-0.2,1.2,0.3,1.5s1,0.1,1.2-0.3
					c0.2-0.4-0.1-0.8-0.4-0.9c-0.3-0.1-0.6,0.1-0.6,0.4c-0.1,0.2,0.1,0.4,0.2,0.5c0.1,0.1,0.2,0.1,0.2,0.1s-0.1,0.1-0.2,0
					c-0.2,0-0.4-0.3-0.4-0.6s0.4-0.8,0.9-0.7c0.3,0,0.5,0.2,0.7,0.5c0.2,0.3,0.2,0.6,0.1,0.9c-0.1,0.3-0.4,0.6-0.7,0.8
					c-0.4,0.1-0.8,0.1-1.2-0.1c-0.4-0.2-0.7-0.6-0.8-1c-0.1-0.5,0-0.9,0.2-1.3c0.2-0.4,0.7-0.7,1.2-0.9c0.5-0.1,1-0.1,1.5,0.2
					c0.5,0.2,0.9,0.7,1.1,1.2c0.2,0.5,0.2,1.1,0.1,1.7c-0.3,1.1-1.4,2.1-2.7,2.1c-1.2,0.1-2.6-0.6-3.2-1.9c-0.7-1.2-0.5-2.8,0.2-4
					s2.1-2.1,3.6-2.1s3,0.6,4,1.7c0.5,0.6,0.9,1.2,1.2,2c0.3,0.7,0.3,1.6,0.2,2.3c-0.2,3-1.6,5.8-2.4,8.6c-0.2,0.7-0.3,1.4-0.4,2.1
					c0,0.7,0.1,1.4,0.1,2.2c0.1,1.5,0.2,2.9,0.3,4.3c0.2,2.8,0.4,5.6,0.7,8.2c0.4,5.2,0.7,9.9,1,13.8c0.2,3.9,0.3,7.1,0.3,9.4
					C139.5,87.9,139.4,89.1,139.3,89.1z"/>
			</g>
		</g>
	</g>
	<g class="st3">
		<g>
			<g>
				<path class="st4" d="M139.3,90.8c0.1,0,0.2,1.2,0.2,3.4c0,2.2-0.1,5.4-0.3,9.3s-0.5,8.6-0.9,13.7c-0.2,2.6-0.4,5.3-0.6,8.1
					c-0.1,1.4-0.2,2.8-0.3,4.3c0,0.7-0.1,1.5-0.1,2.2s0.1,1.3,0.3,2c0.8,2.7,2.2,5.5,2.4,8.5c0,0.7,0,1.5-0.2,2.3
					c-0.2,0.7-0.6,1.4-1.1,2c-1,1.1-2.5,1.8-3.9,1.8c-1.5,0-2.9-0.8-3.6-2c-0.7-1.2-0.9-2.7-0.3-3.9c0.6-1.2,1.9-1.9,3.1-1.9
					c1.3,0,2.4,0.9,2.7,2.1c0.2,0.5,0.2,1.1-0.1,1.7c-0.2,0.5-0.6,0.9-1.1,1.2c-0.5,0.2-1,0.3-1.5,0.2s-0.9-0.4-1.2-0.9
					c-0.2-0.4-0.3-0.9-0.2-1.3c0.1-0.4,0.4-0.8,0.8-1s0.8-0.2,1.1-0.1c0.4,0.1,0.6,0.4,0.7,0.7c0.1,0.3,0.1,0.7-0.1,0.9
					c-0.2,0.3-0.4,0.4-0.7,0.5c-0.5,0.1-0.9-0.4-0.9-0.7c0-0.4,0.2-0.6,0.4-0.6s0.2,0,0.2,0s-0.1,0-0.2,0.1s-0.2,0.2-0.2,0.5
					c0,0.2,0.3,0.5,0.6,0.4c0.3-0.1,0.6-0.5,0.4-0.9s-0.7-0.6-1.2-0.3s-0.6,0.9-0.2,1.5c0.3,0.5,1.1,0.7,1.7,0.3
					c0.6-0.3,1-1.1,0.7-1.9c-0.2-0.8-1-1.4-1.9-1.4c-0.9,0-1.8,0.5-2.2,1.4c-0.4,0.8-0.3,2,0.3,2.9c0.6,0.9,1.6,1.5,2.7,1.5
					c1.1,0,2.3-0.5,3.1-1.4c0.4-0.4,0.7-1,0.9-1.6c0.2-0.6,0.2-1.2,0.1-1.9c-0.1-1.3-0.5-2.7-0.9-4c-0.5-1.4-1-2.7-1.5-4.2
					c-0.2-0.7-0.4-1.5-0.4-2.4c0-0.8,0.1-1.5,0.1-2.2c0.1-1.5,0.2-2.9,0.3-4.3c0.2-2.8,0.5-5.5,0.7-8.1c0.4-5.2,0.9-9.8,1.2-13.7
					c0.3-3.9,0.6-7.1,0.7-9.2C139.1,92,139.2,90.8,139.3,90.8z"/>
			</g>
		</g>
	</g>
</g>
<g>
	<defs>
		<path id="SVGID_3_" d="M31,0h118c2.8,0,5,2.2,5,5v170c0,2.8-2.2,5-5,5H31c-2.8,0-5-2.2-5-5V5C26,2.2,28.2,0,31,0z"/>
	</defs>
	<clipPath id="SVGID_4_">
		<use xlink:href="#SVGID_3_"  style="overflow:visible;"/>
	</clipPath>
	<g class="st7">
		
			<image style="display:inline;overflow:visible;" width="225" height="225" id="AUIut0" xlink:href="31B7E87ADD48686.jpg"  transform="matrix(0.5467 0 0 0.5467 28.5 28.5)">
		</image>
	</g>
	<g class="st7">
		
			<image style="display:inline;overflow:visible;" width="700" height="466" id="Hk13vS" xlink:href="31B7E87ADD4868A.jpg"  transform="matrix(0.2146 0 0 0.2146 14.8927 40)">
		</image>
	</g>
	<g class="st7">
		
			<image style="display:inline;overflow:visible;" width="612" height="554" id="Xm2j6l" xlink:href="31B7E87ADD4868D.jpg"  transform="matrix(0.2238 0 0 0.2238 21.509 28)">
		</image>
	</g>
	<g class="st7">
		
			<image style="display:inline;overflow:visible;" width="450" height="450" id="OYYhMm" xlink:href="31B7E87ADD4868E.jpg"  transform="matrix(0.2844 0 0 0.2844 26 26)">
		</image>
	</g>
	<g transform="matrix(1 0 0 1 0 0)" class="st7">
		
			<image style="display:inline;overflow:visible;" width="560" height="426" id="regVgL" xlink:href="31B7E87ADD4868C.jpg"  transform="matrix(0.2464 0 0 0.2464 21 37.5107)">
		</image>
	</g>
	<g class="st7">
		
			<image style="display:inline;overflow:visible;" width="980" height="490" id="H5Le8l" xlink:href="31B7E87ADD4868B.jpg"  transform="matrix(0.1714 0 0 0.1714 6 48)">
		</image>
	</g>
	<g class="st7">
		
			<image style="display:inline;overflow:visible;" width="1200" height="900" id="Layer_0" xlink:href="31B7E87ADD4868A.png"  transform="matrix(0.1183 0 0 0.1183 19 36.75)">
		</image>
	</g>
	<g class="st7">
		
			<image style="display:inline;overflow:visible;" width="1109" height="614" id="asTEZz" xlink:href="31B7E87ADD48687.jpg"  transform="matrix(0.1641 0 0 0.1641 -1 39.6177)">
		</image>
	</g>
	<g class="st7">
		
			<image style="display:inline;overflow:visible;" width="184" height="195" id="Layer_0_1_" xlink:href="31B7E87ADD48686.png"  transform="matrix(0.625 0 0 0.625 32.5 29.0625)">
		</image>
	</g>
	<g style="clip-path:url(#SVGID_4_);">
		
			<image style="overflow:visible;" width="276" height="183" id="EgAvYv" xlink:href="72F9499C1FB771B9.jpg"  transform="matrix(0.5362 0 0 0.5362 16 40.9348)">
		</image>
	</g>
</g>
<g>
	<path class="st8" d="M178,180H2c-1.1,0-2-0.9-2-2V2c0-1.1,0.9-2,2-2h176c1.1,0,2,0.9,2,2v176C180,179.1,179.1,180,178,180z"/>
</g>
<g>
	<path class="st9" d="M165.5,176.9H14.5c-6.3,0-11.4-5.1-11.4-11.4V14.5c0-6.3,5.1-11.4,11.4-11.4h150.9c6.3,0,11.4,5.1,11.4,11.4
		v150.9C176.9,171.8,171.8,176.9,165.5,176.9z"/>
</g>
<g>
	<path class="st10" d="M148.3,173.8H31.7c-14.1,0-25.5-11.4-25.5-25.5V31.7c0-14.1,11.4-25.5,25.5-25.5h116.7
		c14.1,0,25.5,11.4,25.5,25.5v116.7C173.8,162.4,162.4,173.8,148.3,173.8z"/>
</g>
<g>
	<path class="st11" d="M145,169H35c-13.3,0-24-10.8-24-24V35c0-13.3,10.8-24,24-24h110c13.3,0,24,10.8,24,24v110
		C169,158.3,158.3,169,145,169z"/>
</g>
<circle class="st9" cx="90" cy="90" r="46"/>
<g>
	<circle class="st9" cx="90" cy="90" r="46"/>
</g>
<g>
	<path class="st12" d="M136,90c0,25.4-20.6,46-46,46V44C115.4,44,136,64.6,136,90z"/>
</g>
<g>
	<path class="st10" d="M78,134.4c3.8,1,7.8,1.6,12,1.6s8.2-0.6,12-1.6V45.6c-3.8-1-7.8-1.6-12-1.6s-8.2,0.6-12,1.6V134.4z"/>
</g>
<g>
	<path class="st11" d="M79.6,134.8c3.4,0.8,6.8,1.2,10.4,1.2s7.1-0.4,10.4-1.2V45.2C97.1,44.4,93.6,44,90,44s-7.1,0.4-10.4,1.2
		V134.8z"/>
</g>
</svg>
