<?xml version="1.0" encoding="utf-8"?>
<!-- Generator: Adobe Illustrator 22.0.1, SVG Export Plug-In . SVG Version: 6.00 Build 0)  -->
<svg version="1.1" id="Layer_1" xmlns="http://www.w3.org/2000/svg" xmlns:xlink="http://www.w3.org/1999/xlink" x="0px" y="0px"
	 viewBox="0 0 180 180" style="enable-background:new 0 0 180 180;" xml:space="preserve">
<style type="text/css">
	.st0{fill:#A4AEB3;}
	.st1{fill:#C3D4D4;}
	.st2{fill:#8B9E9C;}
	.st3{fill:#D1E3DC;}
	.st4{fill:#AAC2C0;}
</style>
<g>
	<path class="st0" d="M178,180H2c-1.1,0-2-0.9-2-2V2c0-1.1,0.9-2,2-2h176c1.1,0,2,0.9,2,2v176C180,179.1,179.1,180,178,180z"/>
</g>
<g>
	<path class="st1" d="M165.5,176.9h-151c-6.3,0-11.4-5.1-11.4-11.4v-151c0-6.3,5.1-11.4,11.4-11.4h150.9c6.3,0,11.4,5.1,11.4,11.4
		v150.9C176.9,171.8,171.8,176.9,165.5,176.9z"/>
</g>
<g>
	<path class="st2" d="M148.3,173.8H31.7c-14.1,0-25.5-11.4-25.5-25.5V31.7c0-14.1,11.4-25.5,25.5-25.5h116.7
		c14.1,0,25.5,11.4,25.5,25.5v116.7C173.8,162.4,162.4,173.8,148.3,173.8z"/>
</g>
<g>
	<path class="st3" d="M145,169H35c-13.3,0-24-10.8-24-24V35c0-13.3,10.8-24,24-24h110c13.3,0,24,10.8,24,24v110
		C169,158.3,158.3,169,145,169z"/>
</g>
<circle class="st1" cx="90" cy="90" r="46"/>
<g>
	<circle class="st1" cx="90" cy="90" r="46"/>
</g>
<g>
	<path class="st4" d="M136,90c0,25.4-20.6,46-46,46V44C115.4,44,136,64.6,136,90z"/>
</g>
<g>
	<path class="st2" d="M78,134.4c3.8,1,7.8,1.6,12,1.6s8.2-0.6,12-1.6V45.6c-3.8-1-7.8-1.6-12-1.6s-8.2,0.6-12,1.6V134.4z"/>
</g>
<g>
	<path class="st3" d="M79.6,134.8c3.4,0.8,6.8,1.2,10.4,1.2s7.1-0.4,10.4-1.2V45.2C97.1,44.4,93.6,44,90,44s-7.1,0.4-10.4,1.2V134.8
		z"/>
</g>
</svg>
