<?xml version="1.0" encoding="utf-8"?>
<!-- Generator: Adobe Illustrator 22.0.1, SVG Export Plug-In . SVG Version: 6.00 Build 0)  -->
<svg version="1.1" id="Layer_1" xmlns="http://www.w3.org/2000/svg" xmlns:xlink="http://www.w3.org/1999/xlink" x="0px" y="0px"
	 viewBox="0 0 128 180" style="enable-background:new 0 0 128 180;" xml:space="preserve">
<style type="text/css">
	.st0{display:none;fill:url(#SVGID_1_);}
	.st1{display:none;fill:url(#SVGID_2_);}
	.st2{display:none;fill:url(#SVGID_3_);}
	.st3{display:none;fill:url(#SVGID_4_);}
	.st4{display:none;fill:url(#SVGID_5_);}
	.st5{display:none;fill:url(#SVGID_6_);}
	.st6{display:none;fill:url(#SVGID_7_);}
	.st7{display:none;}
	.st8{display:inline;}
	.st9{fill:#FFFFFF;}
	.st10{display:inline;fill:none;stroke:#FFFFFF;stroke-width:4;stroke-miterlimit:10;}
	.st11{fill:none;stroke:#FFFFFF;stroke-width:2.0413;stroke-miterlimit:10;}
	.st12{fill:#FCB131;}
	.st13{clip-path:url(#SVGID_9_);}
	.st14{fill-rule:evenodd;clip-rule:evenodd;fill:#FFF797;}
	.st15{fill:#FBCCC6;}
	.st16{display:inline;fill:#B15C12;}
	.st17{display:inline;fill:#FFE1BA;}
	.st18{display:inline;fill:#FFFFFF;}
	.st19{fill:#B15C12;}
	.st20{display:inline;fill:#FEDFAE;}
	.st21{display:inline;fill:#FEFEFE;}
	.st22{display:inline;fill:#EE393E;}
	.st23{display:inline;fill:#FCCC3A;}
	.st24{display:inline;fill:#010101;}
	.st25{display:inline;fill-rule:evenodd;clip-rule:evenodd;}
	.st26{display:inline;fill:#FFF797;}
	.st27{display:inline;fill:none;stroke:#BD3625;stroke-width:14;stroke-linejoin:round;stroke-miterlimit:10;}
	.st28{display:inline;fill:none;stroke:#BD3625;stroke-width:4;stroke-linejoin:round;stroke-miterlimit:10;}
	.st29{display:inline;fill:none;stroke:#FFFFFF;stroke-width:14;stroke-linejoin:round;stroke-miterlimit:10;}
	.st30{display:inline;fill:none;stroke:#FFFFFF;stroke-width:4;stroke-linejoin:round;stroke-miterlimit:10;}
	.st31{display:inline;fill:none;stroke:#57C225;stroke-width:14;stroke-linejoin:round;stroke-miterlimit:10;}
	.st32{display:inline;fill:none;stroke:#57C225;stroke-width:4;stroke-linejoin:round;stroke-miterlimit:10;}
	.st33{fill:url(#SVGID_10_);}
	.st34{fill:none;stroke:#FFFFFF;stroke-width:1.0017;stroke-miterlimit:10;}
	.st35{fill:none;stroke:#FFFFFF;stroke-width:0.5112;stroke-miterlimit:10;}
</style>
<linearGradient id="SVGID_1_" gradientUnits="userSpaceOnUse" x1="64" y1="-165.5" x2="64" y2="348.5">
	<stop  offset="0" style="stop-color:#977AFF"/>
	<stop  offset="1" style="stop-color:#6041A4"/>
</linearGradient>
<path class="st0" d="M-156.8-166.5h441.6c19.4,0,35.2,15.8,35.2,35.2v441.6c0,19.4-15.8,35.2-35.2,35.2h-441.6
	c-19.4,0-35.2-15.8-35.2-35.2v-441.6C-192-150.7-176.2-166.5-156.8-166.5z"/>
<linearGradient id="SVGID_2_" gradientUnits="userSpaceOnUse" x1="64" y1="-165.5" x2="64" y2="348.5">
	<stop  offset="0" style="stop-color:#E581FF"/>
	<stop  offset="1" style="stop-color:#C141A4"/>
</linearGradient>
<path class="st1" d="M-156.8-166.5h441.6c19.4,0,35.2,15.8,35.2,35.2v441.6c0,19.4-15.8,35.2-35.2,35.2h-441.6
	c-19.4,0-35.2-15.8-35.2-35.2v-441.6C-192-150.7-176.2-166.5-156.8-166.5z"/>
<linearGradient id="SVGID_3_" gradientUnits="userSpaceOnUse" x1="64" y1="-165.5" x2="64" y2="348.5">
	<stop  offset="0" style="stop-color:#82D1FF"/>
	<stop  offset="1" style="stop-color:#279EC8"/>
</linearGradient>
<path class="st2" d="M-156.8-166.5h441.6c19.4,0,35.2,15.8,35.2,35.2v441.6c0,19.4-15.8,35.2-35.2,35.2h-441.6
	c-19.4,0-35.2-15.8-35.2-35.2v-441.6C-192-150.7-176.2-166.5-156.8-166.5z"/>
<linearGradient id="SVGID_4_" gradientUnits="userSpaceOnUse" x1="64" y1="-165.5" x2="64" y2="348.5">
	<stop  offset="0" style="stop-color:#FFC363"/>
	<stop  offset="1" style="stop-color:#EB8F19"/>
</linearGradient>
<path class="st3" d="M-156.8-166.5h441.6c19.4,0,35.2,15.8,35.2,35.2v441.6c0,19.4-15.8,35.2-35.2,35.2h-441.6
	c-19.4,0-35.2-15.8-35.2-35.2v-441.6C-192-150.7-176.2-166.5-156.8-166.5z"/>
<linearGradient id="SVGID_5_" gradientUnits="userSpaceOnUse" x1="64" y1="-166.5" x2="64" y2="342.9908">
	<stop  offset="0" style="stop-color:#57C225"/>
	<stop  offset="1" style="stop-color:#589148"/>
</linearGradient>
<path class="st4" d="M-172-166.5h472c11,0,20,9,20,20v472c0,11-9,20-20,20h-472c-11,0-20-9-20-20v-472
	C-192-157.5-183-166.5-172-166.5z"/>
<linearGradient id="SVGID_6_" gradientUnits="userSpaceOnUse" x1="64" y1="-166.5" x2="64" y2="342.9908">
	<stop  offset="0" style="stop-color:#D34A71"/>
	<stop  offset="1" style="stop-color:#BD3625"/>
</linearGradient>
<path class="st5" d="M-172-166.5h472c11,0,20,9,20,20v472c0,11-9,20-20,20h-472c-11,0-20-9-20-20v-472
	C-192-157.5-183-166.5-172-166.5z"/>
<linearGradient id="SVGID_7_" gradientUnits="userSpaceOnUse" x1="64" y1="-166.5" x2="64" y2="342.9908">
	<stop  offset="0" style="stop-color:#F2F2F5"/>
	<stop  offset="1" style="stop-color:#EEF0E6"/>
</linearGradient>
<path class="st6" d="M-172-166.5h472c11,0,20,9,20,20v472c0,11-9,20-20,20h-472c-11,0-20-9-20-20v-472
	C-192-157.5-183-166.5-172-166.5z"/>
<g id="Card_Back" class="st7">
	<g class="st8">
		<path class="st9" d="M300-152.5c3.3,0,6,2.7,6,6v472c0,3.3-2.7,6-6,6h-472c-3.3,0-6-2.7-6-6v-472c0-3.3,2.7-6,6-6H300 M300-166.5
			h-472c-11,0-20,9-20,20v472c0,11,9,20,20,20h472c11,0,20-9,20-20v-472C320-157.5,311-166.5,300-166.5L300-166.5z"/>
	</g>
	<path class="st10" d="M289,320.5h-450c-3.3,0-6-2.7-6-6v-450c0-3.3,2.7-6,6-6h450c3.3,0,6,2.7,6,6v450
		C295,317.8,292.3,320.5,289,320.5z"/>
	<g class="st8">
		<path class="st9" d="M267-113.5v406h-406v-406H267 M269.8-127.5h-411.6c-6.2,0-11.2,5-11.2,11.2v411.6c0,6.2,5,11.2,11.2,11.2
			h411.6c6.2,0,11.2-5,11.2-11.2v-411.6C281-122.5,276-127.5,269.8-127.5L269.8-127.5z"/>
	</g>
	<g class="st8">
	</g>
	<circle class="st10" cx="64" cy="89.5" r="189.6"/>
</g>
<g class="st7">
	<g class="st8">
		<path d="M156.1-53.2c7.4,9.3,11.6,22.9,8.4,36.5c-0.7,5.3-2.2,10.1-3.7,15l7.3,5.9c12.2-7.9,25.2-15.3,41.4-14.2
			c1,0.4,2.5,0.6,2.7,2.1c0,1.3,0,2.8-1.5,3.6c-5.6,2.5-12.9,3-19.4,4.5c-6.8,2.5-15.1,2.2-21.7,5.2c0.9,1.2,1.6,1.8,2.4,2.6l4-1.4
			C190,3.1,204.4-0.4,220,0.5c1.8,0.3,2.7,1.5,3,3.3c1.3,6.1-4.9,4.2-8.8,4.6c-13.4-0.1-27,0.1-40.2,1c1.5,2,2.2,2.4,2.8,2.6
			c2.2-0.1,6.9-1,10-1c12.5-1.9,24.3,1.6,35.6,4.5c1.3,0.7,2.5,1.3,3.4,2.5c-0.1,1,1,4.7-3.1,5.5c-12.3-1.8-23.1-6.8-35.5-8.2
			c-2.2-0.5-5.1-0.6-8.8-0.9c2.4,3,5.2,5.8,7.1,8.9c12,0.7,23.7,5.8,27.9,17.2c1.6,5.5,1.9,12.5-0.9,17.4
			c14.8,22.8,22.8,50.9,23.4,81c-3.3,29.1-11.3,58-32.9,76.7c-13.6,12.6-29.8,20-47.5,24.5c-10.1,1.5-22.8,4.5-32.3-0.4l-1.9-0.4
			c-24.8,7.6-53.7,10.1-80.7,7c-14.2-1.5-27.3-5.5-40.2-10.2c-25.8,2.1-50.6-3-70.2-17.7c-29.4-17.7-41.4-52.5-38.7-88
			c1.9-24.2,9.2-46.9,22.4-65.6c-5.2-11-0.6-23.4,7.3-31.6c5.5-5.6,13.5-8.8,21.5-9.8l1.6-2.7l0.5-0.6c-12.8,2.8-27.5,4.2-39,9.7
			c-2.7,1.2-4.1-0.6-5.4-2.3c-1-1.3,0-3.1,0.6-3.2c4.5-3.9,10.5-5.3,16.8-6.1c9.3-1,19.6-0.7,28.9-0.6c1-0.7,1.3-2.1,2.4-2.6
			c-0.9-0.1-1.6-0.2-3.1-0.3c-12.9-1.5-27.1-1.9-39.9-0.9c-1.8-0.7-0.9-2.7-1.5-4.2c3.6-5.6,11-3.9,17.4-4.2
			c10.5,0.9,20.3,4.2,29.7,7.4c0.8-1,1.1-0.9,1.7-1.9c-8.2-4.3-18.2-6.3-27.4-8.7l-11.9-2.1c-1-2.2,1.6-4.3,2.7-5.3
			C-68.7-5.5-56.9,1.1-46,9.1l0.9,0.9c3.7-2.5,7-5.9,11-8l0.6-0.2c-6.1-16-9.4-39.4,2.5-53.1C-16.5-65.2,6.5-67,26.5-62.9
			c13.2,4.3,26.1,10.2,35.2,21.2c7.6-11.6,20.5-17.7,32.9-23c18.5-6.8,43.3-4.5,58,7.7C153.5-56.3,156.1-53.2,156.1-53.2z"/>
	</g>
	<g class="st8">
		<path class="st12" d="M135.9-61.8c-24.3,1.3-42.7,17.4-57.1,35.2c-6.5,8.8-11,17.8-15.3,28.5c-4-19-17.7-31.9-31-44.8
			c-10.5-8.9-24-15.4-39-16.3c24.6-5.2,48.7,4.6,63.9,20.2c1.5,1.8,3,2.8,3.6,3.9c5-5,9.6-10.7,16.2-14.5
			C93-60.9,114.8-67.2,135.9-61.8z"/>
	</g>
	<g class="st8">
		<path class="st12" d="M138.7-55.6c-9.9,9.9-17.8,21.8-23.4,35.2c0.1,0.3,0.4,0.6,0.7,0.9c3.4-1.5,6.1-4.2,9-6.7
			c7.9-8.6,16.5-15.1,22.1-23.9c-3.7,13.2-11,24.3-14.4,37.8c0,1.3,1.6,0.9,2.2,0.4c9-8.5,14.8-18.7,19.1-30.3
			c-0.1,15.7-4.7,31-8.9,45.7c0.4,0.7,1.3,0,1.5-0.4c5.9-8,12.2-17.5,13.8-28c-1.9,15.9-7.4,30.7-15.9,43.3
			c-5.6-7.9-12.9-16.8-22.6-22c-11.4-9-33.2-11.9-46.7-3.9l-5.2,3.6C78-22.4,91.1-37.1,107.8-48c-9.5,7-16.2,17.4-21.4,28.2
			c-0.1,0.4,0,0.7,0.3,0.9c7.9-7.1,15.7-15.1,25.1-21.7C120-46.1,128.4-53.1,138.7-55.6z"/>
	</g>
	<g class="st8">
		<path class="st12" d="M37.6-16h0.7C35.6-32.9,22.1-41.4,9.6-50.7C28.3-43.6,42-28.9,53.1-13c2.5,4.5,4.7,8.3,6.4,13.4
			C50-10.9,31.9-16.1,16.6-11.1C0.7-6.5-10.6,4.5-19,18C-26.6,7.4-32.7-4.1-34-18.2c3.9,10.4,9.9,20,17.8,26.6
			c0.3-1.6-1.2-2.4-1.3-4.2C-22-7.2-26-19-29.1-31l-0.6-4.6c5.9,10.4,13.1,19.3,23,28h0.9c-2.4-8.5-6.8-16.2-10.7-24.3l-6.4-14.7
			c11.3,9.9,21.1,19.9,33.1,28.9h0.7c0.3-1.5-1.3-2.8-1.8-4.2c-5-12.2-14.4-21.4-23.9-30.1C5.6-45.2,23.1-31.4,37.6-16z"/>
	</g>
	<g class="st8">
		<path class="st12" d="M57.5,3.1c1.5,2.5,3.7,5,4.3,8.2c-2.2,36.3,1.2,74.2,0.6,113.3l0.1,17.2c-23.9,0.6-47.9-0.9-70.8-5
			c-7.3-1.2-14.4-3.1-21.7-4.7c-12.6-27.3-7-62.9,1.8-90.5c3.1-6.5,6.7-13,11.3-19.9c2.7-5,7-9.9,10.7-14.2
			c11-12,29.7-21.7,47.8-14.4C47.6-4.6,53.2-1.5,57.5,3.1z"/>
	</g>
	<g class="st8">
		<path class="st12" d="M130.2,7.6c22.7,24,34.4,59,32.2,95.1c-1.3,11.1-3.9,22-8.2,31.9c-24.3,6.4-51.3,5.9-77.4,7.9l-9.5-0.3
			c-0.7-19.9-2.4-98.8-2.1-118.8c0.1-4.3-0.1-7.8,0.2-12.8c0.4-1.8,1-3.5,1.9-5C73.1-4.6,85.7-8.7,98.2-7.8
			C110.8-6.9,120.9,0.2,130.2,7.6z"/>
	</g>
	<g class="st8">
		<g>
			<defs>
				<path id="SVGID_8_" d="M-35.3,35.2c0,0,2.8,3.7,3.1,6.2c-6.7,16.2-9,33.5-9.5,52.1c0.1,30.4,10.2,60.2,36.9,73.1
					c12.2,5.6,26.6,11.4,41.7,8c1.5,8.5,11.6,11.1,19,12.8c-18,8.6-41.7,11.6-62.5,6.4c-27.1-5.3-52.5-23.1-60.7-50.3
					c-4.9-14.1-4.7-32-0.1-46.1c3.1-13.8,11.6-25.5,20.5-35.9l-0.4-0.4c-3.3,3.1-6.8,4.5-10.8,6.4l-1-0.1c0-5.2,5.5-7.4,9.2-9.8
					v-0.3c-4.9-0.7-8.3,2.1-10.7,5.8c-0.9,2.1-1.3,3.9-0.9,6.2c0.9,1.9,3.3,1.3,3.3,1.3c-13.2,13.9-18.7,32.8-18,53
					c1.3,25.7,13.8,49.3,35.8,61.3c9.2,5.8,17.1,8.6,21.5,10.2c12.8,4.3,26.6,7.3,41.4,5.6c14.2-2.4,28.9-4.5,40.4-12.6
					c22.8,17.5,61.1,20.2,88.3,8.8c21.1-8.8,36.8-28.3,46.7-47.6c2.1-4.4,3.6-11.3,3.7-12c3.7-23.6-2.2-46.9-12.3-66.2
					c1.9,0.1,3.7,0.1,5.2-0.9c2.5-1.6,0.4-4.5,0.3-6.5c-1.3-3.4-4.7-6.2-8.2-7c2.5,2.1,5.2,5,6.2,8.6c-0.1,1-0.5,2.3-1.8,2.5
					c-1.6,0.3-3.6,0.3-4.6-1.2c-1.3-2.2-3.3-3.4-5.2-5l-0.6,0.4c1.8,7.3,6.2,13.8,8.9,20.5c6.8,19.3,12.5,44.7,3.4,64.7
					c-7.6,17.1-19.3,30.7-34.9,40.8c-25.7,15-65,13.2-90.8-0.4c7.4-1.9,17.3-3.3,21.6-10.6c1.9,0.8,2.4,0.7,3.9,1.2
					c19.3,2.7,35.5-5.8,48.7-17.2c28.8-26.9,31.5-75.4,18.4-111.7c2.5-11.1,10.8-18.5,21.5-21.4c9.3-1.3,18.8,1.2,24.8,7.4
					c4.3,4.9,6.8,12.8,4.6,19.7C209,61,203.4,66.2,198.3,69c-0.4,0.3-0.3,0.9-0.4,1.3c3.9-0.3,8.6-6.5,12-1.5c0,1.6-0.4,3.4-1.9,4.2
					c-1.8,1.5-4.9,0.6-6.4,2.1c1.5,1.6,4.5,1.3,6.4,0.6c2.1-1.2,3.9-2.5,4.6-5c0-1.9,0.6-3.7-1.3-4.6c-1.2-0.4-2.5-0.6-3.7-0.7
					l2.8-3l5.8,11.7c-1.2-0.3-2.2-3-3.6-1.5c-0.3,1.6-0.3,2.1-0.4,3.1c3,18,10.2,34,14.2,51.6l0.9,0.4c3-3.9,1-9.9,1.6-14.2
					c1.5,8.2,3,16.3,2.1,25.1c-0.7-1.9-0.4-5.2-3.3-5.6c-0.6-0.1-1.6-0.4-2.1,0.1c-2.5,3.9-0.9,9.3-2.4,13.5
					c-2.8,13.9-3.9,28.8-9.3,41.5c0.4,0.7,1.3,0.1,1.8-0.1l4.3-4.9c-2.2,4.5-4.2,9.8-7.6,13.8c-1-0.7-0.1-3.1-1.8-3.3
					c-5.6,6.1-9.3,13.4-15.1,19.1c-15.6,17.8-39.6,24-63.9,25.5c-1.5-0.1-3.1-0.1-4.6-0.6c8.3-3.6,15.7-7.7,23-13.1
					c-0.1-1-1.2-0.3-1.6-0.1c-17.8,6.4-34.9,14.2-54.7,15.6c-36.2,4.9-73.7,0.1-104-14.5c-2.4-0.4-4.3-2.8-6.7-2.1
					c3.4,3,7.3,5.9,11.3,8.5c-15.4,1-30.7-2.4-44.4-8c-13.8-8.2-21.8-23.6-32.3-35.6c-1.2-0.4-1.9,0.2-1.9,1.3
					c1.3,3.4,1.4,6.8,3.3,10.7c0.5,1.2,0.3,1,0.4,1.8c-5.9-4.9-10.4-11.7-13.8-19c1.3,2.8,4.3,3.1,6.2,4.9c0.9-0.9,1-2.7,0.4-3.7
					c-6.4-15.7-10.1-32.9-12.6-50.1c-1.2,1.8-2.4,3.9-3,5.9c-0.3-4.9,0-10.2,0.7-15c0.9,1.9,1.8,3.9,3.1,5.8h0.6
					c3.3-5.9,3.3-13.2,4.9-19.9c2.4-11.7,7-22.4,9.3-34.1c-0.1-0.1-0.1-0.6-0.4-0.7c-2.8,0.9-4.2,3.9-5.9,5.9c1.5-4.5,4.7-9,7-13.9
					c1.8,0.7,3.4,2.8,5.5,3.3c0,0.9-1.2,0.3-1.6,1c-1.2,1.2-2.1,3.1-1.2,4.7c2.5,3.3,7.6,2.1,10.8,1.2c1-0.4,1.5-1.2,1.8-2.2
					c-2.7,0.4-6.8,1.9-8.9-0.7c0-0.9,0.9-1.9,1.8-2.2c2.1-0.7,4.6-0.6,6.2-2.2c-5.5-0.1-11.1-3.1-12.9-8.3c-4-8.5-0.1-18,4.5-24.6
					c5.9-8.6,18.2-12.8,29.7-10.8C-43.8,29.1-38.8,30.6-35.3,35.2z"/>
			</defs>
			<use xlink:href="#SVGID_8_"  style="overflow:visible;fill:#FCB131;"/>
			<clipPath id="SVGID_9_">
				<use xlink:href="#SVGID_8_"  style="overflow:visible;"/>
			</clipPath>
			<g class="st13">
				<path class="st14" d="M-69.7,70.9c-5.5-0.1-11.1-3.1-12.9-8.3c-4-8.5-0.1-18,4.5-24.6c5.9-8.6,18.2-12.8,29.7-10.8
					c4.7,1.9,9.8,3.4,13.2,8c0,0,2.8,3.7,3.1,6.2c-6.7,16.2-9,33.5-9.5,52.1c0.1,30.4,10.2,60.2,36.9,73.1
					c12.2,5.6,26.6,11.4,41.7,8c1.5,8.5,11.6,11.1,19,12.8c-18,8.6-41.7,11.6-62.5,6.4c-27.1-5.3-52.5-23.1-60.7-50.3
					c-4.9-14.1-4.7-32-0.1-46.1c3.1-13.8,11.6-25.5,20.5-35.9l-0.4-0.4c-3.3,3.1-6.8,4.5-10.8,6.4l-1-0.1c0-5.2,5.5-7.4,9.2-9.8
					v-0.3c-4.9-0.7-8.3,2.1-10.7,5.8c-0.9,2.1-1.3,3.9-0.9,6.2c0.9,1.9,3.3,1.3,3.3,1.3C-62.6,71.9-66.4,72-69.7,70.9z"/>
				<path class="st14" d="M189.1,70.9c1.9,0.1,3.7,0.1,5.2-0.9c2.5-1.6,0.4-4.5,0.3-6.5c-1.3-3.4-4.7-6.2-8.2-7
					c2.5,2.1,5.2,5,6.2,8.6c-0.1,1-0.4,2.2-1.8,2.5c-1.6,0.3-3.6,0.3-4.6-1.2c-1.3-2.2-3.3-3.4-5.2-5l-0.6,0.4
					c1.8,7.3,6.2,13.8,8.9,20.5c6.8,19.3,12.5,44.7,3.4,64.7c-7.6,17.1-19.3,30.7-34.9,40.8c-25.7,15-65,13.2-90.8-0.4
					c7.4-1.9,17.2-3.2,21.5-10.5c1.8,0.6,3.2,0.8,4,1.1c19.3,2.7,35.5-5.8,48.7-17.2c28.8-26.9,31.5-75.4,18.4-111.7
					c2.5-11.1,10.8-18.5,21.5-21.4c9.3-1.3,18.8,1.2,24.8,7.4c4.3,4.9,6.8,12.8,4.6,19.7C209,61,203.4,66.2,198.3,69
					c-0.4,0.3-0.3,0.9-0.4,1.3C194.9,71.3,192,71.5,189.1,70.9z"/>
			</g>
		</g>
	</g>
	<g class="st8">
		<path class="st9" d="M12.1,143.6l15.7,1.6c4.3,4.5,10.4,7.1,17.4,5.6c3-0.7,6.4-1.6,8-4.6c3.4-0.3,6.1,0.3,9.4,0.3l0.2,10.2
			c-2.7,0.2-3.2,0.4-6.7,1c-6.8,2.1-14.4,5.3-18.1,11.6c-20,5-39-3.6-53-15.3c-6.1-5.3-10.1-11.6-13.2-18
			C-15,139.5-2,142.8,12.1,143.6z"/>
	</g>
	<g class="st8">
		<path class="st9" d="M151.6,139.5c-10.7,20.8-30.9,35-55.2,35c-2.2-0.6-4.6-0.3-6.4-1.6c-0.6-6.1-5.8-10.5-11-12.9
			c-3.7-1.3-7.9-2.1-11.7-2.8l-0.1-10.4c3.1-0.5,5.5,0.1,8,0.2c3.9,3.9,9.6,5,15.3,3.9c3.3-0.7,6.5-1.8,8-5
			c5.8-0.6,11.6-0.7,17.5-1.2C128,143.5,139.9,141.9,151.6,139.5z"/>
	</g>
	<g class="st8">
		<path class="st15" d="M84.8,170c0.6,2.8-0.7,5-2.5,7.1c-9.5,7.7-24.8,8.2-35.8,3c-2.2-1.5-5-3-5.3-5.9c0.7-6.4,8.3-9.9,13.8-11.3
			c9.2-1.5,20.6-1.2,28,4.2C84.5,168.4,84.8,170,84.8,170z"/>
	</g>
</g>
<g class="st7">
	<path class="st8" d="M122.7,252.9c15-5.5,30.1-12.2,40.8-25.7c12-15.7,16.1-37,16.8-57c1.9,0.7,3.5-0.3,5.3-0.6
		c5.1-1.2,8.4-6.2,10.3-10.7c2.2-10.9,1.4-22.7-5.1-31.9c4-1.5,8.2-3.3,10.8-7.2c8.9-14.9,12.1-35.2,7.3-52.6c0.1-1-1.5-1.3-0.6-2.4
		c-2-7.5-6.8-16.5-14.8-19.6c-1.7-0.3-3.7,0.3-5-0.6c2.6-6,3.8-12.8,2.9-19.1c-0.4-2.9-1-5.5-1.1-8.5c0.2-3.1-1.8-5-1.6-7.9
		c0.1-0.8-1.1-0.9-0.5-1.4c-0.2,0-0.7-0.6-0.1-0.8c-2.6-7.6-5.3-15.2-10.1-22l0.2-0.4c-4.2-9.3-13.1-18.1-23-21.1
		c-1.5-0.7-3.3-0.2-4.8-1.3c3.5-2.5,7.8-3.5,12.3-3.8l0.4-0.6l0.2,0.2c8.2-0.4,18.3,0,24.5,5.7c3.9,2.8,2,7.2,2.9,11.1l0.5,1
		l0.2-2.9c2-3.6,0.9-7.5-1.2-10.6c-5.5-7.6-16.2-8-24.8-7c-2.9,0.4-5.6,1.5-8.1,1.9c4.4-4.4,8.6-10.7,6.1-17.5c-2-2.5-4-6.5-8.3-6.1
		c-4.4-0.5-8.3,1.7-11.2,4.6c-4.3,2.8-4.7,8.4-7.3,11.9c-0.6-2.2-1.6-4.4-2.8-6.4c-8.3-11.3-20.5-17.6-33.3-21.3
		c-7-2.3-14.7-4.4-22.4-5.1c-5-0.6-9.6-1.5-15.1-1.1c-16.4,0-33.1,2.1-46.6,12c-8.3,4.9-14,13-18.1,21.1c-4.5-2.3-10.5-2.3-15.5-0.9
		C-33-45.8-47.8-32.9-55.3-17.8C-61.7-7-63.9,7.1-61.9,19.9c1,4.6,2.7,9,5.1,12.8c-1.6,1.1-3.3,2.5-5.1,3.1
		c-11.6,9.9-18.4,22.8-21.2,37c-2.1,10.6-0.9,20.8,2.3,30.4c3.3,8,8.4,18.1,17,21.3c-1.6,3.2-3.5,6-4.7,9c-2.7,8-0.2,15.8,5.3,21.6
		c2,2.3,4.3,4.6,6.8,5c-1.5,26.6,6,51.7,24.1,70.7c7.4,8.3,16.8,15.4,26.2,20.4C32,267.6,75.3,266.9,122.7,252.9z"/>
	<path class="st16" d="M85.3-74.3c11.6,3.4,24.5,6.6,34.9,13.2c6.5,4.6,12.3,10.8,17.5,17c0.8-0.3,0.3-1.3,0.7-1.9
		c1.7-2.2,2.9-4.9,4.9-6.5l0-0.6c0.6,0.4,1.1-1.7,1.9-2c0.7,0.6,0.6-0.3,1-0.3c-0.1-1.2,1.4-1.1,1.9-2l0,0.4
		c0.8,0.2,1.2-0.7,1.6-1.2c2.9-2.1,5.9-3.5,9.7-1.8c2.3,3.1,0.9,6.7-0.3,9.7c-3.5,5.2-8.6,11.8-15,13.1c6.1,1.6,11.9,4.9,16.5,9.6
		c0.6-0.3,0.7,0.6,1.3,0.9l-0.2,0.8c1.4,0.1,2.2,1.7,3.1,2.4C174-11.1,179.8,4,183,18.8c1.1,3,0.7,6.9,1.6,9.7
		c1.1,6.7,0.2,13.5-1.4,20.2c-0.7,1.7-0.1,3.5-1.1,5c1.6-1.2,3-3.3,4.1-5.2c4.5,0.1,8.6,3,10.8,7l0.2-0.4c-0.4,0.7,0.9,1.2,0.3,1.6
		c1.1,0.9,1.6,2.5,1.7,3.6c1,0.3,1.4,1.7,1.4,2.4c1.3,4.2,2.1,8.1,2.6,12.3l-0.2,0c2,10.5,0.1,20.7-3,30.9c-1.4,3-2.4,6.8-4.2,9.1
		c-0.3-1.2,0.3-2.1-0.8-3c-2.6-9.9-9.7-20.2-19.7-24.2c-1.7-1.1-3.7-0.5-5.2-0.2c-0.6-0.4-1.1-1.1-2.1-0.9c-1.2,0.7,0.2,2,0.8,2.4
		c-0.7,1.5,1,2.2,0.9,3.4c0.3,1.2,1.7,0.3,1.6,1.7c1.4,1.7,2.7,3.7,4.8,3.9l-0.1,0.8l4.6,3.8l-1.4,0.1c-8.6-4.3-17.5-11.8-19.3-21.8
		c-1.6-5.4-2.7-10.9-2.7-16.7c0.5-2.1,0.7-4.8,1.5-7.1c1.6-6.3,4.4-12.5,10.1-16.2c-1.6-1.5-4.1,0.7-5.7-1.4
		c-5.1-2.7-10.6-7.6-13.7-12.7c-1.1-0.9-1.9-4-3.3-5.5c0.1-0.8-0.9-1.4-1.4-2.4c-0.7-1.2-1.3-3-1.6-4.8l0.2-0.2c-1.5-0.9-0.6-3-2-4
		c0.5-1.3-0.8-2.8-0.3-4.5C140,1.7,140.4-3,140.6-7c0.6-0.5,0.7-1.3,0.9-1.7l-0.8,0.3c-0.2-0.4-0.2-0.6-0.3-1
		c-3,3.3-5.5,9.3-11.1,8.4c-1.7-0.1-2.9-2.5-3.6-3.8c-2.1-9.3,0.9-18.4,5.7-25.7c-2,0.1-2.3,2.6-3.7,3.2c-5.3,3.3-10.9,5.8-16.6,8.5
		c-3.8,1.3-8.2,2.5-11.8,4.4c-1.5-0.1-3.5-0.1-4.7,1l-0.4-0.4c-13.5,2.9-28.3,3.6-42.5,1c-6.9-1.9-13.5-4.1-18.8-9
		c-1.5-1.5-0.9-4-0.4-5.9c2.6-6.2,7.7-12.1,13.8-15.6c-2,0.6-4,1.1-6,1.9c-5.4,1.4-9.1,7.1-11.6,11.8c0.1,1-1.1,2.1-0.8,3.3
		c-6.4,7.7-16.1,9.9-25.7,10.4C-3-16-8.7-16-12.3-19.4c0.3,1,1,2,1.3,3.2c1.3,0.5,0,2.1,1.1,3c0.2,0.6-0.5,1.7,0.3,1.6
		c2.2,7.8-0.2,16.2-2.9,23.9l0.4,0.2c-1.7,2-2.3,4.9-3.8,7.1c-4,7.1-10.3,15.2-18.6,17c-2,1-4.4-1.3-5.5,0.6c2.5,0.4,3.9,3,5.1,4.8
		c5.2,12.1,1.5,27.2-2.4,39.2c-2.3,7-8.4,13.4-15.4,16l6.4-7.9l0.8-3.6c-0.9-1-2,0.1-2.9,0c-1,0.3-2.2,1-2.9,1.7
		c-2.7,0-4.5,3.2-7,3.2l-6.4,7.5l-0.8,0.1c-0.4,2.9-3.5,5.2-3.4,8.7c-1.1,1.1-1.2,3-1.7,4.6C-84.3,88-75,58.1-59.1,38.4l3.5-3.3
		l0.9,0.5c-0.4-2.6,3-0.6,3.1-2.9c-0.6-0.4-0.9-0.8-0.9-1.6c-0.8,0.3-1.5-0.7-1.8-1.7c-1.1-3.6-1.9-6-2.2-10.3
		c-0.1-7.2,0.4-16.3,3-22.8c6.1-19.8,23.6-38,44.1-44l5.3-0.8c1.1,0.7,2.7,0.4,3.4,0.8c0.7-0.9,1.7,0.1,2.3,0.4
		C1.9-47,2.1-47,2.3-47c-0.2-0.6-1.6-1.9-0.6-2.8c0.7-1.1,2.8-0.8,2.7-2.5c4.4-4.2,8-8.8,13.1-11.9c5.6-4.7,12.8-7.1,19.8-9.5
		c7.7-1.6,16-2.7,24.3-2.7C69.5-76.8,77.8-75,85.3-74.3z"/>
	<path class="st17" d="M38.2,257.9c-14.2-1-48-9.9-64.5-29c-14.2-13.3-21.5-31.5-23.5-49.8c0.6-0.5,0-0.4-0.3-1.2
		c-0.9-15.3,1.3-31.8,4-47c0.4-0.6,0.2-0.8,0.7-1.7c-0.1-1.2,0.6-2.3,0.6-3.5c0.5-2.1,1.1-4.6,1.8-6.5l1-0.9l-0.4-0.4
		c0.5-1.3,2.3-2.8,1.5-4.6c0.7-0.9,0.7-2.1,0.6-3.1l-0.3-0.6c-0.2,0.8-0.9,1.1-0.7,1.7c-0.7,1.1-2.4,3.1-3.6,4.6
		c-0.2,0.6-0.7,0.9-1.1,1.1c-1.9,2-5.2,4.7-8.6,3.5c-2.4-1.9-2.7-5.5-2.1-8.9c1.2-0.1-0.5-0.8,0.3-1c0.5-1.9,0-5.8,2.6-6.8
		c-0.4-0.2,0.1-0.8,0.3-1c7.8-0.8,15.6-6.3,19.5-13.2l-0.2,0c1.5-1.6,2.4-3.9,2.9-5.6c-0.2,0.2,0,0.2,0.2,0.2
		c0.4,0.2,0.1-0.8,0.6-0.2l0.2-0.4c-0.2-0.2-0.6-0.2-0.7-0.6l1-0.5c-0.4,0-0.2-0.2-0.2-0.6c0.2,0.4,0.4,0,0.6,0l-0.3-0.6
		c0.6-0.3,1.2-0.7,0.3-1.5l0.6-0.2l-0.5-0.6c0,0,0.7,0.4,1-0.1c-0.3-0.6-1-0.1-0.7-1c0.4,0,1.2-0.1,0.8-0.5
		c-0.8-0.1,0.2-0.4-0.3-0.8l0.2,0l-0.1-0.8l0.2,0c-0.5-1,0.9-1.5,0.4-2.9l0.8,0.2l0.1-1l-0.6,0c-0.2-0.6-0.5-1.4,0.5-1.9l-0.2-0.6
		c0.2,0,0.2,0.2,0.4,0.2c0.4-0.7-1-2.6,0.2-3.1c0.4-0.2-0.1-0.8-0.5-0.6c1.1,0.3,0.7-0.9,0.9-1.5c-0.9-0.8-0.6-2.4-0.3-3.7
		c-0.3-0.8-0.3-1.4-0.6-2.4l0.4-0.4c-1-2.4,0-5.3-1.4-7.5l0.2-0.6c-0.9-3.2-2.3-6.2-3.4-9.4c7.8,0,14.9-6.5,18.5-13.3
		c7-10.6,10.6-25.9,7.5-39c9.3,3.4,20.5,1.5,28.2-4.6l5.3-5.7c1,2.6,1.7,6,4.7,7.7c0.9,1.4,3.4,2,5.1,2.3c0.5,0.6,0.3,0.8,0.5,1.2
		c0-0.2-0.4-0.4-0.4-0.2c-0.1,0.8,1,0.3,1.1,0.9l0.2-0.6c0.8,0.2-0.4,0.6,0.1,1c0.6,0,2-0.1,2.9,0.6c0.8-0.5,1.1,0.5,2.1,0.2
		c3.4,2,7.8,2.9,11.6,3.6c12.5,2.3,24.9,0.6,36.5-1.5c8.1-1.6,15.5-4.9,22.3-8.9c3.3-1.9,6.6-4.8,9.8-6.3c-3.2,7-5.5,17.3,0.5,23.4
		c2,1.9,3.5,2.8,6.4,3c1.7,0.1,3.2-0.6,4.6-1c0.7,14.7,7.5,29,19.7,37.4c2.1,0.2,3.5,3,5.8,3c-0.4,0.7-1.3,1.7-2.3,2.4
		c-7.6,8.6-9.2,22.9-4.9,33.5c0,2.9,2.1,5.4,3.1,8.4c1,2.6,2.6,4.5,3.8,6.7c-0.2,0-0.2,0.2-0.2,0.2c0.2,0.6,0.6,0.4,1.1,0.9
		c2.5,3.3,6.2,5.9,10,7.5c3.8,3.6,3.8,9,2.7,13.8c-0.2,2.1-2,3.6-3.4,4.4c-3,0.6-5.1-1.5-7.2-2.9l-0.1,0.8c-0.4,0-0.6,0-0.6,0.2
		c6.2,11.4,7.6,24.9,9.5,37.9c0.4,0.2-0.3,1.1,0.5,0.8l-0.3,1c2,26.6-3.3,56.4-25.8,73.7c-19.8,15.5-57.2,22.3-68.3,24.1
		C67.8,259.1,52.4,258.9,38.2,257.9z"/>
	<path class="st8" d="M135.6,43.6c8.1,20.1,7.9,45-0.6,65.2c-6.4,12.6-17.2,24.9-30.4,30.1c-13.3,5.9-30,0.8-41.4-6.7
		c-0.3-0.6-0.5-1.6-1.4-2l-1,0.1l0-0.2c-1.4,0.7-2.7,2.9-4,4c-12.1,5.6-27,4.7-39.2,0.1c-19.8-8.6-28.8-30.1-28.7-50.6
		C-10.8,67-8.9,50-1,36.3C5.6,24.2,18,11.2,32.5,9.7c7.4-2.4,15.1,0.9,22,3.3c3,2,6.1,5.1,7.8,8.4c0.8-0.5,0.5,0.6,1.1,0.7
		C68.3,15.6,76,11.5,83.6,9.5c14.5-0.7,26.9,5.1,37.6,13.4C127.5,29,132.5,35.8,135.6,43.6z"/>
	<path class="st18" d="M118.4,26.2l0,0.4c2.4,2.5,5.3,5.4,7,8.5l0,0.6l0.4-0.4c1.5,3,3.8,6.5,5.1,10.1l-0.6,0.5
		c1.4,0.1,1.6,2.6,2.3,3.9c-0.5,0.9,1.6,2.6,0.7,3.9c1.2,2,1.4,4.4,1.5,6.1c1.1,0.7,0.1,2,0.6,2.8l0,0c-0.2,0.4,0.7,0.4,0.1,1
		c1.4,1.7,0.2,5.3,0.8,7.3c-0.5,0.9,0.4,2,0,2.9c-0.2,0.2-0.2,0-0.2,0c0,0.2,0.5,1.2-0.3,1.3c1.3,0.3-0.1,1.6,0.6,2.2
		c-0.2,0.8-0.7,1.9-0.1,1.9c-0.5,7-1.7,15.1-3.7,21.9c-5.8,15.2-18.8,31.2-35.8,34.4c-2.4,0.6-5.3,0.8-7.7,0.8c-0.6,0-1,0.1-1.2-0.1
		l0,0.2l-0.6-0.2l0,0.2l-0.5-0.6c-0.8,0.1-1.7-0.1-2.4,0.4c-0.2-0.6-0.8-0.1-1.4-0.1c-1.1-0.3-2.5-0.8-3.5-0.4
		c0-0.2,0.2-0.2,0.2-0.4c-1.8,0.1-3.6-1.4-5.3-1.6c-3.2-1-7.3-3.6-10.1-6.2c-0.5-23.4-0.8-45.1-0.4-68.2c0.1-9-0.4-18.7-0.3-28.3
		c1-5.2,4.1-10.4,9.1-12.8l7.3-3.4C94.1,11.8,107.7,17.7,118.4,26.2z"/>
	<path class="st18" d="M56.3,20.4c5.3,7.4,2.5,17.3,2.4,26.1c-1.1,25.8-0.6,51-0.3,76.7l0.6,4.7c-8.2,5.4-19.2,6.4-28.8,4.4
		c-15.2-2.1-29.5-15.4-33.1-30.6C-6.5,87-5.8,71.1-2.6,55.9c4.2-17.4,15.2-35.7,33.9-40.8C39.5,13.2,50.3,14.1,56.3,20.4z"/>
	<path class="st8" d="M79,108.3c1,4.4,0.9,9.4-2.3,12.9c-1,0.9-2,0.1-2.9-0.4c-2.4-3.9-3.6-9-1-13.5c0.1-1.4,1.4-0.9,2.5-1.6
		C77,105.8,78.7,106.5,79,108.3z"/>
	<path class="st8" d="M54,106.3c0.8,3,1.7,6,0.7,8.8l0.2,0.2c-0.9,2.1-1.5,5.1-4.5,5.7c-0.4-0.2-1.2,0.3-1.7-0.5
		c-2.8-4.5-2.1-11.1,1.1-15.3C51,104.6,53.6,104.2,54,106.3z"/>
	<path class="st8" d="M150,146.9c3.3,2.4,2.8,7,3.9,10.2c-0.2,0.4-0.4,0.6-0.6,0.7c-2.5-3.7-6.2-6.1-9.1-9.2
		c-0.2,0.2-0.6,0.2-0.4,0.6l-0.2-0.4l0.2-0.2c0-0.2-0.6-0.4-0.8-0.2c0,0-0.6,0.3-0.5,0.9c3.8,6.3,3.4,14.9,1.7,22.3
		c-3,9.1-6.7,17.8-13.5,24.9C121,207.2,109,215.8,95,218.9c-8.5,2.3-16.5,4.3-25.5,4.6c-0.9-0.5-2.2,0.2-3.3-0.2
		c-0.7-0.4-1.8,0.6-2.1-0.3l-0.2,0.4c-7-0.3-14.6-0.7-21.4-2.9c-7.5-1.7-14.9-4.4-21.4-8.2l-0.6,0.2c-0.1-0.8-1.7-1.3-2.4-1.9
		c-1.3-0.5-1.7-0.9-2.8-1.6l-0.2,0.2c-18.4-12.6-37-35.4-30.5-60c-2.9,1.7-5.5,3.9-8,6.2l-3,4.3c0.7-0.9-1.5-1.5-1-2.8
		c4.2-4.6,6.7-11.4,12.5-14.7c1.1-1.3,3-0.6,4.2-1.8c2.4-1.4,6.5-0.7,8.9,1.4l0.3,1.2c-3,1-6.1,1.3-8.8,3.1c-2.1,2.8-0.6,5-1.7,7.5
		c0.3,1,0.1,1,0,2.1c-0.4,8.2,1.6,15.9,5.7,23c14.5,23.4,37.6,37.4,64.5,38.1l10.1,0.3c9.1,0.3,17.5-2.6,26.4-4.1
		c6.9-1.8,13.6-5.1,19.9-9.3c3.5-2.3,7.4-5.7,10.9-8.4c11.4-11.8,19.4-28.4,14.9-45.1c-1.2-1.8-0.8-4.7-3.3-5.5
		c-1.3-1.1-2.5-0.2-3.6-0.8l0,0.2l-0.2,0l0.6-0.5c-0.7-1.4-2.9-1-4.2-1.5c-0.4-0.4,0.8-0.3,0.2-0.8c4.9-3,10.7,0.6,15.6,2.1
		L150,146.9z"/>
	<path class="st8" d="M82,152.4c-1,0.9-2.3,0-3.5,0.5c-3.2,1.3-6.6,2.1-9.8,3.2c1.1,6.7-0.5,15-0.6,22L66.7,200
		c-0.8,0.7-0.4,2.3-1.2,3c-1.2-0.1-0.3-1.4-0.6-2c-0.6-4.9-0.2-10.5-0.6-16c-1.2-4.8-0.7-9.6-0.9-14.7c0.8-0.3-0.3-0.8-0.1-1.2
		L63,156.8c-2.9-1-6.2-2.6-9.5-3l-3.2-1.4c4.9-3.2,12-2.1,17.7-2.2C72.6,150.3,77.9,150.9,82,152.4z"/>
</g>
<g class="st7">
	<path class="st8" d="M-63.5,129.7c-1.6-1.7-3.2-3.2-4.6-4.9c-4-4.8-6.6-10.4-8.5-16.3c-1-3.3-2.2-6.6-3-9.9
		C-83,83.3-83.3,68-81,52.5c2.2-14.8,5.1-29.4,10-43.6c4.5-12.8,9.4-25.5,16.9-37c10.8-16.3,24.8-29.1,42-38.2
		C0.7-72.9,14.2-77.6,28.4-80c10.2-1.7,20.6-3,30.9-3.5c7.6-0.4,15.3,0.6,23,1c8.7,0.5,17.5,1.3,26,3.1c13.8,3,26.5,8.7,38,16.9
		c12.1,8.7,22.6,19,31.2,31.4c6.1,8.7,10.4,18.1,14.5,27.7c6.2,14.4,10.3,29.3,13.1,44.7c2.5,13.6,4.4,27.2,2.9,41.1
		c-0.9,8.3-3.3,16.3-5.2,24.4c-1.8,7.5-5,14.4-10.1,20.4c-0.8,0.9-0.7,1-1.2,4c0.2,0.3,0.4,0.7,0.6,1c0.3,0.3,0.8,0.4,0.8,0.9
		c0.7,11.8-5.6,18.3-16.7,21.1c0,2.6,0.9,4.9,1,7.4c0.2,4.7-0.9,9.2-1.3,13.7c-0.3,3.1,0.2,5.9,1.9,8.4c5.7,8.4,15.3,11.4,24.8,7.8
		c4-1.5,8-3.1,11.2-6.1c0.2-0.2,0.6-0.2,1-0.4c0.5,2,0.3,3.8,0.2,5.7c-0.4,8.6-5.4,14.9-10.6,21c-3.5,4-6.9,8.3-12.1,10.2
		c-0.2,0.1-0.2,0.5-0.4,0.9c8.3,1.3,16.5,1.8,25.1-0.3c-0.4,3.4-1.8,5.9-3.3,8.2c-5.5,8.3-12.2,15.6-21.3,19.8
		c-8.3,3.9-17,6.8-26.1,8.2c-17.4,2.7-34.9,4.4-52.5,4.1c-20-0.2-40,0-59.9-0.3c-17.7-0.3-35.3-0.5-53-1.7
		c-8.6-0.6-17.3-0.9-25.9-1.6c-16-1.3-31.5-4.9-44.7-14.9c-5.1-3.9-9.9-8.2-14.5-12.7c-2.5-2.4-3.7-5.6-5.6-9.4
		c8.7,2.7,16.9,2.5,25.4,0.3c-6.7-4.2-11.7-9.9-16.3-16c-4.7-6.4-6.4-13.6-7.3-21.6c2.1,0.3,2.7,1.7,3.9,2.4
		c4.4,2.6,9.2,4.5,14.1,5.7c1.5,0.4,3-0.1,4.4-0.6c5.8-2,10.7-5.4,14.8-9.9c2.1-2.3,2.4-4.9,2-7.8c-0.8-6.9-1.1-13.8,0.2-20.6
		c0-0.2,0-0.5-0.1-0.8c-1.1-1.3-2.7-1.5-4.1-2.1c-6.7-2.8-11.2-7.4-12.1-14.9C-65.1,134.2-64.6,132-63.5,129.7z"/>
	<path class="st20" d="M111,207.1c-0.1-0.2-0.2-0.4-0.4-0.7c-0.3,0.2-0.5,0.4-0.7,0.6c-1.9-1-1.6-2.7-1.5-4.4c1-2,3.1-2.9,4.8-4.2
		c7-5,12.7-11.2,17.3-18.5c5.4-8.6,8.9-17.8,10.8-27.7c0.3-1.6,0.3-3.3,1.8-4.5c2.2,0.2,3.2,1.8,4.4,3.2c-1.2-7.4-10.5-11.5-17-8.7
		c-1.1,0.5-1.9,1.3-1.6,2.8c1.5,1.1,3,0.1,4.4-0.2c2.6-0.6,4.9-0.4,6.9,1.2c0.9,9-13.3,39.2-19.7,42c-1.1-0.3-1.6-1.1-2-2
		c-2-4.4-5.3-7.5-9.4-9.9c-6.2-3.6-13-4.5-19.8-4.1c-8.5,0.6-16.6,3.2-23.6,8.5c-0.7,0.5-1.3,1-2.1,1.2c-0.9,0-1.5-0.5-2.2-1
		c-6.1-5.3-13.2-8.4-21.3-9c-12.6-0.9-23,3.4-30.4,13.9c-0.4,0.6-0.7,1.3-1.4,1.8c-1.3,0.1-2-0.9-2.7-1.8c-4.2-5.3-7.8-11-10.5-17.3
		c-3-7.1-5.3-14.4-7.2-21.8c-0.1-0.4-0.2-0.8-0.2-1.2c0-0.3,0.1-0.6,0.4-1.1c1.6-0.9,3.3-0.6,5.1-0.1c1,0.3,2,0.8,3.1,0.9
		c1.6,0.1,2.7-0.4,2.8-2.2c-6.8-4.2-17.4-1.7-19.9,6.4c2.5-2.7,2.6-2.8,4.7-3.1c1.1,0.4,1.4,1.4,1.6,2.3c1.4,5.2,3,10.3,4.9,15.3
		c5.3,14,13,26.3,25.3,35.3c0.6,0.4,1.2,0.8,1.4,1.6c-0.1,1.1-0.6,1.7-1.7,1.8c-0.8-0.3-1.4,0.1-1.9,0.7c-4.7,5-7.2,10.7-7.3,17.6
		c0,3.1,0.7,6,1.2,9.1c-0.4,0.6-0.9,0-1.2-0.2c-8.5-3.2-17-6.8-24.3-12.1c-10.7-7.8-19.8-17-22.9-30.7c-0.9-4.1-2.1-8.2-2.3-12.4
		c-0.3-5.3-1.5-10.6-1.8-15.9c-0.1-2-0.8-4-1.2-6c7.9-1.1,12.7-5.7,14.4-13.2c1.8-8.3-1.3-14.7-9.1-18.5c3.2-5.2,3.2-5.2,2.7-7.4
		c-2.5,0.7-4.5,2.4-7.1,3.2c-5.2,1.5-8.8,0.3-11.7-4.4c-2.9-4.8-2.7-12.6,0.8-17.1c3.8,2.9,8,4.5,12.7,5.2
		c6.2,0.9,12.1-2.5,13.6-8.2c0.3-1,0-1.9,0.1-2.9c-1.7-0.6-3.4-0.1-5-0.2c-6.7-0.6-8.4-5.1-9.2-9.9c-0.7-4,0.3-7.7,1.5-11.5
		c1-3,3.7-4.3,5.8-6.2c6.2-5.8,10.6-12.9,13.5-20.8c2.1-5.7,3.3-11.7,3.7-17.7c0.5-7.5,0.6-15.1-1.3-23.2c3.9,5.1,8.4,8.9,13.3,11.9
		c-9.7,21.3-11.9,43.4-7.7,66.3c-7.8-0.4-12.4-5.1-16.5-10.9c-1.7,12,9.5,22.7,20.9,25.7c5.8,16.6,17,28.1,34.3,32.3
		c14.5,3.6,28.2,0.9,39.9-9.2c13.1,11.1,28,14.5,44.4,8.9c16.2-5.5,27-16.5,32.7-32.5c13.1-3.3,20.6-11.7,20-23
		c-2,3.1-3.7,6-6.6,7.9c-3.2,2-6.6,1.7-10.3,2.1c0.5-18.5,1.6-36.7-2.8-54.7c3.2-0.6,6.4-0.1,9.7-1.8c-6.9-6.2-11.3-13.5-10.7-23.2
		c8.9,2.7,14.6,7.6,18.1,14.1c-1.6,7.1-2.4,14.2-2.5,21.5c-0.1,8.3,0.9,16.2,4.9,23.6c1.9,3.6,4.4,7,8.1,8.9
		c2.5,1.3,3.9,2.9,4.3,5.6c0.7,4.5,0.8,8.7-1.8,12.7c-3,4.4-6.8,6.4-12.3,4.9c0.4,4.3,2.2,7.4,5.9,9.6c3.5,2.1,7.1,2.4,11,1.4
		c3.9-1,6.7-3.9,9.6-6.3c4.7,4.9,5.1,14.4,0.8,19.6c-4,4.9-9.9,5.3-15.7,1.7c-0.6-0.4-1.1-0.9-1.9-1.5c-0.1,3.1,0,5.8,2.2,8
		c-7.9,3.2-11.3,9.2-11.5,15.1c-0.3,6.9,5,13.9,16.1,16c-1.7,9.1-3,18.3-5.3,27.3c-2.3,8.8-5.9,17-11.3,24.4
		c-6.1,8.2-14.1,14.1-22.9,18.9c-7.1,3.9-14.7,6.7-23,8.8C115.9,224.5,114,215.8,111,207.1l0.1-0.1L111,207.1z"/>
	<path class="st21" d="M66.1,111.9c0.6-2.9,0.1-5.8,0.2-8.6c0.2-5.5-0.3-11.1-0.1-16.6c0.3-7.2,0.1-14.4,0.1-21.7
		c0-5.1,0.1-10.3,0-15.4c-0.3-7,0.3-14-0.1-21c-0.2-3.7,0-7.4,0-11.3c9.2,2.8,18.4,3.7,28.4,4.2C85.1,11.5,76.2,1.7,75.4-12.9
		c8,9.6,17.5,17,27.6,23.5c10.1,6.6,20.9,11.6,32.8,13.3c1.9,2.7,1.5,5.9,2,8.8c0.7,3.7,1.3,7.6,1.6,11.4c0.2,3.6,1.2,7.1,1.2,10.7
		c0.2,10.3,0,20.4-2.5,30.5c-4,16.5-14.2,27.5-29.6,34.1c-9.8,4.2-19.7,4.3-29.6,0.2C74.2,117.9,70,115.3,66.1,111.9z"/>
	<path class="st21" d="M24.6-7.8c5.7,5.3,11.7,9.5,17.8,13.5c6.1,4,12.4,7.5,19.2,10c0,4.5,0,8.8,0,13.1c0.1,6.7,0,13.3,0,20
		c0,6.3,0,12.7-0.1,19c0,6.6,0,13.2,0,19.7c0,6.3-0.3,12.7,0,19c0.1,1.4-0.7,2.7-0.1,4.2c-5.9,6-13,9.4-21.2,10.6
		c-8,1.1-15.8,0.3-23.5-2.7C9,115.6,3.4,110.2-1,103.5c-4.9-7.5-7.8-15.9-10.1-24.6c-1.7-6.5-2.2-13.1-2.3-19.7
		c-0.2-12.2,2.2-24.1,5.6-35.9c0.9-3.3,1.9-6.5,3-9.9C11.5,23.9,30.4,24,48.6,27.3C37.1,18.1,28.5,7.1,24.6-7.8z"/>
	<path class="st24" d="M108.6,202.4c-6.3,3.1-12.6,6-19.4,7.9c-6.9,1.9-14,2.6-21.1,2.9c-14.1,0.7-27.6-1.6-40.7-6.8
		c-3.7-1.5-7.2-3.6-10.7-5.5c-1.6-1.3-3.2-2.5-4.7-3.9C2.8,189.5-3.7,180-8.3,169.1c-2.9-6.9-5.5-14-7.1-21.3
		c-0.1-0.5-0.5-1-0.7-1.5c-2.7,0.6-3.9,3-5.6,5.2c0.2-8.9,11.1-14.4,21.2-9.5c0.8,1.2,0.1,2.2-0.5,3.3c-3.7,1.9-7.1-2.1-11.1-0.7
		c4,15.4,8.6,30.5,19.9,42.8c5.9-10.2,14.8-15.5,26.3-16.3c11.3-0.8,21,2.9,29.2,10.7c6.6-5.6,14.1-8.5,22.6-9.7
		c9.3-1.3,17.9-0.3,25.9,5c3.2,2.1,5.4,4.9,7.2,8.2c0.5,0.8,0.9,1.7,1.5,2.9c10.7-12.1,15.9-26.5,19.7-41.8
		c-1.6-0.9-3.5-1.2-5.5-1.1c-1.9,0-3.6,1.5-5.3,1.3c-1.2-0.3-1.1-1.3-1.7-1.7c0.2-1.5,0.9-2.6,2.2-3.1c4.5-1.8,8.9-1.2,12.8,1.3
		c3.4,2.2,5.6,5.4,6,10.1c-2-2-3.2-4.2-5.9-5.5C138.9,170.7,128.7,189.7,108.6,202.4z"/>
	<path class="st24" d="M75.5,135.7c0.8,1.5-0.4,1.8-1.1,2c-2.6,0.8-4.6,2.5-6.9,3.6c-1.7,0.8-2.5,2.2-2.4,3.9
		c0.4,6.8-0.5,13.5-0.6,20.2c0,3.3-0.2,6.6-0.6,9.9c-2.2-10.3-2.1-20.7-1.6-31.3c-2.8-4.1-8.4-4.5-12.2-8.6
		C59.1,135.6,67.2,136.1,75.5,135.7z"/>
	<path class="st24" d="M79.7,92.1c3.3,0.7,4.8,2.1,5.2,5.4c0.6,4.6-0.5,8-4.1,9.5c-3.1-0.6-4.7-2.7-5.2-6.7
		C75,96.9,76.7,93.5,79.7,92.1z"/>
	<path class="st24" d="M47.8,91.9c4.9,1.2,4.8,5.2,4.9,8.8c0.1,2.8-1,5.2-3.8,6.3c-3.2-0.8-4.7-2.4-5.1-5.5
		C43,96.5,44.1,94,47.8,91.9z"/>
	<path class="st22" d="M117.7,190.5C91.9,216,34.6,215.9,9.3,188.8c15.2-17.9,35.6-19.2,53.1-1.6c0.8,0.3,1.6,0.1,2.4-0.1
		C80.2,171.1,106.5,172,117.7,190.5z"/>
</g>
<g class="st7">
	<path class="st25" d="M15.3,274.1c-6.9-2.4-13.6-4.9-19.4-8.5c-7.6-4.5-14.6-9.6-20.2-16.3c0-0.5-0.7-0.6-0.9-1.1
		c-5.7-7.6-9.1-16.8-9.2-25.8c-0.3-2.3,0.7-4.6,0.4-6.9c0.2-1.3,0.7-2.7,0.9-3.9c0.6-1.9,1.1-3.6,1.6-5.5c0.2-0.2,0.4-0.5,0.5-0.8
		c-8.2-2.6-14.6-7.2-18.1-15.1c-3.1-7.2-3.3-15.3-0.1-22.7c1.8-3.8,4-7.3,6.5-10.6c3.8-4.5,9.9-8.2,15.9-9.1
		c0.8-0.6,1.6-0.3,2.4-0.1c1.1-0.1,2.1-0.8,3,0c0.7-0.1,1.5,0,2.2,0.2c1.5,0,3,0.8,4,1.5c1-0.2,1.8,0.7,2.7,1.1
		c0.7,0.6,1.6,1.4,2.3,1.9c0.9-2.5,1.3-5.1,2.1-7.8c1.7-6.7,4.5-13.4,7.4-19.6c3.2-6.1,6.3-12.3,10.5-17.5
		c4.7-5.9,10.7-11.3,18.4-14l0.1-0.4c-2.6-4.5-4.5-9.6-7.4-13.9L12.2,66C9.5,62.7,7.1,59,4.1,55.7c-1.8,1.3-2.8,3.4-4.8,4.5
		c-2.6,2.6-6.4,4.5-9.9,5.1c-1,0.1-2-0.6-2.9-0.3c-4.2,5.6-8.7,11-13.4,16.1c-3.1,3.3-6.2,6.6-9.6,9.6c-6.4,6.7-13.9,12.8-21.7,17.8
		c-8.4,4.6-17.5,8.3-26.6,8.5c-0.4-0.3-0.9,0.1-1.3,0.1c-5.9-0.1-13.6-1.9-17.4-6.7c-4.9-5.4-6.5-13-7.3-19.7
		c-0.6-6.4-0.4-12.7,0.5-19.2c1.8-11.1,3.8-22.5,8.4-33.4c3.1-7.7,7-15.2,11.1-22.1c7.9-13.2,18-24.5,29.5-34.7
		c5.2-4,10.7-8,16.8-10.6c0.5,0,1-0.6,1.6-0.7c11.4-4.2,24.1-5,35.6,1.1c11.6,7.8,20,19.2,28.5,30.4c6.7,9.9,11.5,21.1,16.8,31.7
		c3,6.4,5.9,12.8,8.4,19.3l8.4,24.1c2.2,7.6,5.7,15.3,6.8,23c-0.2,0.6,0.1,1.3,0.6,1.6l2.6,3.1l0.2-0.4c4.2-15.5,5.7-31.1,11.6-46.1
		c2.9-8.3,6.4-16.1,9.8-24.1c0.2-0.6,0.9-0.8,0.7-1.5c4.2-9.1,9-17.8,14.4-25.8c0.3-0.1,0.1-0.4,0.2-0.6
		c7.5-11.5,15.3-22.9,25.3-32.5c10.5-10.9,24.9-20.2,40.1-23.9c13.2-2.6,28.6,1.3,40.6,8.6c2.3,1,4.4,2.5,6.5,4
		c7.6,6.6,14.5,14.2,19.5,23.3c8.1,13.7,11.9,28.7,13.3,43.6c0.4,7.2,0.4,14.4-0.8,21.7c-1.6,9.1-6.2,17.1-11.6,23.6
		c-6.8,7.9-18.4,12-28.4,11.4c-12.4-0.5-26.5-4.9-35.6-13c-10-8-16.3-20.1-22.1-31.9c-2.2-0.1-4.2-0.4-6.1-1.9
		c-2.1-1.5-3.4-3.8-4.9-5.8c-5.6,4.1-10.1,9.5-15,14.5c-0.7,0.4-1,1.5-1.8,2.1c-10.3,11.6-18.3,25.4-25,39.8
		c15.9,1.3,26.8,12.8,33.5,26.4c7.3,14.5,10.6,29.8,12.4,45c6.5-3.2,14.5-3.2,20.6,1.4c4.4,3.3,8,7.9,9.6,13.5
		c1.8,5.5,2.5,11,2.2,16.7c-0.9,7.7-4.6,14.9-10.2,19.6c-2.7,3.1-7.2,4.3-11.1,5c-0.2,1.4,0.5,2.7,0.5,4.2c0.9,6.3,0.3,12.7-2.4,19
		c-9.2,22.2-36.3,31.6-58.2,36.5c-8.6,1.7-17.3,2.7-26,3.2C45.9,279.9,26,276.9,15.3,274.1z"/>
	<path class="st16" d="M208.5-36.9c13.8,10.3,24.7,26.3,29.8,43.4c0.3,0.6,0.3,1.5,0.6,2.2c3.8,13.1,5.2,26.4,3.7,39.9l0.1,0.2
		c-0.7,3.6-1.8,7.1-3.1,10.6c-4.3,10.1-12,18.9-23.4,21.3c-2.9,0.9-5.8,1.1-8.8,0.8l-0.8,0.3c-10.3-0.1-22.5-3.5-30.7-10
		c-16.6-12.3-25-34.4-31.8-53.9c-0.8-2.4-2-4.4-3-6.8l-0.3,0.2c0.8,3.2-0.3,6.6,0.8,9.8c1.6,5.7,3.7,11.3,5.9,16.8
		c-1.2,0.2-2.3-1-3.3-1.4c-0.3-1-1.5-1.6-2-2.6c-2.9-4.3-5.1-8.7-6.5-13.6l-0.4-1.2c-1.5,3.4,0.5,6.8,1,10.1c-0.6,1-1.9,1.1-2.7,2
		c-6.4,5.8-12.2,11.9-17.7,18.3c-2.9,3.5-5.6,7.1-8.2,10.8c-5.2,8.2-10.3,16.2-14.4,25.4c-0.3,1.5-1.3,2.1-1,3.6
		c-1.4,0.6-3.1,0.6-4.6,1.1c-7,2.1-13.7,6.3-18.1,11.4c3.7-14.8,5.6-30.3,11.7-45.1c5.7-15.2,12.3-29.9,20.5-43.1
		c0.1-0.8,0.9-1.1,1.2-2c3.6-5.8,7.4-11.5,11.4-17.2c12.9-17.7,29.4-34.8,52.5-40.9c8.8-1.8,18.3-1.6,27.3,2.3
		C199.4-42.3,203.9-39.6,208.5-36.9z"/>
	<path class="st16" d="M6.8-11c8,9.3,15.3,19.7,21,31.3c2.8,6.3,6.7,12.8,9.4,19.4L43,53.5l8.6,25.4c1.5,5.7,4.1,11.5,5.3,17.3
		c-7.6-4.7-17-5.5-25.1-3.6c-1.2-2.3-1.9-5.1-3.1-7.4C22.7,73.6,15.5,63.1,7.5,53.7l-1.3-1.1c1.6-3.5,3.4-7.2,4.3-11
		c-3,3.1-5.3,7.4-8.3,10.7c-3.1,3.9-6.8,7.5-11.7,9.7c-0.4,0.2-0.9,0.2-1.2-0.1c0.2-1.1,1.2-1.8,1.6-2.8c4.4-7,9.7-13.8,11.9-22.3
		c-1.8,0.7-2.6,2.8-3.6,4.1c-4.5,7.1-9,14.1-14.1,20.6c-8,10.2-16.4,20.1-26,28.9c-12,11-28.2,22.9-45.3,22.7
		c-7.8-0.6-16-4.3-18.4-12.3c-3.6-10-3.2-20.3-2-30.7c2-10.3,4.3-21.2,8.5-31l0-0.4c4.7-10.7,10.2-20.8,17-29.8
		c2.9-4.5,6.6-8.2,10-12.3c0-0.6,0.7-0.6,1-1.1c10.4-11.1,23.3-22.5,39.5-25.3c7.7-0.9,16.9,0.6,23.5,5.3C-1.6-20.6,2.5-15.6,6.8-11
		z"/>
	<g class="st8">
		<polygon class="st9" points="53,75.3 53,75.3 52.9,75.4 52.9,75.4 53,75.3 		"/>
	</g>
	<path class="st18" d="M125.9,116.3c4.9,9.1,7.6,18.9,9.7,28.6c3.6,17,4,34.5-1.1,51.9c-4.8,14.5-13.7,25.6-27.4,32.3
		c-4.4,1.9-8.9,3.2-13.4,2.9c-2.7-5.8-7.8-9-13.4-11.4c-4.9-1.9-9.9-2.5-14.6-2.7c-0.3-4.1-0.2-8.3,0.1-12.3
		c-0.1,1.7,1.1,3.5,2.3,4.7c1,0.7,2.1,0.3,3.1-0.2c2.1-1.1,2.4-4.2,2.9-6.5c-0.2-3.1-0.4-6.6-2.5-9.4c-0.4-0.3-1-0.2-1.5-0.3
		c-1.9,0.8-2.3,2.9-3.3,4.6l-0.9,4.2c-0.1-19.1,0.5-38.3,1-57.6c0.2-10.7-0.2-21.6,0.4-32.4c2.5-7.4,7.8-12.4,14.4-16.2
		c7.8-4.3,16.4-5,24.7-1.2C115.1,99.8,120.9,108,125.9,116.3z"/>
	<path class="st18" d="M64.3,111.5c-0.5,6.9-1,13.8-0.9,20.6l0.2,0.4c-0.3,12.1-0.4,24.1-0.8,36.3c0,4.7-0.3,9.3-0.4,14
		c0.2,11.7-0.4,23.5-0.4,35.4c-8.6,1.1-18.7,2.6-24.8,9.7c-1.3,1.6-2.1,3.5-2.9,5.5c-5.9-1.4-11.4-3.8-16.3-6.6
		c-12.2-8.4-23-22.4-25.5-37.8c-3.3-18.3,0.1-37.1,7-55.7c5.8-12.8,12.3-24.9,23.5-33.2c7.3-4.1,15-5.3,22.9-4.1
		C54.3,98.1,62,102.6,64.3,111.5z"/>
	<path class="st26" d="M170.4,185.9c0.2,8.4-2.2,18.5-8.9,24c-2.9,1.9-6.3,3.3-9.7,2.6c-0.9-3.1-2.4-6.1-3.8-8.9
		c1.2-0.1,2.3-0.9,3-1.8c1.5-2.7,0.5-6-1.3-8.4c-1.5-1.6-2.9-3.4-4.9-4.4c-0.3,0.1-0.6-0.1-0.9,0.1c1.6,1.4,3,3.5,4.1,5.5
		c0.8,1.9,1.9,3.8,0.7,5.7c-0.8,0.6-1.9,0.4-2.8,0.2c-1.3-1.3-2.7-2.4-3.9-3.8c-0.3,0.6,0.1,1.5,0.4,2.2c6.6,9.8,8.6,21.6,7.5,32.7
		c-3.8,18.8-21.2,28.6-37.8,34.9c-14.3,4.3-28.4,6.9-42.9,7.9c-9.1,0.4-18.2,0.9-27.4-0.8c-14.7-2-31.3-5.3-44.3-13.2
		c-7.8-4.3-14.9-9.7-20.5-16.8c-5-6.7-6.9-15.1-7.7-22.8c0.1-9.3,4.5-19.8,9.7-27.3c2.2-2.9,3.9-6.2,5.9-9.3
		c-1.3,0.9-3.3,1.8-4.4,3.2c-1.8,0.3-3.6,1.5-5.4,0.7c-0.4-0.3-0.6-1-0.4-1.6c1.1-2.7,3.3-4.5,5.6-6.1c-2.9,0.9-7.4,2.1-7.7,6
		c-0.2,1.4,0.4,3,1.5,4c0.8,0.7,1.7,1.1,2.7,1.3c-0.3,1.2-1.6,1.8-2.1,3.1c-0.8,1.5-1.8,2.7-2.4,4.2c-1,0.6-0.8,1.9-1.6,2.6
		c-1.1,0.6-2.3-0.3-3.5-0.6c-5.5-2.2-9.7-6.5-12.2-12c-2.6-4.6-2.3-9.8-1.8-14.8c1.3-7.2,5.7-12.6,10.3-17.5
		c6.1-5.6,14.8-6.6,22.2-3.3c1.4,0.8,2.6,1.8,3.6,3.1c-0.9,6.7-1.9,13.5-1.4,20c0.5,2.9,0.3,5.9,1.1,8.8l0,1.3
		c1.4,9.9,5.5,20.6,12.2,28.5c7.9,9.8,17.6,18.1,30.8,21c1,0.2,2.1,0,2.9,0.6c0.6,3.4,3.2,5.7,5.7,7.6c0.6,0.4,1.5,0.6,1.9,1.1
		c8.6,4.3,17.9,5.3,26.8,4.9c0.7-0.3,1.5,0.1,2.2-0.1c7.6-0.7,17-2.7,21.6-9.7c0.8-1.4,1.2-3,1.5-4.5c5.2-0.1,10.7-1.4,15.4-4l0.4,0
		c2.6-1,4-3.3,6.4-4.2c8.7-5.8,15-14.1,19.3-24c3.6-8.7,4.9-17.4,6.2-26c0.4-4.6,0.2-9.2,0.1-13.7c5.8-3.2,13.4-2.3,18.7,1.9
		c5,3.6,7.8,10.3,9.2,16.2L170.4,185.9z"/>
</g>
<g class="st7">
	<polygon class="st27" points="271.2,-117.8 271.2,-143.5 -143.2,-143.5 -143.2,-117.8 -169,-117.8 -169,296.8 -143.2,296.8 
		-143.2,322.5 271.2,322.5 271.2,296.8 297,296.8 297,-117.8 	"/>
	<polygon class="st28" points="256.6,-103.1 256.6,-127 -128.6,-127 -128.6,-103.1 -152.5,-103.1 -152.5,282.1 -128.6,282.1 
		-128.6,306 256.6,306 256.6,282.1 280.5,282.1 280.5,-103.1 	"/>
</g>
<g class="st7">
	<polygon class="st29" points="271.2,-117.8 271.2,-143.5 -143.2,-143.5 -143.2,-117.8 -169,-117.8 -169,296.8 -143.2,296.8 
		-143.2,322.5 271.2,322.5 271.2,296.8 297,296.8 297,-117.8 	"/>
	<polygon class="st30" points="256.6,-103.1 256.6,-127 -128.6,-127 -128.6,-103.1 -152.5,-103.1 -152.5,282.1 -128.6,282.1 
		-128.6,306 256.6,306 256.6,282.1 280.5,282.1 280.5,-103.1 	"/>
</g>
<g class="st7">
	<polygon class="st31" points="271.2,-117.8 271.2,-143.5 -143.2,-143.5 -143.2,-117.8 -169,-117.8 -169,296.8 -143.2,296.8 
		-143.2,322.5 271.2,322.5 271.2,296.8 297,296.8 297,-117.8 	"/>
	<polygon class="st32" points="256.6,-103.1 256.6,-127 -128.6,-127 -128.6,-103.1 -152.5,-103.1 -152.5,282.1 -128.6,282.1 
		-128.6,306 256.6,306 256.6,282.1 280.5,282.1 280.5,-103.1 	"/>
</g>
<linearGradient id="SVGID_10_" gradientUnits="userSpaceOnUse" x1="64" y1="0.7258" x2="64" y2="181.0525">
	<stop  offset="0" style="stop-color:#82D1FF"/>
	<stop  offset="1" style="stop-color:#279EC8"/>
</linearGradient>
<path class="st33" d="M8.8,0.4h110.4c4.9,0,8.8,3.9,8.8,8.8v162c0,4.9-3.9,8.8-8.8,8.8H8.8c-4.9,0-8.8-3.9-8.8-8.8V9.2
	C0,4.3,3.9,0.4,8.8,0.4z"/>
<g id="Card_Back_1_">
	<g>
		<path class="st9" d="M123,3.9c0.8,0,1.5,0.7,1.5,1.5V175c0,0.8-0.7,1.5-1.5,1.5H5c-0.8,0-1.5-0.7-1.5-1.5V5.4
			c0-0.8,0.7-1.5,1.5-1.5H123 M123,0.4H5c-2.8,0-5,2.2-5,5V175c0,2.8,2.2,5,5,5h118c2.8,0,5-2.2,5-5V5.4C128,2.6,125.8,0.4,123,0.4
			L123,0.4z"/>
	</g>
	<path class="st34" d="M120.2,173.7H7.8c-0.8,0-1.5-0.7-1.5-1.5V8.1c0-0.8,0.7-1.5,1.5-1.5h112.5c0.8,0,1.5,0.7,1.5,1.5v164.1
		C121.8,173.1,121.1,173.7,120.2,173.7z"/>
	<g>
		<path class="st9" d="M114.7,13.7v153H13.3v-153H114.7 M115.5,10.2H12.5c-1.5,0-2.8,1.3-2.8,2.8v154.5c0,1.5,1.3,2.8,2.8,2.8h102.9
			c1.5,0,2.8-1.3,2.8-2.8V13C118.2,11.4,117,10.2,115.5,10.2L115.5,10.2z"/>
	</g>
	<g>
		<g>
			<path class="st9" d="M111.4,7.6c-0.6,0-1,0.4-1,1c0,0.6,0.4,1,1,1s1-0.4,1-1C112.4,8,111.9,7.6,111.4,7.6L111.4,7.6z"/>
		</g>
		<g>
			<path class="st9" d="M104.9,7.6c-0.6,0-1,0.4-1,1c0,0.6,0.4,1,1,1c0.6,0,1-0.4,1-1C105.9,8,105.5,7.6,104.9,7.6L104.9,7.6z"/>
		</g>
		<g>
			<path class="st9" d="M98.4,7.6c-0.6,0-1,0.4-1,1c0,0.6,0.4,1,1,1s1-0.4,1-1C99.4,8,99,7.6,98.4,7.6L98.4,7.6z"/>
		</g>
		<g>
			<path class="st9" d="M91.9,7.6c-0.6,0-1,0.4-1,1c0,0.6,0.4,1,1,1c0.6,0,1-0.4,1-1C92.9,8,92.5,7.6,91.9,7.6L91.9,7.6z"/>
		</g>
		<g>
			<path class="st9" d="M85.5,7.6c-0.6,0-1,0.4-1,1c0,0.6,0.4,1,1,1s1-0.4,1-1C86.5,8,86,7.6,85.5,7.6L85.5,7.6z"/>
		</g>
		<g>
			<path class="st9" d="M79,7.6c-0.6,0-1,0.4-1,1c0,0.6,0.4,1,1,1s1-0.4,1-1C80,8,79.5,7.6,79,7.6L79,7.6z"/>
		</g>
		<g>
			<path class="st9" d="M72.5,7.6c-0.6,0-1,0.4-1,1c0,0.6,0.4,1,1,1c0.6,0,1-0.4,1-1C73.5,8,73,7.6,72.5,7.6L72.5,7.6z"/>
		</g>
		<g>
			<path class="st9" d="M66,7.6c-0.6,0-1,0.4-1,1c0,0.6,0.4,1,1,1s1-0.4,1-1C67,8,66.5,7.6,66,7.6L66,7.6z"/>
		</g>
		<g>
			<path class="st9" d="M59.5,7.6c-0.6,0-1,0.4-1,1c0,0.6,0.4,1,1,1s1-0.4,1-1C60.5,8,60.1,7.6,59.5,7.6L59.5,7.6z"/>
		</g>
		<g>
			<path class="st9" d="M53,7.6c-0.6,0-1,0.4-1,1c0,0.6,0.4,1,1,1c0.6,0,1-0.4,1-1C54,8,53.6,7.6,53,7.6L53,7.6z"/>
		</g>
		<g>
			<path class="st9" d="M46.5,7.6c-0.6,0-1,0.4-1,1c0,0.6,0.4,1,1,1c0.6,0,1-0.4,1-1C47.5,8,47.1,7.6,46.5,7.6L46.5,7.6z"/>
		</g>
		<g>
			<path class="st9" d="M40,7.6c-0.6,0-1,0.4-1,1c0,0.6,0.4,1,1,1c0.6,0,1-0.4,1-1C41,8,40.6,7.6,40,7.6L40,7.6z"/>
		</g>
		<g>
			<path class="st9" d="M33.6,7.6c-0.6,0-1,0.4-1,1c0,0.6,0.4,1,1,1c0.6,0,1-0.4,1-1C34.6,8,34.1,7.6,33.6,7.6L33.6,7.6z"/>
		</g>
		<g>
			<path class="st9" d="M27.1,7.6c-0.6,0-1,0.4-1,1c0,0.6,0.4,1,1,1c0.6,0,1-0.4,1-1C28.1,8,27.6,7.6,27.1,7.6L27.1,7.6z"/>
		</g>
		<g>
			<path class="st9" d="M20.6,7.6c-0.6,0-1,0.4-1,1c0,0.6,0.4,1,1,1c0.6,0,1-0.4,1-1C21.6,8,21.1,7.6,20.6,7.6L20.6,7.6z"/>
		</g>
		<g>
			<path class="st9" d="M14.1,7.6c-0.6,0-1,0.4-1,1c0,0.6,0.4,1,1,1s1-0.4,1-1C15.1,8,14.7,7.6,14.1,7.6L14.1,7.6z"/>
		</g>
		<g>
			<path class="st9" d="M8.4,9.4c-0.6,0-1,0.4-1,1s0.4,1,1,1c0.6,0,1-0.4,1-1S8.9,9.4,8.4,9.4L8.4,9.4z"/>
		</g>
		<g>
			<path class="st9" d="M8.2,15.8c-0.6,0-1,0.4-1,1s0.4,1,1,1c0.6,0,1-0.4,1-1S8.7,15.8,8.2,15.8L8.2,15.8z"/>
		</g>
		<g>
			<path class="st9" d="M8.2,22.3c-0.6,0-1,0.4-1,1s0.4,1,1,1c0.6,0,1-0.4,1-1S8.7,22.3,8.2,22.3L8.2,22.3z"/>
		</g>
		<g>
			<path class="st9" d="M8.2,28.8c-0.6,0-1,0.4-1,1c0,0.6,0.4,1,1,1c0.6,0,1-0.4,1-1C9.2,29.3,8.7,28.8,8.2,28.8L8.2,28.8z"/>
		</g>
		<g>
			<path class="st9" d="M8.2,35.3c-0.6,0-1,0.4-1,1s0.4,1,1,1c0.6,0,1-0.4,1-1S8.7,35.3,8.2,35.3L8.2,35.3z"/>
		</g>
		<g>
			<path class="st9" d="M8.2,41.8c-0.6,0-1,0.4-1,1s0.4,1,1,1c0.6,0,1-0.4,1-1S8.7,41.8,8.2,41.8L8.2,41.8z"/>
		</g>
		<g>
			<path class="st9" d="M8.2,48.3c-0.6,0-1,0.4-1,1s0.4,1,1,1c0.6,0,1-0.4,1-1S8.7,48.3,8.2,48.3L8.2,48.3z"/>
		</g>
		<g>
			<path class="st9" d="M8.2,54.8c-0.6,0-1,0.4-1,1s0.4,1,1,1c0.6,0,1-0.4,1-1S8.7,54.8,8.2,54.8L8.2,54.8z"/>
		</g>
		<g>
			<path class="st9" d="M8.2,61.2c-0.6,0-1,0.4-1,1s0.4,1,1,1c0.6,0,1-0.4,1-1S8.7,61.2,8.2,61.2L8.2,61.2z"/>
		</g>
		<g>
			<path class="st9" d="M8.2,67.7c-0.6,0-1,0.4-1,1c0,0.6,0.4,1,1,1c0.6,0,1-0.4,1-1C9.2,68.2,8.7,67.7,8.2,67.7L8.2,67.7z"/>
		</g>
		<g>
			<path class="st9" d="M8.2,74.2c-0.6,0-1,0.4-1,1c0,0.6,0.4,1,1,1c0.6,0,1-0.4,1-1C9.2,74.7,8.7,74.2,8.2,74.2L8.2,74.2z"/>
		</g>
		<g>
			<path class="st9" d="M8.2,80.7c-0.6,0-1,0.4-1,1s0.4,1,1,1c0.6,0,1-0.4,1-1S8.7,80.7,8.2,80.7L8.2,80.7z"/>
		</g>
		<g>
			<path class="st9" d="M8.2,87.2c-0.6,0-1,0.4-1,1s0.4,1,1,1c0.6,0,1-0.4,1-1S8.7,87.2,8.2,87.2L8.2,87.2z"/>
		</g>
		<g>
			<path class="st9" d="M8.2,93.7c-0.6,0-1,0.4-1,1c0,0.6,0.4,1,1,1c0.6,0,1-0.4,1-1C9.2,94.1,8.7,93.7,8.2,93.7L8.2,93.7z"/>
		</g>
		<g>
			<path class="st9" d="M8.2,100.2c-0.6,0-1,0.4-1,1c0,0.6,0.4,1,1,1c0.6,0,1-0.4,1-1C9.2,100.6,8.7,100.2,8.2,100.2L8.2,100.2z"/>
		</g>
		<g>
			<path class="st9" d="M8.2,106.7c-0.6,0-1,0.4-1,1c0,0.6,0.4,1,1,1c0.6,0,1-0.4,1-1C9.2,107.1,8.7,106.7,8.2,106.7L8.2,106.7z"/>
		</g>
		<g>
			<path class="st9" d="M8.2,113.1c-0.6,0-1,0.4-1,1c0,0.6,0.4,1,1,1c0.6,0,1-0.4,1-1C9.2,113.6,8.7,113.1,8.2,113.1L8.2,113.1z"/>
		</g>
		<g>
			<path class="st9" d="M8.2,119.6c-0.6,0-1,0.4-1,1c0,0.6,0.4,1,1,1c0.6,0,1-0.4,1-1C9.2,120.1,8.7,119.6,8.2,119.6L8.2,119.6z"/>
		</g>
		<g>
			<path class="st9" d="M8.2,126.1c-0.6,0-1,0.4-1,1c0,0.6,0.4,1,1,1c0.6,0,1-0.4,1-1C9.2,126.6,8.7,126.1,8.2,126.1L8.2,126.1z"/>
		</g>
		<g>
			<path class="st9" d="M8.2,132.6c-0.6,0-1,0.4-1,1c0,0.6,0.4,1,1,1c0.6,0,1-0.4,1-1C9.2,133,8.7,132.6,8.2,132.6L8.2,132.6z"/>
		</g>
		<g>
			<path class="st9" d="M8.2,139.1c-0.6,0-1,0.4-1,1c0,0.6,0.4,1,1,1c0.6,0,1-0.4,1-1C9.2,139.5,8.7,139.1,8.2,139.1L8.2,139.1z"/>
		</g>
		<g>
			<path class="st9" d="M8.2,145.6c-0.6,0-1,0.4-1,1c0,0.6,0.4,1,1,1c0.6,0,1-0.4,1-1C9.2,146,8.7,145.6,8.2,145.6L8.2,145.6z"/>
		</g>
		<g>
			<path class="st9" d="M8.2,152.1c-0.6,0-1,0.4-1,1c0,0.6,0.4,1,1,1c0.6,0,1-0.4,1-1C9.2,152.5,8.7,152.1,8.2,152.1L8.2,152.1z"/>
		</g>
		<g>
			<path class="st9" d="M8.2,158.5c-0.6,0-1,0.4-1,1c0,0.6,0.4,1,1,1c0.6,0,1-0.4,1-1C9.2,159,8.7,158.5,8.2,158.5L8.2,158.5z"/>
		</g>
		<g>
			<path class="st9" d="M8.2,165c-0.6,0-1,0.4-1,1c0,0.6,0.4,1,1,1c0.6,0,1-0.4,1-1C9.2,165.5,8.7,165,8.2,165L8.2,165z"/>
		</g>
		<g>
			<path class="st9" d="M10.1,170.6c-0.6,0-1,0.4-1,1s0.4,1,1,1s1-0.4,1-1S10.7,170.6,10.1,170.6L10.1,170.6z"/>
		</g>
		<g>
			<path class="st9" d="M16.6,170.8c-0.6,0-1,0.4-1,1c0,0.6,0.4,1,1,1c0.6,0,1-0.4,1-1C17.6,171.3,17.2,170.8,16.6,170.8L16.6,170.8
				z"/>
		</g>
		<g>
			<path class="st9" d="M23.1,170.8c-0.6,0-1,0.4-1,1c0,0.6,0.4,1,1,1s1-0.4,1-1C24.1,171.3,23.6,170.8,23.1,170.8L23.1,170.8z"/>
		</g>
		<g>
			<path class="st9" d="M29.6,170.8c-0.6,0-1,0.4-1,1c0,0.6,0.4,1,1,1c0.6,0,1-0.4,1-1C30.6,171.3,30.1,170.8,29.6,170.8L29.6,170.8
				z"/>
		</g>
		<g>
			<path class="st9" d="M36.1,170.8c-0.6,0-1,0.4-1,1c0,0.6,0.4,1,1,1c0.6,0,1-0.4,1-1C37.1,171.3,36.6,170.8,36.1,170.8L36.1,170.8
				z"/>
		</g>
		<g>
			<path class="st9" d="M42.5,170.8c-0.6,0-1,0.4-1,1c0,0.6,0.4,1,1,1c0.6,0,1-0.4,1-1C43.5,171.3,43.1,170.8,42.5,170.8L42.5,170.8
				z"/>
		</g>
		<g>
			<path class="st9" d="M49,170.8c-0.6,0-1,0.4-1,1c0,0.6,0.4,1,1,1c0.6,0,1-0.4,1-1C50,171.3,49.6,170.8,49,170.8L49,170.8z"/>
		</g>
		<g>
			<path class="st9" d="M55.5,170.8c-0.6,0-1,0.4-1,1c0,0.6,0.4,1,1,1c0.6,0,1-0.4,1-1C56.5,171.3,56.1,170.8,55.5,170.8L55.5,170.8
				z"/>
		</g>
		<g>
			<path class="st9" d="M62,170.8c-0.6,0-1,0.4-1,1c0,0.6,0.4,1,1,1c0.6,0,1-0.4,1-1C63,171.3,62.6,170.8,62,170.8L62,170.8z"/>
		</g>
		<g>
			<path class="st9" d="M68.5,170.8c-0.6,0-1,0.4-1,1c0,0.6,0.4,1,1,1c0.6,0,1-0.4,1-1C69.5,171.3,69,170.8,68.5,170.8L68.5,170.8z"
				/>
		</g>
		<g>
			<path class="st9" d="M75,170.8c-0.6,0-1,0.4-1,1c0,0.6,0.4,1,1,1s1-0.4,1-1C76,171.3,75.5,170.8,75,170.8L75,170.8z"/>
		</g>
		<g>
			<path class="st9" d="M81.5,170.8c-0.6,0-1,0.4-1,1c0,0.6,0.4,1,1,1c0.6,0,1-0.4,1-1C82.5,171.3,82,170.8,81.5,170.8L81.5,170.8z"
				/>
		</g>
		<g>
			<path class="st9" d="M88,170.8c-0.6,0-1,0.4-1,1c0,0.6,0.4,1,1,1s1-0.4,1-1C89,171.3,88.5,170.8,88,170.8L88,170.8z"/>
		</g>
		<g>
			<path class="st9" d="M94.4,170.8c-0.6,0-1,0.4-1,1c0,0.6,0.4,1,1,1s1-0.4,1-1C95.4,171.3,95,170.8,94.4,170.8L94.4,170.8z"/>
		</g>
		<g>
			<path class="st9" d="M100.9,170.8c-0.6,0-1,0.4-1,1c0,0.6,0.4,1,1,1c0.6,0,1-0.4,1-1C101.9,171.3,101.5,170.8,100.9,170.8
				L100.9,170.8z"/>
		</g>
		<g>
			<path class="st9" d="M107.4,170.8c-0.6,0-1,0.4-1,1c0,0.6,0.4,1,1,1s1-0.4,1-1C108.4,171.3,108,170.8,107.4,170.8L107.4,170.8z"
				/>
		</g>
		<g>
			<path class="st9" d="M113.9,170.8c-0.6,0-1,0.4-1,1c0,0.6,0.4,1,1,1c0.6,0,1-0.4,1-1C114.9,171.3,114.5,170.8,113.9,170.8
				L113.9,170.8z"/>
		</g>
		<g>
			<path class="st9" d="M119.6,169c-0.6,0-1,0.4-1,1c0,0.6,0.4,1,1,1s1-0.4,1-1C120.6,169.5,120.2,169,119.6,169L119.6,169z"/>
		</g>
		<g>
			<path class="st9" d="M119.8,162.5c-0.6,0-1,0.4-1,1c0,0.6,0.4,1,1,1c0.6,0,1-0.4,1-1C120.8,163,120.4,162.5,119.8,162.5
				L119.8,162.5z"/>
		</g>
		<g>
			<path class="st9" d="M119.8,156c-0.6,0-1,0.4-1,1c0,0.6,0.4,1,1,1c0.6,0,1-0.4,1-1C120.8,156.5,120.4,156,119.8,156L119.8,156z"
				/>
		</g>
		<g>
			<path class="st9" d="M119.8,149.6c-0.6,0-1,0.4-1,1c0,0.6,0.4,1,1,1c0.6,0,1-0.4,1-1C120.8,150,120.4,149.6,119.8,149.6
				L119.8,149.6z"/>
		</g>
		<g>
			<path class="st9" d="M119.8,143.1c-0.6,0-1,0.4-1,1c0,0.6,0.4,1,1,1c0.6,0,1-0.4,1-1C120.8,143.5,120.4,143.1,119.8,143.1
				L119.8,143.1z"/>
		</g>
		<g>
			<path class="st9" d="M119.8,136.6c-0.6,0-1,0.4-1,1c0,0.6,0.4,1,1,1c0.6,0,1-0.4,1-1C120.8,137,120.4,136.6,119.8,136.6
				L119.8,136.6z"/>
		</g>
		<g>
			<path class="st9" d="M119.8,130.1c-0.6,0-1,0.4-1,1c0,0.6,0.4,1,1,1c0.6,0,1-0.4,1-1C120.8,130.5,120.4,130.1,119.8,130.1
				L119.8,130.1z"/>
		</g>
		<g>
			<path class="st9" d="M119.8,123.6c-0.6,0-1,0.4-1,1c0,0.6,0.4,1,1,1c0.6,0,1-0.4,1-1C120.8,124.1,120.4,123.6,119.8,123.6
				L119.8,123.6z"/>
		</g>
		<g>
			<path class="st9" d="M119.8,117.1c-0.6,0-1,0.4-1,1c0,0.6,0.4,1,1,1c0.6,0,1-0.4,1-1C120.8,117.6,120.4,117.1,119.8,117.1
				L119.8,117.1z"/>
		</g>
		<g>
			<path class="st9" d="M119.8,110.6c-0.6,0-1,0.4-1,1c0,0.6,0.4,1,1,1c0.6,0,1-0.4,1-1C120.8,111.1,120.4,110.6,119.8,110.6
				L119.8,110.6z"/>
		</g>
		<g>
			<path class="st9" d="M119.8,104.1c-0.6,0-1,0.4-1,1c0,0.6,0.4,1,1,1c0.6,0,1-0.4,1-1C120.8,104.6,120.4,104.1,119.8,104.1
				L119.8,104.1z"/>
		</g>
		<g>
			<path class="st9" d="M119.8,97.7c-0.6,0-1,0.4-1,1c0,0.6,0.4,1,1,1c0.6,0,1-0.4,1-1C120.8,98.1,120.4,97.7,119.8,97.7L119.8,97.7
				z"/>
		</g>
		<g>
			<path class="st9" d="M119.8,91.2c-0.6,0-1,0.4-1,1c0,0.6,0.4,1,1,1c0.6,0,1-0.4,1-1C120.8,91.6,120.4,91.2,119.8,91.2L119.8,91.2
				z"/>
		</g>
		<g>
			<path class="st9" d="M119.8,84.7c-0.6,0-1,0.4-1,1s0.4,1,1,1c0.6,0,1-0.4,1-1S120.4,84.7,119.8,84.7L119.8,84.7z"/>
		</g>
		<g>
			<path class="st9" d="M119.8,78.2c-0.6,0-1,0.4-1,1s0.4,1,1,1c0.6,0,1-0.4,1-1S120.4,78.2,119.8,78.2L119.8,78.2z"/>
		</g>
		<g>
			<path class="st9" d="M119.8,71.7c-0.6,0-1,0.4-1,1s0.4,1,1,1c0.6,0,1-0.4,1-1S120.4,71.7,119.8,71.7L119.8,71.7z"/>
		</g>
		<g>
			<path class="st9" d="M119.8,65.2c-0.6,0-1,0.4-1,1c0,0.6,0.4,1,1,1c0.6,0,1-0.4,1-1C120.8,65.7,120.4,65.2,119.8,65.2L119.8,65.2
				z"/>
		</g>
		<g>
			<path class="st9" d="M119.8,58.7c-0.6,0-1,0.4-1,1c0,0.6,0.4,1,1,1c0.6,0,1-0.4,1-1C120.8,59.2,120.4,58.7,119.8,58.7L119.8,58.7
				z"/>
		</g>
		<g>
			<path class="st9" d="M119.8,52.3c-0.6,0-1,0.4-1,1s0.4,1,1,1c0.6,0,1-0.4,1-1S120.4,52.3,119.8,52.3L119.8,52.3z"/>
		</g>
		<g>
			<path class="st9" d="M119.8,45.8c-0.6,0-1,0.4-1,1s0.4,1,1,1c0.6,0,1-0.4,1-1S120.4,45.8,119.8,45.8L119.8,45.8z"/>
		</g>
		<g>
			<path class="st9" d="M119.8,39.3c-0.6,0-1,0.4-1,1s0.4,1,1,1c0.6,0,1-0.4,1-1S120.4,39.3,119.8,39.3L119.8,39.3z"/>
		</g>
		<g>
			<path class="st9" d="M119.8,32.8c-0.6,0-1,0.4-1,1s0.4,1,1,1c0.6,0,1-0.4,1-1S120.4,32.8,119.8,32.8L119.8,32.8z"/>
		</g>
		<g>
			<path class="st9" d="M119.8,26.3c-0.6,0-1,0.4-1,1s0.4,1,1,1c0.6,0,1-0.4,1-1S120.4,26.3,119.8,26.3L119.8,26.3z"/>
		</g>
		<g>
			<path class="st9" d="M119.8,19.8c-0.6,0-1,0.4-1,1c0,0.6,0.4,1,1,1c0.6,0,1-0.4,1-1C120.8,20.3,120.4,19.8,119.8,19.8L119.8,19.8
				z"/>
		</g>
		<g>
			<path class="st9" d="M119.8,13.3c-0.6,0-1,0.4-1,1s0.4,1,1,1c0.6,0,1-0.4,1-1S120.4,13.3,119.8,13.3L119.8,13.3z"/>
		</g>
		<g>
			<path class="st9" d="M117.9,7.7c-0.6,0-1,0.4-1,1s0.4,1,1,1c0.6,0,1-0.4,1-1S118.4,7.7,117.9,7.7L117.9,7.7z"/>
		</g>
		<g>
			<path class="st9" d="M111.4,7.6c-0.6,0-1,0.4-1,1c0,0.6,0.4,1,1,1s1-0.4,1-1C112.4,8,111.9,7.6,111.4,7.6L111.4,7.6z"/>
		</g>
	</g>
	<ellipse class="st34" cx="64" cy="90.2" rx="47.4" ry="73.2"/>
	<g>
		<ellipse class="st9" cx="97.9" cy="161.5" rx="0.8" ry="0.8"/>
		<g>
			<path class="st9" d="M104.7,158.4l-2.7,3.2c-0.5,0.6-1.2,1.1-2.1,1.2c-0.4,0.1-0.9,0.1-1.3-0.1c-0.2-0.1-0.4-0.2-0.7-0.3
				c-0.2-0.2-0.4-0.3-0.6-0.7l1.4-0.5c-0.1-0.1,0,0,0,0.1c0.1,0.1,0.2,0.1,0.3,0.2c0.2,0.1,0.5,0.2,0.7,0.2c0.5,0,1.1-0.3,1.6-0.7
				c0.5-0.4,1-1,1.5-1.4c0.5-0.5,1-1,1.5-1.5L104.7,158.4z"/>
		</g>
		<path class="st35" d="M103.8,156.1l-0.4,1c-1.3,0.4-2.5,0.2-3.7-0.4c0,0,0.1,0.8,0.5,1.2s0.9,0.4,0.9,0.4c0.2,0.3,0.1,0.6-0.2,1
			c0.8,0.3,1.5,0,2.2-0.4c0.3-0.6,0.4-1.1,0.3-1.6"/>
		<path class="st35" d="M104.5,157c-0.4,0.1-0.7,0-0.9-0.4"/>
		<path class="st35" d="M104.3,157.7c-0.3,0.2-0.5,0.2-0.8,0"/>
		<path class="st35" d="M112.5,164.1c0,0-0.8-1.1-1.6-1.8c0.1-1.1-1.5-2.7-1.8-2.8c0.7-0.3,1.2-1.1,1.2-1.1s-1-0.5-2-0.2
			c1.5-2.2,1.6-2.8,1-3.7c0,1.1-1.5,2.9-2.8,3c-0.2,0.4-0.4,0.6-0.4,0.6s-0.2,0.2-0.5,0.5c0.1,1.3-1.6,2.9-2.7,3
			c0.9,0.6,1.5,0.4,3.6-1.3c-0.2,1.1,0.3,2,0.3,2s0.8-0.6,1-1.3c0.2,0.4,1.9,1.8,2.9,1.6C111.3,163.4,112.5,164.1,112.5,164.1z"/>
		<ellipse class="st9" cx="108.7" cy="149.8" rx="0.8" ry="0.8"/>
		<g>
			<path class="st9" d="M105.8,156.4l1.4-1.6c0.4-0.5,0.9-1.1,1.3-1.6c0.4-0.5,0.6-1.1,0.5-1.7c0-0.3-0.1-0.5-0.2-0.7
				c-0.1-0.1-0.1-0.2-0.2-0.3c-0.1-0.1-0.2-0.1-0.1,0l0.3-1.4c0.4,0.1,0.6,0.4,0.8,0.6c0.2,0.2,0.3,0.4,0.4,0.6
				c0.2,0.4,0.2,0.9,0.2,1.3c-0.1,0.9-0.5,1.6-1,2.2l-1.5,1.5c-0.5,0.5-1,1-1.5,1.5L105.8,156.4z"/>
		</g>
		<path class="st35" d="M103.8,156.1l0.9-0.4c0.3-1.3,0-2.5-0.7-3.7c0,0,0.8,0,1.3,0.4c0.4,0.4,0.5,0.9,0.5,0.9
			c0.3,0.2,0.6,0,0.9-0.3c0.4,0.8,0.2,1.5-0.2,2.2c-0.5,0.4-1.1,0.5-1.6,0.4"/>
		<path class="st35" d="M103.8,156.1c0,0,0.6-1.8-1.1-3.4c-1.7-1.6-2.6-1-2.6-1s-0.2-0.5-0.7-0.8c-0.5-0.3-1.3,0-1.3,0
			s-0.2,0.8,0.1,1.3c0.4,0.5,0.9,0.6,0.9,0.6s-0.5,0.9,1.2,2.5C102.1,156.8,103.8,156.1,103.8,156.1"/>
		<path class="st35" d="M104.6,156.8c0,0,0.8-0.6,1.4-0.2c0.8,0.6,0,1.5,0,1.5s-0.9,0.9-1.5,0.1C104,157.7,104.6,156.8,104.6,156.8z
			"/>
		<path class="st35" d="M104.7,156.7c0.1-0.4-0.1-0.6-0.5-0.8"/>
		<path class="st35" d="M105.4,156.4c0.2-0.3,0.2-0.5,0-0.8"/>
		<ellipse transform="matrix(0.68 -0.7332 0.7332 0.68 -84.7989 136.3779)" class="st9" cx="113.8" cy="165.3" rx="0.3" ry="0.5"/>
	</g>
	<g>
		<ellipse class="st9" cx="17.9" cy="149.6" rx="0.8" ry="0.8"/>
		<g>
			<path class="st9" d="M21,156.3l-3.2-2.8c-0.6-0.5-1.1-1.2-1.2-2.1c-0.1-0.4-0.1-0.9,0.1-1.3c0.1-0.2,0.2-0.4,0.3-0.7
				c0.2-0.2,0.3-0.4,0.7-0.6l0.5,1.4c0.1-0.1,0,0-0.1,0c-0.1,0.1-0.1,0.2-0.2,0.3c-0.1,0.2-0.2,0.5-0.2,0.7c0,0.5,0.3,1.1,0.7,1.6
				c0.4,0.5,1,1,1.4,1.5c0.5,0.5,1,1,1.5,1.5L21,156.3z"/>
		</g>
		<path class="st35" d="M23.3,155.4l-1-0.4c-0.4-1.3-0.2-2.5,0.4-3.7c0,0-0.8,0.1-1.2,0.5c-0.4,0.4-0.4,0.9-0.4,0.9
			c-0.3,0.2-0.6,0.1-0.9-0.2c-0.3,0.8,0,1.5,0.4,2.2c0.6,0.3,1.1,0.4,1.6,0.3"/>
		<path class="st35" d="M22.5,156.1c-0.1-0.4,0-0.7,0.4-0.9"/>
		<path class="st35" d="M21.8,155.9c-0.2-0.3-0.2-0.5,0-0.8"/>
		<path class="st35" d="M15.3,164.2c0,0,1.1-0.8,1.8-1.6c1.1,0.1,2.7-1.5,2.8-1.8c0.3,0.7,1.1,1.2,1.1,1.2s0.5-1,0.2-2
			c2.2,1.5,2.8,1.6,3.7,1c-1.1,0-2.9-1.5-3-2.8c-0.3-0.2-0.6-0.4-0.6-0.4s-0.2-0.2-0.5-0.5c-1.3,0.1-2.9-1.6-3-2.7
			c-0.6,0.9-0.4,1.5,1.3,3.6c-1.1-0.2-2,0.3-2,0.3s0.6,0.8,1.3,1c-0.4,0.2-1.8,1.9-1.6,3C16,163,15.3,164.2,15.3,164.2z"/>
		<ellipse class="st9" cx="29.6" cy="160.4" rx="0.8" ry="0.8"/>
		<g>
			<path class="st9" d="M23,157.4l1.6,1.4c0.5,0.4,1.1,1,1.6,1.3c0.5,0.4,1.1,0.6,1.6,0.5c0.3,0,0.5-0.1,0.7-0.2
				c0.1-0.1,0.2-0.1,0.3-0.2c0.1-0.1,0.1-0.2,0-0.1l1.4,0.3c-0.1,0.4-0.4,0.6-0.6,0.8c-0.2,0.2-0.4,0.3-0.6,0.4
				c-0.4,0.2-0.9,0.2-1.3,0.2c-0.9-0.1-1.6-0.5-2.2-1l-1.5-1.5c-0.5-0.5-1-1-1.5-1.5L23,157.4z"/>
		</g>
		<path class="st35" d="M23.3,155.4l0.4,1c1.3,0.3,2.5,0,3.7-0.7c0,0,0,0.8-0.4,1.3c-0.4,0.4-0.9,0.5-0.9,0.5
			c-0.2,0.3,0,0.6,0.3,0.9c-0.8,0.4-1.5,0.2-2.2-0.2c-0.4-0.5-0.5-1.1-0.4-1.6"/>
		<path class="st35" d="M23.3,155.4c0,0,1.8,0.6,3.4-1.1s1-2.6,1-2.6s0.5-0.2,0.8-0.7s0-1.3,0-1.3s-0.8-0.2-1.3,0.1
			c-0.5,0.4-0.6,0.9-0.6,0.9s-0.9-0.5-2.5,1.2C22.6,153.7,23.3,155.4,23.3,155.4"/>
		<path class="st35" d="M22.6,156.2c0,0,0.6,0.8,0.2,1.4c-0.6,0.8-1.5,0-1.5,0s-0.9-0.9-0.1-1.5C21.7,155.7,22.6,156.2,22.6,156.2z"
			/>
		<path class="st35" d="M22.7,156.4c0.4,0.1,0.6-0.1,0.8-0.5"/>
		<path class="st35" d="M23,157.1c0.3,0.2,0.5,0.2,0.8,0"/>
		
			<ellipse transform="matrix(0.6735 -0.7392 0.7392 0.6735 -117.7355 64.4693)" class="st9" cx="14.1" cy="165.5" rx="0.5" ry="0.3"/>
	</g>
	<g>
		<g>
			<g>
				<path class="st9" d="M63.3,165.6c0,0.1-0.9,0.2-2.4,0.2c-1.6,0-3.9-0.1-6.6-0.7c-1.4-0.3-2.9-0.9-4.4-1.4
					c-0.8-0.3-1.5-0.4-2.3-0.3c-0.8,0.1-1.6,0.3-2.5,0.6c-1.7,0.6-3.5,1.4-5.5,1.9c-1,0.3-2.1,0.4-3.2,0.4c-1.2,0-2.4-0.5-3.3-1.2
					c-1.9-1.5-2.6-4.3-1.3-6.4c1.2-2,4-2.8,5.8-1.5c0.9,0.6,1.5,1.7,1.5,2.7c0.1,1-0.4,2.1-1.2,2.7c-0.8,0.6-1.9,0.7-2.8,0.3
					c-0.9-0.4-1.4-1.3-1.3-2.2c0-0.9,0.7-1.7,1.4-1.9c0.4-0.1,0.8-0.1,1.1,0c0.4,0.1,0.6,0.4,0.8,0.7c0.4,0.6,0.2,1.4-0.3,1.8
					c-0.5,0.4-1.2,0.3-1.5-0.1c-0.3-0.4-0.3-0.9-0.1-1.2c0.3-0.3,0.6-0.3,0.9-0.2c0.2,0.1,0.3,0.3,0.3,0.4c0,0.1,0,0.2,0,0.2
					c0,0-0.1-0.3-0.4-0.4c-0.1,0-0.4,0-0.5,0.2c-0.1,0.2-0.1,0.5,0.1,0.7c0.2,0.2,0.6,0.2,0.8,0c0.3-0.2,0.3-0.6,0.1-1
					c-0.2-0.4-0.7-0.5-1.1-0.4c-0.4,0.1-0.8,0.6-0.8,1.1c0,0.5,0.4,1.1,0.9,1.3c0.5,0.2,1.2,0.1,1.8-0.3c0.5-0.4,0.8-1.1,0.8-1.8
					c-0.1-0.7-0.5-1.4-1.1-1.8c-1.2-0.9-3.3-0.3-4.2,1.2c-0.9,1.5-0.4,3.7,1.1,4.8c0.7,0.6,1.6,0.9,2.5,0.9c1,0,1.9-0.1,2.9-0.4
					c1.9-0.5,3.7-1.2,5.5-1.8c0.9-0.3,1.8-0.5,2.8-0.6c1-0.1,1.9,0.2,2.7,0.5c1.6,0.6,2.9,1.2,4.3,1.5c2.7,0.7,4.9,0.9,6.5,1.1
					C62.4,165.4,63.3,165.5,63.3,165.6z"/>
			</g>
		</g>
	</g>
	<g>
		<g>
			<g>
				<path class="st9" d="M65,165.6c0-0.1,0.9-0.2,2.4-0.3c1.5-0.1,3.8-0.3,6.4-1c1.3-0.3,2.7-0.9,4.2-1.5c0.8-0.3,1.7-0.5,2.7-0.5
					c0.9,0,1.9,0.3,2.7,0.6c1.8,0.6,3.5,1.3,5.4,1.8c0.9,0.2,1.9,0.4,2.8,0.3c0.9,0,1.8-0.4,2.5-0.9c1.4-1.2,1.9-3.3,1.1-4.8
					c-0.8-1.5-2.9-2.1-4.1-1.2c-0.6,0.4-1,1.1-1.1,1.8c-0.1,0.7,0.2,1.4,0.8,1.7c0.5,0.4,1.2,0.5,1.7,0.3c0.5-0.2,0.9-0.8,0.9-1.3
					c0-0.5-0.3-1-0.8-1.1c-0.5-0.2-0.9,0-1.1,0.4c-0.2,0.4-0.2,0.8,0.1,1c0.3,0.2,0.6,0.2,0.8,0c0.2-0.2,0.2-0.5,0.1-0.7
					c-0.1-0.2-0.3-0.2-0.5-0.2c-0.3,0.1-0.3,0.4-0.4,0.4c0,0,0-0.1,0-0.2c0-0.1,0.1-0.3,0.3-0.4c0.2-0.1,0.6-0.1,0.9,0.2
					c0.3,0.3,0.3,0.8-0.1,1.2c-0.3,0.4-1,0.5-1.5,0.1c-0.5-0.4-0.7-1.2-0.3-1.8c0.2-0.3,0.4-0.6,0.8-0.7c0.4-0.1,0.8-0.1,1.1,0
					c0.8,0.2,1.4,1,1.4,1.9c0,0.8-0.5,1.7-1.3,2.2c-0.9,0.4-1.9,0.3-2.7-0.3c-0.8-0.5-1.3-1.6-1.2-2.6c0.1-1,0.6-2,1.5-2.7
					c1.8-1.3,4.6-0.5,5.8,1.5c1.2,2,0.5,4.8-1.3,6.3c-0.9,0.8-2.1,1.2-3.2,1.2c-1.1,0-2.2-0.2-3.2-0.4c-2-0.5-3.8-1.3-5.5-1.9
					c-0.8-0.3-1.7-0.5-2.5-0.6c-0.8-0.1-1.5,0.1-2.3,0.3c-1.5,0.5-3,1.1-4.3,1.4c-2.8,0.6-5,0.7-6.6,0.7
					C65.9,165.7,65,165.6,65,165.6z"/>
			</g>
		</g>
	</g>
	<g>
		<ellipse class="st9" cx="97.9" cy="18.3" rx="0.8" ry="0.8"/>
		<g>
			<path class="st9" d="M104.3,21.7l-1.5-1.5c-0.5-0.5-1-1-1.5-1.5c-0.5-0.4-1.1-0.7-1.6-0.7c-0.3,0-0.5,0-0.7,0.2
				c-0.1,0.1-0.2,0.1-0.3,0.2c-0.1,0.1-0.1,0.2-0.1,0.1L97.2,18c0.2-0.4,0.4-0.6,0.6-0.7c0.2-0.2,0.4-0.2,0.7-0.3
				c0.4-0.1,0.9-0.2,1.3-0.1c0.9,0.2,1.6,0.7,2.1,1.2l1.4,1.6c0.4,0.5,0.9,1.1,1.4,1.6L104.3,21.7z"/>
		</g>
		<path class="st35" d="M103.8,23.7l-0.4-1c-1.3-0.4-2.5-0.2-3.7,0.4c0,0,0.1-0.8,0.5-1.2s0.9-0.4,0.9-0.4c0.2-0.3,0.1-0.6-0.2-1
			c0.8-0.3,1.5,0,2.2,0.4c0.3,0.6,0.4,1.1,0.3,1.6"/>
		<path class="st35" d="M104.5,22.8c-0.4-0.1-0.7,0-0.9,0.4"/>
		<path class="st35" d="M104.3,22.1c-0.3-0.2-0.5-0.2-0.8,0"/>
		<path class="st35" d="M112.5,15.7c0,0-0.8,1.1-1.6,1.8c0.1,1.1-1.5,2.7-1.8,2.8c0.7,0.3,1.2,1.1,1.2,1.1s-1,0.5-2,0.2
			c1.5,2.2,1.6,2.8,1,3.7c0-1.1-1.5-2.9-2.8-3c-0.2-0.4-0.4-0.6-0.4-0.6s-0.2-0.2-0.5-0.5c0.1-1.3-1.6-2.9-2.7-3
			c0.9-0.6,1.5-0.4,3.6,1.3c-0.2-1.1,0.3-2,0.3-2s0.8,0.6,1,1.3c0.2-0.4,1.9-1.8,2.9-1.6C111.3,16.4,112.5,15.7,112.5,15.7z"/>
		<ellipse class="st9" cx="108.7" cy="30" rx="0.8" ry="0.8"/>
		<g>
			<path class="st9" d="M106.2,23l3,3c0.5,0.6,1,1.3,1,2.2c0,0.4,0,0.9-0.2,1.3c-0.1,0.2-0.2,0.4-0.4,0.6c-0.2,0.2-0.3,0.4-0.8,0.5
				l-0.3-1.4c-0.1,0.1,0,0,0.1,0c0.1-0.1,0.1-0.2,0.2-0.3c0.1-0.2,0.2-0.5,0.2-0.7c0-0.5-0.2-1.1-0.5-1.7c-0.4-0.5-0.9-1.1-1.3-1.6
				c-0.4-0.5-0.9-1.1-1.4-1.6L106.2,23z"/>
		</g>
		<path class="st35" d="M103.8,23.7l0.9,0.4c0.3,1.3,0,2.5-0.7,3.7c0,0,0.8,0,1.3-0.4c0.4-0.4,0.5-0.9,0.5-0.9
			c0.3-0.2,0.6,0,0.9,0.3c0.4-0.8,0.2-1.5-0.2-2.2c-0.5-0.4-1.1-0.5-1.6-0.4"/>
		<path class="st35" d="M103.8,23.7c0,0,0.6,1.8-1.1,3.4c-1.7,1.6-2.6,1-2.6,1s-0.2,0.5-0.7,0.8c-0.5,0.3-1.3,0-1.3,0
			s-0.2-0.8,0.1-1.3c0.4-0.5,0.9-0.6,0.9-0.6s-0.5-0.9,1.2-2.5C102.1,22.9,103.8,23.7,103.8,23.7"/>
		<path class="st35" d="M104.6,23c0,0,0.8,0.6,1.4,0.2c0.8-0.6,0-1.5,0-1.5s-0.9-0.9-1.5-0.1C104,22.1,104.6,23,104.6,23z"/>
		<path class="st35" d="M104.7,23.1c0.1,0.4-0.1,0.6-0.5,0.8"/>
		<path class="st35" d="M105.4,23.3c0.2,0.3,0.2,0.5,0,0.8"/>
		<ellipse transform="matrix(0.7332 -0.68 0.68 0.7332 20.5512 81.2577)" class="st9" cx="113.8" cy="14.4" rx="0.5" ry="0.3"/>
	</g>
	<g>
		<g>
			<g>
				<path class="st9" d="M63.3,15c0,0.1-0.9,0.2-2.4,0.3c-1.5,0.1-3.8,0.4-6.5,1.1c-1.3,0.4-2.7,0.9-4.3,1.5
					c-0.8,0.3-1.7,0.5-2.7,0.5c-1,0-1.9-0.3-2.8-0.6c-1.8-0.6-3.6-1.4-5.5-1.8c-0.9-0.2-1.9-0.4-2.9-0.4c-0.9,0-1.8,0.4-2.5,0.9
					c-1.4,1.2-2,3.4-1.1,4.8c0.8,1.5,2.9,2.1,4.2,1.2c0.6-0.4,1-1.1,1.1-1.8c0.1-0.7-0.2-1.4-0.8-1.8c-0.5-0.4-1.2-0.5-1.8-0.3
					c-0.5,0.2-0.9,0.8-0.9,1.3c0,0.5,0.3,1,0.8,1.1c0.5,0.2,0.9,0,1.1-0.4c0.2-0.4,0.2-0.8-0.1-1c-0.3-0.2-0.6-0.2-0.8,0
					c-0.2,0.2-0.2,0.5-0.1,0.7c0.1,0.2,0.3,0.3,0.5,0.2c0.3-0.1,0.3-0.4,0.4-0.4c0,0,0,0.1,0,0.2c0,0.1-0.1,0.3-0.3,0.4
					c-0.2,0.1-0.6,0.1-0.9-0.2c-0.3-0.3-0.3-0.9,0.1-1.2c0.3-0.4,1.1-0.5,1.5-0.1c0.5,0.4,0.7,1.2,0.3,1.8c-0.2,0.3-0.5,0.6-0.8,0.7
					c-0.4,0.2-0.8,0.1-1.1,0c-0.8-0.2-1.4-1-1.4-1.9c0-0.9,0.5-1.8,1.3-2.2c0.9-0.4,1.9-0.3,2.8,0.3c0.8,0.6,1.3,1.6,1.2,2.7
					c-0.1,1-0.6,2.1-1.5,2.7c-1.9,1.3-4.7,0.5-5.8-1.5c-1.2-2.1-0.5-4.9,1.3-6.4c0.9-0.8,2.1-1.2,3.3-1.2c1.1,0,2.2,0.2,3.2,0.4
					c2,0.5,3.8,1.3,5.5,1.9c0.9,0.3,1.7,0.5,2.5,0.6c0.8,0.1,1.5-0.1,2.3-0.3c1.5-0.5,3-1.1,4.4-1.4c2.8-0.6,5.1-0.7,6.6-0.7
					C62.4,14.8,63.3,14.9,63.3,15z"/>
			</g>
		</g>
	</g>
	<g>
		<g>
			<g>
				<path class="st9" d="M65,15c0-0.1,0.9-0.2,2.4-0.2c1.6,0,3.8,0.1,6.6,0.7c1.4,0.3,2.9,0.9,4.3,1.4c0.7,0.3,1.5,0.4,2.3,0.3
					c0.8-0.1,1.6-0.3,2.5-0.6c1.7-0.6,3.5-1.4,5.5-1.9c1-0.2,2.1-0.4,3.2-0.4c1.2,0,2.3,0.5,3.2,1.2c1.8,1.5,2.5,4.3,1.3,6.3
					c-1.1,2-3.9,2.8-5.8,1.5c-0.9-0.6-1.4-1.6-1.5-2.7c-0.1-1,0.4-2.1,1.2-2.6c0.8-0.6,1.9-0.7,2.7-0.3c0.9,0.4,1.4,1.3,1.3,2.2
					c0,0.9-0.6,1.7-1.4,1.9c-0.4,0.1-0.8,0.1-1.1,0c-0.4-0.1-0.6-0.4-0.8-0.7c-0.4-0.6-0.2-1.4,0.3-1.8c0.5-0.4,1.2-0.3,1.5,0.1
					c0.3,0.4,0.3,0.9,0.1,1.2c-0.3,0.3-0.6,0.3-0.9,0.2c-0.2-0.1-0.3-0.3-0.3-0.4c0-0.1,0-0.2,0-0.2c0,0,0.1,0.3,0.4,0.4
					c0.1,0,0.4,0,0.5-0.2c0.1-0.2,0.1-0.5-0.1-0.7c-0.2-0.2-0.6-0.2-0.8,0c-0.3,0.2-0.3,0.6-0.1,1c0.2,0.3,0.7,0.5,1.1,0.4
					c0.4-0.1,0.8-0.6,0.8-1.1c0-0.5-0.3-1.1-0.9-1.3c-0.5-0.2-1.2-0.1-1.7,0.3c-0.5,0.4-0.8,1-0.8,1.7c0.1,0.7,0.5,1.4,1.1,1.8
					c1.2,0.9,3.3,0.3,4.1-1.2c0.9-1.4,0.4-3.6-1.1-4.8c-0.7-0.6-1.6-0.9-2.5-0.9c-1,0-1.9,0.1-2.8,0.3c-1.9,0.4-3.6,1.2-5.4,1.8
					c-0.9,0.3-1.8,0.5-2.7,0.6c-0.9,0.1-1.9-0.2-2.7-0.5c-1.6-0.6-2.9-1.2-4.2-1.5c-2.6-0.7-4.9-0.9-6.4-1C65.9,15.1,65,15.1,65,15z
					"/>
			</g>
		</g>
	</g>
	<g>
		<ellipse class="st9" cx="29.7" cy="18" rx="0.8" ry="0.8"/>
		<g>
			<path class="st9" d="M23,21.1l2.7-3.2c0.5-0.6,1.2-1.1,2.1-1.2c0.4-0.1,0.9-0.1,1.3,0.1c0.2,0.1,0.4,0.2,0.7,0.3
				c0.2,0.2,0.4,0.3,0.6,0.7L29,18.2c0.1,0.1,0,0,0-0.1c-0.1-0.1-0.2-0.1-0.3-0.2c-0.2-0.1-0.5-0.2-0.7-0.2c-0.5,0-1.1,0.3-1.6,0.7
				c-0.5,0.4-1,1-1.5,1.4c-0.5,0.5-1,1-1.5,1.5L23,21.1z"/>
		</g>
		<path class="st35" d="M23.9,23.4l0.4-1c1.3-0.4,2.5-0.2,3.7,0.4c0,0-0.1-0.8-0.5-1.2s-0.9-0.4-0.9-0.4c-0.2-0.3-0.1-0.6,0.2-1
			c-0.8-0.3-1.5,0-2.2,0.4c-0.3,0.6-0.4,1.1-0.3,1.6"/>
		<path class="st35" d="M23.2,22.5c0.4-0.1,0.7,0,0.9,0.4"/>
		<path class="st35" d="M23.4,21.8c0.3-0.2,0.5-0.2,0.8,0"/>
		<path class="st35" d="M15.2,15.4c0,0,0.8,1.1,1.6,1.8c-0.1,1.1,1.5,2.7,1.8,2.8c-0.7,0.3-1.2,1.1-1.2,1.1s1,0.5,2,0.2
			c-1.5,2.2-1.6,2.8-1,3.7c0-1.1,1.5-2.9,2.8-3c0.2-0.4,0.4-0.6,0.4-0.6s0.2-0.2,0.5-0.5c-0.1-1.3,1.6-2.9,2.7-3
			c-0.9-0.6-1.5-0.4-3.6,1.3c0.2-1.1-0.3-2-0.3-2s-0.8,0.6-1,1.3c-0.2-0.4-1.9-1.8-2.9-1.6C16.3,16.1,15.2,15.4,15.2,15.4z"/>
		<ellipse class="st9" cx="19" cy="29.7" rx="0.8" ry="0.8"/>
		<g>
			<path class="st9" d="M21.9,23.1l-1.4,1.6c-0.4,0.5-0.9,1.1-1.3,1.6c-0.4,0.5-0.6,1.1-0.5,1.7c0,0.3,0.1,0.5,0.2,0.7
				c0.1,0.1,0.1,0.2,0.2,0.3c0.1,0.1,0.2,0.1,0.1,0l-0.3,1.4c-0.4-0.1-0.6-0.4-0.8-0.6c-0.2-0.2-0.3-0.4-0.4-0.6
				c-0.2-0.4-0.2-0.9-0.2-1.3c0.1-0.9,0.5-1.6,1-2.2l1.5-1.5c0.5-0.5,1-1,1.5-1.5L21.9,23.1z"/>
		</g>
		<path class="st35" d="M23.9,23.4l-0.9,0.4c-0.3,1.3,0,2.5,0.7,3.7c0,0-0.8,0-1.3-0.4s-0.5-0.9-0.5-0.9c-0.3-0.2-0.6,0-0.9,0.3
			c-0.4-0.8-0.2-1.5,0.2-2.2c0.5-0.4,1.1-0.5,1.6-0.4"/>
		<path class="st35" d="M23.9,23.4c0,0-0.6,1.8,1.1,3.4c1.7,1.6,2.6,1,2.6,1s0.2,0.5,0.7,0.8s1.3,0,1.3,0s0.2-0.8-0.1-1.3
			c-0.4-0.5-0.9-0.6-0.9-0.6s0.5-0.9-1.2-2.5C25.6,22.6,23.9,23.4,23.9,23.4"/>
		<path class="st35" d="M23.1,22.7c0,0-0.8,0.6-1.4,0.2c-0.8-0.6,0-1.5,0-1.5s0.9-0.9,1.5-0.1C23.7,21.8,23.1,22.7,23.1,22.7z"/>
		<path class="st35" d="M22.9,22.8c-0.1,0.4,0.1,0.6,0.5,0.8"/>
		<path class="st35" d="M22.3,23c-0.2,0.3-0.2,0.5,0,0.8"/>
		<ellipse transform="matrix(0.68 -0.7332 0.7332 0.68 -5.946 14.6694)" class="st9" cx="13.8" cy="14.1" rx="0.3" ry="0.5"/>
	</g>
	<g>
		<g>
			<g>
				<path class="st9" d="M14.5,89.1c-0.1,0-0.2-1.2-0.2-3.4c0-2.2,0.1-5.4,0.3-9.4c0.2-3.9,0.5-8.6,1-13.8c0.2-2.6,0.4-5.3,0.7-8.2
					c0.1-1.4,0.2-2.8,0.3-4.3c0-0.7,0.1-1.5,0.1-2.2c0-0.7-0.2-1.4-0.4-2.1c-0.8-2.8-2.3-5.5-2.4-8.6c-0.1-0.7,0-1.6,0.2-2.3
					c0.2-0.7,0.6-1.4,1.2-2c1-1.1,2.5-1.8,4-1.7c1.5,0,2.9,0.9,3.6,2.1c0.7,1.2,0.9,2.7,0.2,4c-0.6,1.2-2,1.9-3.2,1.9
					c-1.3,0-2.4-1-2.7-2.1c-0.1-0.6-0.1-1.2,0.1-1.7c0.2-0.5,0.6-0.9,1.1-1.2c0.5-0.2,1-0.3,1.5-0.2c0.5,0.1,0.9,0.5,1.2,0.9
					c0.2,0.4,0.3,0.9,0.2,1.3c-0.1,0.4-0.4,0.8-0.8,1c-0.4,0.2-0.8,0.2-1.2,0.1c-0.4-0.1-0.6-0.4-0.7-0.8c-0.1-0.3-0.1-0.7,0.1-0.9
					c0.2-0.3,0.4-0.4,0.7-0.5c0.6-0.1,0.9,0.4,0.9,0.7c0,0.4-0.2,0.6-0.4,0.6c-0.2,0-0.2,0-0.2,0c0,0,0.1,0,0.2-0.1
					c0.1-0.1,0.2-0.2,0.2-0.5c0-0.2-0.3-0.5-0.6-0.4c-0.3,0.1-0.6,0.5-0.4,0.9c0.2,0.4,0.7,0.6,1.2,0.3c0.5-0.3,0.6-0.9,0.3-1.5
					c-0.3-0.5-1.1-0.7-1.7-0.4c-0.6,0.3-1,1.1-0.7,1.9c0.2,0.8,1,1.4,1.9,1.4c0.9,0,1.8-0.5,2.3-1.4c0.5-0.8,0.3-2-0.2-2.9
					c-0.6-0.9-1.6-1.5-2.7-1.5c-1.1,0-2.3,0.5-3.1,1.4c-0.8,0.9-1.2,2.1-1.1,3.4c0.1,1.3,0.4,2.7,0.9,4.1c0.5,1.4,1,2.7,1.5,4.2
					c0.2,0.7,0.4,1.5,0.4,2.4c0,0.8-0.1,1.5-0.1,2.3c-0.1,1.5-0.2,2.9-0.4,4.3c-0.3,2.8-0.5,5.6-0.7,8.2c-0.5,5.2-0.9,9.9-1.2,13.8
					c-0.3,3.9-0.6,7.1-0.7,9.3C14.7,87.9,14.6,89.1,14.5,89.1z"/>
			</g>
		</g>
	</g>
	<g>
		<g>
			<g>
				<path class="st9" d="M14.5,90.8c0.1,0,0.2,1.2,0.3,3.4c0.1,2.2,0.4,5.3,0.7,9.2c0.3,3.9,0.7,8.5,1.2,13.7
					c0.2,2.6,0.5,5.3,0.7,8.1c0.1,1.4,0.2,2.8,0.3,4.3c0,0.7,0.1,1.5,0.1,2.2c0,0.8-0.2,1.6-0.4,2.4c-0.4,1.5-1,2.9-1.5,4.2
					c-0.5,1.3-0.8,2.7-0.9,4c0,0.7,0,1.3,0.1,1.9c0.2,0.6,0.5,1.1,0.9,1.6c0.8,0.9,1.9,1.4,3.1,1.4c1.1,0,2.2-0.6,2.7-1.5
					c0.6-0.9,0.7-2,0.3-2.9c-0.4-0.9-1.3-1.4-2.2-1.4c-0.9,0-1.7,0.6-1.9,1.4c-0.3,0.8,0.1,1.6,0.7,1.9c0.6,0.4,1.4,0.2,1.7-0.3
					c0.4-0.5,0.2-1.2-0.2-1.5c-0.5-0.3-1-0.1-1.2,0.3c-0.2,0.4,0.1,0.8,0.4,0.9c0.3,0.1,0.6-0.1,0.6-0.4c0.1-0.2-0.1-0.4-0.2-0.5
					c-0.1-0.1-0.2-0.1-0.2-0.1c0,0,0.1-0.1,0.2,0c0.2,0,0.4,0.3,0.4,0.6c0,0.3-0.4,0.8-0.9,0.7c-0.3,0-0.5-0.2-0.7-0.5
					c-0.2-0.3-0.2-0.6-0.1-0.9c0.1-0.3,0.4-0.6,0.7-0.7c0.4-0.1,0.8-0.1,1.1,0.1c0.4,0.2,0.7,0.6,0.8,1c0.1,0.4,0,0.9-0.2,1.3
					c-0.2,0.4-0.7,0.7-1.2,0.9c-0.5,0.1-1,0-1.5-0.2c-0.5-0.2-0.9-0.7-1.1-1.2c-0.2-0.5-0.2-1.1-0.1-1.7c0.3-1.1,1.4-2.1,2.7-2.1
					c1.2,0,2.5,0.7,3.1,1.9c0.6,1.2,0.5,2.7-0.3,3.9c-0.7,1.2-2.1,2-3.6,2c-1.4,0-2.9-0.6-3.9-1.8c-0.5-0.6-0.9-1.3-1.1-2
					c-0.2-0.7-0.2-1.6-0.2-2.3c0.2-3,1.6-5.7,2.4-8.5c0.2-0.7,0.3-1.4,0.3-2c0-0.7-0.1-1.4-0.1-2.2c-0.1-1.4-0.2-2.9-0.3-4.3
					c-0.2-2.8-0.4-5.5-0.6-8.1c-0.4-5.2-0.7-9.8-0.9-13.7c-0.2-3.9-0.3-7.1-0.3-9.3C14.4,92,14.5,90.8,14.5,90.8z"/>
			</g>
		</g>
	</g>
	<g>
		<g>
			<g>
				<path class="st9" d="M113.3,89.1c-0.1,0-0.2-1.2-0.3-3.4c-0.1-2.2-0.4-5.4-0.7-9.3c-0.3-3.9-0.8-8.6-1.2-13.8
					c-0.2-2.6-0.5-5.3-0.7-8.2c-0.1-1.4-0.2-2.9-0.4-4.3c0-0.7-0.1-1.5-0.1-2.3c0-0.8,0.2-1.6,0.4-2.4c0.4-1.5,1-2.9,1.5-4.2
					c0.5-1.4,0.8-2.7,0.9-4.1c0.1-1.3-0.2-2.5-1.1-3.4c-0.8-0.9-2-1.4-3.1-1.4c-1.1,0-2.2,0.6-2.7,1.5c-0.6,0.9-0.7,2.1-0.2,2.9
					c0.4,0.9,1.4,1.4,2.3,1.4c0.9,0,1.7-0.6,1.9-1.4c0.3-0.8-0.1-1.6-0.7-1.9c-0.6-0.4-1.4-0.2-1.7,0.4c-0.4,0.5-0.2,1.2,0.3,1.5
					c0.5,0.3,1,0.1,1.2-0.3c0.2-0.4-0.1-0.8-0.4-0.9c-0.3-0.1-0.6,0.1-0.6,0.4c-0.1,0.2,0.1,0.4,0.2,0.5c0.1,0.1,0.2,0.1,0.2,0.1
					c0,0-0.1,0.1-0.2,0c-0.2,0-0.4-0.3-0.4-0.6c0-0.3,0.4-0.8,0.9-0.7c0.3,0,0.5,0.2,0.7,0.5c0.2,0.3,0.2,0.6,0.1,0.9
					c-0.1,0.3-0.4,0.6-0.7,0.8c-0.4,0.1-0.8,0.1-1.2-0.1c-0.4-0.2-0.7-0.6-0.8-1c-0.1-0.5,0-0.9,0.2-1.3c0.2-0.4,0.7-0.7,1.2-0.9
					c0.5-0.1,1-0.1,1.5,0.2c0.5,0.2,0.9,0.7,1.1,1.2c0.2,0.5,0.2,1.1,0.1,1.7c-0.3,1.1-1.4,2.1-2.7,2.1c-1.2,0.1-2.6-0.6-3.2-1.9
					c-0.7-1.2-0.5-2.8,0.2-4c0.7-1.2,2.1-2.1,3.6-2.1c1.5,0,3,0.6,4,1.7c0.5,0.6,0.9,1.2,1.2,2c0.3,0.7,0.3,1.6,0.2,2.3
					c-0.2,3-1.6,5.8-2.4,8.6c-0.2,0.7-0.3,1.4-0.4,2.1c0,0.7,0.1,1.4,0.1,2.2c0.1,1.5,0.2,2.9,0.3,4.3c0.2,2.8,0.4,5.6,0.7,8.2
					c0.4,5.2,0.7,9.9,1,13.8c0.2,3.9,0.3,7.1,0.3,9.4C113.5,87.9,113.4,89.1,113.3,89.1z"/>
			</g>
		</g>
	</g>
	<g>
		<g>
			<g>
				<path class="st9" d="M113.3,90.8c0.1,0,0.2,1.2,0.2,3.4c0,2.2-0.1,5.4-0.3,9.3c-0.2,3.9-0.5,8.6-0.9,13.7
					c-0.2,2.6-0.4,5.3-0.6,8.1c-0.1,1.4-0.2,2.8-0.3,4.3c0,0.7-0.1,1.5-0.1,2.2c0,0.7,0.1,1.3,0.3,2c0.8,2.7,2.2,5.5,2.4,8.5
					c0,0.7,0,1.5-0.2,2.3c-0.2,0.7-0.6,1.4-1.1,2c-1,1.1-2.5,1.8-3.9,1.8c-1.5,0-2.9-0.8-3.6-2c-0.7-1.2-0.9-2.7-0.3-3.9
					c0.6-1.2,1.9-1.9,3.1-1.9c1.3,0,2.4,0.9,2.7,2.1c0.2,0.5,0.2,1.1-0.1,1.7c-0.2,0.5-0.6,0.9-1.1,1.2c-0.5,0.2-1,0.3-1.5,0.2
					c-0.5-0.1-0.9-0.4-1.2-0.9c-0.2-0.4-0.3-0.9-0.2-1.3c0.1-0.4,0.4-0.8,0.8-1c0.4-0.2,0.8-0.2,1.1-0.1c0.4,0.1,0.6,0.4,0.7,0.7
					c0.1,0.3,0.1,0.7-0.1,0.9c-0.2,0.3-0.4,0.4-0.7,0.5c-0.5,0.1-0.9-0.4-0.9-0.7c0-0.4,0.2-0.6,0.4-0.6c0.2,0,0.2,0,0.2,0
					c0,0-0.1,0-0.2,0.1c-0.1,0.1-0.2,0.2-0.2,0.5c0,0.2,0.3,0.5,0.6,0.4c0.3-0.1,0.6-0.5,0.4-0.9c-0.2-0.4-0.7-0.6-1.2-0.3
					c-0.5,0.3-0.6,0.9-0.2,1.5c0.3,0.5,1.1,0.7,1.7,0.3c0.6-0.3,1-1.1,0.7-1.9c-0.2-0.8-1-1.4-1.9-1.4c-0.9,0-1.8,0.5-2.2,1.4
					c-0.4,0.8-0.3,2,0.3,2.9c0.6,0.9,1.6,1.5,2.7,1.5c1.1,0,2.3-0.5,3.1-1.4c0.4-0.4,0.7-1,0.9-1.6c0.2-0.6,0.2-1.2,0.1-1.9
					c-0.1-1.3-0.5-2.7-0.9-4c-0.5-1.4-1-2.7-1.5-4.2c-0.2-0.7-0.4-1.5-0.4-2.4c0-0.8,0.1-1.5,0.1-2.2c0.1-1.5,0.2-2.9,0.3-4.3
					c0.2-2.8,0.5-5.5,0.7-8.1c0.4-5.2,0.9-9.8,1.2-13.7c0.3-3.9,0.6-7.1,0.7-9.2C113.1,92,113.2,90.8,113.3,90.8z"/>
			</g>
		</g>
	</g>
</g>
</svg>
