<?xml version="1.0" encoding="utf-8"?>
<!-- Generator: Adobe Illustrator 22.0.1, SVG Export Plug-In . SVG Version: 6.00 Build 0)  -->
<svg version="1.1" id="Layer_1" xmlns="http://www.w3.org/2000/svg" xmlns:xlink="http://www.w3.org/1999/xlink" x="0px" y="0px"
	 width="180px" height="180px" viewBox="0 0 180 180" style="enable-background:new 0 0 180 180;" xml:space="preserve">
<style type="text/css">
	.st0{fill:#ECBA7F;}
	.st1{fill:#ECCAA3;}
	.st2{fill:none;stroke:#A8774F;stroke-width:2;stroke-miterlimit:10;}
	.st3{fill:#D4AF92;}
	.st4{fill:#E6BA8C;}
	.st5{fill:#DEB493;}
	.st6{opacity:0.48;fill:#A8774F;enable-background:new    ;}
	.st7{fill:#C75C3E;}
	.st8{fill:#8F2C3E;}
	.st9{fill:#DE874B;}
</style>
<g id="Spatula">
	<path class="st0" d="M90.1,154.4c-62.2,0-88-15.9-88-24.4c1.8-6.7,10.5-22.6,11.3-23.8c2.1-4,147.2,0.1,149.3,4.1
		c0.8,1.2,15.5,13.2,15.5,19.7C178.2,138.5,152.3,154.4,90.1,154.4z"/>
	<path class="st1" d="M166.1,102.8c-1.9-3.7-7.1-6.4-13.5-7c-15.8-1.4-44.5-5.3-47.3-14.7c-3.4-11.1-7.4-28.6-8.6-37.4
		c-0.2-1.4-2.1-2.5-4.4-2.5h-2.1h-2.1c-2.3,0-4.3,1.1-4.4,2.5c-1.1,8.8-5.2,26.3-8.6,37.4c-2.9,9.4-31.6,13.3-47.3,14.7
		c-6.4,0.6-11.6,3.3-13.5,7c0,0-9.6,17.6-10.2,24.8c-0.6,7.2,22.8,21.9,86.2,21.9s88.2-15.8,86.4-22.8
		C174.7,119.4,166.1,102.8,166.1,102.8z M90.1,48.3c-2.2,0-4-0.9-4-2.1c0-1.2,1.8-2.1,4-2.1s4,0.9,4,2.1
		C94.2,47.4,92.4,48.3,90.1,48.3z"/>
	<path class="st2" d="M165.9,102.6c-1.9-3.7-7.1-6.4-13.5-7c-15.8-1.4-44.5-5.3-47.3-14.7c-3.4-11.1-7.4-28.6-8.6-37.4
		c-0.2-1.4-2.1-2.5-4.4-2.5H90h-2.1c-2.3,0-4.3,1.1-4.4,2.5c-1.1,8.8-5.2,26.3-8.6,37.4C72,90.3,43.4,94.2,27.6,95.6
		c-6.4,0.6-11.6,3.3-13.5,7c0,0-12.1,25.7-12.1,27.1c0,8.5,25.8,24.4,88,24.4s88-15.9,88-24.4C178,128.3,165.9,102.6,165.9,102.6z
		 M90,43.9c2.2,0,4,0.9,4,2.1s-1.8,2-4,2s-4-0.9-4-2.1S87.8,43.9,90,43.9z"/>
	<g>
		<g>
			<path class="st3" d="M54.9,92.7c2.6,5,8.5,10.1,6.7,16.2s-9.6,8.8-12.5,14.6c-4.1,8.2-1.3,19.6,3.5,26.9c0.1,0.2,0.4,0,0.3-0.2
				c-3-6.7-5-13.6-0.7-20.2c3.2-4.9,7.4-8.3,9.6-13.9c1.5-3.9,3-8.6,1.5-12.7C61.7,99,57.5,96.4,54.9,92.7
				C55,92.6,54.9,92.6,54.9,92.7L54.9,92.7z"/>
		</g>
	</g>
	<g>
		<g>
			<path class="st4" d="M17.5,99.1c-5.2,5.7-0.9,10.1,4.3,13.7c3.6,2.5,6.9,6,4.7,10.7c-0.9,2-2,3.9-2.9,6
				c-1.8,4.5-2.7,9.1-3.3,13.9c-0.1,0.5,0.7,0.6,0.9,0.1c1.4-4.5,2.5-9,4.3-13.4c1.3-3.3,4.2-7,3.8-10.7c-0.3-2.4-1.8-4.2-3.6-5.7
				c-1.3-1.1-2.9-1.9-4.3-2.9c-1.1-0.7-2.5-1.5-3.4-2.5C16.5,106.4,16.4,101.2,17.5,99.1L17.5,99.1L17.5,99.1z"/>
		</g>
	</g>
	<g>
		<g>
			<path class="st4" d="M30.6,112.4c-0.4-4,1.1-9.6,6-10.3c6.7-1,6,4.2,5.3,7.6c-1,4.7-3.5,7.2-6.1,11c-4.4,6.5-1.2,13.3-1.1,20.6
				c0,0.3,0.5,0.4,0.5,0.1c0.5-3.2,0.1-6-0.3-9.2c-0.4-3.5-1.1-6.5,0.8-9.7c0.8-1.4,2-2.5,2.9-3.8c2.8-3.9,6.2-10.4,4.5-15.5
				c-1.2-3.4-5.6-2.9-8.3-1.5C30.6,103.8,29.2,108.2,30.6,112.4C30.5,112.4,30.6,112.4,30.6,112.4L30.6,112.4z"/>
		</g>
	</g>
	<g>
		<g>
			<path class="st3" d="M33.1,111c0.3-0.8,0.6-1.6,1-2.3c2.1-0.1,2.6,0.9,1.4,2.8c-0.5,0.9-1.2,1.6-1.6,2.6
				c-1.1,2.5-1.3,5.7-4.5,6.5c-0.2,0.1-0.1,0.4,0.1,0.4c2-0.3,3.1-1.6,3.9-3.4c0.7-1.6,0.9-3.2,1.8-4.7c0.6-0.9,1.1-1.5,1.3-2.6
				c0.1-0.7,0.1-2.6-1-2.8C33.9,107.1,33.4,110,33.1,111L33.1,111L33.1,111z"/>
		</g>
	</g>
	<g>
		<g>
			<path class="st4" d="M96.2,49.5c-11.4,11.8-5.3,31,1.3,43.8c4.2,8.1,9.8,15.1,13.5,23.5c2,4.5,4.3,9.3,5.4,14.1
				c1.1,4.5,0,8.9,0.5,13.4c0.1,0.5,0.7,0.5,0.7,0c0.6-7.5,0.9-12.6-1.9-19.7c-3-7.6-6.2-14.8-10.7-21.6c-4.8-7.4-8.9-14.5-11.6-23
				C90.3,70,88,57.8,96.2,49.5C96.3,49.5,96.2,49.5,96.2,49.5L96.2,49.5z"/>
		</g>
	</g>
	<g>
		<g>
			<path class="st5" d="M149.3,98.5c5.6,5,11.1,9.3,13,16.9c1.9,7.8,2.4,15.8,2.7,23.8c0,0.9,1.3,1.1,1.6,0.2
				c2.2-8.4,1.9-17.8-1.5-25.8C161.8,106.3,155.6,102.8,149.3,98.5L149.3,98.5L149.3,98.5z"/>
		</g>
	</g>
	<g>
		<g>
			<path class="st3" d="M114.6,98.1c0.9,5.2,1.5,10.8,3.4,15.7c2,4.9,7.5,6.4,9.3,11c1.4,3.7,0.7,7.4,3.3,10.8
				c1.9,2.5,5.5,4.9,8.9,4.6c6.5-0.6,6.6-12.9,4.7-17.2c-2-4.4-5.9-8-8.5-12c-3.4-5.4-5.5-11.2-6.4-17.5c-0.1-0.4-0.7-0.3-0.7,0.1
				c-0.1,7.4,3,14.3,7.1,20.3c2,2.9,4.5,5.5,6.1,8.7c1.9,3.6,3.1,16.6-4.7,15.2c-8.9-1.6-5.2-12.6-10.2-17.3c-3.1-2.9-6.3-4.4-8-8.7
				C117,107.5,115.8,102.7,114.6,98.1L114.6,98.1L114.6,98.1z"/>
		</g>
	</g>
	<g>
		<g>
			<path class="st4" d="M79.8,65.2c2.1,3.8,4.1,6.7,4.1,11.2c0,3.8-0.7,7.7-1.7,11.3c-1.4,5.3-6,11.4-5.1,17.1
				c0.8,5.3,5.7,10.6,9.1,14.5c2.1,2.4,4.5,4.4,6.7,6.7c2.4,2.4,3.4,5.1,3.2,8.5c-0.2,2.8-1.8,6.7-4.6,7.7c-0.4,0.2-0.3,0.8,0.2,0.7
				c4.6-1.1,6.4-8.1,5.5-12.2c-0.7-2.9-3-5-5-6.9c-3.7-3.5-7.2-7.3-10.1-11.5c-1.3-1.8-3.1-4.1-3.6-6.3c-0.8-3.6,0.6-6.4,2-9.6
				c1.6-3.8,2.8-7.6,3.5-11.6c0.6-3.4,1.1-7.1,0.4-10.6C83.8,70.6,81.3,68.3,79.8,65.2C79.9,65.1,79.8,65.1,79.8,65.2L79.8,65.2z"/>
		</g>
	</g>
	<g>
		<g>
			<path class="st4" d="M68.4,87.6c0.8,4.8,3.5,9.8,3,14.8c-0.4,5-4.6,7.1-5.5,11.6c-0.1,0.4,0.5,0.8,0.8,0.3
				c2.1-3.7,5.7-6.6,6-11.1C73.2,97.8,70.1,92.6,68.4,87.6L68.4,87.6L68.4,87.6z"/>
		</g>
	</g>
	<g>
		<g>
			<path class="st3" d="M78.4,144.7c-4-1.9-8.5-5-8.5-10c0-3,2.4-6.1,3.4-8.9c1.9-5.3,2.4-11.2,0.8-16.5c-0.1-0.5-1-0.4-0.9,0.1
				c0.7,5.2,1,10.2-0.6,15.3c-0.9,2.9-2.9,5.6-3.4,8.6C68.2,139.4,73.6,142.5,78.4,144.7C78.4,144.8,78.4,144.7,78.4,144.7
				L78.4,144.7z"/>
		</g>
	</g>
	<g>
		<g>
			<path class="st5" d="M88.9,94.2c-3.6,0.5-4.4,5.7-3.6,8.7c0.6,2.3,2.6,4,4.2,5.7c0.7,0.8,1.7,2.5,3,2.5c2.4,0,4.4-6.2,4.1-8.1
				c-0.6-3.6-4.3-8.7-7.6-10.4c-0.4-0.2-0.9,0.3-0.5,0.7c3.7,3.8,8.6,9.4,4.9,14.8c-1,1.4-0.5,1.5-2,0.4c-0.9-0.7-1.8-1.9-2.6-2.7
				c-1.1-1.3-1.9-2.2-2.2-4c-0.4-2.3-0.7-6.3,2.6-6.9C89.5,94.8,89.3,94.1,88.9,94.2L88.9,94.2z"/>
		</g>
	</g>
</g>
<ellipse id="Shadow" class="st6" cx="90.2" cy="119.8" rx="58.4" ry="21.1"/>
<g id="Bacon">
	<g>
		<g>
			<path class="st7" d="M18.3,93.3l0.4-0.4c0.3-0.3,8.2-8.1,16-10.4c1.5-0.4,3.2-0.7,5.1-0.7c3.3,0,6.7,0.7,9.8,1.2
				c2.4,0.5,4.7,0.9,6.3,0.9c0.5,0,1,0,1.4-0.1c1.8-0.4,4.3-2.3,6.9-4.4c3.7-2.8,7.8-6,12.1-7c0.8-0.2,1.7-0.3,2.6-0.3
				c3.1,0,6,1.1,8.8,2.2c2.7,1,5.2,2,7.8,2c0.7,0,1.3-0.1,1.9-0.2c6.8-1.6,16.1-5.3,16.2-5.3l1.1-0.4l5.6,24.4l-0.5,0.4
				c-0.4,0.3-10.7,7.5-17,7.8c-0.2,0-0.3,0-0.5,0c-2.5,0-4.8-0.9-7-1.7c-2.2-0.8-4.5-1.7-7-1.7c-1,0-2.1,0.1-3.1,0.4
				c-3.5,1-7.5,3.7-11.4,6.4c-3.9,2.7-7.7,5.3-10.5,5.6c-0.5,0.1-1.1,0.1-1.7,0.1c-2.4,0-5.6-0.4-9-0.8s-6.9-0.8-9.5-0.8
				c-1.1,0-1.9,0.1-2.6,0.2c-4.9,1-15.3,5.5-15.4,5.6l-1.1,0.5L18.3,93.3z"/>
			<path class="st8" d="M113.9,71.9l5.2,22.6c0,0-10.4,7.3-16.4,7.6c-0.1,0-0.3,0-0.4,0c-4.8,0-8.8-3.4-14.1-3.4
				c-1.1,0-2.2,0.1-3.4,0.5c-7.3,2-16.6,11.5-21.8,12c-0.5,0.1-1,0.1-1.6,0.1c-4.9,0-13.2-1.6-18.5-1.6c-1.1,0-2,0.1-2.8,0.2
				c-5,1-15.6,5.7-15.6,5.7l-5.1-22c0,0,7.9-7.9,15.5-10.1c1.5-0.4,3.1-0.6,4.8-0.6c5.8,0,12.2,2.1,16.1,2.1c0.6,0,1.1,0,1.6-0.2
				c4.5-1,11.7-9.7,19.1-11.4c0.8-0.2,1.6-0.3,2.4-0.3c5.7,0,11.1,4.3,16.6,4.3c0.7,0,1.4-0.1,2.2-0.2
				C104.6,75.6,113.9,71.9,113.9,71.9 M115.3,69.2l-2.2,0.9c-0.1,0-9.3,3.7-16,5.3c-0.5,0.1-1.1,0.2-1.7,0.2c-2.3,0-4.8-1-7.4-2
				c-2.9-1.1-5.9-2.3-9.2-2.3c-1,0-1.9,0.1-2.8,0.3c-4.5,1-8.8,4.3-12.5,7.2c-2.6,2-5,3.8-6.5,4.2c-0.3,0-0.7,0-1.2,0
				c-1.6,0-3.8-0.4-6.2-0.9c-3.1-0.6-6.6-1.3-10-1.3c-2,0-3.7,0.2-5.3,0.7c-8,2.3-16,10.3-16.4,10.6L17.2,93l0.2,1.1l5.1,22l0.5,2.4
				l2.2-1c0.1,0,10.4-4.6,15.2-5.5c0.6-0.1,1.4-0.2,2.4-0.2c2.6,0,6.1,0.4,9.4,0.8c3.4,0.4,6.6,0.8,9.1,0.8c0.7,0,1.3,0,1.8-0.1
				c3.1-0.3,6.8-2.9,11-5.8c3.8-2.6,7.7-5.4,11.1-6.3c1-0.3,1.9-0.4,2.9-0.4c2.4,0,4.5,0.8,6.7,1.6c2.3,0.9,4.7,1.7,7.4,1.7
				c0.2,0,0.4,0,0.5,0c6.4-0.3,16.4-7.2,17.5-8l1.1-0.8L121,94l-5.2-22.6L115.3,69.2L115.3,69.2z"/>
		</g>
		<path class="st9" d="M22.2,105.7l-1.7-7.2c0,0,8.7-6.5,16.4-8.4s17.6,3.6,22.1,2.5c4.5-1,12.4-7.5,19.7-9.2
			C86,81.7,92,86.5,99,84.9s16-8.2,16-8.2l1.7,7.2c0,0-10.8,6.9-16.7,8s-10-3.6-17.3-1.8c-7.4,1.8-17.3,8.8-22.4,9.8
			s-17.6-3.6-22.6-2.4C32.7,98.6,22.2,105.7,22.2,105.7z"/>
	</g>
	<g>
		<g>
			<path class="st7" d="M144,130.7c-2.5,0-4.5-0.3-6-0.8c-2.6-0.9-4.5-2.7-6.3-4.4c-2.5-2.3-4.9-4.5-8.9-5.1
				c-0.6-0.1-1.2-0.1-1.9-0.1c-3.3,0-7.3,0.9-11.1,1.7c-3.5,0.8-6.8,1.5-9.4,1.5c-1,0-1.8-0.1-2.5-0.3c-2.4-0.7-5.9-2.7-9.6-4.7
				c-4.1-2.3-8.4-4.7-11-5.2c-3.3-0.7-9.6-0.8-13.1-0.8c-2,0-3.3,0-3.3,0h-1.2l4-24l0.5-0.2c0.4-0.1,8.8-3.6,16.4-3.6
				c0.8,0,1.6,0,2.3,0.1c4.8,0.5,9.4,3.5,13.5,6.2c2.6,1.7,5.1,3.4,6.8,3.7c0.3,0,0.5,0.1,0.9,0.1c1.8,0,4.4-0.7,7.2-1.5
				c3.5-1,7.6-2,11.3-2c0.9,0,1.8,0.1,2.6,0.2c4.1,0.7,7,3.5,9.8,6.2c2.6,2.5,5.1,4.9,8.3,5.4c6.9,1.2,16.9,1.3,17,1.3h1.2
				l-4.2,24.7l-0.7,0.1C156.4,129.3,149.8,130.7,144,130.7z"/>
			<path class="st8" d="M80.7,85.7c0.8,0,1.5,0,2.2,0.1c7.9,0.9,15.6,9.1,20.2,9.9c0.3,0.1,0.7,0.1,1,0.1c4.4,0,12-3.5,18.5-3.5
				c0.8,0,1.7,0.1,2.5,0.2c7.4,1.3,11,10.4,18.1,11.6c7,1.2,17.1,1.3,17.1,1.3l-3.9,22.9c0,0-6.6,1.5-12.4,1.5
				c-2.1,0-4.1-0.2-5.7-0.8c-5.6-2.1-7.9-8.6-15.4-9.5c-0.6-0.1-1.3-0.1-2-0.1c-6.5,0-15.3,3.2-20.5,3.2c-0.8,0-1.6-0.1-2.2-0.3
				c-5-1.5-15.7-8.9-20.7-9.9c-3.3-0.7-9.4-0.8-13.2-0.8c-2,0-3.3,0-3.3,0l3.7-22.3C64.7,89.2,73.2,85.7,80.7,85.7 M80.7,83.7
				c-7.8,0-16.4,3.5-16.8,3.7l-1,0.4l-0.2,1.1L59,111.2l-0.4,2.4l2.4-0.1c0,0,1.4,0,3.3,0c5.9,0,10.5,0.3,12.8,0.7
				c2.4,0.5,6.8,2.9,10.7,5.1c3.8,2.1,7.3,4.1,9.8,4.8c0.8,0.2,1.7,0.3,2.8,0.3c2.7,0,6-0.7,9.6-1.5c3.8-0.8,7.7-1.7,10.9-1.7
				c0.6,0,1.2,0,1.8,0.1c3.7,0.5,6,2.6,8.4,4.8c1.9,1.8,3.9,3.6,6.7,4.6c1.6,0.6,3.7,0.9,6.3,0.9c5.9,0,12.6-1.5,12.9-1.5l1.3-0.3
				l0.2-1.3l3.9-22.9l0.4-2.3h-2.3c-0.1,0-10-0.1-16.8-1.3c-2.9-0.5-5.2-2.7-7.7-5.1c-2.8-2.7-6-5.7-10.3-6.4
				c-0.9-0.1-1.8-0.2-2.8-0.2c-3.8,0-7.9,1.1-11.5,2.1c-2.7,0.7-5.3,1.4-7,1.4c-0.3,0-0.5,0-0.7-0.1c-1.5-0.3-3.9-1.8-6.4-3.5
				c-4.1-2.7-8.8-5.8-13.9-6.4C82.4,83.8,81.5,83.7,80.7,83.7L80.7,83.7z"/>
		</g>
		<path class="st9" d="M62.6,101.4l1.2-7.3c0,0,10.5-2.6,18.4-1.4s14.9,10,19.5,10.8s14.3-2.2,21.8-1c7.4,1.3,11.1,8,18.2,9.1
			s17.9-1.5,17.9-1.5l-1.2,7.3c0,0-12.7,2.2-18.4,1s-7.8-7.1-15.3-8.3s-19.4,1.5-24.5,0.5s-14.9-10-19.9-10.9
			C75,99,62.6,101.4,62.6,101.4z"/>
	</g>
	<g>
		<g>
			<path class="st7" d="M69.2,135c-0.1,0-0.3,0-0.4,0c-2.5-0.2-6.4-1.3-10.4-2.5c-4.4-1.3-9-2.7-11.7-2.7h-0.2
				c-5,0.1-16,2.9-16.1,2.9l-1.2,0.3l-1.4-24.3l0.5-0.3c0.4-0.3,9.4-6.6,17.5-7.5c0.6-0.1,1.1-0.1,1.7-0.1c4.3,0,8.8,1.7,12.8,3.2
				c2.8,1.1,5.5,2.1,7.2,2.1c0.1,0,0.2,0,0.2,0c1.8-0.1,4.6-1.6,7.6-3.1c4.1-2.2,8.7-4.6,13.1-4.9c0.2,0,0.4,0,0.6,0
				c3.9,0,7.1,2,10.3,3.9c3,1.8,5.7,3.4,8.8,3.4c0.2,0,0.3,0,0.5,0c7-0.4,16.7-2.5,16.8-2.5l1.1-0.2l1.4,25l-0.6,0.3
				c-0.4,0.2-10.4,4.9-16.7,4.9c-0.5,0-0.9,0-1.4-0.1c-2.7-0.3-5-1.7-7.1-2.9c-2.7-1.6-5.2-3-8.6-3c-0.4,0-0.8,0-1.2,0.1
				c-3.6,0.3-8,2.4-12.3,4.4C75.9,133.1,72,135,69.2,135L69.2,135z"/>
			<path class="st8" d="M89.1,99c7.1,0,12.4,7.3,19.1,7.3c0.2,0,0.3,0,0.5,0c7.1-0.4,17-2.5,17-2.5L127,127c0,0-10.1,4.8-16.3,4.8
				c-0.4,0-0.8,0-1.2-0.1c-5.6-0.7-9.2-6-15.9-6c-0.4,0-0.8,0-1.3,0.1c-7.4,0.7-17.8,8.2-23.1,8.2c-0.1,0-0.2,0-0.3,0
				c-5.1-0.3-16.9-5.1-22.2-5.1c-0.1,0-0.1,0-0.2,0c-5.1,0.1-16.3,2.9-16.3,2.9l-1.3-22.5c0,0,9.1-6.4,17-7.3
				c0.5-0.1,1.1-0.1,1.6-0.1c7.4,0,15.6,5.3,20,5.3c0.1,0,0.2,0,0.3,0c4.7-0.3,13.2-7.6,20.7-8C88.7,99,88.9,99,89.1,99 M89.1,97
				c-0.2,0-0.4,0-0.7,0c-4.7,0.3-9.4,2.8-13.6,5c-2.9,1.5-5.5,2.9-7.2,3c-0.1,0-0.1,0-0.2,0c-1.6,0-4.1-1-6.9-2
				c-4-1.5-8.6-3.3-13.1-3.3c-0.6,0-1.2,0-1.8,0.1c-8.3,1-17.6,7.4-17.9,7.7l-0.9,0.6l0.1,1.1l1.3,22.5l0.1,2.4l2.3-0.6
				c0.1,0,11.1-2.7,15.9-2.9h0.2c2.5,0,7.2,1.4,11.4,2.6c4.1,1.2,8,2.4,10.7,2.5c0.2,0,0.3,0,0.5,0c3,0,6.9-1.8,11.3-3.9
				c4.2-2,8.5-4,12-4.3c0.4,0,0.7-0.1,1.1-0.1c3.2,0,5.6,1.4,8.1,2.9c2.3,1.3,4.6,2.7,7.5,3.1c0.5,0.1,1,0.1,1.5,0.1
				c6.6,0,16.7-4.8,17.1-5l1.2-0.6l-0.1-1.3l-1.3-23.2l-0.1-2.3l-2.3,0.5c-0.1,0-9.8,2.1-16.7,2.5c-0.1,0-0.3,0-0.4,0
				c-2.8,0-5.4-1.6-8.3-3.3C96.6,99.1,93.2,97,89.1,97L89.1,97z"/>
		</g>
		<path class="st9" d="M29.5,121.6l-0.4-7.4c0,0,9.7-4.9,17.6-5.4s16.7,6.5,21.4,6.3c4.7-0.3,13.5-5.3,21-5.7
			c7.5-0.4,12.6,5.3,19.7,4.9c7.1-0.4,17.1-5.4,17.1-5.4l0.4,7.4c0,0-11.9,5-17.8,5c-5.9,0.1-9.2-5.2-16.8-4.7
			c-7.6,0.5-18.6,5.8-23.8,5.9s-16.7-6.5-21.8-6.2C41.1,116.4,29.5,121.6,29.5,121.6z"/>
	</g>
</g>
</svg>
