<?xml version="1.0" encoding="utf-8"?>
<!-- Generator: Adobe Illustrator 22.0.1, SVG Export Plug-In . SVG Version: 6.00 Build 0)  -->
<svg version="1.1" id="Layer_1" xmlns="http://www.w3.org/2000/svg" xmlns:xlink="http://www.w3.org/1999/xlink" x="0px" y="0px"
	 viewBox="0 0 180 180" style="enable-background:new 0 0 180 180;" xml:space="preserve">
<style type="text/css">
	.st0{fill:#A4AEB3;}
	.st1{fill:#C3D4D4;}
	.st2{fill:#8B9E9C;}
	.st3{fill:#D1E3DC;}
	.st4{fill:#AAC2C0;}
	.st5{clip-path:url(#SVGID_2_);}
	.st6{fill:#CE414B;}
	.st7{fill:#F27C77;}
	.st8{fill:#F2E1AC;}
	.st9{clip-path:url(#SVGID_4_);}
	.st10{clip-path:url(#SVGID_6_);}
	.st11{clip-path:url(#SVGID_8_);}
	.st12{clip-path:url(#SVGID_10_);}
	.st13{clip-path:url(#SVGID_12_);}
	.st14{clip-path:url(#SVGID_14_);}
	.st15{clip-path:url(#SVGID_16_);}
	.st16{clip-path:url(#SVGID_18_);}
	.st17{clip-path:url(#SVGID_20_);}
	.st18{clip-path:url(#SVGID_22_);}
	.st19{clip-path:url(#SVGID_24_);}
	.st20{clip-path:url(#SVGID_26_);}
	.st21{clip-path:url(#SVGID_28_);}
	.st22{clip-path:url(#SVGID_30_);}
	.st23{clip-path:url(#SVGID_32_);}
	.st24{clip-path:url(#SVGID_34_);}
	.st25{clip-path:url(#SVGID_36_);}
	.st26{clip-path:url(#SVGID_38_);}
	.st27{clip-path:url(#SVGID_40_);}
	.st28{clip-path:url(#SVGID_42_);}
	.st29{clip-path:url(#SVGID_44_);}
</style>
<g>
	<path class="st0" d="M178,180H2c-1.1,0-2-0.9-2-2V2c0-1.1,0.9-2,2-2h176c1.1,0,2,0.9,2,2v176C180,179.1,179.1,180,178,180z"/>
</g>
<g>
	<path class="st1" d="M165.5,176.9h-151c-6.3,0-11.4-5.1-11.4-11.4v-151c0-6.3,5.1-11.4,11.4-11.4h150.9c6.3,0,11.4,5.1,11.4,11.4
		v150.9C176.9,171.8,171.8,176.9,165.5,176.9z"/>
</g>
<g>
	<path class="st2" d="M148.3,173.8H31.7c-14.1,0-25.5-11.4-25.5-25.5V31.7c0-14.1,11.4-25.5,25.5-25.5h116.7
		c14.1,0,25.5,11.4,25.5,25.5v116.7C173.8,162.4,162.4,173.8,148.3,173.8z"/>
</g>
<g>
	<path class="st3" d="M145,169H35c-13.3,0-24-10.8-24-24V35c0-13.3,10.8-24,24-24h110c13.3,0,24,10.8,24,24v110
		C169,158.3,158.3,169,145,169z"/>
</g>
<circle class="st1" cx="90" cy="90" r="46"/>
<g>
	<circle class="st1" cx="90" cy="90" r="46"/>
</g>
<g>
	<path class="st4" d="M136,90c0,25.4-20.6,46-46,46V44C115.4,44,136,64.6,136,90z"/>
</g>
<g>
	<path class="st2" d="M78,134.4c3.8,1,7.8,1.6,12,1.6s8.2-0.6,12-1.6V45.6c-3.8-1-7.8-1.6-12-1.6s-8.2,0.6-12,1.6V134.4z"/>
</g>
<g>
	<path class="st3" d="M79.6,134.8c3.4,0.8,6.8,1.2,10.4,1.2s7.1-0.4,10.4-1.2V45.2C97.1,44.4,93.6,44,90,44s-7.1,0.4-10.4,1.2V134.8
		z"/>
</g>
<g>
	<g>
		<defs>
			<path id="SVGID_1_" d="M145.9,170.2H34.1c-13.5,0-24.4-10.9-24.4-24.4V34.1c0-13.5,10.9-24.4,24.4-24.4h111.7
				c13.5,0,24.4,10.9,24.4,24.4v111.7C170.2,159.3,159.3,170.2,145.9,170.2z"/>
		</defs>
		<clipPath id="SVGID_2_">
			<use xlink:href="#SVGID_1_"  style="overflow:visible;"/>
		</clipPath>
		<g class="st5">
			<g>
				<g>
					<path class="st6" d="M-35.1,95.1c41.2-18.2,48.3-70.8,89.6-89c6.3,6.4,12.6,12.7,19,19.1c-41.2,18.2-48.3,70.8-89.6,89
						C-22.4,107.8-28.7,101.5-35.1,95.1z"/>
					<path class="st7" d="M-35.1,95.1c41.2-18.2,48.3-70.8,89.6-89c1.1,1.1,2.1,2.1,3.2,3.2c-41.2,18.2-48.3,70.8-89.6,89
						C-32.9,97.3-34,96.2-35.1,95.1z"/>
				</g>
				<path class="st7" d="M-19.3,111C22,92.8,29.1,40.2,70.3,22c1.1,1.1,2.1,2.1,3.2,3.2c-41.2,18.2-48.3,70.8-89.6,89
					C-17.2,113.1-18.2,112.1-19.3,111z"/>
			</g>
			<g>
				<path class="st8" d="M66.9,18.6c-41.2,18.2-48.3,70.8-89.6,89c0.5,0.5,1.1,1.1,1.6,1.6c41.2-18.2,48.3-70.8,89.6-89
					C68,19.7,67.5,19.1,66.9,18.6z"/>
				<path class="st8" d="M-30.1,100.1c0.5,0.5,1.1,1.1,1.6,1.6c41.2-18.2,48.3-70.8,89.6-89c-0.5-0.5-1.1-1.1-1.6-1.6
					C18.2,29.3,11.1,81.8-30.1,100.1z"/>
			</g>
		</g>
	</g>
	<g>
		<defs>
			<path id="SVGID_3_" d="M145.9,170.2H34.1c-13.5,0-24.4-10.9-24.4-24.4V34.1c0-13.5,10.9-24.4,24.4-24.4h111.7
				c13.5,0,24.4,10.9,24.4,24.4v111.7C170.2,159.3,159.3,170.2,145.9,170.2z"/>
		</defs>
		<clipPath id="SVGID_4_">
			<use xlink:href="#SVGID_3_"  style="overflow:visible;"/>
		</clipPath>
		<g class="st9">
			<g>
				<g>
					<path class="st6" d="M130.7,195.3c16.2-42.1-16-84.2,0.2-126.3c9,0,17.9,0,26.9,0c-16.2,42.1,16,84.2-0.2,126.3
						C148.7,195.3,139.7,195.3,130.7,195.3z"/>
					<path class="st7" d="M130.7,195.3c16.2-42.1-16-84.2,0.2-126.3c1.5,0,3,0,4.5,0c-16.2,42.1,16,84.2-0.2,126.3
						C133.7,195.3,132.2,195.3,130.7,195.3z"/>
				</g>
				<path class="st7" d="M153.1,195.3c16.2-42.1-16-84.2,0.2-126.3c1.5,0,3,0,4.5,0c-16.2,42.1,16,84.2-0.2,126.3
					C156.1,195.3,154.6,195.3,153.1,195.3z"/>
			</g>
			<g>
				<path class="st8" d="M148.5,69c-16.2,42.1,16,84.2-0.2,126.3c0.8,0,1.5,0,2.3,0c16.2-42.1-16-84.2,0.2-126.3
					C150,69,149.3,69,148.5,69z"/>
				<path class="st8" d="M137.7,195.3c0.8,0,1.5,0,2.3,0c16.2-42.1-16-84.2,0.2-126.3c-0.8,0-1.5,0-2.3,0
					C121.7,111.1,153.9,153.2,137.7,195.3z"/>
			</g>
		</g>
	</g>
	<g>
		<defs>
			<path id="SVGID_5_" d="M145.9,170.2H34.1c-13.5,0-24.4-10.9-24.4-24.4V34.1c0-13.5,10.9-24.4,24.4-24.4h111.7
				c13.5,0,24.4,10.9,24.4,24.4v111.7C170.2,159.3,159.3,170.2,145.9,170.2z"/>
		</defs>
		<clipPath id="SVGID_6_">
			<use xlink:href="#SVGID_5_"  style="overflow:visible;"/>
		</clipPath>
		<g class="st10">
			<g>
				<g>
					<path class="st6" d="M128.3,107.6C92.9,79.8,43.1,98.2,7.6,70.4c2.6-8.6,5.3-17.1,7.9-25.7c35.5,27.8,85.2,9.4,120.7,37.2
						C133.6,90.4,131,99,128.3,107.6z"/>
					<path class="st7" d="M128.3,107.6C92.9,79.8,43.1,98.2,7.6,70.4C8.1,69,8.5,67.5,9,66.1c35.5,27.8,85.2,9.4,120.7,37.2
						C129.2,104.7,128.8,106.1,128.3,107.6z"/>
				</g>
				<path class="st7" d="M134.9,86.2C99.4,58.4,49.7,76.8,14.2,49c0.4-1.4,0.9-2.9,1.3-4.3c35.5,27.8,85.2,9.4,120.7,37.2
					C135.8,83.3,135.4,84.7,134.9,86.2z"/>
			</g>
			<g>
				<path class="st8" d="M12.8,53.6C48.3,81.4,98,62.9,133.5,90.7c0.2-0.7,0.4-1.4,0.7-2.2C98.7,60.7,49,79.2,13.5,51.4
					C13.3,52.1,13.1,52.8,12.8,53.6z"/>
				<path class="st8" d="M130.4,100.9c0.2-0.7,0.4-1.4,0.7-2.2C95.6,70.9,45.9,89.4,10.4,61.6c-0.2,0.7-0.4,1.4-0.7,2.2
					C45.2,91.5,94.9,73.1,130.4,100.9z"/>
			</g>
		</g>
	</g>
	<g>
		<defs>
			<path id="SVGID_7_" d="M145.9,170.2H34.1c-13.5,0-24.4-10.9-24.4-24.4V34.1c0-13.5,10.9-24.4,24.4-24.4h111.7
				c13.5,0,24.4,10.9,24.4,24.4v111.7C170.2,159.3,159.3,170.2,145.9,170.2z"/>
		</defs>
		<clipPath id="SVGID_8_">
			<use xlink:href="#SVGID_7_"  style="overflow:visible;"/>
		</clipPath>
		<g class="st11">
			<g>
				<g>
					<path class="st6" d="M214.3,52.1c-35.5-27.8-85.2-9.4-120.7-37.2c2.6-8.6,5.3-17.1,7.9-25.7C137,17,186.8-1.4,222.3,26.4
						C219.6,34.9,217,43.5,214.3,52.1z"/>
					<path class="st7" d="M214.3,52.1c-35.5-27.8-85.2-9.4-120.7-37.2c0.4-1.4,0.9-2.9,1.3-4.3c35.5,27.8,85.2,9.4,120.7,37.2
						C215.2,49.2,214.8,50.6,214.3,52.1z"/>
				</g>
				<path class="st7" d="M220.9,30.7c-35.5-27.8-85.2-9.3-120.7-37.1c0.4-1.4,0.9-2.9,1.3-4.3C137,17,186.8-1.4,222.3,26.4
					C221.8,27.8,221.4,29.2,220.9,30.7z"/>
			</g>
			<g>
				<path class="st8" d="M98.8-1.9c35.5,27.8,85.2,9.3,120.7,37.1c0.2-0.7,0.4-1.4,0.7-2.2C184.7,5.2,135,23.7,99.5-4.1
					C99.3-3.4,99.1-2.7,98.8-1.9z"/>
				<path class="st8" d="M216.4,45.4c0.2-0.7,0.4-1.4,0.7-2.2C181.6,15.4,131.9,33.9,96.4,6c-0.2,0.7-0.4,1.4-0.7,2.2
					C131.2,36,180.9,17.6,216.4,45.4z"/>
			</g>
		</g>
	</g>
	<g>
		<defs>
			<path id="SVGID_9_" d="M145.9,170.2H34.1c-13.5,0-24.4-10.9-24.4-24.4V34.1c0-13.5,10.9-24.4,24.4-24.4h111.7
				c13.5,0,24.4,10.9,24.4,24.4v111.7C170.2,159.3,159.3,170.2,145.9,170.2z"/>
		</defs>
		<clipPath id="SVGID_10_">
			<use xlink:href="#SVGID_9_"  style="overflow:visible;"/>
		</clipPath>
		<g class="st12">
			<g>
				<g>
					<path class="st6" d="M210.4,124.4c-35.5-27.8-85.2-9.4-120.7-37.2c2.6-8.6,5.3-17.1,7.9-25.7c35.5,27.8,85.2,9.4,120.7,37.2
						C215.7,107.3,213,115.9,210.4,124.4z"/>
					<path class="st7" d="M210.4,124.4c-35.5-27.8-85.2-9.4-120.7-37.2c0.4-1.4,0.9-2.9,1.3-4.3c35.5,27.8,85.2,9.4,120.7,37.2
						C211.3,121.6,210.8,123,210.4,124.4z"/>
				</g>
				<path class="st7" d="M217,103c-35.5-27.8-85.2-9.3-120.7-37.1c0.4-1.4,0.9-2.9,1.3-4.3c35.5,27.8,85.2,9.4,120.7,37.2
					C217.9,100.2,217.4,101.6,217,103z"/>
			</g>
			<g>
				<path class="st8" d="M94.9,70.4c35.5,27.8,85.2,9.3,120.7,37.1c0.2-0.7,0.4-1.4,0.7-2.2c-35.5-27.7-85.3-9.2-120.8-37
					C95.3,69,95.1,69.7,94.9,70.4z"/>
				<path class="st8" d="M212.5,117.7c0.2-0.7,0.4-1.4,0.7-2.2c-35.5-27.8-85.2-9.3-120.7-37.2c-0.2,0.7-0.4,1.4-0.7,2.2
					C127.2,108.4,177,89.9,212.5,117.7z"/>
			</g>
		</g>
	</g>
	<g>
		<defs>
			<path id="SVGID_11_" d="M145.9,170.2H34.1c-13.5,0-24.4-10.9-24.4-24.4V34.1c0-13.5,10.9-24.4,24.4-24.4h111.7
				c13.5,0,24.4,10.9,24.4,24.4v111.7C170.2,159.3,159.3,170.2,145.9,170.2z"/>
		</defs>
		<clipPath id="SVGID_12_">
			<use xlink:href="#SVGID_11_"  style="overflow:visible;"/>
		</clipPath>
		<g class="st13">
			<g>
				<g>
					<path class="st6" d="M180.3,62.8C144.9,35,95.1,53.5,59.6,25.7c2.6-8.6,5.3-17.1,7.9-25.7c35.5,27.8,85.2,9.4,120.7,37.2
						C185.6,45.7,183,54.3,180.3,62.8z"/>
					<path class="st7" d="M180.3,62.8C144.9,35,95.1,53.5,59.6,25.7c0.4-1.4,0.9-2.9,1.3-4.3c35.5,27.8,85.2,9.4,120.7,37.2
						C181.2,60,180.8,61.4,180.3,62.8z"/>
				</g>
				<path class="st7" d="M186.9,41.4c-35.5-27.8-85.2-9.3-120.7-37.1c0.4-1.4,0.9-2.9,1.3-4.3c35.5,27.8,85.2,9.4,120.7,37.2
					C187.8,38.6,187.4,40,186.9,41.4z"/>
			</g>
			<g>
				<path class="st8" d="M64.8,8.9C100.3,36.7,150,18.2,185.5,46c0.2-0.7,0.4-1.4,0.7-2.2C150.7,16,101,34.5,65.5,6.7
					C65.3,7.4,65.1,8.1,64.8,8.9z"/>
				<path class="st8" d="M182.4,56.2c0.2-0.7,0.4-1.4,0.7-2.2c-35.5-27.8-85.2-9.3-120.7-37.2c-0.2,0.7-0.4,1.4-0.7,2.2
					C97.2,46.8,146.9,28.4,182.4,56.2z"/>
			</g>
		</g>
	</g>
	<g>
		<defs>
			<path id="SVGID_13_" d="M145.9,170.2H34.1c-13.5,0-24.4-10.9-24.4-24.4V34.1c0-13.5,10.9-24.4,24.4-24.4h111.7
				c13.5,0,24.4,10.9,24.4,24.4v111.7C170.2,159.3,159.3,170.2,145.9,170.2z"/>
		</defs>
		<clipPath id="SVGID_14_">
			<use xlink:href="#SVGID_13_"  style="overflow:visible;"/>
		</clipPath>
		<g class="st14">
			<g>
				<g>
					<path class="st6" d="M99.6,113.6C55.8,124.5,39.8,175.1-3.9,186c-5.1-7.3-10.3-14.7-15.4-22c43.7-10.9,59.8-61.5,103.5-72.4
						C89.3,99,94.4,106.3,99.6,113.6z"/>
					<path class="st7" d="M99.6,113.6C55.8,124.5,39.8,175.1-3.9,186c-0.9-1.2-1.7-2.5-2.6-3.7C37.2,171.4,53.2,120.9,97,110
						C97.8,111.2,98.7,112.4,99.6,113.6z"/>
				</g>
				<path class="st7" d="M86.7,95.3C43,106.2,27,156.8-16.8,167.7c-0.9-1.2-1.7-2.5-2.6-3.7c43.7-10.9,59.8-61.5,103.5-72.4
					C85,92.8,85.9,94.1,86.7,95.3z"/>
			</g>
			<g>
				<path class="st8" d="M-14,171.6c43.7-10.9,59.8-61.5,103.5-72.4c-0.4-0.6-0.9-1.2-1.3-1.9c-43.7,10.9-59.8,61.5-103.5,72.4
					C-14.9,170.3-14.5,170.9-14,171.6z"/>
				<path class="st8" d="M95.6,107.9c-0.4-0.6-0.9-1.2-1.3-1.9c-43.8,11-59.8,61.5-103.5,72.4c0.4,0.6,0.9,1.2,1.3,1.9
					C35.8,169.4,51.8,118.8,95.6,107.9z"/>
			</g>
		</g>
	</g>
	<g>
		<defs>
			<path id="SVGID_15_" d="M145.9,170.2H34.1c-13.5,0-24.4-10.9-24.4-24.4V34.1c0-13.5,10.9-24.4,24.4-24.4h111.7
				c13.5,0,24.4,10.9,24.4,24.4v111.7C170.2,159.3,159.3,170.2,145.9,170.2z"/>
		</defs>
		<clipPath id="SVGID_16_">
			<use xlink:href="#SVGID_15_"  style="overflow:visible;"/>
		</clipPath>
		<g class="st15">
			<g>
				<g>
					<path class="st6" d="M51.5,50.4c-15.8,42.2,16.8,84.1,1,126.3c-9,0.1-17.9,0.1-26.9,0.2c15.8-42.2-16.8-84.1-1-126.3
						C33.6,50.5,42.5,50.5,51.5,50.4z"/>
					<path class="st7" d="M51.5,50.4c-15.8,42.2,16.8,84.1,1,126.3c-1.5,0-3,0-4.5,0c15.8-42.2-16.8-84.1-1-126.3
						C48.5,50.4,50,50.4,51.5,50.4z"/>
				</g>
				<path class="st7" d="M29.1,50.6c-15.8,42.2,16.8,84.1,1,126.3c-1.5,0-3,0-4.5,0c15.8-42.2-16.8-84.1-1-126.3
					C26.1,50.6,27.6,50.6,29.1,50.6z"/>
			</g>
			<g>
				<path class="st8" d="M34.8,176.8c15.8-42.2-16.8-84.1-1-126.3c-0.8,0-1.5,0-2.3,0c-15.8,42.2,16.8,84.1,1,126.3
					C33.3,176.8,34.1,176.8,34.8,176.8z"/>
				<path class="st8" d="M44.5,50.5c-0.8,0-1.5,0-2.3,0c-15.8,42.2,16.8,84.1,1,126.3c0.8,0,1.5,0,2.3,0
					C61.3,134.5,28.7,92.7,44.5,50.5z"/>
			</g>
		</g>
	</g>
	<g>
		<defs>
			<path id="SVGID_17_" d="M145.9,170.2H34.1c-13.5,0-24.4-10.9-24.4-24.4V34.1c0-13.5,10.9-24.4,24.4-24.4h111.7
				c13.5,0,24.4,10.9,24.4,24.4v111.7C170.2,159.3,159.3,170.2,145.9,170.2z"/>
		</defs>
		<clipPath id="SVGID_18_">
			<use xlink:href="#SVGID_17_"  style="overflow:visible;"/>
		</clipPath>
		<g class="st16">
			<g>
				<g>
					<path class="st6" d="M135.6,3.1c9.2,44.1,59.1,62.1,68.3,106.2c-7.5,4.8-15.1,9.7-22.6,14.5c-9.2-44.1-59.1-62.1-68.3-106.2
						C120.5,12.8,128.1,8,135.6,3.1z"/>
					<path class="st7" d="M135.6,3.1c9.2,44.1,59.1,62.1,68.3,106.2c-1.3,0.8-2.5,1.6-3.8,2.4C191,67.6,141,49.7,131.8,5.5
						C133.1,4.7,134.3,3.9,135.6,3.1z"/>
				</g>
				<path class="st7" d="M116.8,15.2c9.2,44.1,59.1,62.1,68.3,106.2c-1.3,0.8-2.5,1.6-3.8,2.4c-9.2-44.1-59.1-62.1-68.3-106.2
					C114.3,16.8,115.5,16,116.8,15.2z"/>
			</g>
			<g>
				<path class="st8" d="M189.1,118.8c-9.2-44.1-59.1-62.1-68.3-106.2c-0.6,0.4-1.3,0.8-1.9,1.2c9.2,44.1,59.1,62.1,68.3,106.2
					C187.9,119.7,188.5,119.3,189.1,118.8z"/>
				<path class="st8" d="M129.7,6.9c-0.6,0.4-1.3,0.8-1.9,1.2c9.2,44.1,59.1,62.1,68.3,106.2c0.6-0.4,1.3-0.8,1.9-1.2
					C188.9,69,138.9,51,129.7,6.9z"/>
			</g>
		</g>
	</g>
	<g>
		<defs>
			<path id="SVGID_19_" d="M145.9,170.2H34.1c-13.5,0-24.4-10.9-24.4-24.4V34.1c0-13.5,10.9-24.4,24.4-24.4h111.7
				c13.5,0,24.4,10.9,24.4,24.4v111.7C170.2,159.3,159.3,170.2,145.9,170.2z"/>
		</defs>
		<clipPath id="SVGID_20_">
			<use xlink:href="#SVGID_19_"  style="overflow:visible;"/>
		</clipPath>
		<g class="st17">
			<g>
				<g>
					<path class="st6" d="M11.2,77.9C20.4,122,70.4,140,79.6,184.1c-7.5,4.8-15.1,9.7-22.6,14.5c-9.2-44.1-59.1-62.1-68.3-106.2
						C-3.8,87.6,3.7,82.7,11.2,77.9z"/>
					<path class="st7" d="M11.2,77.9C20.4,122,70.4,140,79.6,184.1c-1.3,0.8-2.5,1.6-3.8,2.4c-9.2-44.1-59.1-62.1-68.3-106.2
						C8.7,79.5,10,78.7,11.2,77.9z"/>
				</g>
				<path class="st7" d="M-7.6,90c9.2,44.1,59.1,62.1,68.3,106.2c-1.3,0.8-2.5,1.6-3.8,2.4c-9.2-44.1-59.1-62.1-68.3-106.2
					C-10.1,91.6-8.9,90.8-7.6,90z"/>
			</g>
			<g>
				<path class="st8" d="M64.7,193.6c-9.2-44.1-59.1-62-68.3-106.2c-0.6,0.4-1.3,0.8-1.9,1.2c9.2,44.1,59.1,62.1,68.3,106.2
					C63.5,194.4,64.1,194,64.7,193.6z"/>
				<path class="st8" d="M5.4,81.7c-0.6,0.4-1.3,0.8-1.9,1.2C12.7,127,62.6,145,71.8,189.1c0.6-0.4,1.3-0.8,1.9-1.2
					C64.5,143.7,14.6,125.8,5.4,81.7z"/>
			</g>
		</g>
	</g>
	<g>
		<defs>
			<path id="SVGID_21_" d="M145.9,170.2H34.1c-13.5,0-24.4-10.9-24.4-24.4V34.1c0-13.5,10.9-24.4,24.4-24.4h111.7
				c13.5,0,24.4,10.9,24.4,24.4v111.7C170.2,159.3,159.3,170.2,145.9,170.2z"/>
		</defs>
		<clipPath id="SVGID_22_">
			<use xlink:href="#SVGID_21_"  style="overflow:visible;"/>
		</clipPath>
		<g class="st18">
			<g>
				<g>
					<path class="st6" d="M203.1,63.4c-31,32.7-17.4,83.9-48.4,116.6c-8.3-3.4-16.6-6.9-24.8-10.3c31-32.7,17.4-83.9,48.4-116.6
						C186.5,56.5,194.8,59.9,203.1,63.4z"/>
					<path class="st7" d="M203.1,63.4c-31,32.7-17.4,83.9-48.4,116.6c-1.4-0.6-2.8-1.1-4.1-1.7c31-32.7,17.4-83.9,48.4-116.6
						C200.3,62.2,201.7,62.8,203.1,63.4z"/>
				</g>
				<path class="st7" d="M182.4,54.8c-31,32.7-17.4,83.9-48.4,116.6c-1.4-0.6-2.8-1.1-4.1-1.7c31-32.7,17.4-83.9,48.4-116.6
					C179.6,53.6,181,54.2,182.4,54.8z"/>
			</g>
			<g>
				<path class="st8" d="M138.4,173.2c31-32.7,17.4-83.9,48.4-116.6c-0.7-0.3-1.4-0.6-2.1-0.9c-31,32.7-17.4,83.9-48.4,116.6
					C137,172.7,137.7,173,138.4,173.2z"/>
				<path class="st8" d="M196.6,60.7c-0.7-0.3-1.4-0.6-2.1-0.9c-31,32.7-17.4,83.9-48.4,116.6c0.7,0.3,1.4,0.6,2.1,0.9
					C179.2,144.6,165.6,93.4,196.6,60.7z"/>
			</g>
		</g>
	</g>
	<g>
		<defs>
			<path id="SVGID_23_" d="M145.9,170.2H34.1c-13.5,0-24.4-10.9-24.4-24.4V34.1c0-13.5,10.9-24.4,24.4-24.4h111.7
				c13.5,0,24.4,10.9,24.4,24.4v111.7C170.2,159.3,159.3,170.2,145.9,170.2z"/>
		</defs>
		<clipPath id="SVGID_24_">
			<use xlink:href="#SVGID_23_"  style="overflow:visible;"/>
		</clipPath>
		<g class="st19">
			<g>
				<g>
					<path class="st6" d="M21.1,9.8c9.2,44.1,59.2,62,68.4,106.2c-7.5,4.8-15.1,9.7-22.6,14.5C57.6,86.4,7.7,68.4-1.5,24.3
						C6.1,19.5,13.6,14.6,21.1,9.8z"/>
					<path class="st7" d="M21.1,9.8c9.2,44.1,59.2,62,68.4,106.2c-1.3,0.8-2.5,1.6-3.8,2.4C76.5,74.3,26.6,56.3,17.4,12.2
						C18.6,11.4,19.9,10.6,21.1,9.8z"/>
				</g>
				<path class="st7" d="M2.3,21.9C11.5,66,61.4,84,70.6,128.1c-1.3,0.8-2.5,1.6-3.8,2.4C57.6,86.4,7.7,68.4-1.5,24.3
					C-0.2,23.5,1,22.7,2.3,21.9z"/>
			</g>
			<g>
				<path class="st8" d="M74.7,125.5C65.4,81.4,15.5,63.4,6.3,19.3c-0.6,0.4-1.3,0.8-1.9,1.2c9.2,44.1,59.1,62.1,68.3,106.2
					C73.4,126.3,74,125.9,74.7,125.5z"/>
				<path class="st8" d="M15.3,13.5c-0.6,0.4-1.3,0.8-1.9,1.2C22.6,58.9,72.5,76.8,81.7,121c0.6-0.4,1.3-0.8,1.9-1.2
					C74.4,75.6,24.5,57.7,15.3,13.5z"/>
			</g>
		</g>
	</g>
	<g>
		<defs>
			<path id="SVGID_25_" d="M145.9,170.2H34.1c-13.5,0-24.4-10.9-24.4-24.4V34.1c0-13.5,10.9-24.4,24.4-24.4h111.7
				c13.5,0,24.4,10.9,24.4,24.4v111.7C170.2,159.3,159.3,170.2,145.9,170.2z"/>
		</defs>
		<clipPath id="SVGID_26_">
			<use xlink:href="#SVGID_25_"  style="overflow:visible;"/>
		</clipPath>
		<g class="st20">
			<g>
				<g>
					<path class="st6" d="M67.4-30.2C39.2,4.9,57,54.9,28.7,90c-8.5-2.7-17.1-5.5-25.6-8.2C31.4,46.6,13.6-3.3,41.9-38.4
						C50.4-35.7,58.9-32.9,67.4-30.2z"/>
					<path class="st7" d="M67.4-30.2C39.2,4.9,57,54.9,28.7,90c-1.4-0.5-2.8-0.9-4.3-1.4C52.7,53.5,34.9,3.5,63.2-31.6
						C64.6-31.1,66-30.7,67.4-30.2z"/>
				</g>
				<path class="st7" d="M46.1-37.1C17.9-2,35.7,48,7.4,83.1c-1.4-0.5-2.9-0.9-4.3-1.4c28.3-35.1,10.5-85,38.8-120.1
					C43.3-38,44.7-37.5,46.1-37.1z"/>
			</g>
			<g>
				<path class="st8" d="M11.9,84.6C40.2,49.5,22.4-0.5,50.7-35.6c-0.7-0.2-1.4-0.5-2.2-0.7C20.2-1.2,38,48.8,9.8,83.9
					C10.5,84.1,11.2,84.4,11.9,84.6z"/>
				<path class="st8" d="M60.8-32.3c-0.7-0.2-1.4-0.5-2.2-0.7C30.4,2.1,48.2,52,19.9,87.2c0.7,0.2,1.4,0.5,2.2,0.7
					C50.3,52.7,32.5,2.8,60.8-32.3z"/>
			</g>
		</g>
	</g>
	<g>
		<defs>
			<path id="SVGID_27_" d="M145.9,170.2H34.1c-13.5,0-24.4-10.9-24.4-24.4V34.1c0-13.5,10.9-24.4,24.4-24.4h111.7
				c13.5,0,24.4,10.9,24.4,24.4v111.7C170.2,159.3,159.3,170.2,145.9,170.2z"/>
		</defs>
		<clipPath id="SVGID_28_">
			<use xlink:href="#SVGID_27_"  style="overflow:visible;"/>
		</clipPath>
		<g class="st21">
			<g>
				<g>
					<path class="st6" d="M142.3,63.9C114.1,99,131.9,149,103.6,184.1c-8.5-2.7-17.1-5.5-25.6-8.2c28.3-35.1,10.5-85.1,38.7-120.2
						C125.3,58.4,133.8,61.1,142.3,63.9z"/>
					<path class="st7" d="M142.3,63.9C114.1,99,131.9,149,103.6,184.1c-1.4-0.5-2.8-0.9-4.3-1.4c28.3-35.1,10.5-85.1,38.7-120.2
						C139.5,63,140.9,63.4,142.3,63.9z"/>
				</g>
				<path class="st7" d="M121,57c-28.3,35.1-10.5,85.1-38.7,120.2c-1.4-0.5-2.9-0.9-4.3-1.4c28.3-35.1,10.5-85.1,38.7-120.2
					C118.2,56.1,119.6,56.6,121,57z"/>
			</g>
			<g>
				<path class="st8" d="M86.8,178.7c28.3-35.1,10.5-85.1,38.7-120.2c-0.7-0.2-1.4-0.5-2.2-0.7C95.1,92.9,112.9,142.9,84.7,178
					C85.4,178.2,86.1,178.5,86.8,178.7z"/>
				<path class="st8" d="M135.7,61.7c-0.7-0.2-1.4-0.5-2.2-0.7c-28.3,35.1-10.5,85.1-38.7,120.2c0.7,0.2,1.4,0.5,2.2,0.7
					C125.2,146.8,107.4,96.9,135.7,61.7z"/>
			</g>
		</g>
	</g>
	<g>
		<defs>
			<path id="SVGID_29_" d="M145.9,170.2H34.1c-13.5,0-24.4-10.9-24.4-24.4V34.1c0-13.5,10.9-24.4,24.4-24.4h111.7
				c13.5,0,24.4,10.9,24.4,24.4v111.7C170.2,159.3,159.3,170.2,145.9,170.2z"/>
		</defs>
		<clipPath id="SVGID_30_">
			<use xlink:href="#SVGID_29_"  style="overflow:visible;"/>
		</clipPath>
		<g class="st22">
			<g>
				<g>
					<path class="st6" d="M180,62c-44.8,5.1-67.3,53.2-112,58.3c-4.1-8-8.3-15.9-12.4-23.9c44.8-5.1,67.3-53.2,112-58.3
						C171.7,46.1,175.9,54,180,62z"/>
					<path class="st7" d="M180,62c-44.8,5.1-67.3,53.2-112,58.3c-0.7-1.3-1.4-2.7-2.1-4c44.8-5.1,67.3-53.2,112-58.3
						C178.6,59.3,179.3,60.6,180,62z"/>
				</g>
				<path class="st7" d="M169.7,42.1c-44.8,5.1-67.3,53.2-112,58.3c-0.7-1.3-1.4-2.7-2.1-4c44.8-5.1,67.3-53.2,112-58.3
					C168.3,39.4,169,40.8,169.7,42.1z"/>
			</g>
			<g>
				<path class="st8" d="M59.8,104.6c44.8-5.1,67.3-53.2,112-58.3c-0.3-0.7-0.7-1.3-1-2c-44.8,5.1-67.3,53.2-112,58.3
					C59.1,103.2,59.5,103.9,59.8,104.6z"/>
				<path class="st8" d="M176.8,55.8c-0.4-0.7-0.7-1.3-1.1-2c-44.8,5.1-67.3,53.2-112,58.3c0.3,0.7,0.7,1.3,1,2
					C109.5,108.9,132,60.9,176.8,55.8z"/>
			</g>
		</g>
	</g>
	<g>
		<defs>
			<path id="SVGID_31_" d="M145.9,170.2H34.1c-13.5,0-24.4-10.9-24.4-24.4V34.1c0-13.5,10.9-24.4,24.4-24.4h111.7
				c13.5,0,24.4,10.9,24.4,24.4v111.7C170.2,159.3,159.3,170.2,145.9,170.2z"/>
		</defs>
		<clipPath id="SVGID_32_">
			<use xlink:href="#SVGID_31_"  style="overflow:visible;"/>
		</clipPath>
		<g class="st23">
			<g>
				<g>
					<path class="st6" d="M162.7,9.2c-44.8,5.1-67.3,53.2-112,58.3c-4.1-8-8.3-15.9-12.4-23.9c44.8-5.1,67.3-53.2,112-58.3
						C154.4-6.7,158.5,1.3,162.7,9.2z"/>
					<path class="st7" d="M162.7,9.2c-44.8,5.1-67.3,53.2-112,58.3c-0.7-1.3-1.4-2.7-2.1-4c44.8-5.1,67.3-53.2,112-58.3
						C161.3,6.6,162,7.9,162.7,9.2z"/>
				</g>
				<path class="st7" d="M152.3-10.7C107.5-5.6,85,42.5,40.3,47.6c-0.7-1.3-1.4-2.7-2.1-4c44.8-5.1,67.3-53.2,112-58.3
					C150.9-13.3,151.6-12,152.3-10.7z"/>
			</g>
			<g>
				<path class="st8" d="M42.5,51.8c44.8-5.1,67.3-53.2,112-58.3c-0.3-0.7-0.7-1.3-1-2c-44.8,5.1-67.3,53.2-112,58.3
					C41.8,50.5,42.1,51.2,42.5,51.8z"/>
				<path class="st8" d="M159.4,3c-0.4-0.7-0.7-1.3-1.1-2C113.5,6.1,91,54.2,46.3,59.3c0.3,0.7,0.7,1.3,1,2
					C92.2,56.2,114.6,8.1,159.4,3z"/>
			</g>
		</g>
	</g>
	<g>
		<defs>
			<path id="SVGID_33_" d="M145.9,170.2H34.1c-13.5,0-24.4-10.9-24.4-24.4V34.1c0-13.5,10.9-24.4,24.4-24.4h111.7
				c13.5,0,24.4,10.9,24.4,24.4v111.7C170.2,159.3,159.3,170.2,145.9,170.2z"/>
		</defs>
		<clipPath id="SVGID_34_">
			<use xlink:href="#SVGID_33_"  style="overflow:visible;"/>
		</clipPath>
		<g class="st24">
			<g>
				<g>
					<path class="st6" d="M169,63c-30.8,32.9-16.8,84.1-47.6,117c-8.3-3.4-16.6-6.8-24.9-10.1c30.8-32.9,16.8-84.1,47.6-117
						C152.4,56.3,160.7,59.6,169,63z"/>
					<path class="st7" d="M169,63c-30.8,32.9-16.8,84.1-47.6,117c-1.4-0.6-2.8-1.1-4.2-1.7c30.8-32.9,16.8-84.1,47.6-117
						C166.3,61.9,167.7,62.5,169,63z"/>
				</g>
				<path class="st7" d="M148.3,54.6c-30.8,32.9-16.8,84.1-47.6,117c-1.4-0.6-2.8-1.1-4.2-1.7c30.8-32.9,16.8-84.1,47.6-117
					C145.5,53.5,146.9,54,148.3,54.6z"/>
			</g>
			<g>
				<path class="st8" d="M105.1,173.4c30.8-32.9,16.8-84.1,47.6-117c-0.7-0.3-1.4-0.6-2.1-0.9c-30.8,32.9-16.8,84.1-47.6,117
					C103.7,172.8,104.4,173.1,105.1,173.4z"/>
				<path class="st8" d="M162.6,60.4c-0.7-0.3-1.4-0.6-2.1-0.9c-30.8,32.9-16.8,84.1-47.6,117c0.7,0.3,1.4,0.6,2.1,0.9
					C145.8,144.5,131.8,93.3,162.6,60.4z"/>
			</g>
		</g>
	</g>
	<g>
		<defs>
			<path id="SVGID_35_" d="M145.9,170.2H34.1c-13.5,0-24.4-10.9-24.4-24.4V34.1c0-13.5,10.9-24.4,24.4-24.4h111.7
				c13.5,0,24.4,10.9,24.4,24.4v111.7C170.2,159.3,159.3,170.2,145.9,170.2z"/>
		</defs>
		<clipPath id="SVGID_36_">
			<use xlink:href="#SVGID_35_"  style="overflow:visible;"/>
		</clipPath>
		<g class="st25">
			<g>
				<g>
					<path class="st6" d="M133.5,54.1c-30.8,32.9-16.8,84.1-47.6,117c-8.3-3.4-16.6-6.8-24.9-10.1c30.8-32.9,16.8-84.1,47.6-117
						C116.9,47.4,125.2,50.8,133.5,54.1z"/>
					<path class="st7" d="M133.5,54.1c-30.8,32.9-16.8,84.1-47.6,117c-1.4-0.6-2.8-1.1-4.2-1.7c30.8-32.9,16.8-84.1,47.6-117
						C130.8,53,132.2,53.6,133.5,54.1z"/>
				</g>
				<path class="st7" d="M112.8,45.7C82,78.6,96,129.8,65.2,162.7c-1.4-0.6-2.8-1.1-4.2-1.7c30.8-32.9,16.8-84.1,47.6-117
					C110,44.6,111.4,45.1,112.8,45.7z"/>
			</g>
			<g>
				<path class="st8" d="M69.6,164.5c30.8-32.9,16.8-84.1,47.6-117c-0.7-0.3-1.4-0.6-2.1-0.9c-30.8,32.9-16.8,84.1-47.6,117
					C68.2,163.9,68.9,164.2,69.6,164.5z"/>
				<path class="st8" d="M127.1,51.5c-0.7-0.3-1.4-0.6-2.1-0.9c-30.8,32.9-16.8,84.1-47.6,117c0.7,0.3,1.4,0.6,2.1,0.9
					C110.3,135.6,96.3,84.4,127.1,51.5z"/>
			</g>
		</g>
	</g>
	<g>
		<defs>
			<path id="SVGID_37_" d="M145.9,170.2H34.1c-13.5,0-24.4-10.9-24.4-24.4V34.1c0-13.5,10.9-24.4,24.4-24.4h111.7
				c13.5,0,24.4,10.9,24.4,24.4v111.7C170.2,159.3,159.3,170.2,145.9,170.2z"/>
		</defs>
		<clipPath id="SVGID_38_">
			<use xlink:href="#SVGID_37_"  style="overflow:visible;"/>
		</clipPath>
		<g class="st26">
			<g>
				<g>
					<path class="st6" d="M59,42.6c-30.8,32.9-16.8,84.1-47.6,117c-8.3-3.4-16.6-6.8-24.9-10.1c30.8-32.9,16.8-84.1,47.6-117
						C42.4,35.9,50.7,39.3,59,42.6z"/>
					<path class="st7" d="M59,42.6c-30.8,32.9-16.8,84.1-47.6,117c-1.4-0.6-2.8-1.1-4.2-1.7C38,125,24,73.8,54.8,40.9
						C56.3,41.5,57.7,42.1,59,42.6z"/>
				</g>
				<path class="st7" d="M38.3,34.2c-30.8,32.9-16.8,84.1-47.6,117c-1.4-0.6-2.8-1.1-4.2-1.7c30.8-32.9,16.8-84.1,47.6-117
					C35.5,33.1,36.9,33.6,38.3,34.2z"/>
			</g>
			<g>
				<path class="st8" d="M-4.9,153c30.8-32.9,16.8-84.1,47.6-117c-0.7-0.3-1.4-0.6-2.1-0.9C9.8,68,23.8,119.2-7,152.1
					C-6.3,152.4-5.6,152.7-4.9,153z"/>
				<path class="st8" d="M52.6,40c-0.7-0.3-1.4-0.6-2.1-0.9C19.7,72,33.7,123.2,2.9,156.1c0.7,0.3,1.4,0.6,2.1,0.9
					C35.8,124.1,21.8,72.9,52.6,40z"/>
			</g>
		</g>
	</g>
	<g>
		<defs>
			<path id="SVGID_39_" d="M145.9,170.2H34.1c-13.5,0-24.4-10.9-24.4-24.4V34.1c0-13.5,10.9-24.4,24.4-24.4h111.7
				c13.5,0,24.4,10.9,24.4,24.4v111.7C170.2,159.3,159.3,170.2,145.9,170.2z"/>
		</defs>
		<clipPath id="SVGID_40_">
			<use xlink:href="#SVGID_39_"  style="overflow:visible;"/>
		</clipPath>
		<g class="st27">
			<g>
				<g>
					<path class="st6" d="M152.2,72.4c-41-18.7-85,11-126.1-7.7c0.5-8.9,1.1-17.9,1.6-26.8c41,18.7,85-11,126.1,7.7
						C153.3,54.5,152.8,63.4,152.2,72.4z"/>
					<path class="st7" d="M152.2,72.4c-41-18.7-85,11-126.1-7.7c0.1-1.5,0.2-3,0.3-4.5c41,18.7,85-11,126.1,7.7
						C152.4,69.4,152.3,70.9,152.2,72.4z"/>
				</g>
				<path class="st7" d="M153.6,50c-41-18.7-85,11-126.1-7.7c0.1-1.5,0.2-3,0.3-4.5c41,18.7,85-11,126.1,7.7
					C153.8,47,153.7,48.5,153.6,50z"/>
			</g>
			<g>
				<path class="st8" d="M27.2,47.1c41,18.7,85-11,126.1,7.7c0-0.8,0.1-1.5,0.1-2.3c-41-18.7-85,11-126.1-7.7
					C27.3,45.6,27.3,46.4,27.2,47.1z"/>
				<path class="st8" d="M152.6,65.4c0-0.8,0.1-1.5,0.1-2.3c-41-18.7-85,11-126.1-7.7c0,0.8-0.1,1.5-0.1,2.3
					C67.6,76.4,111.6,46.7,152.6,65.4z"/>
			</g>
		</g>
	</g>
	<g>
		<defs>
			<path id="SVGID_41_" d="M145.9,170.2H34.1c-13.5,0-24.4-10.9-24.4-24.4V34.1c0-13.5,10.9-24.4,24.4-24.4h111.7
				c13.5,0,24.4,10.9,24.4,24.4v111.7C170.2,159.3,159.3,170.2,145.9,170.2z"/>
		</defs>
		<clipPath id="SVGID_42_">
			<use xlink:href="#SVGID_41_"  style="overflow:visible;"/>
		</clipPath>
		<g class="st28">
			<g>
				<g>
					<path class="st6" d="M132.3-11.7C91.1,6.4,83.9,59,42.6,77.1C36.3,70.8,30,64.4,23.7,58C65,39.8,72.2-12.7,113.4-30.9
						C119.7-24.5,126-18.1,132.3-11.7z"/>
					<path class="st7" d="M132.3-11.7C91.1,6.4,83.9,59,42.6,77.1c-1.1-1.1-2.1-2.1-3.2-3.2C80.7,55.7,87.9,3.2,129.1-15
						C130.2-13.8,131.3-12.8,132.3-11.7z"/>
				</g>
				<path class="st7" d="M116.6-27.6C75.3-9.5,68.1,43.1,26.8,61.2c-1.1-1.1-2.1-2.1-3.2-3.2c41.3-18.2,48.5-70.7,89.7-88.9
					C114.5-29.8,115.5-28.7,116.6-27.6z"/>
			</g>
			<g>
				<path class="st8" d="M30.2,64.6c41.3-18.2,48.5-70.7,89.7-88.9c-0.5-0.5-1.1-1.1-1.6-1.6C77.1-7.7,69.9,44.8,28.6,63
					C29.1,63.5,29.7,64.1,30.2,64.6z"/>
				<path class="st8" d="M127.4-16.7c-0.5-0.5-1.1-1.1-1.6-1.6C84.6-0.1,77.3,52.4,36.1,70.6c0.5,0.5,1.1,1.1,1.6,1.6
					C78.9,54,86.1,1.5,127.4-16.7z"/>
			</g>
		</g>
	</g>
	<g>
		<defs>
			<path id="SVGID_43_" d="M145.9,170.2H34.1c-13.5,0-24.4-10.9-24.4-24.4V34.1c0-13.5,10.9-24.4,24.4-24.4h111.7
				c13.5,0,24.4,10.9,24.4,24.4v111.7C170.2,159.3,159.3,170.2,145.9,170.2z"/>
		</defs>
		<clipPath id="SVGID_44_">
			<use xlink:href="#SVGID_43_"  style="overflow:visible;"/>
		</clipPath>
		<g class="st29">
			<g>
				<g>
					<path class="st6" d="M53.5,180c16.2-42.1-16-84.2,0.2-126.3c9,0,17.9,0,26.9,0c-16.2,42.1,16,84.2-0.2,126.3
						C71.4,180,62.4,180,53.5,180z"/>
					<path class="st7" d="M53.5,180c16.2-42.1-16-84.2,0.2-126.3c1.5,0,3,0,4.5,0C41.9,95.8,74.1,137.9,58,180
						C56.5,180,55,180,53.5,180z"/>
				</g>
				<path class="st7" d="M75.9,180C92,137.9,59.8,95.8,76,53.7c1.5,0,3,0,4.5,0c-16.2,42.1,16,84.2-0.2,126.3
					C78.9,180,77.4,180,75.9,180z"/>
			</g>
			<g>
				<path class="st8" d="M71.2,53.7C55,95.8,87.2,137.9,71,180c0.8,0,1.5,0,2.3,0c16.2-42.1-16-84.2,0.2-126.3
					C72.8,53.7,72,53.7,71.2,53.7z"/>
				<path class="st8" d="M60.5,180c0.8,0,1.5,0,2.3,0C79,137.9,46.8,95.8,63,53.7c-0.8,0-1.5,0-2.3,0C44.4,95.8,76.6,137.9,60.5,180
					z"/>
			</g>
		</g>
	</g>
</g>
</svg>
