<?xml version="1.0" encoding="utf-8"?>
<!-- Generator: Adobe Illustrator 22.0.1, SVG Export Plug-In . SVG Version: 6.00 Build 0)  -->
<svg version="1.1" id="Layer_1" xmlns="http://www.w3.org/2000/svg" xmlns:xlink="http://www.w3.org/1999/xlink" x="0px" y="0px"
	 width="180px" height="180px" viewBox="0 0 180 180" style="enable-background:new 0 0 180 180;" xml:space="preserve">
<style type="text/css">
	.st0{fill:#ECBA7F;}
	.st1{fill:#ECCAA3;}
	.st2{fill:none;stroke:#A8774F;stroke-width:2;stroke-miterlimit:10;}
	.st3{fill:#D4AF92;}
	.st4{fill:#E6BA8C;}
	.st5{fill:#DEB493;}
	.st6{opacity:0.48;fill:#A8774F;enable-background:new    ;}
	.st7{fill:#D83E36;}
	.st8{fill:#BA151C;}
	.st9{fill:#E85862;}
	.st10{fill:#ABBB43;}
	.st11{fill:#7A0E13;}
	.st12{fill:#859922;}
	.st13{fill:#849915;}
	.st14{fill:#657510;}
	.st15{fill:#48540C;}
</style>
<g id="Spatula">
	<path class="st0" d="M90.1,154.4c-62.2,0-88-15.9-88-24.4c1.8-6.7,10.5-22.6,11.3-23.8c2.1-4,147.2,0.1,149.3,4.1
		c0.8,1.2,15.5,13.2,15.5,19.7C178.2,138.5,152.3,154.4,90.1,154.4z"/>
	<path class="st1" d="M166.1,102.8c-1.9-3.7-7.1-6.4-13.5-7c-15.8-1.4-44.5-5.3-47.3-14.7c-3.4-11.1-7.4-28.6-8.6-37.4
		c-0.2-1.4-2.1-2.5-4.4-2.5h-2.1h-2.1c-2.3,0-4.3,1.1-4.4,2.5c-1.1,8.8-5.2,26.3-8.6,37.4c-2.9,9.4-31.6,13.3-47.3,14.7
		c-6.4,0.6-11.6,3.3-13.5,7c0,0-9.6,17.6-10.2,24.8c-0.6,7.2,22.8,21.9,86.2,21.9s88.2-15.8,86.4-22.8
		C174.7,119.4,166.1,102.8,166.1,102.8z M90.1,48.3c-2.2,0-4-0.9-4-2.1c0-1.2,1.8-2.1,4-2.1s4,0.9,4,2.1
		C94.2,47.4,92.4,48.3,90.1,48.3z"/>
	<path class="st2" d="M165.9,102.6c-1.9-3.7-7.1-6.4-13.5-7c-15.8-1.4-44.5-5.3-47.3-14.7c-3.4-11.1-7.4-28.6-8.6-37.4
		c-0.2-1.4-2.1-2.5-4.4-2.5H90h-2.1c-2.3,0-4.3,1.1-4.4,2.5c-1.1,8.8-5.2,26.3-8.6,37.4C72,90.3,43.4,94.2,27.6,95.6
		c-6.4,0.6-11.6,3.3-13.5,7c0,0-12.1,25.7-12.1,27.1c0,8.5,25.8,24.4,88,24.4s88-15.9,88-24.4C178,128.3,165.9,102.6,165.9,102.6z
		 M90,43.9c2.2,0,4,0.9,4,2.1s-1.8,2-4,2s-4-0.9-4-2.1S87.8,43.9,90,43.9z"/>
	<g>
		<g>
			<path class="st3" d="M54.9,92.7c2.6,5,8.5,10.1,6.7,16.2s-9.6,8.8-12.5,14.6c-4.1,8.2-1.3,19.6,3.5,26.9c0.1,0.2,0.4,0,0.3-0.2
				c-3-6.7-5-13.6-0.7-20.2c3.2-4.9,7.4-8.3,9.6-13.9c1.5-3.9,3-8.6,1.5-12.7C61.7,99,57.5,96.4,54.9,92.7
				C55,92.6,54.9,92.6,54.9,92.7L54.9,92.7z"/>
		</g>
	</g>
	<g>
		<g>
			<path class="st4" d="M17.5,99.1c-5.2,5.7-0.9,10.1,4.3,13.7c3.6,2.5,6.9,6,4.7,10.7c-0.9,2-2,3.9-2.9,6
				c-1.8,4.5-2.7,9.1-3.3,13.9c-0.1,0.5,0.7,0.6,0.9,0.1c1.4-4.5,2.5-9,4.3-13.4c1.3-3.3,4.2-7,3.8-10.7c-0.3-2.4-1.8-4.2-3.6-5.7
				c-1.3-1.1-2.9-1.9-4.3-2.9c-1.1-0.7-2.5-1.5-3.4-2.5C16.5,106.4,16.4,101.2,17.5,99.1L17.5,99.1L17.5,99.1z"/>
		</g>
	</g>
	<g>
		<g>
			<path class="st4" d="M30.6,112.4c-0.4-4,1.1-9.6,6-10.3c6.7-1,6,4.2,5.3,7.6c-1,4.7-3.5,7.2-6.1,11c-4.4,6.5-1.2,13.3-1.1,20.6
				c0,0.3,0.5,0.4,0.5,0.1c0.5-3.2,0.1-6-0.3-9.2c-0.4-3.5-1.1-6.5,0.8-9.7c0.8-1.4,2-2.5,2.9-3.8c2.8-3.9,6.2-10.4,4.5-15.5
				c-1.2-3.4-5.6-2.9-8.3-1.5C30.6,103.8,29.2,108.2,30.6,112.4C30.5,112.4,30.6,112.4,30.6,112.4L30.6,112.4z"/>
		</g>
	</g>
	<g>
		<g>
			<path class="st3" d="M33.1,111c0.3-0.8,0.6-1.6,1-2.3c2.1-0.1,2.6,0.9,1.4,2.8c-0.5,0.9-1.2,1.6-1.6,2.6
				c-1.1,2.5-1.3,5.7-4.5,6.5c-0.2,0.1-0.1,0.4,0.1,0.4c2-0.3,3.1-1.6,3.9-3.4c0.7-1.6,0.9-3.2,1.8-4.7c0.6-0.9,1.1-1.5,1.3-2.6
				c0.1-0.7,0.1-2.6-1-2.8C33.9,107.1,33.4,110,33.1,111L33.1,111L33.1,111z"/>
		</g>
	</g>
	<g>
		<g>
			<path class="st4" d="M96.2,49.5c-11.4,11.8-5.3,31,1.3,43.8c4.2,8.1,9.8,15.1,13.5,23.5c2,4.5,4.3,9.3,5.4,14.1
				c1.1,4.5,0,8.9,0.5,13.4c0.1,0.5,0.7,0.5,0.7,0c0.6-7.5,0.9-12.6-1.9-19.7c-3-7.6-6.2-14.8-10.7-21.6c-4.8-7.4-8.9-14.5-11.6-23
				C90.3,70,88,57.8,96.2,49.5C96.3,49.5,96.2,49.5,96.2,49.5L96.2,49.5z"/>
		</g>
	</g>
	<g>
		<g>
			<path class="st5" d="M149.3,98.5c5.6,5,11.1,9.3,13,16.9c1.9,7.8,2.4,15.8,2.7,23.8c0,0.9,1.3,1.1,1.6,0.2
				c2.2-8.4,1.9-17.8-1.5-25.8C161.8,106.3,155.6,102.8,149.3,98.5L149.3,98.5L149.3,98.5z"/>
		</g>
	</g>
	<g>
		<g>
			<path class="st3" d="M114.6,98.1c0.9,5.2,1.5,10.8,3.4,15.7c2,4.9,7.5,6.4,9.3,11c1.4,3.7,0.7,7.4,3.3,10.8
				c1.9,2.5,5.5,4.9,8.9,4.6c6.5-0.6,6.6-12.9,4.7-17.2c-2-4.4-5.9-8-8.5-12c-3.4-5.4-5.5-11.2-6.4-17.5c-0.1-0.4-0.7-0.3-0.7,0.1
				c-0.1,7.4,3,14.3,7.1,20.3c2,2.9,4.5,5.5,6.1,8.7c1.9,3.6,3.1,16.6-4.7,15.2c-8.9-1.6-5.2-12.6-10.2-17.3c-3.1-2.9-6.3-4.4-8-8.7
				C117,107.5,115.8,102.7,114.6,98.1L114.6,98.1L114.6,98.1z"/>
		</g>
	</g>
	<g>
		<g>
			<path class="st4" d="M79.8,65.2c2.1,3.8,4.1,6.7,4.1,11.2c0,3.8-0.7,7.7-1.7,11.3c-1.4,5.3-6,11.4-5.1,17.1
				c0.8,5.3,5.7,10.6,9.1,14.5c2.1,2.4,4.5,4.4,6.7,6.7c2.4,2.4,3.4,5.1,3.2,8.5c-0.2,2.8-1.8,6.7-4.6,7.7c-0.4,0.2-0.3,0.8,0.2,0.7
				c4.6-1.1,6.4-8.1,5.5-12.2c-0.7-2.9-3-5-5-6.9c-3.7-3.5-7.2-7.3-10.1-11.5c-1.3-1.8-3.1-4.1-3.6-6.3c-0.8-3.6,0.6-6.4,2-9.6
				c1.6-3.8,2.8-7.6,3.5-11.6c0.6-3.4,1.1-7.1,0.4-10.6C83.8,70.6,81.3,68.3,79.8,65.2C79.9,65.1,79.8,65.1,79.8,65.2L79.8,65.2z"/>
		</g>
	</g>
	<g>
		<g>
			<path class="st4" d="M68.4,87.6c0.8,4.8,3.5,9.8,3,14.8c-0.4,5-4.6,7.1-5.5,11.6c-0.1,0.4,0.5,0.8,0.8,0.3
				c2.1-3.7,5.7-6.6,6-11.1C73.2,97.8,70.1,92.6,68.4,87.6L68.4,87.6L68.4,87.6z"/>
		</g>
	</g>
	<g>
		<g>
			<path class="st3" d="M78.4,144.7c-4-1.9-8.5-5-8.5-10c0-3,2.4-6.1,3.4-8.9c1.9-5.3,2.4-11.2,0.8-16.5c-0.1-0.5-1-0.4-0.9,0.1
				c0.7,5.2,1,10.2-0.6,15.3c-0.9,2.9-2.9,5.6-3.4,8.6C68.2,139.4,73.6,142.5,78.4,144.7C78.4,144.8,78.4,144.7,78.4,144.7
				L78.4,144.7z"/>
		</g>
	</g>
	<g>
		<g>
			<path class="st5" d="M88.9,94.2c-3.6,0.5-4.4,5.7-3.6,8.7c0.6,2.3,2.6,4,4.2,5.7c0.7,0.8,1.7,2.5,3,2.5c2.4,0,4.4-6.2,4.1-8.1
				c-0.6-3.6-4.3-8.7-7.6-10.4c-0.4-0.2-0.9,0.3-0.5,0.7c3.7,3.8,8.6,9.4,4.9,14.8c-1,1.4-0.5,1.5-2,0.4c-0.9-0.7-1.8-1.9-2.6-2.7
				c-1.1-1.3-1.9-2.2-2.2-4c-0.4-2.3-0.7-6.3,2.6-6.9C89.5,94.8,89.3,94.1,88.9,94.2L88.9,94.2z"/>
		</g>
	</g>
</g>
<ellipse id="Shadow" class="st6" cx="90.9" cy="119.7" rx="58.4" ry="21.1"/>
<g id="BellPepper">
	<g>
		<path class="st7" d="M46.6,70.1c2.1-2.8,5.4-3.4,9.8-1.9c6.2-1.2,11.8-0.8,16.9,0.9c4.9-2.6,8.5-1.7,11.5,0.9
			c6.6-0.4,8.3,1.7,12.1,9.9c5,10.6-4.6,47-18.9,52.6c-9.3,3.7-7.6-2.6-10.9-2.5c-3.3,0.1-7.5,5.8-13.7,1.4
			c-9.4-6.8-12.6-28-15.7-41.9C33.7,71.6,46.6,70.1,46.6,70.1z"/>
		<path class="st8" d="M73.1,126c-7.6-2.3-10.2-32.8-10.2-32.8s-3.7,19.4-0.7,30.2c2.1,7.5-9.7,3-17.4-5.4
			c2.2,5.8,4.9,10.8,8.6,13.5c6.2,4.4,10.4-1.3,13.7-1.4c3.2-0.1,1.5,6.2,10.9,2.5c8-3.2,14.6-16,17.9-28.6
			C88.5,115.6,78.7,127.7,73.1,126z"/>
		<path class="st8" d="M67.6,77.6c-5.3-2-10.3-2.9-14.5,0c2.6-2,4.4-3.9,2.3-5.7c10.5-1.9,14.4-1.2,17,0l6.2,2.8
			c0,0,12.4-2.7,14.8,9s0,20.5,0,20.5c1.2-15.2-2.7-30-16.2-28.5C68.1,76.8,67.6,77.6,67.6,77.6z"/>
		<path class="st9" d="M53.1,77.6c0,0-2.7-4.5-8.3-1.8s4.1,38.8,4.1,38.8C47.1,95.1,45.3,75.9,53.1,77.6z"/>
		<path class="st10" d="M71.9,71.8c0,2-0.3,3.7-0.6,4.9c-1.2,0.2-2,0.4-2.5,0.5c-1.1,0.3-1.2,0.5-1.2,0.5c-1.9-0.7-3.8-1.3-5.6-1.6
			c1.1-1.2,2.6-3.1,3.5-5.2c1.1-2.8,1-6-2.8-8.4c-8.7-5.7-13.8,1.5-15.6,2c-0.2,0.1-0.5,0-0.7-0.2c-0.3-0.2-0.5-0.6-0.7-1.1l0,0
			c-0.2-0.4-0.3-0.9-0.4-1.4c-0.1-0.6-0.1-1.2-0.1-1.8c0-1.6,0.5-3.2,1.7-3.8c2.8-1.5,10.7-1.6,19.4,4C71,63.1,72,67.9,71.9,71.8z"
			/>
		<g>
			<path class="st11" d="M51.6,55.2c3.8,0,9.1,1.2,14.8,4.9c3.4,2.2,4.9,5.5,5.3,8.6c0.5,0.1,1,0.3,1.5,0.4c2-1.1,3.9-1.6,5.5-1.6
				c2.3,0,4.3,0.9,6,2.5c0.5,0,0.9,0,1.3,0c5.6,0,7.2,2.3,10.8,9.9c5,10.6-4.6,47-18.9,52.6c-2.1,0.8-3.7,1.2-4.8,1.2
				c-3.9,0-3.5-3.7-5.9-3.7h-0.1c-2.3,0.1-5.2,3.1-8.9,3.1c-1.4,0-3-0.4-4.7-1.7c-9.4-6.8-12.6-28-15.7-41.9
				c-4-18,8.9-19.5,8.9-19.5c1.4-1.8,3.2-2.7,5.5-2.7c1.3,0,2.7,0.3,4.2,0.8c2.4-0.5,4.6-0.7,6.8-0.7c1,0,1.9,0,2.9,0.1
				c-0.1-1.9-1-3.7-3.4-5.3c-2.4-1.5-4.5-2.1-6.4-2.1c-4.9,0-7.9,3.9-9.2,4.2c-0.1,0-0.1,0-0.2,0c-0.2,0-0.3-0.1-0.5-0.2
				c-0.3-0.2-0.5-0.6-0.7-1.1l0,0c-0.2-0.4-0.3-0.9-0.4-1.4c-0.1-0.6-0.1-1.2-0.1-1.8c0-1.6,0.5-3.2,1.7-3.8
				C48,55.6,49.6,55.2,51.6,55.2 M51.6,53.2L51.6,53.2c-2.3,0-4.2,0.4-5.6,1.1c-1.7,0.9-2.6,2.9-2.7,5.5c0,0.7,0,1.5,0.1,2.2
				c0.1,0.6,0.3,1.2,0.4,1.7l0.5,1.3h0.2c0.2,0.2,0.4,0.4,0.6,0.6c0.5,0.5,1.1,0.7,1.8,0.7c0.2,0,0.4,0,0.7-0.1
				c0.8-0.2,1.4-0.7,2.3-1.4c1.5-1.2,3.6-2.8,6.4-2.8c1.7,0,3.4,0.6,5.3,1.8c0.7,0.5,1.3,1,1.7,1.5h-0.1c-2.2,0-4.4,0.2-6.7,0.6
				c-1.6-0.5-3-0.8-4.4-0.8c-2.6,0-4.9,1-6.6,2.9c-1.6,0.4-5.3,1.6-7.8,5.2c-2.8,4-3.5,9.5-1.9,16.5c0.4,1.9,0.9,4,1.3,6.1
				c2.9,13.7,6.4,30.7,15.2,37c1.9,1.4,3.9,2.1,5.9,2.1c2.6,0,4.8-1.1,6.5-2c1-0.5,1.9-1,2.5-1l0,0c0.1,0.1,0.4,0.4,0.6,0.7
				c0.8,1.1,2.2,3,5.4,3c1.5,0,3.4-0.4,5.6-1.3c8.1-3.2,13.5-14.2,16-20.5c4.5-11.4,7.4-27.4,4-34.8c-3.4-7.3-5.5-11.1-12.6-11.1
				c-0.2,0-0.4,0-0.6,0c-2.1-1.6-4.3-2.5-6.7-2.5c-1.7,0-3.5,0.4-5.3,1.3c-0.9-3.6-2.9-6.5-5.9-8.4C60.5,53.9,54.6,53.2,51.6,53.2
				L51.6,53.2L51.6,53.2z"/>
		</g>
		<path class="st12" d="M68.8,77.2c-1.1,0.3-1.2,0.5-1.2,0.5c-1.9-0.7-3.8-1.3-5.6-1.6c1.1-1.2,2.6-3.1,3.5-5.2c1.1-2.8,1-6-2.8-8.4
			c-8.7-5.7-13.8,1.5-15.6,2c-0.2,0.1-0.5,0-0.7-0.2c-0.3-0.2-0.5-0.6-0.7-1.1l0,0c-0.3-0.9-0.5-2.1-0.5-3.2c4.2-1.6,11.1-3,17.8,1
			c4.4,2.6,5.9,6.5,6.1,10.1C69.5,73.3,69.2,75.5,68.8,77.2z"/>
	</g>
	<g>
		<path class="st13" d="M92.3,84.9c-2.9,1.9-3.7,5-2.5,9.2c-1.5,5.9-1.5,11.2-0.1,16.2c-2.9,4.5-2.3,8.1,0.2,11.1
			c-0.8,6.3,1.2,8.1,9.1,12.2c10.3,5.5,47.2-1.5,53.7-14.8c4.2-8.7-2.2-7.5-1.8-10.6c0.3-3.1,6.3-6.8,2.2-13
			c-6.2-9.5-27.2-13.8-40.9-17.7C94.6,72.6,92.3,84.9,92.3,84.9z"/>
		<path class="st14" d="M146.5,113.8c-1.9-7.5-32.1-11.8-32.1-11.8s19.6-2.3,30.2,1.2c7.4,2.5,3.6-9.1-4.3-17.1
			c5.7,2.4,10.5,5.4,12.9,9.1c4.1,6.2-1.9,9.9-2.2,13s6.1,1.9,1.8,10.6c-3.6,7.5-16.9,13-29.6,15.4
			C135.2,127.9,147.9,119.3,146.5,113.8z"/>
		<path class="st14" d="M98.6,105.5c-1.7-5.2-2.3-10.1,0.9-13.9c-2.1,2.4-4.1,4-5.8,1.9c-2.5,9.9-2.1,13.7-1,16.3l2.5,6.1
			c0,0-3.4,11.7,8.1,14.8c11.5,3.1,20.5,1.3,20.5,1.3c-15.2,0.2-29.8-4.4-27.5-17.3C97.7,105.9,98.6,105.5,98.6,105.5z"/>
		<path class="st10" d="M99.4,91.6c0,0-4.3-2.9-1.3-8.1s38.5,6.4,38.5,6.4C117.2,86.9,98.2,84,99.4,91.6z"/>
		<path class="st10" d="M92.4,109.3c2,0.1,3.7-0.1,4.9-0.3c0.3-1.1,0.5-1.9,0.7-2.4c0.4-1,0.6-1.1,0.6-1.1c-0.6-1.9-1.1-3.7-1.3-5.5
			c-1.2,1-3.2,2.3-5.4,3c-2.8,0.9-6,0.6-8.3-3.2c-5.1-8.6,2.5-13.1,3-14.7c0.1-0.2,0-0.4-0.2-0.6c-0.2-0.3-0.6-0.5-1.1-0.7l0,0
			c-0.4-0.2-0.9-0.3-1.4-0.4c-0.6-0.1-1.2-0.2-1.8-0.2c-1.6-0.1-3.2,0.3-3.9,1.3c-1.7,2.6-2.3,10.2,2.8,18.9
			C83.8,107.8,88.6,109.1,92.4,109.3z"/>
		<g>
			<path class="st15" d="M104.6,76.4c2.2,0,4.7,0.4,7.7,1.2c13.7,3.9,34.7,8.2,40.9,17.7c4.1,6.2-1.9,9.9-2.2,13s6.1,1.9,1.8,10.6
				c-5,10.2-27.8,16.7-42.9,16.7c-4.6,0-8.4-0.6-10.8-1.9c-7.9-4.2-9.9-5.9-9.1-12.2c-2.5-3-3.1-6.6-0.2-11.1
				c-0.1-0.5-0.2-1-0.4-1.5c-3.1-0.6-6.3-2.2-8.3-5.6C76,94.6,76.6,87,78.3,84.4c0.6-1,2-1.4,3.5-1.4c0.1,0,0.2,0,0.3,0
				c0.6,0,1.2,0.1,1.8,0.2c0.5,0.1,1,0.3,1.4,0.4l0,0c0.5,0.2,0.9,0.4,1.1,0.7c0.2,0.2,0.2,0.4,0.2,0.6c-0.6,1.6-8.1,6.1-3,14.7
				c1.4,2.4,3.2,3.4,5.1,3.6c-0.1-3,0.3-6,1.1-9.3c-1.3-4.3-0.5-7.4,2.5-9.2C92.3,84.9,93.9,76.4,104.6,76.4 M104.6,74.4
				c-6.3,0-9.8,2.7-11.7,5c-1.4,1.7-2,3.3-2.3,4.3c-2.3,1.7-4.3,4.9-2.8,10.5c-0.5,2.1-0.9,4.3-1,6.4c-0.5-0.4-1-1-1.4-1.7
				c-3.2-5.5-0.4-8.7,1.7-10.9c0.7-0.8,1.3-1.4,1.5-2.1c0.3-0.9,0.1-1.8-0.5-2.6c-0.2-0.2-0.3-0.4-0.6-0.5v-0.2L86.2,82
				c-0.5-0.2-1.1-0.4-1.7-0.5c-0.7-0.2-1.4-0.3-2.2-0.3c-0.1,0-0.3,0-0.4,0c-2.4,0-4.3,0.8-5.2,2.3c-2.4,3.7-2.3,12.4,2.8,21
				c1.8,3,4.4,5.1,8,6.2c-2.2,4.1-2,8,0.6,11.6c-0.6,7,2.5,9.3,10.3,13.4c2.6,1.4,6.6,2.1,11.7,2.1c14.7,0,39.1-6.3,44.7-17.8
				c3.2-6.6,1.1-9-1-10.8c-0.2-0.2-0.5-0.4-0.6-0.5c0.1-0.5,0.6-1.4,1.2-2.2c1.7-2.7,4.2-6.7,0.7-12c-5.8-8.8-22.5-13.3-36-16.9
				c-2.1-0.6-4.2-1.1-6-1.6C109.8,74.8,107,74.4,104.6,74.4L104.6,74.4z"/>
		</g>
		<path class="st12" d="M98,106.6c0.4-1,0.6-1.1,0.6-1.1c-0.6-1.9-1.1-3.7-1.3-5.5c-1.2,1-3.2,2.3-5.4,3c-2.8,0.9-6,0.6-8.3-3.2
			c-5.1-8.6,2.5-13.1,3-14.7c0.1-0.2,0-0.4-0.2-0.6c-0.2-0.3-0.6-0.5-1.1-0.7l0,0c-0.8-0.4-2-0.6-3.2-0.7
			c-1.8,3.9-3.7,10.4-0.1,17.1c2.3,4.4,6.1,6,9.7,6.5C94.1,107,96.3,106.9,98,106.6z"/>
	</g>
</g>
</svg>
