<?xml version="1.0" encoding="utf-8"?>
<!-- Generator: Adobe Illustrator 22.0.1, SVG Export Plug-In . SVG Version: 6.00 Build 0)  -->
<svg version="1.1" id="Layer_1" xmlns="http://www.w3.org/2000/svg" xmlns:xlink="http://www.w3.org/1999/xlink" x="0px" y="0px"
	 viewBox="0 0 180 180" style="enable-background:new 0 0 180 180;" xml:space="preserve">
<style type="text/css">
	.st0{fill:#A4AEB3;}
	.st1{fill:#C3D4D4;}
	.st2{fill:#8B9E9C;}
	.st3{clip-path:url(#SVGID_2_);}
	.st4{fill:#6DC618;}
	.st5{fill:#56AF08;}
	.st6{fill:#FFD285;}
	.st7{fill:#F7931E;}
	.st8{fill:#F2836B;}
	.st9{fill:#F2594B;}
</style>
<g>
	<path class="st0" d="M178,180H2c-1.1,0-2-0.9-2-2V2c0-1.1,0.9-2,2-2h176c1.1,0,2,0.9,2,2v176C180,179.1,179.1,180,178,180z"/>
</g>
<g>
	<path class="st1" d="M165.5,176.9h-151c-6.3,0-11.4-5.1-11.4-11.4v-151c0-6.3,5.1-11.4,11.4-11.4h150.9c6.3,0,11.4,5.1,11.4,11.4
		v150.9C176.9,171.8,171.8,176.9,165.5,176.9z"/>
</g>
<g>
	<path class="st2" d="M148.3,173.8H31.7c-14.1,0-25.5-11.4-25.5-25.5V31.7c0-14.1,11.4-25.5,25.5-25.5h116.7
		c14.1,0,25.5,11.4,25.5,25.5v116.7C173.8,162.4,162.4,173.8,148.3,173.8z"/>
</g>
<g>
	<g>
		<defs>
			<path id="SVGID_1_" d="M145.9,170.2H34.1c-13.5,0-24.4-10.9-24.4-24.4V34.1c0-13.5,10.9-24.4,24.4-24.4h111.7
				c13.5,0,24.4,10.9,24.4,24.4v111.7C170.2,159.3,159.3,170.2,145.9,170.2z"/>
		</defs>
		<clipPath id="SVGID_2_">
			<use xlink:href="#SVGID_1_"  style="overflow:visible;"/>
		</clipPath>
		<g class="st3">
			<g>
				<g>
					<g>
						<g>
							<path class="st4" d="M59.8,107.4c-8.8,0-16.2-6.2-17.3-14.5v-0.1h-0.1c-8.3-1.1-14.5-8.5-14.5-17.3s6.2-16.2,14.5-17.3h0.1
								v-0.1c1.1-8.3,8.5-14.5,17.3-14.5S76,49.8,77.1,58.1v0.1h0.1c8.3,1.1,14.5,8.5,14.5,17.3s-6.2,16.2-14.5,17.3h-0.1v0.1
								C76,101.1,68.6,107.4,59.8,107.4L59.8,107.4z M59.8,47.8c-6.7,0-12.3,4.6-13.1,10.8L46.3,62l-3.4,0.4
								c-6.1,0.8-10.8,6.4-10.8,13.1s4.6,12.3,10.8,13.1l3.4,0.4l0.4,3.4c0.8,6.1,6.4,10.8,13.1,10.8s12.3-4.6,13.1-10.8l0.4-3.4
								l3.4-0.4c6.1-0.8,10.8-6.4,10.8-13.1s-4.6-12.3-10.8-13.1L73.3,62l-0.4-3.4C72.1,52.4,66.5,47.8,59.8,47.8L59.8,47.8z"/>
						</g>
					</g>
					<g>
						<path class="st5" d="M59.8,109.9c-9.4,0-17.5-6.3-19.5-15c-8.7-2-15-10-15-19.5c0-9.4,6.3-17.5,15-19.5c2-8.7,10-15,19.5-15
							c9.4,0,17.5,6.3,19.5,15c8.7,2,15,10,15,19.5c0,9.4-6.3,17.5-15,19.5C77.3,103.5,69.2,109.9,59.8,109.9L59.8,109.9z
							 M59.8,45.6c-7.7,0-14.2,5.4-15.2,12.6L44.4,60l-1.8,0.2c-7.2,1-12.6,7.5-12.6,15.2s5.4,14.2,12.6,15.2l1.8,0.2l0.2,1.8
							c0.9,7.2,7.4,12.6,15.2,12.6c7.7,0,14.2-5.4,15.2-12.6l0.2-1.8l1.8-0.2c7.2-0.9,12.6-7.4,12.6-15.2c0-7.7-5.4-14.2-12.6-15.2
							L75.2,60L75,58.3C74,51.1,67.5,45.6,59.8,45.6L59.8,45.6z"/>
					</g>
				</g>
				<g>
					<g>
						<g>
							<path class="st4" d="M93,163.4c-8.8,0-16.2-6.2-17.3-14.5v-0.1h-0.1c-8.3-1.1-14.5-8.5-14.5-17.3s6.2-16.2,14.5-17.3h0.1
								v-0.1c1.1-8.3,8.5-14.5,17.3-14.5s16.2,6.2,17.3,14.5v0.1h0.1c8.3,1.1,14.5,8.5,14.5,17.3s-6.2,16.2-14.5,17.3h-0.1v0.1
								C109.2,157.2,101.8,163.4,93,163.4L93,163.4z M93,103.8c-6.7,0-12.3,4.6-13.1,10.8l-0.4,3.4l-3.4,0.4
								c-6.1,0.8-10.8,6.4-10.8,13.1c0,6.7,4.6,12.3,10.8,13.1l3.4,0.4l0.4,3.4c0.8,6.1,6.4,10.8,13.1,10.8s12.3-4.6,13.1-10.8
								l0.4-3.4l3.4-0.4c6.1-0.8,10.8-6.4,10.8-13.1c0-6.7-4.6-12.3-10.8-13.1l-3.4-0.4l-0.4-3.4C105.3,108.4,99.7,103.8,93,103.8
								L93,103.8z"/>
						</g>
					</g>
					<g>
						<path class="st5" d="M93,165.9c-9.4,0-17.5-6.3-19.5-15c-8.7-2-15-10-15-19.5c0-9.4,6.3-17.5,15-19.5c2-8.7,10-15,19.5-15
							c9.4,0,17.5,6.3,19.5,15c8.7,2,15,10,15,19.5c0,9.4-6.3,17.5-15,19.5C110.5,159.6,102.5,165.9,93,165.9L93,165.9z M93,101.7
							c-7.7,0-14.2,5.4-15.2,12.6l-0.2,1.8l-1.8,0.2c-7.2,0.9-12.6,7.4-12.6,15.2c0,7.7,5.4,14.2,12.6,15.2l1.8,0.2l0.2,1.8
							c0.9,7.2,7.4,12.6,15.2,12.6c7.7,0,14.2-5.4,15.2-12.6l0.2-1.8l1.8-0.2c7.2-0.9,12.6-7.4,12.6-15.2c0-7.7-5.4-14.2-12.6-15.2
							l-1.8-0.2l-0.2-1.8C107.3,107.1,100.7,101.7,93,101.7L93,101.7z"/>
					</g>
				</g>
				<g>
					<g>
						<g>
							<path class="st6" d="M69.8,137.1c-8.8,0-16.2-6.2-17.3-14.5v-0.1h-0.1c-8.3-1.1-14.5-8.5-14.5-17.3S44.1,89,52.4,87.9h0.1
								v-0.1c1.1-8.3,8.5-14.5,17.3-14.5S86,79.5,87.1,87.8v0.1h0.1c8.3,1.1,14.5,8.5,14.5,17.3s-6.2,16.2-14.5,17.3h-0.1v0.1
								C86,130.9,78.6,137.1,69.8,137.1L69.8,137.1z M69.8,77.5c-6.7,0-12.3,4.6-13.1,10.8l-0.4,3.4l-3.4,0.4
								c-6.1,0.8-10.8,6.4-10.8,13.1s4.6,12.3,10.8,13.1l3.4,0.4l0.4,3.4c0.8,6.1,6.4,10.8,13.1,10.8s12.3-4.6,13.1-10.8l0.4-3.4
								l3.4-0.4c6.1-0.8,10.8-6.4,10.8-13.1s-4.6-12.3-10.8-13.1l-3.4-0.4l-0.4-3.4C82.1,82.1,76.4,77.5,69.8,77.5L69.8,77.5z"/>
						</g>
					</g>
					<g>
						<path class="st7" d="M69.8,139.6c-9.4,0-17.5-6.3-19.5-15c-8.7-2-15-10-15-19.5c0-9.4,6.3-17.5,15-19.5c2-8.7,10-15,19.5-15
							c9.4,0,17.5,6.3,19.5,15c8.7,2,15,10,15,19.5c0,9.4-6.3,17.5-15,19.5C87.3,133.3,79.2,139.6,69.8,139.6L69.8,139.6z
							 M69.8,75.3c-7.7,0-14.2,5.4-15.2,12.6l-0.2,1.8L52.6,90C45.4,90.9,40,97.4,40,105.1s5.4,14.2,12.6,15.2l1.8,0.2l0.2,1.8
							c0.9,7.2,7.4,12.6,15.2,12.6c7.7,0,14.2-5.4,15.2-12.6l0.2-1.8l1.8-0.2c7.2-0.9,12.6-7.5,12.6-15.2S94.2,90.9,87,89.9
							l-1.8-0.2L85,88C84,80.8,77.5,75.3,69.8,75.3L69.8,75.3z"/>
					</g>
				</g>
				<g>
					<g>
						<g>
							<path class="st8" d="M37.8,187.1c-8.8,0-16.2-6.2-17.3-14.5v-0.1h-0.1c-8.3-1.1-14.5-8.5-14.5-17.3s6.2-16.2,14.5-17.3h0.1
								v-0.1c1.1-8.3,8.5-14.5,17.3-14.5s16.2,6.2,17.3,14.5v0.1h0.1c8.3,1.1,14.5,8.5,14.5,17.3s-6.2,16.2-14.5,17.3h-0.1v0.1
								C54.1,180.8,46.6,187.1,37.8,187.1L37.8,187.1z M37.8,127.5c-6.7,0-12.3,4.6-13.1,10.8l-0.4,3.4l-3.4,0.4
								c-6.1,0.8-10.8,6.4-10.8,13.1c0,6.6,4.6,12.3,10.8,13.1l3.4,0.4l0.4,3.4c0.8,6.1,6.4,10.8,13.1,10.8s12.3-4.6,13.1-10.8
								l0.4-3.4l3.4-0.4c6.1-0.8,10.8-6.4,10.8-13.1c0-6.7-4.6-12.3-10.8-13.1l-3.4-0.4l-0.4-3.4C50.1,132.1,44.5,127.5,37.8,127.5
								L37.8,127.5z"/>
						</g>
					</g>
					<g>
						<path class="st9" d="M37.8,189.6c-9.4,0-17.5-6.3-19.5-15c-8.7-2-15-10-15-19.5c0-9.4,6.3-17.5,15-19.5c2-8.7,10-15,19.5-15
							c9.4,0,17.5,6.3,19.5,15c8.7,2,15,10,15,19.5c0,9.4-6.3,17.5-15,19.5C55.3,183.2,47.3,189.6,37.8,189.6L37.8,189.6z
							 M37.8,125.3c-7.7,0-14.2,5.4-15.2,12.6l-0.2,1.8l-1.8,0.2c-7.1,1-12.6,7.5-12.6,15.2c0,7.7,5.4,14.2,12.6,15.2l1.8,0.2
							l0.2,1.8c0.9,7.2,7.4,12.6,15.2,12.6c7.7,0,14.2-5.4,15.2-12.6l0.2-1.8l1.8-0.2c7.2-0.9,12.6-7.4,12.6-15.2
							c0-7.7-5.4-14.2-12.6-15.2l-1.8-0.2L53,138C52.1,130.8,45.6,125.3,37.8,125.3L37.8,125.3z"/>
					</g>
				</g>
				<g>
					<g>
						<g>
							<path class="st8" d="M12.9,129c-8.8,0-16.2-6.2-17.3-14.5v-0.1h-0.1c-8.3-1.1-14.5-8.5-14.5-17.3s6.2-16.2,14.5-17.3h0.1
								v-0.1c1.1-8.3,8.5-14.5,17.3-14.5s16.2,6.2,17.3,14.5v0.1h0.1c8.3,1.1,14.5,8.5,14.5,17.3s-6.2,16.2-14.5,17.3h-0.1v0.1
								C29.1,122.8,21.7,129,12.9,129L12.9,129z M12.9,69.4C6.2,69.4,0.6,74-0.2,80.1l-0.4,3.4L-4,84c-6.1,0.8-10.8,6.4-10.8,13.1
								c0,6.6,4.6,12.3,10.8,13.1l3.4,0.4l0.4,3.4c0.8,6.1,6.4,10.8,13.1,10.8S25.2,120.2,26,114l0.4-3.4l3.4-0.4
								c6.1-0.8,10.8-6.4,10.8-13.1S36,84.8,29.8,84l-3.4-0.4L26,80.2C25.1,74,19.5,69.4,12.9,69.4L12.9,69.4z"/>
						</g>
					</g>
					<g>
						<path class="st9" d="M12.9,131.5c-9.4,0-17.5-6.3-19.5-15c-8.7-2-15-10-15-19.5c0-9.4,6.3-17.5,15-19.5c2-8.7,10-15,19.5-15
							c9.4,0,17.5,6.3,19.5,15c8.7,2,15,10,15,19.5c0,9.4-6.3,17.5-15,19.5C30.4,125.2,22.3,131.5,12.9,131.5L12.9,131.5z
							 M12.9,67.2c-7.7,0-14.2,5.4-15.2,12.6l-0.2,1.8l-1.8,0.2c-7.2,0.9-12.6,7.4-12.6,15.2c0,7.7,5.4,14.2,12.6,15.2l1.8,0.2
							l0.2,1.8c0.9,7.2,7.4,12.6,15.2,12.6c7.7,0,14.2-5.4,15.2-12.6l0.2-1.8l1.8-0.2c7.2-0.9,12.6-7.4,12.6-15.2
							c0-7.7-5.4-14.2-12.6-15.2l-1.8-0.2L28,79.9C27.1,72.7,20.6,67.2,12.9,67.2L12.9,67.2z"/>
					</g>
				</g>
				<g>
					<g>
						<g>
							<path class="st6" d="M144.6,89.4c-8.8,0-16.2-6.2-17.3-14.5v-0.1h-0.1c-8.3-1.1-14.5-8.5-14.5-17.3s6.2-16.2,14.5-17.3h0.1
								v-0.1c1.1-8.3,8.5-14.5,17.3-14.5s16.2,6.2,17.3,14.5v0.1h0.1c8.3,1.1,14.5,8.5,14.5,17.3s-6.2,16.2-14.5,17.3h-0.1v0.1
								C160.9,83.2,153.4,89.4,144.6,89.4L144.6,89.4z M144.6,29.8c-6.7,0-12.3,4.6-13.1,10.8l-0.4,3.4l-3.4,0.4
								c-6.1,0.8-10.8,6.4-10.8,13.1s4.6,12.3,10.8,13.1l3.4,0.4l0.4,3.4c0.8,6.1,6.4,10.8,13.1,10.8s12.3-4.6,13.1-10.8l0.4-3.4
								l3.4-0.4c6.1-0.8,10.8-6.4,10.8-13.1s-4.6-12.3-10.8-13.1l-3.4-0.4l-0.4-3.4C156.9,34.4,151.3,29.8,144.6,29.8L144.6,29.8z"
								/>
						</g>
					</g>
					<g>
						<path class="st7" d="M144.6,91.9c-9.4,0-17.5-6.3-19.5-15c-8.7-2-15-10-15-19.5c0-9.4,6.3-17.5,15-19.5c2-8.7,10-15,19.5-15
							c9.4,0,17.5,6.3,19.5,15c8.7,2,15,10,15,19.5c0,9.4-6.3,17.5-15,19.5C162.2,85.6,154.1,91.9,144.6,91.9L144.6,91.9z
							 M144.6,27.6c-7.7,0-14.2,5.4-15.2,12.6l-0.2,1.8l-1.8,0.2c-7.2,0.9-12.6,7.4-12.6,15.2c0,7.7,5.4,14.2,12.6,15.2l1.8,0.2
							l0.2,1.8c0.9,7.2,7.4,12.6,15.2,12.6c7.7,0,14.2-5.4,15.2-12.6l0.2-1.8l1.8-0.2c7.2-0.9,12.6-7.5,12.6-15.2
							s-5.4-14.2-12.6-15.2L160,42l-0.2-1.8C158.9,33.1,152.4,27.6,144.6,27.6L144.6,27.6z"/>
					</g>
				</g>
				<g>
					<g>
						<g>
							<path class="st6" d="M134,197.9c-8.8,0-16.2-6.2-17.3-14.5v-0.1h-0.1c-8.3-1.1-14.5-8.5-14.5-17.3s6.2-16.2,14.5-17.3h0.1
								v-0.1c1.1-8.3,8.5-14.5,17.3-14.5s16.2,6.2,17.3,14.5v0.1h0.1c8.3,1.1,14.5,8.5,14.5,17.3s-6.2,16.2-14.5,17.3h-0.1v0.1
								C150.3,191.6,142.8,197.9,134,197.9L134,197.9z M134,138.2c-6.7,0-12.3,4.6-13.1,10.8l-0.4,3.4l-3.4,0.4
								c-6.1,0.8-10.8,6.4-10.8,13.1c0,6.7,4.6,12.3,10.8,13.1l3.4,0.4l0.4,3.4c0.8,6.1,6.4,10.8,13.1,10.8s12.3-4.6,13.1-10.8
								l0.4-3.4l3.4-0.4c6.1-0.8,10.8-6.4,10.8-13.1c0-6.7-4.6-12.3-10.8-13.1l-3.4-0.4l-0.4-3.4C146.3,142.9,140.7,138.2,134,138.2
								L134,138.2z"/>
						</g>
					</g>
					<g>
						<path class="st7" d="M134,200.4c-9.4,0-17.5-6.3-19.5-15c-8.7-2-15-10-15-19.5c0-9.4,6.3-17.5,15-19.5c2-8.7,10-15,19.5-15
							c9.4,0,17.5,6.3,19.5,15c8.7,2,15,10,15,19.5c0,9.4-6.3,17.5-15,19.5C151.6,194,143.5,200.4,134,200.4L134,200.4z M134,136.1
							c-7.7,0-14.2,5.4-15.2,12.6l-0.2,1.8l-1.8,0.2c-7.2,0.9-12.6,7.4-12.6,15.2c0,7.7,5.4,14.2,12.6,15.2l1.8,0.2l0.2,1.8
							c0.9,7.2,7.4,12.6,15.2,12.6c7.7,0,14.2-5.4,15.2-12.6l0.2-1.8l1.8-0.2c7.2-0.9,12.6-7.5,12.6-15.2s-5.4-14.2-12.6-15.2
							l-1.8-0.2l-0.2-1.8C148.3,141.5,141.8,136.1,134,136.1L134,136.1z"/>
					</g>
				</g>
				<g>
					<g>
						<g>
							<path class="st6" d="M30,63.3c-8.8,0-16.2-6.2-17.3-14.5v-0.1h-0.1C4.3,47.6-2,40.1-2,31.3S4.2,15.1,12.5,14h0.1v-0.1
								C13.8,5.6,21.2-0.6,30-0.6s16.2,6.2,17.3,14.5V14h0.1c8.3,1.1,14.5,8.5,14.5,17.3s-6.2,16.2-14.5,17.3h-0.1v0.1
								C46.2,57,38.8,63.3,30,63.3L30,63.3z M30,3.7c-6.7,0-12.3,4.6-13.1,10.8l-0.4,3.4l-3.4,0.4c-6.2,0.8-10.8,6.4-10.8,13
								c0,6.7,4.6,12.3,10.8,13.1l3.4,0.4l0.4,3.4C17.7,54.4,23.3,59,30,59s12.2-4.6,13-10.8l0.4-3.4l3.4-0.4
								C53,43.6,57.7,38,57.7,31.3S53.1,19,46.9,18.2l-3.4-0.4L43,14.4C42.2,8.3,36.6,3.7,30,3.7L30,3.7z"/>
						</g>
					</g>
					<g>
						<path class="st7" d="M30,65.8c-9.4,0-17.5-6.3-19.5-15c-8.7-2-15-10-15-19.5c0-9.4,6.3-17.5,15-19.5c2-8.7,10-15,19.5-15
							c9.4,0,17.5,6.3,19.5,15c8.7,2,15,10,15,19.5c0,9.4-6.3,17.5-15,19.5C47.5,59.4,39.4,65.8,30,65.8L30,65.8z M30,1.5
							c-7.7,0-14.2,5.4-15.2,12.6l-0.2,1.8l-1.8,0.2c-7.2,1-12.6,7.5-12.6,15.2s5.4,14.2,12.6,15.2l1.8,0.2l0.2,1.8
							c0.9,7.2,7.4,12.6,15.2,12.6c7.7,0,14.2-5.4,15.2-12.6l0.2-1.8l1.8-0.2c7.2-0.9,12.6-7.5,12.6-15.2s-5.4-14.2-12.6-15.2
							l-1.8-0.2l-0.2-1.8C44.2,6.9,37.7,1.5,30,1.5L30,1.5z"/>
					</g>
				</g>
				<g>
					<g>
						<g>
							<path class="st8" d="M136.2,123.9c-8.8,0-16.2-6.2-17.3-14.5v-0.1h-0.1c-8.3-1.1-14.5-8.5-14.5-17.3s6.2-16.2,14.5-17.3h0.1
								v-0.1c1.1-8.3,8.5-14.5,17.3-14.5s16.2,6.2,17.3,14.5v0.1h0.1c8.3,1.1,14.5,8.5,14.5,17.3s-6.2,16.2-14.5,17.3h-0.1v0.1
								C152.4,117.6,145,123.9,136.2,123.9L136.2,123.9z M136.2,64.2c-6.7,0-12.3,4.6-13.1,10.8l-0.4,3.4l-3.4,0.4
								c-6.1,0.8-10.8,6.4-10.8,13.1c0,6.6,4.6,12.3,10.8,13.1l3.4,0.4l0.4,3.4c0.8,6.1,6.4,10.8,13.1,10.8s12.3-4.6,13.1-10.8
								l0.4-3.4l3.4-0.4c6.1-0.8,10.8-6.4,10.8-13.1s-4.6-12.3-10.8-13.1l-3.4-0.4l-0.4-3.4C148.4,68.9,142.8,64.2,136.2,64.2
								L136.2,64.2z"/>
						</g>
					</g>
					<g>
						<path class="st9" d="M136.2,126.3c-9.4,0-17.5-6.3-19.5-15c-8.7-2-15-10-15-19.5c0-9.4,6.3-17.5,15-19.5c2-8.7,10-15,19.5-15
							c9.4,0,17.5,6.3,19.5,15c8.7,2,15,10,15,19.5c0,9.4-6.3,17.5-15,19.5C153.7,120,145.6,126.3,136.2,126.3L136.2,126.3z
							 M136.2,62.1c-7.7,0-14.2,5.4-15.2,12.6l-0.2,1.8l-1.8,0.2c-7.2,0.9-12.6,7.4-12.6,15.2c0,7.7,5.4,14.2,12.6,15.2l1.8,0.2
							l0.2,1.8c0.9,7.2,7.4,12.6,15.2,12.6c7.7,0,14.2-5.4,15.2-12.6l0.2-1.8l1.8-0.2c7.2-0.9,12.6-7.4,12.6-15.2
							c0-7.7-5.4-14.2-12.6-15.2l-1.8-0.2l-0.2-1.8C150.4,67.5,143.9,62.1,136.2,62.1L136.2,62.1z"/>
					</g>
				</g>
				<g>
					<g>
						<g>
							<path class="st4" d="M108.5,65.8c-8.8,0-16.2-6.2-17.3-14.5v-0.1h-0.1c-8.3-1.1-14.5-8.5-14.5-17.3s6.2-16.2,14.5-17.3h0.1
								v-0.1C92.3,8.2,99.7,2,108.5,2s16.2,6.2,17.3,14.5v0.1h0.1c8.3,1.1,14.5,8.5,14.5,17.3s-6.2,16.2-14.5,17.3h-0.1v0.1
								C124.7,59.5,117.3,65.8,108.5,65.8L108.5,65.8z M108.5,6.1c-6.7,0-12.3,4.6-13.1,10.8L95,20.3l-3.4,0.4
								c-6.1,0.8-10.8,6.4-10.8,13.1s4.6,12.3,10.8,13.1l3.4,0.4l0.4,3.4c0.8,6.1,6.4,10.8,13.1,10.8s12.3-4.6,13.1-10.8l0.4-3.4
								l3.4-0.4c6.1-0.8,10.8-6.4,10.8-13.1s-4.6-12.3-10.8-13.1l-3.4-0.4l-0.4-3.4C120.8,10.8,115.2,6.1,108.5,6.1L108.5,6.1z"/>
						</g>
					</g>
					<g>
						<path class="st5" d="M108.5,68.3c-9.4,0-17.5-6.3-19.5-15c-8.7-2-15-10-15-19.5c0-9.4,6.3-17.5,15-19.5c2-8.7,10-15,19.5-15
							c9.4,0,17.5,6.3,19.5,15c8.7,2,15,10,15,19.5c0,9.4-6.3,17.5-15,19.5C126,61.9,117.9,68.3,108.5,68.3L108.5,68.3z M108.5,4
							c-7.7,0-14.2,5.4-15.2,12.6l-0.2,1.8l-1.8,0.2c-7.2,0.9-12.6,7.4-12.6,15.2c0,7.7,5.4,14.2,12.6,15.2l1.8,0.2l0.2,1.8
							c0.9,7.2,7.4,12.6,15.2,12.6c7.7,0,14.2-5.4,15.2-12.6l0.2-1.8l1.8-0.2c7.2-0.9,12.6-7.4,12.6-15.2c0-7.7-5.4-14.2-12.6-15.2
							l-1.8-0.2l-0.2-1.8C122.8,9.4,116.2,4,108.5,4L108.5,4z"/>
					</g>
				</g>
			</g>
			<g>
				<g>
					<g>
						<g>
							<path class="st4" d="M94.4,134.5c-4,7.8-12.9,11.7-20.8,8.9h-0.1l-0.1,0.1c-4.7,6.9-14.1,9.1-22,5.1
								c-7.8-4-11.7-12.9-8.9-20.8v-0.1l-0.1-0.1c-6.9-4.7-9.1-14.1-5.1-22c4-7.8,12.9-11.7,20.8-8.9h0.1l0.1-0.1
								c4.7-6.9,14.1-9.1,22-5.1c7.8,4,11.7,12.9,8.9,20.8v0.1l0.1,0.1C96.2,117.2,98.4,126.7,94.4,134.5L94.4,134.5z M41.2,107.6
								c-3,5.9-1.4,13,3.7,16.5l2.8,1.9l-1.1,3.2c-2.1,5.8,0.8,12.5,6.8,15.5c5.9,3,13,1.4,16.5-3.7l1.9-2.8l3.2,1.1
								c5.8,2.1,12.5-0.8,15.5-6.8c3-5.9,1.4-13-3.7-16.5l-2.8-1.9l1.1-3.2c2.1-5.8-0.8-12.5-6.8-15.5c-5.9-3-13-1.4-16.5,3.7
								l-1.9,2.8l-3.2-1.1C50.9,98.7,44.2,101.6,41.2,107.6L41.2,107.6z"/>
						</g>
					</g>
					<g>
						<path class="st5" d="M96.6,135.6c-4.3,8.4-13.6,12.8-22.2,10.6c-5.7,6.8-15.7,8.8-24.1,4.6c-8.4-4.3-12.8-13.6-10.6-22.2
							c-6.8-5.7-8.8-15.7-4.6-24.1c4.3-8.4,13.6-12.8,22.2-10.6c5.7-6.8,15.7-8.8,24.1-4.6c8.4,4.3,12.8,13.6,10.6,22.2
							C98.9,117.2,100.9,127.2,96.6,135.6L96.6,135.6z M39.3,106.6c-3.5,6.9-1.6,15.2,4.4,19.2l1.5,1l-0.6,1.7
							c-2.4,6.8,0.9,14.6,7.8,18.1s15.2,1.6,19.2-4.4l1-1.5l1.7,0.6c6.8,2.4,14.6-0.9,18.1-7.8c3.5-6.9,1.6-15.2-4.4-19.2l-1.5-1
							l0.6-1.7c2.4-6.8-0.9-14.6-7.8-18.1s-15.2-1.6-19.2,4.4l-1,1.5l-1.7-0.6C50.6,96.4,42.8,99.7,39.3,106.6L39.3,106.6z"/>
					</g>
				</g>
				<g>
					<g>
						<g>
							<path class="st4" d="M159.4,130.2c-4,7.8-12.9,11.7-20.8,8.9h-0.1l-0.1,0.1c-4.7,6.9-14.1,9.1-22,5.1
								c-7.8-4-11.7-12.9-8.9-20.8v-0.1l-0.1-0.1c-6.9-4.7-9.1-14.1-5.1-22c4-7.8,12.9-11.7,20.8-8.9h0.1l0.1-0.1
								c4.7-6.9,14.1-9.1,22-5.1c7.8,4,11.7,12.9,8.9,20.8v0.1l0.1,0.1C161.2,112.9,163.4,122.4,159.4,130.2L159.4,130.2z
								 M106.2,103.3c-3,5.9-1.4,13,3.7,16.5l2.8,1.9l-1.1,3.2c-2.1,5.8,0.8,12.5,6.8,15.5c5.9,3,13,1.4,16.5-3.7l1.9-2.8l3.2,1.1
								c5.8,2.1,12.5-0.8,15.5-6.8c3-5.9,1.4-13-3.7-16.5l-2.8-1.9l1.1-3.2c2.1-5.8-0.8-12.5-6.8-15.5c-5.9-3-13-1.4-16.5,3.7
								l-1.9,2.8l-3.2-1.1C115.9,94.4,109.2,97.3,106.2,103.3L106.2,103.3z"/>
						</g>
					</g>
					<g>
						<path class="st5" d="M161.6,131.3c-4.3,8.4-13.6,12.8-22.2,10.6c-5.7,6.8-15.7,8.8-24.1,4.6c-8.4-4.3-12.8-13.6-10.6-22.2
							c-6.8-5.7-8.8-15.7-4.6-24.1c4.3-8.4,13.6-12.8,22.2-10.6c5.7-6.8,15.7-8.8,24.1-4.6c8.4,4.3,12.8,13.6,10.6,22.2
							C163.9,112.9,165.9,122.9,161.6,131.3L161.6,131.3z M104.3,102.3c-3.5,6.9-1.6,15.2,4.4,19.2l1.5,1l-0.6,1.7
							c-2.4,6.8,0.9,14.6,7.8,18.1s15.2,1.6,19.2-4.4l1-1.5l1.7,0.6c6.8,2.4,14.6-0.9,18.1-7.8c3.5-6.9,1.6-15.2-4.4-19.2l-1.5-1
							l0.6-1.7c2.4-6.8-0.9-14.6-7.8-18.1c-6.9-3.5-15.2-1.6-19.2,4.4l-1,1.5l-1.7-0.6C115.6,92,107.8,95.4,104.3,102.3L104.3,102.3
							z"/>
					</g>
				</g>
				<g>
					<g>
						<g>
							<path class="st6" d="M125.4,139c-4,7.8-12.9,11.7-20.8,8.9h-0.1l-0.1,0.1c-4.7,6.9-14.1,9.1-22,5.1
								c-7.8-4-11.7-12.9-8.9-20.8v-0.1l-0.1-0.1c-6.9-4.7-9.1-14.1-5.1-22c4-7.8,12.9-11.7,20.8-8.9h0.1l0.1-0.1
								c4.7-6.9,14.1-9.1,22-5.1c7.8,4,11.7,12.9,8.9,20.8v0.1l0.1,0.1C127.2,121.7,129.4,131.2,125.4,139L125.4,139z M72.2,112.1
								c-3,5.9-1.4,13,3.7,16.5l2.8,1.9l-1.1,3.2c-2.1,5.8,0.8,12.5,6.8,15.5c5.9,3,13,1.4,16.5-3.7l1.9-2.8l3.2,1.1
								c5.8,2.1,12.5-0.8,15.5-6.8c3-5.9,1.4-13-3.7-16.5l-2.8-1.9l1.1-3.2c2.1-5.8-0.8-12.5-6.8-15.5c-5.9-3-13-1.4-16.5,3.7
								l-1.9,2.8l-3.2-1.1C81.9,103.2,75.2,106.1,72.2,112.1L72.2,112.1z"/>
						</g>
					</g>
					<g>
						<path class="st7" d="M127.6,140.1c-4.3,8.4-13.6,12.8-22.2,10.6c-5.7,6.8-15.7,8.8-24.1,4.6c-8.4-4.3-12.8-13.6-10.6-22.2
							c-6.8-5.7-8.8-15.7-4.6-24.1c4.3-8.4,13.6-12.8,22.2-10.6c5.7-6.8,15.7-8.8,24.1-4.6c8.4,4.3,12.8,13.6,10.6,22.2
							C129.9,121.7,131.9,131.7,127.6,140.1L127.6,140.1z M70.3,111.1c-3.5,6.9-1.6,15.2,4.4,19.2l1.5,1l-0.6,1.7
							c-2.4,6.8,0.9,14.6,7.8,18.1s15.2,1.6,19.2-4.4l1-1.5l1.7,0.6c6.8,2.4,14.6-0.9,18.1-7.8c3.5-6.9,1.6-15.2-4.4-19.2l-1.5-1
							l0.6-1.7c2.4-6.8-0.9-14.6-7.8-18.1s-15.2-1.6-19.2,4.4l-1,1.5l-1.7-0.6C81.6,100.9,73.8,104.2,70.3,111.1L70.3,111.1z"/>
					</g>
				</g>
				<g>
					<g>
						<g>
							<path class="st8" d="M155.6,190.1c-4,7.8-12.9,11.7-20.8,8.9h-0.1l-0.1,0.1c-4.7,6.9-14.1,9.1-22,5.1
								c-7.8-4-11.7-12.9-8.9-20.8v-0.1l-0.1-0.1c-6.9-4.7-9.1-14.1-5.1-22c4-7.8,12.9-11.7,20.8-8.9h0.1l0.1-0.1
								c4.7-6.9,14.1-9.1,22-5.1c7.8,4,11.7,12.9,8.9,20.8v0.1l0.1,0.1C157.4,172.8,159.6,182.3,155.6,190.1L155.6,190.1z
								 M102.4,163.2c-3,5.9-1.4,13,3.7,16.5l2.8,1.9l-1.1,3.2c-2.1,5.8,0.8,12.5,6.8,15.5c5.9,3,13,1.4,16.5-3.7l1.9-2.8l3.2,1.1
								c5.8,2.1,12.5-0.8,15.5-6.8c3-5.9,1.4-13-3.7-16.5l-2.8-1.9l1.1-3.2c2.1-5.8-0.8-12.5-6.8-15.5c-5.9-3-13-1.4-16.5,3.7
								l-1.9,2.8l-3.2-1.1C112.1,154.3,105.4,157.2,102.4,163.2L102.4,163.2z"/>
						</g>
					</g>
					<g>
						<path class="st9" d="M157.8,191.2c-4.3,8.4-13.6,12.8-22.2,10.6c-5.7,6.8-15.7,8.8-24.1,4.6c-8.4-4.3-12.8-13.6-10.6-22.2
							c-6.8-5.7-8.8-15.7-4.6-24.1c4.3-8.4,13.6-12.8,22.2-10.6c5.7-6.8,15.7-8.8,24.1-4.6c8.4,4.3,12.8,13.6,10.6,22.2
							C160.1,172.8,162.1,182.8,157.8,191.2L157.8,191.2z M100.5,162.2c-3.5,6.9-1.6,15.2,4.4,19.2l1.5,1l-0.6,1.7
							c-2.4,6.8,0.9,14.6,7.8,18.1s15.2,1.6,19.2-4.4l1-1.5l1.7,0.6c6.8,2.4,14.6-0.9,18.1-7.8c3.5-6.9,1.6-15.2-4.4-19.2l-1.5-1
							l0.6-1.7c2.4-6.8-0.9-14.6-7.8-18.1c-6.9-3.5-15.2-1.6-19.2,4.4l-1,1.5l-1.7-0.6C111.8,151.9,104,155.3,100.5,162.2
							L100.5,162.2z"/>
					</g>
				</g>
				<g>
					<g>
						<g>
							<path class="st8" d="M92.5,186.1c-4,7.8-12.9,11.7-20.8,8.9h-0.1l-0.1,0.1c-4.7,6.9-14.1,9.1-22,5.1
								c-7.8-4-11.7-12.9-8.9-20.8v-0.1l-0.1-0.1c-6.9-4.7-9.1-14.1-5.1-22c4-7.8,12.9-11.7,20.8-8.9h0.1l0.1-0.1
								c4.7-6.9,14.1-9.1,22-5.1c7.8,4,11.7,12.9,8.9,20.8v0.1l0.1,0.1C94.2,168.8,96.5,178.3,92.5,186.1L92.5,186.1z M39.3,159.2
								c-3,5.9-1.4,13,3.7,16.5l2.8,1.9l-1.1,3.2c-2.1,5.8,0.8,12.5,6.8,15.5c5.9,3,13,1.4,16.5-3.7l1.9-2.8l3.2,1.1
								c5.8,2.1,12.5-0.8,15.5-6.8c3-5.9,1.4-13-3.7-16.5l-2.8-1.9l1.1-3.2c2.1-5.8-0.8-12.5-6.8-15.5c-5.9-3-13-1.4-16.5,3.7
								l-1.9,2.8l-3.2-1.1C49,150.4,42.3,153.3,39.3,159.2L39.3,159.2z"/>
						</g>
					</g>
					<g>
						<path class="st9" d="M94.7,187.3c-4.3,8.4-13.6,12.8-22.2,10.6c-5.7,6.8-15.7,8.8-24.1,4.6c-8.4-4.3-12.8-13.6-10.6-22.2
							c-6.8-5.7-8.8-15.7-4.6-24.1c4.3-8.4,13.6-12.8,22.2-10.6c5.7-6.8,15.7-8.8,24.1-4.6c8.4,4.3,12.8,13.6,10.6,22.2
							C97,168.8,99,178.9,94.7,187.3L94.7,187.3z M37.4,158.2c-3.5,6.9-1.6,15.2,4.4,19.2l1.5,1l-0.6,1.7
							c-2.4,6.8,0.9,14.6,7.8,18.1s15.2,1.6,19.2-4.4l1-1.5l1.7,0.6c6.8,2.4,14.6-0.9,18.1-7.8c3.5-6.9,1.6-15.2-4.4-19.2l-1.5-1
							l0.6-1.7c2.4-6.8-0.9-14.6-7.8-18.1s-15.2-1.6-19.2,4.4l-1,1.5l-1.7-0.6C48.7,148,40.9,151.3,37.4,158.2L37.4,158.2z"/>
					</g>
				</g>
				<g>
					<g>
						<g>
							<path class="st6" d="M116.7,50.7c-4,7.8-12.9,11.7-20.8,8.9h-0.1l-0.1,0.1c-4.7,6.9-14.1,9.1-22,5.1
								c-7.8-4-11.7-12.9-8.9-20.8v-0.1l-0.1-0.1c-6.9-4.7-9.1-14.1-5.1-22c4-7.8,12.9-11.7,20.8-8.9h0.1l0.1-0.1
								c4.7-6.9,14.1-9.1,22-5.1c7.8,4,11.7,12.9,8.9,20.8v0.1l0.1,0.1C118.5,33.4,120.7,42.9,116.7,50.7L116.7,50.7z M63.5,23.8
								c-3,5.9-1.4,13,3.7,16.5l2.8,1.9l-1.1,3.2c-2.1,5.8,0.8,12.5,6.8,15.5c5.9,3,13,1.4,16.5-3.7l1.9-2.8l3.2,1.1
								c5.8,2.1,12.5-0.8,15.5-6.8c3-5.9,1.4-13-3.7-16.5l-2.8-1.9l1.1-3.2c2.1-5.8-0.8-12.5-6.8-15.5c-5.9-3-13-1.4-16.5,3.7
								l-1.9,2.8L79,17C73.2,14.9,66.5,17.8,63.5,23.8L63.5,23.8z"/>
						</g>
					</g>
					<g>
						<path class="st7" d="M118.9,51.8c-4.3,8.4-13.6,12.8-22.2,10.6C91,69.2,81,71.2,72.6,67C64.2,62.7,59.8,53.4,62,44.8
							c-6.8-5.7-8.8-15.7-4.6-24.1C61.7,12.3,71,7.9,79.6,10.1c5.7-6.8,15.7-8.8,24.1-4.6c8.4,4.3,12.8,13.6,10.6,22.2
							C121.2,33.3,123.2,43.4,118.9,51.8L118.9,51.8z M61.6,22.8C58.1,29.7,60,38,66,42l1.5,1l-0.6,1.7c-2.4,6.8,0.9,14.6,7.8,18.1
							s15.2,1.6,19.2-4.4l1-1.5l1.7,0.6c6.8,2.4,14.6-0.9,18.1-7.8s1.6-15.2-4.4-19.2l-1.5-1l0.6-1.7c2.4-6.8-0.9-14.6-7.8-18.1
							s-15.2-1.6-19.2,4.4l-1,1.5L79.7,15C72.9,12.5,65.1,15.9,61.6,22.8L61.6,22.8z"/>
					</g>
				</g>
				<g>
					<g>
						<g>
							<path class="st6" d="M208.7,109.2c-4,7.8-12.9,11.7-20.8,8.9h-0.1l-0.1,0.1c-4.7,6.9-14.1,9.1-22,5.1
								c-7.8-4-11.7-12.9-8.9-20.8v-0.1l-0.1-0.1c-6.9-4.7-9.1-14.1-5.1-22c4-7.8,12.9-11.7,20.8-8.9h0.1l0.1-0.1
								c4.7-6.9,14.1-9.1,22-5.1c7.8,4,11.7,12.9,8.9,20.8v0.1l0.1,0.1C210.4,91.9,212.7,101.3,208.7,109.2L208.7,109.2z
								 M155.5,82.2c-3,5.9-1.4,13,3.7,16.5l2.8,1.9l-1.1,3.2c-2.1,5.8,0.8,12.5,6.8,15.5c5.9,3,13,1.4,16.5-3.7l1.9-2.8l3.2,1.1
								c5.8,2.1,12.5-0.8,15.5-6.8c3-5.9,1.4-13-3.7-16.5l-2.8-1.9l1.1-3.2c2.1-5.8-0.8-12.5-6.8-15.5c-5.9-3-13-1.4-16.5,3.7
								l-1.9,2.8l-3.2-1.1C165.2,73.4,158.5,76.3,155.5,82.2L155.5,82.2z"/>
						</g>
					</g>
					<g>
						<path class="st7" d="M210.9,110.3c-4.3,8.4-13.6,12.8-22.2,10.6c-5.7,6.8-15.7,8.8-24.1,4.6c-8.4-4.3-12.8-13.6-10.6-22.2
							c-6.8-5.7-8.8-15.7-4.6-24.1c4.3-8.4,13.6-12.8,22.2-10.6c5.7-6.8,15.7-8.8,24.1-4.6c8.4,4.3,12.8,13.6,10.6,22.2
							C213.2,91.8,215.2,101.9,210.9,110.3L210.9,110.3z M153.6,81.3c-3.5,6.9-1.6,15.2,4.4,19.2l1.5,1l-0.6,1.7
							c-2.4,6.8,0.9,14.6,7.8,18.1c6.9,3.5,15.2,1.6,19.2-4.4l1-1.5l1.7,0.6c6.8,2.4,14.6-0.9,18.1-7.8s1.6-15.2-4.4-19.2l-1.5-1
							l0.6-1.7c2.4-6.8-0.9-14.6-7.8-18.1c-6.9-3.5-15.2-1.6-19.2,4.4l-1,1.5l-1.7-0.6C164.9,71,157.1,74.4,153.6,81.3L153.6,81.3z"
							/>
					</g>
				</g>
				<g>
					<g>
						<g>
							<path class="st6" d="M41.6,141.2c-4,7.8-12.9,11.7-20.8,8.9h-0.1l-0.1,0.1c-4.7,6.9-14.1,9.1-22,5.1
								c-7.8-4-11.7-12.9-8.9-20.8v-0.1l-0.1-0.1c-6.9-4.7-9.1-14.1-5.1-22c4-7.8,12.9-11.7,20.8-8.9h0.1l0.1-0.1
								c4.7-6.9,14.1-9.1,22-5.1c7.8,4,11.7,12.9,8.9,20.8v0.1l0.1,0.1C43.4,123.9,45.6,133.3,41.6,141.2L41.6,141.2z M-11.6,114.2
								c-3,5.9-1.4,13,3.7,16.5l2.8,1.9l-1.1,3.2c-2.1,5.8,0.8,12.5,6.8,15.5c5.9,3,13,1.4,16.5-3.7l1.9-2.8l3.2,1.1
								c5.8,2.1,12.5-0.8,15.5-6.8c3-5.9,1.4-13-3.7-16.5l-2.8-1.9l1.1-3.2c2.1-5.8-0.8-12.5-6.8-15.5c-5.9-3-13-1.4-16.5,3.7
								l-1.9,2.8l-3.2-1.1C-1.9,105.4-8.6,108.3-11.6,114.2L-11.6,114.2z"/>
						</g>
					</g>
					<g>
						<path class="st7" d="M43.8,142.3c-4.3,8.4-13.6,12.8-22.2,10.6c-5.7,6.8-15.7,8.8-24.1,4.6c-8.4-4.3-12.8-13.6-10.6-22.2
							c-6.8-5.7-8.8-15.7-4.6-24.1c4.3-8.4,13.6-12.8,22.2-10.6c5.7-6.8,15.7-8.8,24.1-4.6c8.4,4.3,12.8,13.6,10.6,22.2
							C46.1,123.8,48.1,133.9,43.8,142.3L43.8,142.3z M-13.5,113.3c-3.5,6.9-1.6,15.2,4.4,19.2l1.5,1l-0.6,1.7
							c-2.4,6.8,0.9,14.6,7.8,18.1s15.2,1.6,19.2-4.4l1-1.5l1.7,0.6c6.8,2.4,14.6-0.9,18.1-7.8c3.5-6.9,1.6-15.2-4.4-19.2l-1.5-1
							l0.6-1.7c2.4-6.8-0.9-14.6-7.8-18.1s-15.2-1.6-19.2,4.4l-1,1.5l-1.7-0.6C-2.2,103-10,106.4-13.5,113.3L-13.5,113.3z"/>
					</g>
				</g>
				<g>
					<g>
						<g>
							<path class="st8" d="M143.6,73.8c-4,7.8-12.9,11.7-20.8,8.9h-0.1l-0.1,0.1c-4.7,6.9-14.1,9.1-22,5.1
								c-7.8-4-11.7-12.9-8.9-20.8V67l-0.1-0.1c-6.9-4.7-9.1-14.1-5.1-22c4-7.8,12.9-11.7,20.8-8.9h0.1l0.1-0.1
								c4.7-6.9,14.1-9.1,22-5.1c7.8,4,11.7,12.9,8.9,20.8v0.1l0.1,0.1C145.4,56.5,147.6,66,143.6,73.8L143.6,73.8z M90.4,46.9
								c-3,5.9-1.4,13,3.7,16.5l2.8,1.9l-1.1,3.2c-2.1,5.8,0.8,12.5,6.8,15.5c5.9,3,13,1.4,16.5-3.7l1.9-2.8l3.2,1.1
								c5.8,2.1,12.5-0.8,15.5-6.8c3-5.9,1.4-13-3.7-16.5l-2.8-1.9l1.1-3.2c2.1-5.8-0.8-12.5-6.8-15.5c-5.9-3-13-1.4-16.5,3.7
								l-1.9,2.8l-3.2-1.1C100.1,38,93.4,40.9,90.4,46.9L90.4,46.9z"/>
						</g>
					</g>
					<g>
						<path class="st9" d="M145.8,74.9c-4.3,8.4-13.6,12.8-22.2,10.6c-5.7,6.8-15.7,8.8-24.1,4.6C91.1,85.8,86.8,76.5,89,67.9
							c-6.8-5.7-8.8-15.7-4.6-24.1C88.7,35.4,98,31,106.6,33.2c5.7-6.8,15.7-8.8,24.1-4.6c8.4,4.3,12.8,13.6,10.6,22.2
							C148.1,56.5,150.1,66.5,145.8,74.9L145.8,74.9z M88.5,45.9c-3.5,6.9-1.6,15.2,4.4,19.2l1.5,1l-0.6,1.7
							c-2.4,6.8,0.9,14.6,7.8,18.1s15.2,1.6,19.2-4.4l1-1.5l1.7,0.6c6.8,2.4,14.6-0.9,18.1-7.8s1.6-15.2-4.4-19.2l-1.5-1l0.6-1.7
							c2.4-6.8-0.9-14.6-7.8-18.1c-6.9-3.5-15.2-1.6-19.2,4.4l-1,1.5l-1.7-0.6C99.8,35.6,92,39,88.5,45.9L88.5,45.9z"/>
					</g>
				</g>
				<g>
					<g>
						<g>
							<path class="st4" d="M79.3,72.3c-4,7.8-12.9,11.7-20.8,8.9h-0.1l-0.1,0.1c-4.7,6.9-14.1,9.1-22,5.1
								c-7.8-4-11.7-12.9-8.9-20.8v-0.1l-0.1-0.1c-6.9-4.7-9.1-14.1-5.1-22c4-7.8,12.9-11.7,20.8-8.9h0.1l0.1-0.1
								c4.7-6.9,14.1-9.1,22-5.1c7.8,4,11.7,12.9,8.9,20.8v0.1l0.1,0.1C81.1,55,83.3,64.4,79.3,72.3L79.3,72.3z M26.1,45.3
								c-3,5.9-1.4,13,3.7,16.5l2.8,1.9L31.5,67c-2.1,5.8,0.8,12.5,6.8,15.5c5.9,3,13,1.4,16.5-3.7l1.9-2.8l3.2,1.1
								c5.8,2.1,12.5-0.8,15.5-6.8c3-5.9,1.4-13-3.7-16.5l-2.8-1.9l1.1-3.2c2.1-5.8-0.8-12.5-6.8-15.5c-5.9-3-13-1.4-16.5,3.7
								l-1.9,2.8l-3.2-1.1C35.8,36.5,29.1,39.4,26.1,45.3L26.1,45.3z"/>
						</g>
					</g>
					<g>
						<path class="st5" d="M81.5,73.4C77.2,81.8,67.9,86.1,59.3,84c-5.7,6.8-15.7,8.8-24.1,4.6C26.8,84.3,22.5,75,24.6,66.4
							c-6.8-5.7-8.8-15.7-4.6-24.1c4.3-8.4,13.6-12.8,22.2-10.6c5.7-6.8,15.7-8.8,24.1-4.6c8.4,4.3,12.8,13.6,10.6,22.2
							C83.8,54.9,85.8,65,81.5,73.4L81.5,73.4z M24.2,44.3c-3.5,6.9-1.6,15.2,4.4,19.2l1.5,1l-0.6,1.7c-2.4,6.8,0.9,14.6,7.8,18.1
							s15.2,1.6,19.2-4.4l1-1.5l1.7,0.6c6.8,2.4,14.6-0.9,18.1-7.8C80.9,64.4,79,56.1,73,52l-1.5-1l0.6-1.7
							c2.4-6.8-0.9-14.6-7.8-18.1s-15.2-1.6-19.2,4.4l-1,1.5l-1.7-0.6C35.5,34.1,27.7,37.5,24.2,44.3L24.2,44.3z"/>
					</g>
				</g>
			</g>
			<g>
				<g>
					<g>
						<g>
							<path class="st4" d="M110.8,123.6c3,8.3-0.4,17.4-7.8,21.2l-0.1,0.1v0.1c1.8,8.1-3.1,16.5-11.4,19.5s-17.4-0.4-21.2-7.8
								l-0.1-0.1h-0.1c-8.1,1.8-16.5-3.1-19.5-11.4c-3-8.3,0.4-17.4,7.8-21.2l0.1-0.1v-0.1c-1.8-8.1,3.1-16.5,11.4-19.5
								s17.4,0.4,21.2,7.8l0.1,0.1h0.1C99.4,110.5,107.8,115.4,110.8,123.6L110.8,123.6z M54.7,143.8c2.3,6.3,8.5,10,14.6,8.6
								l3.4-0.7l1.6,3.1c2.8,5.5,9.7,8,15.9,5.7c6.3-2.3,10-8.5,8.6-14.6l-0.7-3.4l3.1-1.6c5.5-2.8,8-9.7,5.7-15.9
								c-2.3-6.3-8.5-10-14.6-8.6l-3.4,0.7l-1.6-3.1c-2.8-5.5-9.7-8-15.9-5.7c-6.3,2.3-10,8.5-8.6,14.6l0.7,3.4l-3.1,1.6
								C54.9,130.7,52.5,137.6,54.7,143.8L54.7,143.8z"/>
						</g>
					</g>
					<g>
						<path class="st5" d="M113.1,122.8c3.2,8.9,0,18.6-7.5,23.4c1.1,8.8-4.4,17.5-13.2,20.7c-8.9,3.2-18.6,0-23.4-7.5
							c-8.8,1.1-17.5-4.4-20.7-13.2c-3.2-8.9,0-18.6,7.5-23.4c-1.1-8.8,4.4-17.5,13.2-20.7c8.9-3.2,18.6,0,23.4,7.5
							C101.3,108.5,109.9,113.9,113.1,122.8L113.1,122.8z M52.7,144.6c2.6,7.3,9.9,11.6,17,10l1.7-0.4l0.8,1.6
							c3.3,6.5,11.3,9.4,18.6,6.7c7.3-2.6,11.6-9.9,10-17l-0.4-1.7l1.6-0.8c6.5-3.3,9.4-11.3,6.8-18.6c-2.6-7.3-9.9-11.6-17-10
							l-1.7,0.4l-0.8-1.6c-3.3-6.5-11.3-9.4-18.6-6.8s-11.6,9.9-10,17l0.4,1.7l-1.6,0.8C53,129.3,50.1,137.3,52.7,144.6L52.7,144.6z
							"/>
					</g>
				</g>
				<g>
					<g>
						<g>
							<path class="st4" d="M152.3,73.4c3,8.3-0.4,17.4-7.8,21.2l-0.1,0.1v0.1c1.8,8.1-3.1,16.5-11.4,19.5c-8.3,3-17.4-0.4-21.2-7.8
								l-0.1-0.1h-0.1c-8.1,1.8-16.5-3.1-19.5-11.4s0.4-17.4,7.8-21.2l0.1-0.1v-0.1c-1.8-8.1,3.1-16.5,11.4-19.5s17.4,0.4,21.2,7.8
								l0.1,0.1h0.1C140.9,60.2,149.3,65.1,152.3,73.4L152.3,73.4z M96.2,93.6c2.3,6.3,8.5,10,14.6,8.6l3.4-0.7l1.6,3.1
								c2.8,5.5,9.7,8,15.9,5.7c6.3-2.3,10-8.5,8.6-14.6l-0.7-3.4l3.1-1.6c5.5-2.8,8-9.7,5.7-15.9c-2.3-6.3-8.5-10-14.6-8.6
								l-3.4,0.7l-1.6-3.1c-2.8-5.5-9.7-8-15.9-5.7c-6.3,2.3-10,8.5-8.6,14.6l0.7,3.4l-3.1,1.6C96.4,80.5,93.9,87.3,96.2,93.6
								L96.2,93.6z"/>
						</g>
					</g>
					<g>
						<path class="st5" d="M154.6,72.5c3.2,8.9,0,18.6-7.5,23.4c1.1,8.8-4.4,17.5-13.2,20.7c-8.9,3.2-18.6,0-23.4-7.5
							c-8.8,1.1-17.5-4.4-20.7-13.2c-3.2-8.9,0-18.6,7.5-23.4c-1.1-8.8,4.4-17.5,13.2-20.7c8.9-3.2,18.6,0,23.4,7.5
							C142.7,58.2,151.4,63.7,154.6,72.5L154.6,72.5z M94.2,94.3c2.6,7.3,9.9,11.6,17,10l1.7-0.4l0.8,1.6c3.3,6.5,11.3,9.4,18.6,6.7
							c7.3-2.6,11.6-9.9,10-17l-0.4-1.7l1.6-0.8c6.5-3.3,9.4-11.3,6.8-18.6c-2.6-7.3-9.9-11.6-17-10l-1.7,0.4l-0.8-1.6
							c-3.3-6.5-11.3-9.4-18.6-6.8c-7.3,2.6-11.6,9.9-10,17l0.4,1.7l-1.6,0.8C94.4,79.1,91.5,87.1,94.2,94.3L94.2,94.3z"/>
					</g>
				</g>
				<g>
					<g>
						<g>
							<path class="st6" d="M135.4,104.2c3,8.3-0.4,17.4-7.8,21.2l-0.1,0.1v0.1c1.8,8.1-3.1,16.5-11.4,19.5s-17.4-0.4-21.2-7.8
								l-0.1-0.1h-0.1c-8.1,1.8-16.5-3.1-19.5-11.4s0.4-17.4,7.8-21.2l0.1-0.1v-0.1c-1.8-8.1,3.1-16.5,11.4-19.5s17.4,0.4,21.2,7.8
								l0.1,0.1h0.1C124,91,132.4,95.9,135.4,104.2L135.4,104.2z M79.3,124.4c2.3,6.3,8.5,10,14.6,8.6l3.4-0.7l1.6,3.1
								c2.8,5.5,9.7,8,15.9,5.7c6.3-2.3,10-8.5,8.6-14.6l-0.7-3.4l3.1-1.6c5.5-2.8,8-9.7,5.7-15.9s-8.5-10-14.6-8.6l-3.4,0.7
								l-1.6-3.1c-2.8-5.5-9.7-8-15.9-5.7c-6.3,2.3-10,8.5-8.6,14.6l0.7,3.4l-3.1,1.6C79.5,111.3,77,118.1,79.3,124.4L79.3,124.4z"
								/>
						</g>
					</g>
					<g>
						<path class="st7" d="M137.7,103.3c3.2,8.9,0,18.6-7.5,23.4c1.1,8.8-4.4,17.5-13.2,20.7c-8.9,3.2-18.6,0-23.4-7.5
							c-8.8,1.1-17.5-4.4-20.7-13.2c-3.2-8.9,0-18.6,7.5-23.4c-1.1-8.8,4.4-17.5,13.2-20.7c8.9-3.2,18.6,0,23.4,7.5
							C125.8,89,134.5,94.4,137.7,103.3L137.7,103.3z M77.3,125.1c2.6,7.3,9.9,11.6,17,10l1.7-0.4l0.8,1.6
							c3.3,6.5,11.3,9.4,18.6,6.8c7.3-2.6,11.6-9.9,10-17l-0.4-1.7l1.6-0.8c6.5-3.3,9.4-11.3,6.8-18.6c-2.6-7.3-9.9-11.6-17-10
							l-1.7,0.4l-0.8-1.6c-3.3-6.5-11.3-9.4-18.6-6.7c-7.3,2.6-11.6,9.9-10,17l0.4,1.7l-1.6,0.8C77.5,109.9,74.6,117.8,77.3,125.1
							L77.3,125.1z"/>
					</g>
				</g>
				<g>
					<g>
						<g>
							<path class="st8" d="M193.2,117.3c3,8.3-0.4,17.4-7.8,21.2l-0.1,0.1v0.1c1.8,8.1-3.1,16.5-11.4,19.5
								c-8.3,3-17.4-0.4-21.2-7.8l-0.1-0.1h-0.1c-8.1,1.8-16.5-3.1-19.5-11.4c-3-8.3,0.4-17.4,7.8-21.2l0.1-0.1v-0.1
								c-1.8-8.1,3.1-16.5,11.4-19.5c8.3-3,17.4,0.4,21.2,7.8l0.1,0.1h0.1C181.9,104.1,190.2,109,193.2,117.3L193.2,117.3z
								 M137.1,137.5c2.3,6.3,8.5,10,14.6,8.6l3.4-0.7l1.6,3.1c2.8,5.5,9.7,8,15.9,5.7c6.3-2.3,10-8.5,8.6-14.6l-0.7-3.4l3.1-1.6
								c5.5-2.8,8-9.7,5.7-15.9c-2.3-6.3-8.5-10-14.6-8.6l-3.4,0.7l-1.6-3.1c-2.8-5.5-9.7-8-15.9-5.7c-6.3,2.3-10,8.5-8.6,14.6
								l0.7,3.4l-3.1,1.6C137.3,124.4,134.9,131.2,137.1,137.5L137.1,137.5z"/>
						</g>
					</g>
					<g>
						<path class="st9" d="M195.6,116.4c3.2,8.9,0,18.6-7.5,23.4c1.1,8.8-4.4,17.5-13.2,20.7c-8.9,3.2-18.6,0-23.4-7.5
							c-8.8,1.1-17.5-4.4-20.7-13.2c-3.2-8.9,0-18.6,7.5-23.4c-1.1-8.8,4.4-17.5,13.2-20.7c8.9-3.2,18.6,0,23.4,7.5
							C183.7,102.1,192.4,107.6,195.6,116.4L195.6,116.4z M135.1,138.2c2.6,7.3,9.9,11.6,17,10l1.7-0.4l0.8,1.6
							c3.3,6.5,11.3,9.4,18.6,6.7c7.3-2.6,11.6-9.9,10-17l-0.4-1.7l1.6-0.8c6.5-3.3,9.4-11.3,6.8-18.6c-2.6-7.3-9.9-11.6-17-10
							l-1.7,0.4l-0.8-1.6c-3.3-6.5-11.3-9.4-18.6-6.8s-11.6,9.9-10,17l0.4,1.7l-1.6,0.8C135.4,123,132.5,130.9,135.1,138.2
							L135.1,138.2z"/>
					</g>
				</g>
				<g>
					<g>
						<g>
							<path class="st8" d="M147,160.5c3,8.3-0.4,17.4-7.8,21.2l-0.1,0.1v0.1c1.8,8.1-3.1,16.5-11.4,19.5s-17.4-0.4-21.2-7.8
								l-0.1-0.1h-0.1c-8.1,1.8-16.5-3.1-19.5-11.4c-3-8.3,0.4-17.4,7.8-21.2l0.1-0.1v-0.1c-1.8-8.1,3.1-16.5,11.4-19.5
								s17.4,0.4,21.2,7.8l0.1,0.1h0.1C135.7,147.3,144.1,152.2,147,160.5L147,160.5z M90.9,180.7c2.3,6.3,8.5,10,14.6,8.6l3.4-0.7
								l1.6,3.1c2.8,5.5,9.7,8,15.9,5.7c6.3-2.3,10-8.5,8.6-14.6l-0.7-3.4l3.1-1.6c5.5-2.8,8-9.7,5.7-15.9c-2.3-6.3-8.5-10-14.6-8.6
								l-3.4,0.7l-1.6-3.1c-2.8-5.5-9.7-8-15.9-5.7c-6.3,2.3-10,8.5-8.6,14.6l0.7,3.4l-3.1,1.6C91.2,167.6,88.7,174.4,90.9,180.7
								L90.9,180.7z"/>
						</g>
					</g>
					<g>
						<path class="st9" d="M149.4,159.6c3.2,8.9,0,18.6-7.5,23.4c1.1,8.8-4.4,17.5-13.2,20.7c-8.9,3.2-18.6,0-23.4-7.5
							c-8.8,1.1-17.5-4.4-20.7-13.2c-3.2-8.9,0-18.6,7.5-23.4c-1.1-8.8,4.4-17.5,13.2-20.7c8.9-3.2,18.6,0,23.4,7.5
							C137.5,145.3,146.2,150.7,149.4,159.6L149.4,159.6z M88.9,181.4c2.6,7.3,9.9,11.6,17,10l1.7-0.4l0.8,1.6
							c3.3,6.5,11.3,9.4,18.6,6.7c7.3-2.6,11.6-9.9,10-17l-0.4-1.7l1.6-0.8c6.5-3.3,9.4-11.3,6.8-18.6c-2.6-7.3-9.9-11.6-17-10
							l-1.7,0.4l-0.8-1.6c-3.3-6.5-11.3-9.4-18.6-6.8c-7.3,2.6-11.6,9.9-10,17l0.4,1.7l-1.6,0.8C89.2,166.2,86.3,174.1,88.9,181.4
							L88.9,181.4z"/>
					</g>
				</g>
				<g>
					<g>
						<g>
							<path class="st6" d="M65.1,49.9c3,8.3-0.4,17.4-7.8,21.2l-0.1,0.1v0.1c1.8,8.1-3.1,16.5-11.4,19.5S28.4,90.4,24.6,83
								l-0.1-0.1h-0.1C16.4,84.7,8,79.8,5,71.6c-3-8.3,0.4-17.4,7.8-21.2l0.1-0.1v-0.1C11.1,42,16,33.7,24.2,30.7
								c8.3-3,17.4,0.4,21.2,7.8l0.1,0.1h0.1C53.8,36.8,62.2,41.6,65.1,49.9L65.1,49.9z M9,70.1c2.3,6.3,8.5,10,14.6,8.6L27,78
								l1.6,3.1c2.8,5.5,9.7,8,15.9,5.7c6.3-2.3,10-8.5,8.6-14.6l-0.7-3.4l3.1-1.6c5.5-2.8,8-9.7,5.7-15.9c-2.3-6.3-8.5-10-14.6-8.6
								l-3.4,0.7l-1.6-3.1c-2.8-5.5-9.7-8-15.9-5.7c-6.3,2.3-10,8.5-8.6,14.6l0.7,3.4l-3.1,1.6C9.2,57,6.8,63.9,9,70.1L9,70.1z"/>
						</g>
					</g>
					<g>
						<path class="st7" d="M67.5,49.1c3.2,8.9,0,18.6-7.5,23.4c1.1,8.8-4.4,17.5-13.2,20.7c-8.9,3.2-18.6,0-23.4-7.5
							c-8.8,1.1-17.5-4.4-20.7-13.2c-3.2-8.9,0-18.6,7.5-23.4c-1.1-8.8,4.4-17.5,13.2-20.7c8.9-3.2,18.6,0,23.4,7.5
							C55.6,34.7,64.3,40.2,67.5,49.1L67.5,49.1z M7,70.8c2.6,7.3,9.9,11.6,17,10l1.7-0.4l0.8,1.6c3.3,6.5,11.3,9.4,18.6,6.8
							s11.6-9.9,10-17L54.8,70l1.6-0.8c6.5-3.3,9.4-11.3,6.8-18.6s-9.9-11.6-17-10L44.3,41l-0.8-1.6C40.2,33,32.2,30.1,25,32.7
							c-7.3,2.6-11.6,9.9-10,17l0.4,1.7l-1.6,0.8C7.3,55.6,4.4,63.6,7,70.8L7,70.8z"/>
					</g>
				</g>
				<g>
					<g>
						<g>
							<path class="st6" d="M170.8,23.1c3,8.3-0.4,17.4-7.8,21.2l-0.1,0.1v0.1c1.8,8.1-3.1,16.5-11.4,19.5c-8.3,3-17.4-0.4-21.2-7.8
								l-0.1-0.1h-0.1c-8.1,1.8-16.5-3.1-19.5-11.4s0.4-17.4,7.8-21.2l0.1-0.1v-0.1c-1.8-8.1,3.1-16.5,11.4-19.5s17.4,0.4,21.2,7.8
								l0.1,0.1h0.1C159.4,10,167.8,14.8,170.8,23.1L170.8,23.1z M114.7,43.3c2.3,6.3,8.5,10,14.6,8.6l3.4-0.7l1.6,3.1
								c2.8,5.5,9.7,8,15.9,5.7c6.3-2.3,10-8.5,8.6-14.6l-0.7-3.4l3.1-1.6c5.5-2.8,8-9.7,5.7-15.9c-2.3-6.3-8.5-10-14.6-8.6
								l-3.4,0.7l-1.6-3.1c-2.8-5.5-9.7-8-15.9-5.7c-6.3,2.3-10,8.5-8.6,14.6l0.7,3.4l-3.1,1.6C114.9,30.2,112.4,37.1,114.7,43.3
								L114.7,43.3z"/>
						</g>
					</g>
					<g>
						<path class="st7" d="M173.1,22.3c3.2,8.9,0,18.6-7.5,23.4c1.1,8.8-4.4,17.5-13.2,20.7c-8.9,3.2-18.6,0-23.4-7.5
							c-8.8,1.1-17.5-4.4-20.7-13.2c-3.2-8.9,0-18.6,7.5-23.4c-1.1-8.8,4.4-17.5,13.2-20.7c8.9-3.2,18.6,0,23.4,7.5
							C161.2,7.9,169.9,13.4,173.1,22.3L173.1,22.3z M112.7,44c2.6,7.3,9.9,11.6,17,10l1.7-0.4l0.8,1.6c3.3,6.5,11.3,9.4,18.6,6.8
							c7.3-2.6,11.6-9.9,10-17l-0.4-1.7l1.6-0.8c6.5-3.3,9.4-11.3,6.8-18.6c-2.6-7.3-9.9-11.6-17-10l-1.7,0.4l-0.8-1.6
							C146,6.2,138,3.3,130.7,6c-7.3,2.6-11.6,9.9-10,17l0.4,1.7l-1.6,0.8C112.9,28.8,110,36.8,112.7,44L112.7,44z"/>
					</g>
				</g>
				<g>
					<g>
						<g>
							<path class="st6" d="M79.4,166.6c3,8.3-0.4,17.4-7.8,21.2l-0.1,0.1v0.1c1.8,8.1-3.1,16.5-11.4,19.5s-17.4-0.4-21.2-7.8
								l-0.1-0.1h-0.1c-8.1,1.8-16.5-3.1-19.5-11.4c-3-8.3,0.4-17.4,7.8-21.2l0.1-0.1v-0.1c-1.8-8.1,3.1-16.5,11.4-19.5
								s17.4,0.4,21.2,7.8l0.1,0.1h0.1C68,153.5,76.4,158.4,79.4,166.6L79.4,166.6z M23.3,186.9c2.3,6.3,8.5,10,14.6,8.6l3.4-0.7
								l1.6,3.1c2.8,5.5,9.7,8,15.9,5.7c6.3-2.3,10-8.5,8.6-14.6l-0.7-3.4l3.1-1.6c5.5-2.8,8-9.7,5.7-15.9c-2.3-6.3-8.5-10-14.6-8.6
								l-3.4,0.7l-1.6-3.1c-2.8-5.5-9.7-8-15.9-5.7c-6.3,2.3-10,8.5-8.6,14.6l0.7,3.4L29,171C23.5,173.7,21.1,180.6,23.3,186.9
								L23.3,186.9z"/>
						</g>
					</g>
					<g>
						<path class="st7" d="M81.8,165.8c3.2,8.9,0,18.6-7.5,23.4c1.1,8.8-4.4,17.5-13.2,20.7c-8.9,3.2-18.6,0-23.4-7.5
							c-8.8,1.1-17.5-4.4-20.7-13.2c-3.2-8.9,0-18.6,7.5-23.4c-1.1-8.8,4.4-17.5,13.2-20.7c8.9-3.2,18.6,0,23.4,7.5
							C69.9,151.5,78.6,156.9,81.8,165.8L81.8,165.8z M21.3,187.6c2.6,7.3,9.9,11.6,17,10l1.7-0.4l0.8,1.6
							c3.3,6.5,11.3,9.4,18.6,6.8c7.3-2.6,11.6-9.9,10-17l-0.4-1.7l1.6-0.8c6.5-3.3,9.4-11.3,6.8-18.6s-9.9-11.6-17-10l-1.7,0.4
							l-0.8-1.6c-3.3-6.5-11.3-9.4-18.6-6.7c-7.3,2.6-11.6,9.9-10,17l0.4,1.7l-1.6,0.8C21.6,172.3,18.7,180.3,21.3,187.6L21.3,187.6
							z"/>
					</g>
				</g>
				<g>
					<g>
						<g>
							<path class="st8" d="M100.4,46.2c3,8.3-0.4,17.4-7.8,21.2l-0.1,0.1v0.1c1.8,8.1-3.1,16.5-11.4,19.5s-17.4-0.4-21.2-7.8
								l-0.1-0.1h-0.1c-8.1,1.8-16.5-3.1-19.5-11.4s0.4-17.4,7.8-21.2l0.1-0.1v-0.1c-1.8-8.1,3.1-16.5,11.4-19.5s17.4,0.4,21.2,7.8
								l0.1,0.1h0.1C89,33,97.4,37.9,100.4,46.2L100.4,46.2z M44.3,66.4c2.3,6.3,8.5,10,14.6,8.6l3.4-0.7l1.6,3.1
								c2.8,5.5,9.7,8,15.9,5.7c6.3-2.3,10-8.5,8.6-14.6l-0.7-3.4l3.1-1.6c5.5-2.8,8-9.7,5.7-15.9c-2.3-6.3-8.5-10-14.6-8.6
								l-3.4,0.7l-1.6-3.1c-2.8-5.5-9.7-8-15.9-5.7c-6.3,2.3-10,8.5-8.6,14.6l0.7,3.4L50,50.5C44.5,53.3,42,60.1,44.3,66.4
								L44.3,66.4z"/>
						</g>
					</g>
					<g>
						<path class="st9" d="M102.7,45.3c3.2,8.9,0,18.6-7.5,23.4c1.1,8.8-4.4,17.5-13.2,20.7c-8.9,3.2-18.6,0-23.4-7.5
							c-8.8,1.1-17.5-4.4-20.7-13.2c-3.2-8.9,0-18.6,7.5-23.4c-1.1-8.8,4.4-17.5,13.2-20.7c8.9-3.2,18.6,0,23.4,7.5
							C90.9,31,99.5,36.5,102.7,45.3L102.7,45.3z M42.3,67.1c2.6,7.3,9.9,11.6,17,10l1.7-0.4l0.8,1.6c3.3,6.5,11.3,9.4,18.6,6.7
							c7.3-2.6,11.6-9.9,10-17L90,66.3l1.6-0.8c6.5-3.3,9.4-11.3,6.8-18.6s-9.9-11.6-17-10l-1.7,0.4l-0.8-1.6
							c-3.3-6.5-11.3-9.4-18.6-6.8s-11.6,9.9-10,17l0.4,1.7l-1.7,1C42.6,51.9,39.7,59.9,42.3,67.1L42.3,67.1z"/>
					</g>
				</g>
				<g>
					<g>
						<g>
							<path class="st4" d="M55.1,91.9c3,8.3-0.4,17.4-7.8,21.2l-0.1,0.1v0.1c1.8,8.1-3.1,16.5-11.4,19.5s-17.4-0.4-21.2-7.8
								l-0.1-0.1h-0.1c-8,1.8-16.4-3-19.4-11.3s0.4-17.4,7.8-21.2l0.1-0.1v-0.1C1.1,84.1,6,75.7,14.2,72.7c8.3-3,17.4,0.4,21.2,7.8
								l0.1,0.1h0.1C43.8,78.8,52.2,83.6,55.1,91.9L55.1,91.9z M-1,112.1c2.3,6.3,8.5,10,14.6,8.6L17,120l1.6,3.1
								c2.8,5.5,9.7,8,15.9,5.7c6.3-2.3,10-8.5,8.6-14.6l-0.7-3.4l3.1-1.6c5.5-2.8,8-9.7,5.7-15.9c-2.3-6.3-8.5-10-14.6-8.6
								l-3.4,0.7l-1.6-3.1c-2.8-5.5-9.7-8-15.9-5.7c-6.3,2.3-10,8.5-8.6,14.6l0.7,3.4l-3.1,1.6C-0.8,99-3.2,105.9-1,112.1L-1,112.1z
								"/>
						</g>
					</g>
					<g>
						<path class="st5" d="M57.5,91.1c3.2,8.9,0,18.6-7.5,23.4c1.1,8.8-4.4,17.5-13.2,20.7c-8.9,3.2-18.6,0-23.4-7.5
							c-8.8,1.1-17.5-4.4-20.7-13.2c-3.2-8.9,0-18.6,7.5-23.4c-1.1-8.8,4.4-17.5,13.2-20.7c8.9-3.2,18.6,0,23.4,7.5
							C45.6,76.8,54.3,82.2,57.5,91.1L57.5,91.1z M-3,112.9c2.6,7.3,9.9,11.6,17,10l1.7-0.4l0.8,1.6c3.3,6.5,11.3,9.4,18.6,6.7
							c7.3-2.6,11.6-9.9,10-17l-0.4-1.7l1.6-0.8c6.5-3.3,9.4-11.3,6.8-18.6c-2.6-7.3-9.9-11.6-17-10L34.3,83l-0.8-1.6
							C30.2,75,22.2,72.1,15,74.7c-7.3,2.6-11.6,9.9-10,17l0.4,1.7l-1.6,0.8C-2.7,97.6-5.6,105.6-3,112.9L-3,112.9z"/>
					</g>
				</g>
			</g>
		</g>
	</g>
</g>
</svg>
