<?xml version="1.0" encoding="utf-8"?>
<!-- Generator: Adobe Illustrator 22.0.1, SVG Export Plug-In . SVG Version: 6.00 Build 0)  -->
<svg version="1.1" id="Layer_1" xmlns="http://www.w3.org/2000/svg" xmlns:xlink="http://www.w3.org/1999/xlink" x="0px" y="0px"
	 width="180px" height="180px" viewBox="0 0 180 180" style="enable-background:new 0 0 180 180;" xml:space="preserve">
<style type="text/css">
	.st0{fill:#ECBA7F;}
	.st1{fill:#ECCAA3;}
	.st2{fill:none;stroke:#A8774F;stroke-width:2;stroke-miterlimit:10;}
	.st3{fill:#D4AF92;}
	.st4{fill:#E6BA8C;}
	.st5{fill:#DEB493;}
	.st6{opacity:0.48;fill:#A8774F;enable-background:new    ;}
	.st7{fill:#BF784A;}
	.st8{fill:#702F1D;}
	.st9{fill:#97562C;}
	.st10{fill:#A86437;}
	.st11{fill:#74462C;}
	.st12{fill:#E1B694;}
	.st13{fill:#B1734E;}
	.st14{fill:#FDDDC8;}
</style>
<g id="Spatula">
	<path class="st0" d="M90.1,154.4c-62.2,0-88-15.9-88-24.4c1.8-6.7,10.5-22.6,11.3-23.8c2.1-4,147.2,0.1,149.3,4.1
		c0.8,1.2,15.5,13.2,15.5,19.7C178.2,138.5,152.3,154.4,90.1,154.4z"/>
	<path class="st1" d="M166.1,102.8c-1.9-3.7-7.1-6.4-13.5-7c-15.8-1.4-44.5-5.3-47.3-14.7c-3.4-11.1-7.4-28.6-8.6-37.4
		c-0.2-1.4-2.1-2.5-4.4-2.5h-2.1h-2.1c-2.3,0-4.3,1.1-4.4,2.5c-1.1,8.8-5.2,26.3-8.6,37.4c-2.9,9.4-31.6,13.3-47.3,14.7
		c-6.4,0.6-11.6,3.3-13.5,7c0,0-9.6,17.6-10.2,24.8c-0.6,7.2,22.8,21.9,86.2,21.9s88.2-15.8,86.4-22.8
		C174.7,119.4,166.1,102.8,166.1,102.8z M90.1,48.3c-2.2,0-4-0.9-4-2.1c0-1.2,1.8-2.1,4-2.1s4,0.9,4,2.1
		C94.2,47.4,92.4,48.3,90.1,48.3z"/>
	<path class="st2" d="M165.9,102.6c-1.9-3.7-7.1-6.4-13.5-7c-15.8-1.4-44.5-5.3-47.3-14.7c-3.4-11.1-7.4-28.6-8.6-37.4
		c-0.2-1.4-2.1-2.5-4.4-2.5H90h-2.1c-2.3,0-4.3,1.1-4.4,2.5c-1.1,8.8-5.2,26.3-8.6,37.4C72,90.3,43.4,94.2,27.6,95.6
		c-6.4,0.6-11.6,3.3-13.5,7c0,0-12.1,25.7-12.1,27.1c0,8.5,25.8,24.4,88,24.4s88-15.9,88-24.4C178,128.3,165.9,102.6,165.9,102.6z
		 M90,43.9c2.2,0,4,0.9,4,2.1s-1.8,2-4,2s-4-0.9-4-2.1S87.8,43.9,90,43.9z"/>
	<g>
		<g>
			<path class="st3" d="M54.9,92.7c2.6,5,8.5,10.1,6.7,16.2s-9.6,8.8-12.5,14.6c-4.1,8.2-1.3,19.6,3.5,26.9c0.1,0.2,0.4,0,0.3-0.2
				c-3-6.7-5-13.6-0.7-20.2c3.2-4.9,7.4-8.3,9.6-13.9c1.5-3.9,3-8.6,1.5-12.7C61.7,99,57.5,96.4,54.9,92.7
				C55,92.6,54.9,92.6,54.9,92.7L54.9,92.7z"/>
		</g>
	</g>
	<g>
		<g>
			<path class="st4" d="M17.5,99.1c-5.2,5.7-0.9,10.1,4.3,13.7c3.6,2.5,6.9,6,4.7,10.7c-0.9,2-2,3.9-2.9,6
				c-1.8,4.5-2.7,9.1-3.3,13.9c-0.1,0.5,0.7,0.6,0.9,0.1c1.4-4.5,2.5-9,4.3-13.4c1.3-3.3,4.2-7,3.8-10.7c-0.3-2.4-1.8-4.2-3.6-5.7
				c-1.3-1.1-2.9-1.9-4.3-2.9c-1.1-0.7-2.5-1.5-3.4-2.5C16.5,106.4,16.4,101.2,17.5,99.1L17.5,99.1L17.5,99.1z"/>
		</g>
	</g>
	<g>
		<g>
			<path class="st4" d="M30.6,112.4c-0.4-4,1.1-9.6,6-10.3c6.7-1,6,4.2,5.3,7.6c-1,4.7-3.5,7.2-6.1,11c-4.4,6.5-1.2,13.3-1.1,20.6
				c0,0.3,0.5,0.4,0.5,0.1c0.5-3.2,0.1-6-0.3-9.2c-0.4-3.5-1.1-6.5,0.8-9.7c0.8-1.4,2-2.5,2.9-3.8c2.8-3.9,6.2-10.4,4.5-15.5
				c-1.2-3.4-5.6-2.9-8.3-1.5C30.6,103.8,29.2,108.2,30.6,112.4C30.5,112.4,30.6,112.4,30.6,112.4L30.6,112.4z"/>
		</g>
	</g>
	<g>
		<g>
			<path class="st3" d="M33.1,111c0.3-0.8,0.6-1.6,1-2.3c2.1-0.1,2.6,0.9,1.4,2.8c-0.5,0.9-1.2,1.6-1.6,2.6
				c-1.1,2.5-1.3,5.7-4.5,6.5c-0.2,0.1-0.1,0.4,0.1,0.4c2-0.3,3.1-1.6,3.9-3.4c0.7-1.6,0.9-3.2,1.8-4.7c0.6-0.9,1.1-1.5,1.3-2.6
				c0.1-0.7,0.1-2.6-1-2.8C33.9,107.1,33.4,110,33.1,111L33.1,111L33.1,111z"/>
		</g>
	</g>
	<g>
		<g>
			<path class="st4" d="M96.2,49.5c-11.4,11.8-5.3,31,1.3,43.8c4.2,8.1,9.8,15.1,13.5,23.5c2,4.5,4.3,9.3,5.4,14.1
				c1.1,4.5,0,8.9,0.5,13.4c0.1,0.5,0.7,0.5,0.7,0c0.6-7.5,0.9-12.6-1.9-19.7c-3-7.6-6.2-14.8-10.7-21.6c-4.8-7.4-8.9-14.5-11.6-23
				C90.3,70,88,57.8,96.2,49.5C96.3,49.5,96.2,49.5,96.2,49.5L96.2,49.5z"/>
		</g>
	</g>
	<g>
		<g>
			<path class="st5" d="M149.3,98.5c5.6,5,11.1,9.3,13,16.9c1.9,7.8,2.4,15.8,2.7,23.8c0,0.9,1.3,1.1,1.6,0.2
				c2.2-8.4,1.9-17.8-1.5-25.8C161.8,106.3,155.6,102.8,149.3,98.5L149.3,98.5L149.3,98.5z"/>
		</g>
	</g>
	<g>
		<g>
			<path class="st3" d="M114.6,98.1c0.9,5.2,1.5,10.8,3.4,15.7c2,4.9,7.5,6.4,9.3,11c1.4,3.7,0.7,7.4,3.3,10.8
				c1.9,2.5,5.5,4.9,8.9,4.6c6.5-0.6,6.6-12.9,4.7-17.2c-2-4.4-5.9-8-8.5-12c-3.4-5.4-5.5-11.2-6.4-17.5c-0.1-0.4-0.7-0.3-0.7,0.1
				c-0.1,7.4,3,14.3,7.1,20.3c2,2.9,4.5,5.5,6.1,8.7c1.9,3.6,3.1,16.6-4.7,15.2c-8.9-1.6-5.2-12.6-10.2-17.3c-3.1-2.9-6.3-4.4-8-8.7
				C117,107.5,115.8,102.7,114.6,98.1L114.6,98.1L114.6,98.1z"/>
		</g>
	</g>
	<g>
		<g>
			<path class="st4" d="M79.8,65.2c2.1,3.8,4.1,6.7,4.1,11.2c0,3.8-0.7,7.7-1.7,11.3c-1.4,5.3-6,11.4-5.1,17.1
				c0.8,5.3,5.7,10.6,9.1,14.5c2.1,2.4,4.5,4.4,6.7,6.7c2.4,2.4,3.4,5.1,3.2,8.5c-0.2,2.8-1.8,6.7-4.6,7.7c-0.4,0.2-0.3,0.8,0.2,0.7
				c4.6-1.1,6.4-8.1,5.5-12.2c-0.7-2.9-3-5-5-6.9c-3.7-3.5-7.2-7.3-10.1-11.5c-1.3-1.8-3.1-4.1-3.6-6.3c-0.8-3.6,0.6-6.4,2-9.6
				c1.6-3.8,2.8-7.6,3.5-11.6c0.6-3.4,1.1-7.1,0.4-10.6C83.8,70.6,81.3,68.3,79.8,65.2C79.9,65.1,79.8,65.1,79.8,65.2L79.8,65.2z"/>
		</g>
	</g>
	<g>
		<g>
			<path class="st4" d="M68.4,87.6c0.8,4.8,3.5,9.8,3,14.8c-0.4,5-4.6,7.1-5.5,11.6c-0.1,0.4,0.5,0.8,0.8,0.3
				c2.1-3.7,5.7-6.6,6-11.1C73.2,97.8,70.1,92.6,68.4,87.6L68.4,87.6L68.4,87.6z"/>
		</g>
	</g>
	<g>
		<g>
			<path class="st3" d="M78.4,144.7c-4-1.9-8.5-5-8.5-10c0-3,2.4-6.1,3.4-8.9c1.9-5.3,2.4-11.2,0.8-16.5c-0.1-0.5-1-0.4-0.9,0.1
				c0.7,5.2,1,10.2-0.6,15.3c-0.9,2.9-2.9,5.6-3.4,8.6C68.2,139.4,73.6,142.5,78.4,144.7C78.4,144.8,78.4,144.7,78.4,144.7
				L78.4,144.7z"/>
		</g>
	</g>
	<g>
		<g>
			<path class="st5" d="M88.9,94.2c-3.6,0.5-4.4,5.7-3.6,8.7c0.6,2.3,2.6,4,4.2,5.7c0.7,0.8,1.7,2.5,3,2.5c2.4,0,4.4-6.2,4.1-8.1
				c-0.6-3.6-4.3-8.7-7.6-10.4c-0.4-0.2-0.9,0.3-0.5,0.7c3.7,3.8,8.6,9.4,4.9,14.8c-1,1.4-0.5,1.5-2,0.4c-0.9-0.7-1.8-1.9-2.6-2.7
				c-1.1-1.3-1.9-2.2-2.2-4c-0.4-2.3-0.7-6.3,2.6-6.9C89.5,94.8,89.3,94.1,88.9,94.2L88.9,94.2z"/>
		</g>
	</g>
</g>
<ellipse id="Shadow" class="st6" cx="90.9" cy="119.7" rx="58.4" ry="21.1"/>
<g id="Mushroom">
	<g>
		<g>
			<path class="st7" d="M121.7,119c-13.6,0-24.5-11.1-27.8-28.2c-2.1-10.7-0.6-20.4,4.1-27.3c4-5.8,9.9-9.5,17.7-11
				c1.5-0.3,3.1-0.4,4.6-0.4c14.2,0,26.7,11.7,29.8,27.8c3.4,17.7-6.2,34.5-21.8,38.2C126.2,118.7,123.9,119,121.7,119z"/>
			<path class="st8" d="M120.4,53.1c13.4,0,25.8,11.2,28.9,27c3.4,17.6-6.2,33.6-21,37.1c-2.2,0.5-4.4,0.8-6.5,0.8
				c-14.2,0-23.9-12-26.8-27.4C91.6,73,97.7,57,116,53.5C117.4,53.2,118.9,53.1,120.4,53.1 M120.4,51.1v2V51.1L120.4,51.1
				c-1.6,0-3.2,0.2-4.8,0.4c-8,1.5-14.3,5.4-18.4,11.4c-4.9,7.1-6.4,17.1-4.3,28c3.4,17.6,14.7,29,28.8,29c2.2,0,4.6-0.3,6.9-0.8
				c16.2-3.8,26.1-21.1,22.6-39.4C148,63.1,135,51.1,120.4,51.1L120.4,51.1z"/>
		</g>
		<path class="st9" d="M130.1,55.1c20.9,36.1,6,64.3-27,53.9c5.9,7.1,14.5,10.8,25.1,8.3c14.9-3.5,24.4-19.5,21-37.1
			C147,68.2,139.4,58.9,130.1,55.1z"/>
		<ellipse transform="matrix(0.963 -0.2696 0.2696 0.963 -20.1022 32.2061)" class="st10" cx="107.2" cy="89.3" rx="10" ry="24.7"/>
		
			<ellipse transform="matrix(0.963 -0.2696 0.2696 0.963 -20.2218 31.9503)" class="st11" cx="106.2" cy="89.6" rx="7.8" ry="21.7"/>
		<g>
			<path class="st12" d="M115.7,100.3c-4.7-0.3-9.1,0.1-13.3,1.2c-4.2,1.1-8.1,3-11.9,5.6L89.2,82c2.7,0.2,5.2,0.2,7.6,0
				c5.2-0.4,9.5-1.9,12.9-4.8c1.5,2.9,2.9,6.4,4,10.2C115,92.1,115.7,96.5,115.7,100.3z"/>
		</g>
		<path class="st13" d="M90.5,107.1c3.7-2.7,7.7-4.5,11.9-5.6c4.2-1.1,8.7-1.5,13.3-1.2c0-3.7-0.7-8.1-2-12.8c0-0.1-0.1-0.2-0.1-0.3
			c-7.8,0.6-15.7,3.3-23.8,7.5L90.5,107.1z"/>
	</g>
	<g>
		<ellipse transform="matrix(0.7071 -0.7071 0.7071 0.7071 -50.6309 71.3535)" class="st7" cx="60.8" cy="96.8" rx="37.3" ry="33"/>
		<path class="st9" d="M95.3,99.8c-47.4,15.6-73.4,12.7-59.6-24.5c-13,14.6-13.7,35.6-1.3,48c12.9,12.9,35.2,11.5,49.8-3
			C90.1,114.2,93.8,107.1,95.3,99.8z"/>
		
			<ellipse transform="matrix(0.7071 -0.7071 0.7071 0.7071 -52.2778 76.9682)" class="st10" cx="66.8" cy="101.6" rx="27.1" ry="21"/>
		
			<ellipse transform="matrix(0.7071 -0.7071 0.7071 0.7071 -52.6983 77.8389)" class="st11" cx="67.6" cy="102.5" rx="22.8" ry="16.6"/>
		<path class="st12" d="M99.4,107.1c-0.7-0.7-1.5-1.2-2.4-1.6c-8-3.7-15.1-8.6-21.5-14.5l0,0c-4.3-3.6-11.8-2.6-17.3,2.6
			c-5.3,5-6.9,12.2-3.9,16.7l0,0l0,0c0.2,0.4,0.5,0.7,0.8,1.1c0.1,0.2,0.3,0.3,0.5,0.4c9.9,5,15.9,11.7,17.4,20
			c2.1,4.4,13.8,2,20.6-4.4C101,120.6,103.6,111.5,99.4,107.1z"/>
		
			<ellipse transform="matrix(0.7583 -0.6519 0.6519 0.7583 -57.5056 86.1146)" class="st14" cx="87.4" cy="120.6" rx="15.4" ry="6.8"/>
		<path class="st13" d="M52.8,104.3c-0.1,2.2,0.3,4.3,1.5,6.1l0,0l0,0c0.2,0.4,0.5,0.7,0.8,1.1c0.1,0.2,0.3,0.3,0.5,0.4
			c7.5,3.8,12.7,8.6,15.5,14.3C71.9,115.3,65.6,108.1,52.8,104.3z"/>
		<path class="st13" d="M76.8,92.1c-0.4-0.4-0.8-0.7-1.3-1.1l0,0c-4.3-3.6-11.8-2.6-17.3,2.6c-2.9,2.7-4.7,6.1-5.2,9.3
			C59.5,95.5,67.4,91.9,76.8,92.1z"/>
		<g>
			<path class="st8" d="M65.1,61.5c8.2,0,16.2,2.9,22.1,8.9c8.3,8.3,10.7,20.4,7.5,31.9c0,0.1-0.1,0.3-0.1,0.4
				c-0.1,0.5-0.3,0.9-0.4,1.4c1,0.5,1.9,1,2.9,1.4c0.9,0.4,1.7,0.9,2.4,1.6c4.1,4.4,1.5,13.5-5.8,20.5c-4.4,4.2-10.9,6.6-15.5,6.6
				c-2.5,0-4.4-0.7-5.1-2.3c-0.2-1.2-0.5-2.3-0.9-3.4c-5.1,2.3-10.4,3.5-15.6,3.5c-8.2,0-16.2-2.9-22.1-8.9
				c-0.4-0.4-0.8-0.8-1.1-1.2c-0.1-0.1-0.2-0.3-0.4-0.4c-0.2-0.3-0.5-0.6-0.7-0.8c-0.1-0.2-0.3-0.4-0.4-0.5
				c-0.2-0.3-0.4-0.5-0.6-0.8c-0.1-0.2-0.3-0.4-0.4-0.6c-0.2-0.3-0.3-0.5-0.5-0.8c-0.1-0.2-0.3-0.4-0.4-0.6s-0.3-0.5-0.4-0.7
				s-0.2-0.5-0.4-0.7c-0.1-0.2-0.3-0.5-0.4-0.7s-0.2-0.5-0.3-0.7c-0.1-0.2-0.2-0.5-0.3-0.7c-0.1-0.3-0.2-0.5-0.3-0.8
				c-0.1-0.2-0.2-0.5-0.3-0.7c-0.1-0.3-0.2-0.5-0.3-0.8c-0.1-0.2-0.2-0.5-0.2-0.7c-0.1-0.3-0.2-0.6-0.2-0.8
				c-0.1-0.2-0.1-0.5-0.2-0.7c-0.1-0.3-0.1-0.6-0.2-0.9c-0.1-0.2-0.1-0.5-0.1-0.7c-0.1-0.3-0.1-0.6-0.2-0.9c0-0.2-0.1-0.4-0.1-0.7
				c0-0.3-0.1-0.6-0.1-1c0-0.2,0-0.4-0.1-0.6c0-0.3-0.1-0.7-0.1-1c0-0.2,0-0.4,0-0.6c0-0.3,0-0.7,0-1c0-0.2,0-0.4,0-0.6
				c0-0.4,0-0.7,0-1.1c0-0.2,0-0.3,0-0.5c0-0.4,0-0.8,0.1-1.2c0-0.1,0-0.3,0-0.4c0-0.4,0.1-0.8,0.1-1.2c0-0.1,0-0.2,0-0.3
				c0.1-0.4,0.1-0.9,0.2-1.3c0-0.1,0-0.1,0-0.2c0.1-0.5,0.2-1,0.3-1.5l0,0c1.4-6.5,4.5-12.8,9.4-18.3l0,0c0.5-0.6,1.1-1.2,1.7-1.8
				C45.3,65.5,55.4,61.5,65.1,61.5 M65.1,59.5C54.5,59.5,43.9,64.1,36,72c-0.6,0.6-1.1,1.2-1.8,1.9c-4.9,5.6-8.4,12.2-9.8,19.2
				c-0.1,0.6-0.2,1.1-0.3,1.6v0.1v0.1c-0.1,0.5-0.1,0.9-0.2,1.4v0.1v0.2c-0.1,0.4-0.1,0.9-0.1,1.3V98c0,0.1,0,0.2,0,0.3
				c0,0.4,0,0.8-0.1,1.2v0.1c0,0.1,0,0.3,0,0.4c0,0.4,0,0.8,0,1.2v0.1c0,0.2,0,0.4,0,0.5c0,0.4,0,0.7,0,1.1c0,0.2,0,0.4,0,0.6
				c0,0.4,0.1,0.7,0.1,1.1c0,0.2,0,0.4,0.1,0.7c0,0.3,0.1,0.7,0.1,1c0,0.2,0.1,0.5,0.1,0.7c0.1,0.3,0.1,0.6,0.2,1
				c0,0.2,0.1,0.5,0.2,0.7c0.1,0.3,0.1,0.6,0.2,0.9s0.1,0.5,0.2,0.8s0.2,0.6,0.3,0.9c0.1,0.3,0.2,0.5,0.2,0.8
				c0.1,0.3,0.2,0.6,0.3,0.8c0.1,0.2,0.2,0.5,0.3,0.7v0.1c0.1,0.3,0.2,0.5,0.3,0.7c0.1,0.2,0.2,0.5,0.3,0.7v0.1l0.1,0.1
				c0.1,0.2,0.2,0.4,0.3,0.7c0.1,0.2,0.2,0.4,0.3,0.7l0.1,0.1l0.1,0.2c0.1,0.2,0.2,0.4,0.3,0.6c0.1,0.2,0.3,0.4,0.4,0.7l0.1,0.1
				l0.1,0.2c0.1,0.2,0.2,0.3,0.3,0.5c0.1,0.2,0.3,0.4,0.4,0.7l0.1,0.1l0.1,0.2c0.1,0.2,0.2,0.3,0.3,0.5c0.2,0.2,0.3,0.5,0.5,0.7
				l0.1,0.1l0.1,0.2c0.1,0.1,0.2,0.3,0.3,0.4c0.2,0.3,0.4,0.5,0.7,0.8l0.1,0.1l0.1,0.1c0.1,0.1,0.2,0.2,0.3,0.3
				c0.4,0.4,0.8,0.9,1.2,1.3c6.1,6.1,14.4,9.4,23.5,9.4c4.8,0,9.7-1,14.4-2.8c0.1,0.3,0.2,0.7,0.2,1c0,0.2,0.1,0.3,0.2,0.5
				c1,2.2,3.5,3.4,6.9,3.4c5.4,0,12.4-2.9,16.8-7.2c3.8-3.6,6.6-7.9,7.8-12.1c1.3-4.6,0.6-8.5-1.9-11.2c-0.8-0.9-1.8-1.6-3-2.1
				c-0.4-0.2-0.9-0.4-1.3-0.6v-0.1v-0.1c3.5-12.7,0.5-25.3-8-33.8C82.5,62.9,74.2,59.5,65.1,59.5L65.1,59.5z"/>
		</g>
	</g>
</g>
</svg>
