<?xml version="1.0" encoding="utf-8"?>
<!-- Generator: Adobe Illustrator 22.0.1, SVG Export Plug-In . SVG Version: 6.00 Build 0)  -->
<svg version="1.1" id="Layer_1" xmlns="http://www.w3.org/2000/svg" xmlns:xlink="http://www.w3.org/1999/xlink" x="0px" y="0px"
	 viewBox="0 0 180 180" style="enable-background:new 0 0 180 180;" xml:space="preserve">
<style type="text/css">
	.st0{fill:#A4AEB3;}
	.st1{fill:#C3D4D4;}
	.st2{fill:#8B9E9C;}
	.st3{fill:#D1E3DC;}
	.st4{fill:#AAC2C0;}
	.st5{clip-path:url(#SVGID_2_);}
	.st6{opacity:0.23;fill:#754C24;enable-background:new    ;}
	.st7{fill:#F2E1AC;}
	.st8{fill:#754C24;}
	.st9{clip-path:url(#SVGID_4_);}
	.st10{clip-path:url(#SVGID_6_);}
	.st11{clip-path:url(#SVGID_8_);}
	.st12{clip-path:url(#SVGID_10_);}
	.st13{clip-path:url(#SVGID_12_);}
	.st14{clip-path:url(#SVGID_14_);}
	.st15{clip-path:url(#SVGID_16_);}
	.st16{clip-path:url(#SVGID_18_);}
	.st17{clip-path:url(#SVGID_20_);}
	.st18{clip-path:url(#SVGID_22_);}
	.st19{clip-path:url(#SVGID_24_);}
	.st20{clip-path:url(#SVGID_26_);}
	.st21{clip-path:url(#SVGID_28_);}
	.st22{clip-path:url(#SVGID_30_);}
	.st23{clip-path:url(#SVGID_32_);}
	.st24{clip-path:url(#SVGID_34_);}
	.st25{clip-path:url(#SVGID_36_);}
	.st26{clip-path:url(#SVGID_38_);}
	.st27{clip-path:url(#SVGID_40_);}
</style>
<g>
	<path class="st0" d="M178,180H2c-1.1,0-2-0.9-2-2V2c0-1.1,0.9-2,2-2h176c1.1,0,2,0.9,2,2v176C180,179.1,179.1,180,178,180z"/>
</g>
<g>
	<path class="st1" d="M165.5,176.9h-151c-6.3,0-11.4-5.1-11.4-11.4v-151c0-6.3,5.1-11.4,11.4-11.4h150.9c6.3,0,11.4,5.1,11.4,11.4
		v150.9C176.9,171.8,171.8,176.9,165.5,176.9z"/>
</g>
<g>
	<path class="st2" d="M148.3,173.8H31.7c-14.1,0-25.5-11.4-25.5-25.5V31.7c0-14.1,11.4-25.5,25.5-25.5h116.7
		c14.1,0,25.5,11.4,25.5,25.5v116.7C173.8,162.4,162.4,173.8,148.3,173.8z"/>
</g>
<g>
	<path class="st3" d="M145,169H35c-13.3,0-24-10.8-24-24V35c0-13.3,10.8-24,24-24h110c13.3,0,24,10.8,24,24v110
		C169,158.3,158.3,169,145,169z"/>
</g>
<circle class="st1" cx="90" cy="90" r="46"/>
<g>
	<circle class="st1" cx="90" cy="90" r="46"/>
</g>
<g>
	<path class="st4" d="M136,90c0,25.4-20.6,46-46,46V44C115.4,44,136,64.6,136,90z"/>
</g>
<g>
	<path class="st2" d="M78,134.4c3.8,1,7.8,1.6,12,1.6s8.2-0.6,12-1.6V45.6c-3.8-1-7.8-1.6-12-1.6s-8.2,0.6-12,1.6V134.4z"/>
</g>
<g>
	<path class="st3" d="M79.6,134.8c3.4,0.8,6.8,1.2,10.4,1.2s7.1-0.4,10.4-1.2V45.2C97.1,44.4,93.6,44,90,44s-7.1,0.4-10.4,1.2V134.8
		z"/>
</g>
<g>
	<g>
		<defs>
			<path id="SVGID_1_" d="M145.9,170.2H34.1c-13.5,0-24.4-10.9-24.4-24.4V34.1c0-13.5,10.9-24.4,24.4-24.4h111.7
				c13.5,0,24.4,10.9,24.4,24.4v111.7C170.2,159.3,159.3,170.2,145.9,170.2z"/>
		</defs>
		<clipPath id="SVGID_2_">
			<use xlink:href="#SVGID_1_"  style="overflow:visible;"/>
		</clipPath>
		<g class="st5">
			<path class="st6" d="M103.2,58.2c-19.8,0-35.9,16.2-35.9,30.1c0,8.6,6.1,11.5,15.4,12.4h0.1c0.4,0,0.7,0.1,1.1,0.1H84
				c0.4,0,0.7,0.1,1.1,0.1h0.1c0.4,0,0.8,0,1.1,0.1c0.1,0,0.1,0,0.2,0c0.5,0,0.9,0,1.4,0.1l0,0c0.3,0,0.7,0,1,0H89
				c0.2,0,0.4,0,0.6,0v2.2v12.2c0,3.6,2.9,6.5,6.5,6.5h14.1c3.6,0,6.5-2.9,6.5-6.5v-13.9V101c0.2,0,0.4,0,0.6,0c0,0,0.1,0,0.2,0
				c0.4,0,0.8,0,1.2,0l0,0c0.4,0,0.8,0,1.2-0.1c0.1,0,0.1,0,0.2,0c0.4,0,0.8,0,1.1-0.1h0.1c0.4,0,0.7,0,1.1-0.1h0.1
				c0.4,0,0.7-0.1,1.1-0.1c0.1,0,0.1,0,0.2,0c0.4,0,0.7-0.1,1.1-0.1l0,0c8.7-1.1,14.4-4,14.4-12.3C139.1,74.3,123,58.2,103.2,58.2z"
				/>
			<g>
				<path class="st7" d="M136.5,86.3c0-13.1-15.1-28.2-33.8-28.2C84.1,58.1,69,73.3,69,86.3c0,8.1,5.7,10.8,14.5,11.7h0.1
					c0.3,0,0.7,0.1,1,0.1c0,0,0,0,0.1,0c0.3,0,0.7,0.1,1,0.1c0,0,0,0,0.1,0c0.4,0,0.7,0,1.1,0.1H87c0.7,0,1.5,0.1,2.2,0.1h0.1
					c0.2,0,0.4,0,0.6,0v2v11.4c0,3.4,2.7,6.1,6.1,6.1h13.3c3.4,0,6.1-2.7,6.1-6.1v-13v-0.4c0.2,0,0.4,0,0.6,0h0.1c0.4,0,0.8,0,1.1,0
					l0,0c0.4,0,0.7,0,1.1,0c0.1,0,0.1,0,0.2,0c0.4,0,0.7,0,1.1-0.1h0.1c0.3,0,0.7,0,1-0.1h0.1c0.3,0,0.7-0.1,1-0.1
					c0.1,0,0.1,0,0.2,0c0.3,0,0.7-0.1,1-0.1l0,0l0,0C131.2,96.9,136.5,94.1,136.5,86.3z"/>
				<g>
					<path class="st8" d="M82.9,90c0,0-4.4,4.6,5.4,4.6v3.7c0.3,0,0.6,0,1,0h0.1c0.2,0,0.4,0,0.6,0v-0.8V90C90,90,89.8,82,82.9,90z"
						/>
					<path class="st8" d="M122.6,90c-6.9-8-7.1,0-7.1,0v7.6v0.8c0.2,0,0.4,0,0.6,0h0.1c0.3,0,0.6,0,0.9,0v-3.7
						C127,94.6,122.6,90,122.6,90z"/>
				</g>
			</g>
		</g>
	</g>
	<g>
		<defs>
			<path id="SVGID_3_" d="M145.9,170.2H34.1c-13.5,0-24.4-10.9-24.4-24.4V34.1c0-13.5,10.9-24.4,24.4-24.4h111.7
				c13.5,0,24.4,10.9,24.4,24.4v111.7C170.2,159.3,159.3,170.2,145.9,170.2z"/>
		</defs>
		<clipPath id="SVGID_4_">
			<use xlink:href="#SVGID_3_"  style="overflow:visible;"/>
		</clipPath>
		<g class="st9">
			<path class="st6" d="M51.2,22.2c-19.8,0-35.9,16.2-35.9,30.1c0,8.6,6.1,11.5,15.4,12.4h0.1c0.4,0,0.7,0.1,1.1,0.1H32
				c0.4,0,0.7,0.1,1.1,0.1h0.1c0.4,0,0.8,0,1.1,0.1c0.1,0,0.1,0,0.2,0c0.5,0,0.9,0,1.4,0.1l0,0c0.3,0,0.7,0,1,0H37
				c0.2,0,0.4,0,0.6,0v2.2v12.2c0,3.6,2.9,6.5,6.5,6.5h14.1c3.6,0,6.5-2.9,6.5-6.5V65.4V65c0.2,0,0.4,0,0.6,0c0,0,0.1,0,0.2,0
				c0.4,0,0.8,0,1.2,0l0,0c0.4,0,0.8,0,1.2-0.1c0.1,0,0.1,0,0.2,0c0.4,0,0.8,0,1.1-0.1h0.1c0.4,0,0.7,0,1.1-0.1h0.1
				c0.4,0,0.7-0.1,1.1-0.1c0.1,0,0.1,0,0.2,0c0.4,0,0.7-0.1,1.1-0.1l0,0c8.7-1.1,14.4-4,14.4-12.3C87.1,38.3,71,22.2,51.2,22.2z"/>
			<g>
				<path class="st7" d="M84.5,50.3c0-13.1-15.1-28.2-33.8-28.2C32.1,22.1,17,37.3,17,50.3c0,8.1,5.7,10.8,14.5,11.7h0.1
					c0.3,0,0.7,0.1,1,0.1c0,0,0,0,0.1,0c0.3,0,0.7,0.1,1,0.1c0,0,0,0,0.1,0c0.4,0,0.7,0,1.1,0.1H35c0.7,0,1.5,0.1,2.2,0.1h0.1
					c0.2,0,0.4,0,0.6,0v2v11.4c0,3.4,2.7,6.1,6.1,6.1h13.3c3.4,0,6.1-2.7,6.1-6.1v-13v-0.4c0.2,0,0.4,0,0.6,0h0.1c0.4,0,0.8,0,1.1,0
					l0,0c0.4,0,0.7,0,1.1,0c0.1,0,0.1,0,0.2,0c0.4,0,0.7,0,1.1-0.1h0.1c0.3,0,0.7,0,1-0.1h0.1c0.3,0,0.7-0.1,1-0.1
					c0.1,0,0.1,0,0.2,0c0.3,0,0.7-0.1,1-0.1l0,0l0,0C79.2,60.9,84.5,58.1,84.5,50.3z"/>
				<g>
					<path class="st8" d="M30.9,54c0,0-4.4,4.6,5.4,4.6v3.7c0.3,0,0.6,0,1,0h0.1c0.2,0,0.4,0,0.6,0v-0.8V54C38,54,37.8,46,30.9,54z"
						/>
					<path class="st8" d="M70.6,54c-6.9-8-7.1,0-7.1,0v7.6v0.8c0.2,0,0.4,0,0.6,0h0.1c0.3,0,0.6,0,0.9,0v-3.7
						C75,58.6,70.6,54,70.6,54z"/>
				</g>
			</g>
		</g>
	</g>
	<g>
		<defs>
			<path id="SVGID_5_" d="M145.9,170.2H34.1c-13.5,0-24.4-10.9-24.4-24.4V34.1c0-13.5,10.9-24.4,24.4-24.4h111.7
				c13.5,0,24.4,10.9,24.4,24.4v111.7C170.2,159.3,159.3,170.2,145.9,170.2z"/>
		</defs>
		<clipPath id="SVGID_6_">
			<use xlink:href="#SVGID_5_"  style="overflow:visible;"/>
		</clipPath>
		<g class="st10">
			<path class="st6" d="M11,74.5c-19.9,0-36,16.1-36,30c0,8.6,6.1,11.5,15.4,12.4h0.1c0.4,0,0.7,0.1,1.1,0.1h0.1
				c0.4,0,0.7,0.1,1.1,0.1h0.1c0.4,0,0.8,0,1.1,0.1c0.1,0,0.1,0,0.2,0c0.5,0,0.9,0,1.4,0.1l0,0c0.3,0,0.7,0,1,0h0.1
				c0.2,0,0.4,0,0.6,0v2.2v12.2c0,3.6,2.9,6.5,6.5,6.5H18c3.6,0,6.5-2.9,6.5-6.5v-13.9v-0.4c0.2,0,0.4,0,0.6,0c0,0,0.1,0,0.2,0
				c0.4,0,0.8,0,1.2,0l0,0c0.4,0,0.8,0,1.2-0.1c0.1,0,0.1,0,0.2,0c0.4,0,0.8,0,1.1-0.1h0.1c0.4,0,0.7,0,1.1-0.1h0.1
				c0.4,0,0.7-0.1,1.1-0.1c0.1,0,0.1,0,0.2,0c0.4,0,0.7-0.1,1.1-0.1l0,0c8.7-1.1,14.4-4,14.4-12.3C46.9,90.6,30.8,74.5,11,74.5z"/>
			<g>
				<path class="st7" d="M44.3,102.7c0-13.1-15.1-28.2-33.8-28.2c-18.6,0-33.8,15.2-33.8,28.2c0,8.1,5.7,10.8,14.5,11.7h0.1
					c0.3,0,0.7,0.1,1,0.1c0,0,0,0,0.1,0c0.3,0,0.7,0.1,1,0.1c0,0,0,0,0.1,0c0.4,0,0.7,0,1.1,0.1h0.1c0.7,0,1.5,0.1,2.2,0.1H-3
					c0.2,0,0.4,0,0.6,0v2v11.4c0,3.4,2.7,6.1,6.1,6.1H17c3.4,0,6.1-2.7,6.1-6.1v-13.1v-0.4c0.2,0,0.4,0,0.6,0h0.1c0.4,0,0.8,0,1.1,0
					l0,0c0.4,0,0.7,0,1.1,0c0.1,0,0.1,0,0.2,0c0.4,0,0.7,0,1.1-0.1h0.1c0.3,0,0.7,0,1-0.1h0.1c0.3,0,0.7-0.1,1-0.1
					c0.1,0,0.1,0,0.2,0c0.3,0,0.7-0.1,1-0.1l0,0l0,0C39,113.2,44.3,110.4,44.3,102.7z"/>
				<g>
					<path class="st8" d="M30.4,106.3c-6.9-8-7.1,0-7.1,0v7.6v0.8c0.2,0,0.4,0,0.6,0H24c0.3,0,0.6,0,0.9,0V111
						C34.8,111,30.4,106.3,30.4,106.3z"/>
				</g>
			</g>
		</g>
	</g>
	<g>
		<defs>
			<path id="SVGID_7_" d="M145.9,170.2H34.1c-13.5,0-24.4-10.9-24.4-24.4V34.1c0-13.5,10.9-24.4,24.4-24.4h111.7
				c13.5,0,24.4,10.9,24.4,24.4v111.7C170.2,159.3,159.3,170.2,145.9,170.2z"/>
		</defs>
		<clipPath id="SVGID_8_">
			<use xlink:href="#SVGID_7_"  style="overflow:visible;"/>
		</clipPath>
		<g class="st11">
			<path class="st6" d="M11.9,57.4c17.3,9.7,39.2,3.4,46-8.8c4.2-7.5,0.2-13-7.5-18.4l-0.1-0.1c-0.3-0.2-0.6-0.4-0.9-0.6
				c0,0,0,0-0.1,0c-0.3-0.2-0.6-0.4-0.9-0.6c0,0,0,0-0.1,0c-0.3-0.2-0.6-0.4-1-0.6l-0.1-0.1c-0.4-0.2-0.8-0.5-1.2-0.7l0,0
				c-0.3-0.2-0.6-0.4-0.9-0.5c0,0-0.1,0-0.1-0.1c-0.2-0.1-0.3-0.2-0.5-0.3l1.1-1.9l5.9-10.6C53.2,11,52.1,7,49,5.3L36.7-1.6
				c-3.1-1.7-7.1-0.6-8.8,2.5L21.1,13l-0.2,0.4c-0.2-0.1-0.4-0.2-0.5-0.3c0,0-0.1,0-0.1-0.1c-0.4-0.2-0.7-0.4-1.1-0.5l0,0
				c-0.4-0.2-0.7-0.4-1-0.5c-0.1,0-0.1-0.1-0.2-0.1c-0.3-0.2-0.7-0.3-1-0.5h-0.1c-0.3-0.2-0.7-0.3-1-0.5h-0.1
				c-0.3-0.1-0.7-0.3-1-0.4c-0.1,0-0.1,0-0.2-0.1c-0.3-0.1-0.7-0.3-1-0.4l0,0C5.5,6.6-0.9,6.5-4.9,13.7
				C-11.7,25.8-5.5,47.8,11.9,57.4z"/>
			<g>
				<path class="st7" d="M-3.5,16.6C-9.9,28-4,48.6,12.2,57.7c16.3,9.1,36.9,3.2,43.2-8.2c3.9-7,0.2-12.2-7-17.2l-0.1-0.1
					c-0.3-0.2-0.6-0.4-0.8-0.6c0,0,0,0-0.1,0c-0.3-0.2-0.6-0.4-0.9-0.6c0,0,0,0-0.1,0c-0.3-0.2-0.6-0.4-0.9-0.6l-0.1-0.1
					c-0.6-0.4-1.3-0.8-1.9-1.2c0,0-0.1,0-0.1-0.1c-0.2-0.1-0.3-0.2-0.5-0.3l1-1.8l5.6-10c1.6-2.9,0.6-6.7-2.4-8.3L35.5,2.2
					c-2.9-1.6-6.7-0.6-8.3,2.4L20.9,16l-0.2,0.3c-0.2-0.1-0.3-0.2-0.5-0.3c0,0-0.1,0-0.1-0.1c-0.3-0.2-0.7-0.3-1-0.5l0,0
					c-0.3-0.2-0.7-0.3-1-0.5c-0.1,0-0.1-0.1-0.1-0.1c-0.3-0.2-0.6-0.3-1-0.5h-0.1c-0.3-0.1-0.6-0.3-0.9-0.4h-0.1
					c-0.3-0.1-0.6-0.3-0.9-0.4c0,0-0.1,0-0.1-0.1c-0.3-0.1-0.6-0.3-0.9-0.4l0,0l0,0C6.2,10,0.2,9.8-3.5,16.6z"/>
				<g>
					<path class="st8" d="M45.1,39.5c0,0,6.1-1.9-2.5-6.7l1.8-3.2c-0.3-0.2-0.5-0.3-0.8-0.5c0,0-0.1,0-0.1-0.1
						c-0.2-0.1-0.3-0.2-0.5-0.3l-0.4,0.7L38.9,36C38.9,36,35.1,43.1,45.1,39.5z"/>
					<path class="st8" d="M10.4,20.2c2.2,10.4,6.2,3.5,6.2,3.5l3.7-6.6l0.4-0.7c-0.2-0.1-0.3-0.2-0.5-0.3c0,0-0.1,0-0.1-0.1
						c-0.3-0.1-0.6-0.3-0.8-0.4l-1.8,3.2C8.8,14,10.4,20.2,10.4,20.2z"/>
				</g>
			</g>
		</g>
	</g>
	<g>
		<defs>
			<path id="SVGID_9_" d="M145.9,170.2H34.1c-13.5,0-24.4-10.9-24.4-24.4V34.1c0-13.5,10.9-24.4,24.4-24.4h111.7
				c13.5,0,24.4,10.9,24.4,24.4v111.7C170.2,159.3,159.3,170.2,145.9,170.2z"/>
		</defs>
		<clipPath id="SVGID_10_">
			<use xlink:href="#SVGID_9_"  style="overflow:visible;"/>
		</clipPath>
		<g class="st12">
			<path class="st6" d="M102.3,18.4C85,8.7,63.1,15,56.3,27.1c-4.2,7.5-0.2,13,7.4,18.4l0.1,0.1c0.3,0.2,0.6,0.4,0.9,0.6
				c0,0,0,0,0.1,0c0.3,0.2,0.6,0.4,0.9,0.6c0,0,0,0,0.1,0c0.3,0.2,0.6,0.4,1,0.6l0.1,0.1c0.4,0.2,0.8,0.5,1.2,0.7l0,0
				c0.3,0.2,0.6,0.4,0.9,0.5c0,0,0.1,0,0.1,0.1c0.2,0.1,0.3,0.2,0.5,0.3l-1,1.9l-5.9,10.6c-1.7,3.1-0.6,7.1,2.5,8.8l12.3,6.9
				c3.1,1.7,7.1,0.6,8.8-2.5l6.8-12.1l0.2-0.4c0.2,0.1,0.4,0.2,0.5,0.3c0,0,0.1,0,0.1,0.1c0.4,0.2,0.7,0.4,1.1,0.5l0,0
				c0.4,0.2,0.7,0.4,1,0.5c0.1,0,0.1,0.1,0.2,0.1c0.3,0.2,0.7,0.3,1,0.5h0.1c0.3,0.2,0.7,0.3,1,0.5h0.1c0.3,0.1,0.7,0.3,1,0.4
				c0.1,0,0.1,0,0.2,0.1c0.3,0.1,0.7,0.3,1,0.4l0,0c8.1,3.3,14.5,3.5,18.5-3.7C125.8,50,119.7,28,102.3,18.4z"/>
			<g>
				<path class="st7" d="M117.7,59.2c6.4-11.4,0.6-32-15.7-41.1s-36.9-3.2-43.2,8.2c-3.9,7-0.2,12.2,7,17.3l0.1,0.1
					c0.3,0.2,0.6,0.4,0.8,0.6c0,0,0,0,0.1,0c0.3,0.2,0.6,0.4,0.9,0.6c0,0,0,0,0.1,0c0.3,0.2,0.6,0.4,0.9,0.6l0.1,0.1
					c0.6,0.4,1.3,0.8,1.9,1.2c0,0,0.1,0,0.1,0.1c0.2,0.1,0.3,0.2,0.5,0.3l-1,1.8l-5.6,10c-1.6,2.9-0.6,6.7,2.4,8.3l11.6,6.5
					c2.9,1.6,6.7,0.6,8.3-2.4L93.4,60l0.2-0.3c0.2,0.1,0.3,0.2,0.5,0.3c0,0,0.1,0,0.1,0.1c0.3,0.2,0.7,0.3,1,0.5l0,0
					c0.3,0.2,0.7,0.3,1,0.5c0.1,0,0.1,0.1,0.1,0.1c0.3,0.2,0.6,0.3,1,0.5h0.1c0.3,0.1,0.6,0.3,0.9,0.4h0.1c0.3,0.1,0.6,0.3,0.9,0.4
					c0,0,0.1,0,0.1,0.1c0.3,0.1,0.6,0.3,0.9,0.4l0,0l0,0C107.9,65.8,113.9,66,117.7,59.2z"/>
				<g>
					<path class="st8" d="M69.1,36.3c0,0-6.1,1.9,2.5,6.7l-1.8,3.2c0.3,0.2,0.5,0.3,0.8,0.5c0,0,0.1,0,0.1,0.1
						c0.2,0.1,0.3,0.2,0.5,0.3l0.4-0.7l3.7-6.6C75.3,39.7,79.1,32.7,69.1,36.3z"/>
					<path class="st8" d="M103.8,55.6c-2.1-10.4-6.2-3.5-6.2-3.5l-3.7,6.6l-0.4,0.7c0.2,0.1,0.3,0.2,0.5,0.3c0,0,0.1,0,0.1,0.1
						c0.3,0.1,0.6,0.3,0.8,0.4l1.8-3.2C105.4,61.8,103.8,55.6,103.8,55.6z"/>
				</g>
			</g>
		</g>
	</g>
	<g>
		<defs>
			<path id="SVGID_11_" d="M145.9,170.2H34.1c-13.5,0-24.4-10.9-24.4-24.4V34.1c0-13.5,10.9-24.4,24.4-24.4h111.7
				c13.5,0,24.4,10.9,24.4,24.4v111.7C170.2,159.3,159.3,170.2,145.9,170.2z"/>
		</defs>
		<clipPath id="SVGID_12_">
			<use xlink:href="#SVGID_11_"  style="overflow:visible;"/>
		</clipPath>
		<g class="st13">
			<path class="st6" d="M42.7,128.4c-17.3-9.7-39.2-3.4-46,8.7c-4.2,7.5-0.2,13,7.4,18.4l0.1,0.1c0.3,0.2,0.6,0.4,0.9,0.6
				c0,0,0,0,0.1,0c0.3,0.2,0.6,0.4,0.9,0.6c0,0,0,0,0.1,0c0.3,0.2,0.6,0.4,1,0.6l0.1,0.1c0.4,0.2,0.8,0.5,1.2,0.7l0,0
				c0.3,0.2,0.6,0.4,0.9,0.5c0,0,0.1,0,0.1,0.1c0.2,0.1,0.3,0.2,0.5,0.3L8.9,161L3,171.7c-1.7,3.1-0.6,7.1,2.5,8.8l12.3,6.9
				c3.1,1.7,7.1,0.6,8.8-2.5l6.8-12.1l0.2-0.4c0.2,0.1,0.4,0.2,0.5,0.3c0,0,0.1,0,0.1,0.1c0.4,0.2,0.7,0.4,1.1,0.5l0,0
				c0.4,0.2,0.7,0.4,1,0.5c0.1,0,0.1,0.1,0.2,0.1c0.3,0.2,0.7,0.3,1,0.5h0.1c0.3,0.2,0.7,0.3,1,0.5h0.1c0.3,0.1,0.7,0.3,1,0.4
				c0.1,0,0.1,0,0.2,0.1c0.3,0.1,0.7,0.3,1,0.4l0,0c8.1,3.3,14.5,3.5,18.5-3.7C66.2,160,60,138,42.7,128.4z"/>
			<g>
				<path class="st7" d="M58,169.2c6.4-11.4,0.6-32-15.7-41.1s-36.9-3.2-43.2,8.2c-3.9,7-0.2,12.2,7,17.3l0.1,0.1
					c0.3,0.2,0.6,0.4,0.8,0.6c0,0,0,0,0.1,0c0.3,0.2,0.6,0.4,0.9,0.6c0,0,0,0,0.1,0c0.3,0.2,0.6,0.4,0.9,0.6l0.1,0.1
					c0.6,0.4,1.3,0.8,1.9,1.2c0,0,0.1,0,0.1,0.1c0.2,0.1,0.3,0.2,0.5,0.3l-1,1.8L5,169c-1.6,2.9-0.6,6.7,2.4,8.3l11.6,6.5
					c2.9,1.6,6.7,0.6,8.3-2.4l6.4-11.4l0.2-0.3c0.2,0.1,0.3,0.2,0.5,0.3c0,0,0.1,0,0.1,0.1c0.3,0.2,0.7,0.3,1,0.5l0,0
					c0.3,0.2,0.7,0.3,1,0.5c0.1,0,0.1,0.1,0.1,0.1c0.3,0.2,0.6,0.3,1,0.5h0.1c0.3,0.1,0.6,0.3,0.9,0.4h0.1c0.3,0.1,0.6,0.3,0.9,0.4
					c0,0,0.1,0,0.1,0.1c0.3,0.1,0.6,0.3,0.9,0.4l0,0l0,0C48.3,175.8,54.3,176,58,169.2z"/>
				<g>
					<path class="st8" d="M9.5,146.3c0,0-6.1,1.9,2.5,6.7l-1.8,3.2c0.3,0.2,0.5,0.3,0.8,0.5c0,0,0.1,0,0.1,0.1
						c0.2,0.1,0.3,0.2,0.5,0.3l0.4-0.7l3.7-6.6C15.7,149.7,19.4,142.7,9.5,146.3z"/>
					<path class="st8" d="M44.1,165.6c-2.1-10.4-6.2-3.5-6.2-3.5l-3.7,6.6l-0.4,0.7c0.2,0.1,0.3,0.2,0.5,0.3c0,0,0.1,0,0.1,0.1
						c0.3,0.1,0.6,0.3,0.8,0.4L37,167C45.7,171.8,44.1,165.6,44.1,165.6z"/>
				</g>
			</g>
		</g>
	</g>
	<g>
		<defs>
			<path id="SVGID_13_" d="M145.9,170.2H34.1c-13.5,0-24.4-10.9-24.4-24.4V34.1c0-13.5,10.9-24.4,24.4-24.4h111.7
				c13.5,0,24.4,10.9,24.4,24.4v111.7C170.2,159.3,159.3,170.2,145.9,170.2z"/>
		</defs>
		<clipPath id="SVGID_14_">
			<use xlink:href="#SVGID_13_"  style="overflow:visible;"/>
		</clipPath>
		<g class="st14">
			<path class="st6" d="M-10.9,114c-4.2,19.4,8.1,38.6,21.7,41.5c8.4,1.8,12.5-3.5,15.4-12.4V143c0.1-0.3,0.2-0.7,0.3-1
				c0,0,0,0,0-0.1c0.1-0.3,0.2-0.7,0.3-1.1c0,0,0,0,0-0.1c0.1-0.4,0.2-0.7,0.3-1.1c0,0,0-0.1,0-0.2c0.1-0.4,0.2-0.9,0.3-1.3l0,0
				c0.1-0.3,0.2-0.7,0.3-1V137c0-0.2,0.1-0.4,0.1-0.6l2.1,0.5l11.9,2.6c3.5,0.8,7-1.5,7.7-5l3-13.8c0.8-3.5-1.5-7-5-7.7l-13.6-3
				l-0.4-0.1c0-0.2,0.1-0.4,0.1-0.6v-0.1c0.1-0.4,0.1-0.8,0.2-1.2l0,0c0.1-0.4,0.1-0.8,0.2-1.2c0-0.1,0-0.1,0-0.2
				c0.1-0.4,0.1-0.7,0.2-1.1v-0.1c0.1-0.4,0.1-0.7,0.2-1.1v-0.1c0-0.4,0.1-0.7,0.1-1.1c0-0.1,0-0.1,0-0.2c0-0.4,0.1-0.7,0.1-1.1l0,0
				c0.8-8.8-0.9-14.9-8.9-16.7C12.5,82.4-6.7,94.6-10.9,114z"/>
			<g>
				<path class="st7" d="M23.7,87.5C11,84.7-7.1,96.2-11.1,114.4s7.6,36.2,20.4,39c7.9,1.7,11.7-3.3,14.5-11.7v-0.1
					c0.1-0.3,0.2-0.6,0.3-1c0,0,0,0,0-0.1c0.1-0.3,0.2-0.7,0.3-1c0,0,0,0,0-0.1c0.1-0.3,0.2-0.7,0.3-1v-0.1c0.2-0.7,0.4-1.4,0.6-2.2
					V136c0-0.2,0.1-0.4,0.1-0.6l2,0.4l11.2,2.4c3.3,0.7,6.5-1.4,7.3-4.7l2.8-13c0.7-3.3-1.4-6.5-4.7-7.3l-12.8-2.8l-0.4-0.1
					c0-0.2,0.1-0.4,0.1-0.6v-0.1c0.1-0.4,0.1-0.7,0.2-1.1l0,0c0.1-0.4,0.1-0.7,0.2-1.1c0-0.1,0-0.1,0-0.2c0.1-0.4,0.1-0.7,0.2-1
					v-0.1c0.1-0.3,0.1-0.7,0.1-1V105c0-0.3,0.1-0.7,0.1-1c0-0.1,0-0.1,0-0.2c0-0.3,0.1-0.7,0.1-1l0,0l0,0
					C32.9,94.9,31.3,89.1,23.7,87.5z"/>
				<g>
					<path class="st8" d="M15.9,140.6c0,0,3.6,5.3,5.7-4.3l3.6,0.8c0.1-0.3,0.2-0.6,0.2-0.9v-0.1c0-0.2,0.1-0.4,0.1-0.6l-0.8-0.2
						l-7.4-1.6C17.4,133.7,9.5,132.1,15.9,140.6z"/>
					<path class="st8" d="M24.3,101.8c-9.3,5.1-1.5,6.9-1.5,6.9l7.4,1.6l0.8,0.2c0-0.2,0.1-0.4,0.1-0.6v-0.1
						c0.1-0.3,0.1-0.6,0.2-0.9l-3.6-0.8C29.8,98.5,24.3,101.8,24.3,101.8z"/>
				</g>
			</g>
		</g>
	</g>
	<g>
		<defs>
			<path id="SVGID_15_" d="M145.9,170.2H34.1c-13.5,0-24.4-10.9-24.4-24.4V34.1c0-13.5,10.9-24.4,24.4-24.4h111.7
				c13.5,0,24.4,10.9,24.4,24.4v111.7C170.2,159.3,159.3,170.2,145.9,170.2z"/>
		</defs>
		<clipPath id="SVGID_16_">
			<use xlink:href="#SVGID_15_"  style="overflow:visible;"/>
		</clipPath>
		<g class="st15">
			<path class="st6" d="M41.3,75.6c-12.8,15.2-10.8,37.9-0.2,46.8c6.6,5.5,12.7,2.7,19.4-3.8l0.1-0.1c0.3-0.2,0.5-0.5,0.8-0.8
				c0,0,0,0,0.1-0.1c0.3-0.3,0.5-0.5,0.8-0.8c0,0,0,0,0.1-0.1c0.3-0.3,0.5-0.5,0.8-0.8l0.1-0.1c0.3-0.3,0.6-0.7,0.9-1l0,0
				c0.2-0.2,0.5-0.5,0.7-0.8l0.1-0.1c0.1-0.2,0.3-0.3,0.4-0.5l1.7,1.4l9.3,7.8c2.7,2.3,6.8,2,9.2-0.8l9.1-10.8
				c2.3-2.7,2-6.8-0.8-9.1l-10.6-9L83,92.6c0.1-0.2,0.3-0.3,0.4-0.5l0.1-0.1c0.2-0.3,0.5-0.6,0.7-0.9l0,0c0.2-0.3,0.5-0.6,0.7-0.9
				l0.1-0.1c0.2-0.3,0.5-0.6,0.7-0.9c0,0,0-0.1,0.1-0.1c0.2-0.3,0.4-0.6,0.6-0.9c0,0,0-0.1,0.1-0.1c0.2-0.3,0.4-0.6,0.6-0.9l0.1-0.1
				c0.2-0.3,0.4-0.6,0.6-0.9l0,0c4.8-7.4,6.2-13.6-0.1-18.9C76.8,58.5,54.1,60.4,41.3,75.6z"/>
			<g>
				<path class="st7" d="M84.4,68.2c-10-8.4-31.3-6.6-43.3,7.6c-12,14.3-10.1,35.6-0.2,44c6.2,5.2,11.9,2.5,18.3-3.6l0.1-0.1
					c0.2-0.2,0.5-0.5,0.7-0.7l0,0c0.2-0.2,0.5-0.5,0.7-0.7c0,0,0,0,0-0.1c0.2-0.3,0.5-0.5,0.7-0.8l0.1-0.1c0.5-0.5,1-1.1,1.5-1.7
					l0.1-0.1c0.1-0.1,0.3-0.3,0.4-0.4l1.6,1.3l8.7,7.4c2.6,2.2,6.4,1.8,8.6-0.7l8.6-10.2c2.2-2.6,1.8-6.4-0.7-8.6l-10-8.4L80,92
					c0.1-0.1,0.2-0.3,0.4-0.4l0.1-0.1c0.2-0.3,0.5-0.6,0.7-0.9l0,0c0.2-0.3,0.4-0.6,0.7-0.9l0.1-0.1c0.2-0.3,0.4-0.6,0.6-0.9
					c0,0,0,0,0.1-0.1c0.2-0.3,0.4-0.5,0.6-0.8c0,0,0,0,0.1-0.1c0.2-0.3,0.4-0.6,0.6-0.8l0.1-0.1c0.2-0.3,0.4-0.6,0.6-0.8l0,0l0,0
					C89,79.1,90.3,73.2,84.4,68.2z"/>
				<g>
					<path class="st8" d="M52.6,111.6c0,0,0.7,6.4,7.1-1.2l2.8,2.4c0.2-0.2,0.4-0.5,0.6-0.7l0.1-0.1c0.1-0.1,0.3-0.3,0.4-0.4L63,111
						l-5.8-4.9C57.2,106.1,50.9,101.1,52.6,111.6z"/>
					<path class="st8" d="M78.2,81.2c-10.6,0.1-4.6,5.4-4.6,5.4l5.8,4.9L80,92c0.1-0.1,0.2-0.3,0.4-0.4l0.1-0.1
						c0.2-0.2,0.4-0.5,0.6-0.7l-2.8-2.4C84.6,80.8,78.2,81.2,78.2,81.2z"/>
				</g>
			</g>
		</g>
	</g>
	<g>
		<defs>
			<path id="SVGID_17_" d="M145.9,170.2H34.1c-13.5,0-24.4-10.9-24.4-24.4V34.1c0-13.5,10.9-24.4,24.4-24.4h111.7
				c13.5,0,24.4,10.9,24.4,24.4v111.7C170.2,159.3,159.3,170.2,145.9,170.2z"/>
		</defs>
		<clipPath id="SVGID_18_">
			<use xlink:href="#SVGID_17_"  style="overflow:visible;"/>
		</clipPath>
		<g class="st16">
			<path class="st6" d="M154.4,9.4c-17.3-9.7-39.2-3.4-46,8.7c-4.2,7.5-0.2,13,7.4,18.4l0.1,0.1c0.3,0.2,0.6,0.4,0.9,0.6
				c0,0,0,0,0.1,0c0.3,0.2,0.6,0.4,0.9,0.6c0,0,0,0,0.1,0c0.3,0.2,0.6,0.4,1,0.6l0.1,0.1c0.4,0.2,0.8,0.5,1.2,0.7l0,0
				c0.3,0.2,0.6,0.4,0.9,0.5c0,0,0.1,0,0.1,0.1c0.2,0.1,0.3,0.2,0.5,0.3l-1.1,1.9l-5.9,10.6c-1.7,3.1-0.6,7.1,2.5,8.8l12.3,6.9
				c3.1,1.7,7.1,0.6,8.8-2.5l6.8-12.1l0.2-0.4c0.2,0.1,0.4,0.2,0.5,0.3c0,0,0.1,0,0.1,0.1c0.4,0.2,0.7,0.4,1.1,0.5l0,0
				c0.4,0.2,0.7,0.4,1,0.5c0.1,0,0.1,0.1,0.2,0.1c0.3,0.2,0.7,0.3,1,0.5h0.1c0.3,0.2,0.7,0.3,1,0.5h0.1c0.3,0.1,0.7,0.3,1,0.4
				c0.1,0,0.1,0,0.2,0.1c0.3,0.1,0.7,0.3,1,0.4l0,0c8.1,3.3,14.5,3.5,18.5-3.7C177.9,41.1,171.7,19.1,154.4,9.4z"/>
			<g>
				<path class="st7" d="M169.8,50.3c6.4-11.4,0.6-32-15.7-41.1s-36.9-3.2-43.2,8.2c-3.9,7-0.2,12.2,7,17.3l0.1,0.1
					c0.3,0.2,0.6,0.4,0.8,0.6c0,0,0,0,0.1,0c0.3,0.2,0.6,0.4,0.9,0.6c0,0,0,0,0.1,0c0.3,0.2,0.6,0.4,0.9,0.6l0.1,0.1
					c0.6,0.4,1.3,0.8,1.9,1.2c0,0,0.1,0,0.1,0.1c0.2,0.1,0.3,0.2,0.5,0.3l-1,1.8l-5.6,10c-1.6,2.9-0.6,6.7,2.4,8.3l11.6,6.5
					c2.9,1.6,6.7,0.6,8.3-2.4l6.4-11.4l0.2-0.3c0.2,0.1,0.3,0.2,0.5,0.3c0,0,0.1,0,0.1,0.1c0.3,0.2,0.7,0.3,1,0.5l0,0
					c0.3,0.2,0.7,0.3,1,0.5c0.1,0,0.1,0.1,0.1,0.1c0.3,0.2,0.6,0.3,1,0.5h0.1c0.3,0.1,0.6,0.3,0.9,0.4h0.1c0.3,0.1,0.6,0.3,0.9,0.4
					c0,0,0.1,0,0.1,0.1c0.3,0.1,0.6,0.3,0.9,0.4l0,0l0,0C160,56.9,166,57.1,169.8,50.3z"/>
				<g>
					<path class="st8" d="M121.2,27.4c0,0-6.1,1.9,2.5,6.7l-1.8,3.2c0.3,0.2,0.5,0.3,0.8,0.5c0,0,0.1,0,0.1,0.1
						c0.2,0.1,0.3,0.2,0.5,0.3l0.4-0.7l3.7-6.6C127.4,30.8,131.1,23.7,121.2,27.4z"/>
					<path class="st8" d="M155.8,46.7c-2.1-10.4-6.2-3.5-6.2-3.5l-3.7,6.6l-0.4,0.7c0.2,0.1,0.3,0.2,0.5,0.3c0,0,0.1,0,0.1,0.1
						c0.3,0.1,0.6,0.3,0.8,0.4l1.8-3.2C157.4,52.9,155.8,46.7,155.8,46.7z"/>
				</g>
			</g>
		</g>
	</g>
	<g>
		<defs>
			<path id="SVGID_19_" d="M145.9,170.2H34.1c-13.5,0-24.4-10.9-24.4-24.4V34.1c0-13.5,10.9-24.4,24.4-24.4h111.7
				c13.5,0,24.4,10.9,24.4,24.4v111.7C170.2,159.3,159.3,170.2,145.9,170.2z"/>
		</defs>
		<clipPath id="SVGID_20_">
			<use xlink:href="#SVGID_19_"  style="overflow:visible;"/>
		</clipPath>
		<g class="st17">
			<path class="st6" d="M44.6-13.7C26.1-6.4,17.1,14.5,22.2,27.4c3.1,8,9.9,8.4,18.9,5.9h0.1c0.3-0.1,0.7-0.2,1-0.3c0,0,0,0,0.1,0
				c0.3-0.1,0.7-0.2,1.1-0.3c0,0,0,0,0.1,0c0.4-0.1,0.7-0.2,1.1-0.4c0,0,0.1,0,0.1-0.1c0.4-0.1,0.9-0.3,1.3-0.5l0,0
				c0.3-0.1,0.6-0.2,1-0.3h0.1c0.2-0.1,0.4-0.1,0.6-0.2l0.8,2L53,44.5c1.3,3.3,5.1,5,8.4,3.7L74.5,43c3.3-1.3,5-5.1,3.7-8.4
				l-5.1-12.9l-0.2-0.4c0.2-0.1,0.4-0.2,0.6-0.2c0,0,0.1,0,0.1-0.1c0.4-0.2,0.7-0.3,1.1-0.5l0,0c0.4-0.2,0.7-0.3,1.1-0.5
				c0.1,0,0.1,0,0.2-0.1c0.3-0.2,0.7-0.3,1-0.5h0.1c0.3-0.2,0.7-0.3,1-0.5h0.1c0.3-0.2,0.6-0.3,1-0.5c0.1,0,0.1,0,0.1-0.1
				c0.3-0.2,0.6-0.3,0.9-0.5l0,0c7.7-4.2,11.9-9,8.9-16.7C83.9-11.9,63-21,44.6-13.7z"/>
			<g>
				<path class="st7" d="M85.9,0.3c-4.8-12.2-24.4-20.7-41.8-13.9c-17.3,6.8-25.8,26.5-21,38.7c3,7.5,9.3,7.9,17.8,5.5H41
					c0.3-0.1,0.7-0.2,1-0.3c0,0,0,0,0.1,0c0.3-0.1,0.7-0.2,1-0.3c0,0,0,0,0.1,0c0.3-0.1,0.7-0.2,1-0.3h0.1c0.7-0.2,1.4-0.5,2.1-0.7
					h0.1c0.2-0.1,0.4-0.1,0.5-0.2l0.7,1.9L52,41c1.2,3.1,4.8,4.7,7.9,3.4l12.4-4.9c3.1-1.2,4.7-4.8,3.4-7.9l-4.8-12.2L70.8,19
					c0.2-0.1,0.3-0.1,0.5-0.2c0,0,0.1,0,0.1-0.1c0.3-0.1,0.7-0.3,1-0.4l0,0c0.3-0.1,0.7-0.3,1-0.4c0.1,0,0.1,0,0.2-0.1
					c0.3-0.1,0.6-0.3,1-0.4h0.1c0.3-0.1,0.6-0.3,0.9-0.4h0.1c0.3-0.2,0.6-0.3,0.9-0.5c0,0,0.1,0,0.1-0.1c0.3-0.2,0.6-0.3,0.9-0.5
					l0,0l0,0C84.8,12,88.7,7.5,85.9,0.3z"/>
				<g>
					<path class="st8" d="M37.4,23.3c0,0-2.4,5.9,6.8,2.3l1.4,3.4c0.3-0.1,0.6-0.2,0.9-0.3h0.1c0.2-0.1,0.4-0.1,0.5-0.2l-0.3-0.8
						l-2.8-7C44,20.7,40.9,13.3,37.4,23.3z"/>
					<path class="st8" d="M74.3,8.8c-9.4-4.9-6.6,2.6-6.6,2.6l2.8,7l0.3,0.8c0.2-0.1,0.3-0.1,0.5-0.2c0,0,0.1,0,0.1-0.1
						c0.3-0.1,0.6-0.3,0.9-0.4l-1.4-3.4C80.1,11.5,74.3,8.8,74.3,8.8z"/>
				</g>
			</g>
		</g>
	</g>
	<g>
		<defs>
			<path id="SVGID_21_" d="M145.9,170.2H34.1c-13.5,0-24.4-10.9-24.4-24.4V34.1c0-13.5,10.9-24.4,24.4-24.4h111.7
				c13.5,0,24.4,10.9,24.4,24.4v111.7C170.2,159.3,159.3,170.2,145.9,170.2z"/>
		</defs>
		<clipPath id="SVGID_22_">
			<use xlink:href="#SVGID_21_"  style="overflow:visible;"/>
		</clipPath>
		<g class="st18">
			<path class="st6" d="M89.6,32.2c16.6,10.9,38.9,6.2,46.5-5.4c4.7-7.2,1.2-12.9-6.1-18.9l-0.1-0.1c-0.3-0.2-0.6-0.5-0.9-0.7
				c0,0,0,0-0.1,0c-0.3-0.2-0.6-0.4-0.9-0.7c0,0,0,0-0.1,0c-0.3-0.2-0.6-0.5-0.9-0.7l-0.1-0.1c-0.4-0.3-0.7-0.5-1.1-0.8l0,0
				c-0.3-0.2-0.6-0.4-0.8-0.6l-0.1-0.1c-0.2-0.1-0.3-0.2-0.5-0.3l1.2-1.8l6.7-10.2c2-3,1.1-7-1.9-9L118.6-25c-3-2-7-1.1-9,1.9
				L102-11.4l-0.2,0.4c-0.2-0.1-0.3-0.2-0.5-0.3l-0.1-0.1c-0.3-0.2-0.7-0.4-1-0.6l0,0c-0.3-0.2-0.7-0.4-1-0.6
				c-0.1,0-0.1-0.1-0.2-0.1c-0.3-0.2-0.7-0.4-1-0.6h-0.1c-0.3-0.2-0.6-0.4-0.9-0.5h-0.1c-0.3-0.2-0.6-0.3-0.9-0.5l-0.1-0.1
				c-0.3-0.2-0.6-0.3-0.9-0.5l0,0c-7.9-3.9-14.2-4.5-18.8,2.4C68.5-1,73,21.3,89.6,32.2z"/>
			<g>
				<path class="st7" d="M77.2-9.7C70,1.2,74.3,22.2,89.9,32.4s36.5,5.8,43.7-5.1c4.4-6.7,1.1-12.1-5.7-17.7l-0.1-0.1
					c-0.3-0.2-0.5-0.4-0.8-0.6c0,0,0,0-0.1,0c-0.3-0.2-0.5-0.4-0.8-0.6c0,0,0,0-0.1,0c-0.3-0.2-0.6-0.4-0.9-0.6L125,7.6
					c-0.6-0.4-1.2-0.9-1.8-1.3l-0.1-0.1c-0.2-0.1-0.3-0.2-0.5-0.3l1.1-1.7l6.3-9.6c1.9-2.8,1.1-6.6-1.7-8.4l-11.1-7.3
					c-2.8-1.8-6.6-1.1-8.4,1.8l-7.2,10.9l-0.2,0.3c-0.2-0.1-0.3-0.2-0.5-0.3c0,0-0.1,0-0.1-0.1c-0.3-0.2-0.6-0.4-1-0.6l0,0
					c-0.3-0.2-0.6-0.4-0.9-0.6l-0.1-0.1c-0.3-0.2-0.6-0.4-0.9-0.5h-0.1c-0.3-0.2-0.6-0.3-0.9-0.5h-0.1c-0.3-0.2-0.6-0.3-0.9-0.5
					c0,0-0.1,0-0.1-0.1c-0.3-0.2-0.6-0.3-0.9-0.5l0,0l0,0C87.5-15.6,81.5-16.1,77.2-9.7z"/>
				<g>
					<path class="st8" d="M124,16.7c0,0,6.2-1.5-2-6.9l2-3.1c-0.3-0.2-0.5-0.4-0.8-0.6L123.1,6c-0.2-0.1-0.3-0.2-0.5-0.3l-0.4,0.7
						l-4.1,6.3C118.1,12.8,113.8,19.6,124,16.7z"/>
					<path class="st8" d="M90.9-5.1c1.4,10.5,5.9,3.9,5.9,3.9l4.1-6.3l0.4-0.7c-0.2-0.1-0.3-0.2-0.5-0.3c0,0-0.1,0-0.1-0.1
						c-0.3-0.2-0.5-0.3-0.8-0.5L98-6C89.7-11.4,90.9-5.1,90.9-5.1z"/>
				</g>
			</g>
		</g>
	</g>
	<g>
		<defs>
			<path id="SVGID_23_" d="M145.9,170.2H34.1c-13.5,0-24.4-10.9-24.4-24.4V34.1c0-13.5,10.9-24.4,24.4-24.4h111.7
				c13.5,0,24.4,10.9,24.4,24.4v111.7C170.2,159.3,159.3,170.2,145.9,170.2z"/>
		</defs>
		<clipPath id="SVGID_24_">
			<use xlink:href="#SVGID_23_"  style="overflow:visible;"/>
		</clipPath>
		<g class="st19">
			<path class="st6" d="M135.3,93.5c16.6,10.9,38.9,6.2,46.5-5.4c4.7-7.2,1.2-12.9-6.1-18.9l-0.1-0.1c-0.3-0.2-0.6-0.5-0.9-0.7
				c0,0,0,0-0.1,0c-0.3-0.2-0.6-0.4-0.9-0.7c0,0,0,0-0.1,0c-0.3-0.2-0.6-0.5-0.9-0.7l-0.1-0.1c-0.4-0.3-0.7-0.5-1.1-0.8l0,0
				c-0.3-0.2-0.6-0.4-0.8-0.6l-0.1-0.1c-0.2-0.1-0.3-0.2-0.5-0.3l1.2-1.8l6.7-10.2c2-3,1.1-7-1.9-9l-11.8-7.8c-3-2-7-1.1-9,1.9
				l-7.6,11.6l-0.2,0.4c-0.2-0.1-0.3-0.2-0.5-0.3l-0.1-0.1c-0.3-0.2-0.7-0.4-1-0.6l0,0c-0.3-0.2-0.7-0.4-1-0.6
				c-0.1,0-0.1-0.1-0.2-0.1c-0.3-0.2-0.7-0.4-1-0.6h-0.1c-0.3-0.2-0.6-0.4-0.9-0.5h-0.1c-0.3-0.2-0.6-0.3-0.9-0.5l-0.1-0.1
				c-0.3-0.2-0.6-0.3-0.9-0.5l0,0c-7.9-3.9-14.2-4.5-18.8,2.4C114.1,60.3,118.7,82.6,135.3,93.5z"/>
			<g>
				<path class="st7" d="M122.9,51.7c-7.2,10.9-2.9,31.9,12.7,42.1s36.5,5.8,43.7-5.1c4.4-6.7,1.1-12.1-5.7-17.7l-0.1-0.1
					c-0.3-0.2-0.5-0.4-0.8-0.6c0,0,0,0-0.1,0c-0.3-0.2-0.5-0.4-0.8-0.6c0,0,0,0-0.1,0c-0.3-0.2-0.6-0.4-0.9-0.6l-0.1-0.1
					c-0.6-0.4-1.2-0.9-1.8-1.3l-0.1-0.1c-0.2-0.1-0.3-0.2-0.5-0.3l1.1-1.7l6.3-9.6c1.9-2.8,1.1-6.6-1.7-8.4l-11.1-7.3
					c-2.8-1.8-6.6-1.1-8.4,1.8L147.3,53l-0.2,0.3c-0.2-0.1-0.3-0.2-0.5-0.3c0,0-0.1,0-0.1-0.1c-0.3-0.2-0.6-0.4-1-0.6l0,0
					c-0.3-0.2-0.6-0.4-0.9-0.6l-0.1-0.1c-0.3-0.2-0.6-0.4-0.9-0.5h-0.1c-0.3-0.2-0.6-0.3-0.9-0.5h-0.1c-0.3-0.2-0.6-0.3-0.9-0.5
					c0,0-0.1,0-0.1-0.1c-0.3-0.2-0.6-0.3-0.9-0.5l0,0l0,0C133.1,45.8,127.1,45.2,122.9,51.7z"/>
				<g>
					<path class="st8" d="M169.7,78c0,0,6.2-1.5-2-6.9l2-3.1c-0.3-0.2-0.5-0.4-0.8-0.6l-0.1-0.1c-0.2-0.1-0.3-0.2-0.5-0.3l-0.4,0.7
						l-4.1,6.3C163.8,74.1,159.5,80.9,169.7,78z"/>
					<path class="st8" d="M136.5,56.3c1.4,10.5,5.9,3.9,5.9,3.9l4.1-6.3l0.4-0.7c-0.2-0.1-0.3-0.2-0.5-0.3c0,0-0.1,0-0.1-0.1
						c-0.3-0.2-0.5-0.3-0.8-0.5l-2,3.1C135.4,50,136.5,56.3,136.5,56.3z"/>
				</g>
			</g>
		</g>
	</g>
	<g>
		<defs>
			<path id="SVGID_25_" d="M145.9,170.2H34.1c-13.5,0-24.4-10.9-24.4-24.4V34.1c0-13.5,10.9-24.4,24.4-24.4h111.7
				c13.5,0,24.4,10.9,24.4,24.4v111.7C170.2,159.3,159.3,170.2,145.9,170.2z"/>
		</defs>
		<clipPath id="SVGID_26_">
			<use xlink:href="#SVGID_25_"  style="overflow:visible;"/>
		</clipPath>
		<g class="st20">
			<path class="st6" d="M152.4,126c14.6-13.4,15.5-36.2,6.1-46.4c-5.8-6.3-12.3-4.3-19.8,1.3l-0.1,0.1c-0.3,0.2-0.6,0.4-0.9,0.7
				c0,0,0,0-0.1,0c-0.3,0.2-0.6,0.5-0.9,0.7c0,0,0,0-0.1,0c-0.3,0.2-0.6,0.5-0.9,0.7l-0.1,0.1c-0.3,0.3-0.7,0.6-1.1,0.9l0,0
				c-0.3,0.2-0.5,0.4-0.8,0.7l-0.1,0.1c-0.2,0.1-0.3,0.3-0.5,0.4l-1.5-1.6l-8.2-9c-2.4-2.6-6.5-2.8-9.2-0.4l-10.4,9.6
				c-2.6,2.4-2.8,6.5-0.4,9.2l9.4,10.2l0.3,0.3c-0.1,0.1-0.3,0.3-0.4,0.4l-0.1,0.1c-0.3,0.3-0.6,0.6-0.9,0.8l0,0
				c-0.3,0.3-0.6,0.6-0.8,0.8l-0.1,0.1c-0.3,0.3-0.5,0.5-0.8,0.8c0,0,0,0-0.1,0.1c-0.3,0.3-0.5,0.5-0.7,0.8c0,0,0,0-0.1,0.1
				c-0.2,0.3-0.5,0.5-0.7,0.8l-0.1,0.1c-0.2,0.3-0.5,0.5-0.7,0.8l0,0c-5.7,6.7-7.9,12.7-2.3,18.8C115,138.4,137.8,139.5,152.4,126z"
				/>
			<g>
				<path class="st7" d="M108.8,127.8c8.8,9.6,30.2,10.6,44-2c13.7-12.6,14.6-34,5.8-43.6c-5.4-5.9-11.5-4-18.6,1.2l-0.1,0.1
					c-0.3,0.2-0.5,0.4-0.8,0.6c0,0,0,0-0.1,0c-0.3,0.2-0.5,0.4-0.8,0.6c0,0,0,0-0.1,0c-0.3,0.2-0.6,0.4-0.8,0.7l-0.1,0.1
					c-0.6,0.5-1.1,1-1.7,1.5l-0.1,0.1c-0.1,0.1-0.3,0.3-0.4,0.4l-1.4-1.5l-7.7-8.4c-2.3-2.5-6.1-2.6-8.6-0.4l-9.8,9
					c-2.5,2.3-2.6,6.1-0.4,8.6l8.8,9.6l0.3,0.3c-0.1,0.1-0.3,0.3-0.4,0.4l-0.1,0.1c-0.3,0.3-0.5,0.5-0.8,0.8l0,0
					c-0.3,0.3-0.5,0.5-0.8,0.8l-0.1,0.1c-0.3,0.3-0.5,0.5-0.7,0.8c0,0,0,0-0.1,0.1c-0.2,0.2-0.5,0.5-0.7,0.7c0,0,0,0-0.1,0.1
					c-0.2,0.3-0.5,0.5-0.7,0.7l-0.1,0.1c-0.2,0.3-0.4,0.5-0.7,0.7l0,0l0,0C105.5,116.5,103.5,122.1,108.8,127.8z"/>
				<g>
					<path class="st8" d="M145.8,88.9c0,0,0.1-6.4-7.1,0.3l-2.5-2.7c-0.2,0.2-0.5,0.4-0.7,0.6l-0.1,0.1c-0.1,0.1-0.3,0.3-0.4,0.4
						l0.6,0.6l5.1,5.6C140.5,93.7,146.1,99.5,145.8,88.9z"/>
					<path class="st8" d="M116.5,115.7c10.5,1.2,5.2-4.8,5.2-4.8l-5.1-5.6l-0.6-0.6c-0.1,0.1-0.3,0.3-0.4,0.4l-0.1,0.1
						c-0.2,0.2-0.5,0.4-0.7,0.7l2.5,2.7C110.2,115.3,116.5,115.7,116.5,115.7z"/>
				</g>
			</g>
		</g>
	</g>
	<g>
		<defs>
			<path id="SVGID_27_" d="M145.9,170.2H34.1c-13.5,0-24.4-10.9-24.4-24.4V34.1c0-13.5,10.9-24.4,24.4-24.4h111.7
				c13.5,0,24.4,10.9,24.4,24.4v111.7C170.2,159.3,159.3,170.2,145.9,170.2z"/>
		</defs>
		<clipPath id="SVGID_28_">
			<use xlink:href="#SVGID_27_"  style="overflow:visible;"/>
		</clipPath>
		<g class="st21">
			<path class="st6" d="M113.1,145.1c-17.9-8.6-39.4-1-45.4,11.5c-3.7,7.7,0.6,13,8.6,17.9l0.1,0.1c0.3,0.2,0.6,0.4,0.9,0.6
				c0,0,0,0,0.1,0c0.3,0.2,0.6,0.4,1,0.6c0,0,0,0,0.1,0c0.3,0.2,0.7,0.4,1,0.6c0,0,0.1,0,0.1,0.1c0.4,0.2,0.8,0.4,1.2,0.6l0,0
				c0.3,0.2,0.6,0.3,0.9,0.5c0,0,0.1,0,0.1,0.1c0.2,0.1,0.4,0.2,0.5,0.3l-0.9,1.9l-5.3,11c-1.6,3.2-0.2,7.1,3,8.7l12.7,6.1
				c3.2,1.6,7.1,0.2,8.7-3l6-12.5l0.2-0.4c0.2,0.1,0.4,0.2,0.5,0.2c0,0,0.1,0,0.1,0.1c0.4,0.2,0.7,0.3,1.1,0.5l0,0
				c0.4,0.2,0.7,0.3,1.1,0.5c0.1,0,0.1,0,0.2,0.1c0.4,0.1,0.7,0.3,1,0.4h0.1c0.3,0.1,0.7,0.3,1,0.4h0.1c0.3,0.1,0.7,0.3,1,0.4
				c0.1,0,0.1,0,0.2,0.1c0.3,0.1,0.7,0.2,1,0.4l0,0c8.3,2.8,14.7,2.6,18.3-4.8C138.5,175.2,131,153.7,113.1,145.1z"/>
			<g>
				<path class="st7" d="M130.9,184.9c5.7-11.8-1.4-32-18.2-40.1s-37-0.9-42.7,10.8c-3.5,7.3,0.5,12.2,8,16.8c0,0,0.1,0,0.1,0.1
					c0.3,0.2,0.6,0.4,0.9,0.5c0,0,0,0,0.1,0c0.3,0.2,0.6,0.3,0.9,0.5c0,0,0,0,0.1,0c0.3,0.2,0.6,0.3,0.9,0.5c0,0,0.1,0,0.1,0.1
					c0.6,0.4,1.3,0.7,2,1.1c0,0,0.1,0,0.1,0.1c0.2,0.1,0.3,0.2,0.5,0.3l-0.9,1.8L78,187.8c-1.5,3-0.2,6.7,2.9,8.1l12,5.7
					c3,1.5,6.7,0.2,8.1-2.9l5.7-11.8l0.2-0.4c0.2,0.1,0.3,0.2,0.5,0.2c0,0,0.1,0,0.1,0.1c0.3,0.2,0.7,0.3,1,0.5l0,0
					c0.3,0.1,0.7,0.3,1,0.4c0.1,0,0.1,0,0.2,0.1c0.3,0.1,0.7,0.3,1,0.4h0.1c0.3,0.1,0.6,0.3,0.9,0.4h0.1c0.3,0.1,0.6,0.2,0.9,0.4
					c0,0,0.1,0,0.1,0.1c0.3,0.1,0.6,0.2,0.9,0.3l0,0l0,0C121.6,192.1,127.6,191.9,130.9,184.9z"/>
				<g>
					<path class="st8" d="M81,165c0,0-6,2.3,2.9,6.5l-1.6,3.3c0.3,0.1,0.6,0.3,0.8,0.4c0,0,0.1,0,0.1,0.1c0.2,0.1,0.3,0.2,0.5,0.3
						l0.4-0.7l3.3-6.8C87.4,168.1,90.8,160.8,81,165z"/>
					<path class="st8" d="M116.8,182.2c-2.8-10.2-6.4-3.1-6.4-3.1l-3.3,6.8l-0.4,0.7c0.2,0.1,0.3,0.2,0.5,0.2c0,0,0.1,0,0.1,0.1
						c0.3,0.1,0.6,0.3,0.9,0.4l1.6-3.3C118.8,188.3,116.8,182.2,116.8,182.2z"/>
				</g>
			</g>
		</g>
	</g>
	<g>
		<defs>
			<path id="SVGID_29_" d="M145.9,170.2H34.1c-13.5,0-24.4-10.9-24.4-24.4V34.1c0-13.5,10.9-24.4,24.4-24.4h111.7
				c13.5,0,24.4,10.9,24.4,24.4v111.7C170.2,159.3,159.3,170.2,145.9,170.2z"/>
		</defs>
		<clipPath id="SVGID_30_">
			<use xlink:href="#SVGID_29_"  style="overflow:visible;"/>
		</clipPath>
		<g class="st22">
			<path class="st6" d="M178.6,99.6c-17.9-8.6-39.4-1-45.4,11.5c-3.7,7.7,0.6,13,8.6,17.9l0.1,0.1c0.3,0.2,0.6,0.4,0.9,0.6
				c0,0,0,0,0.1,0c0.3,0.2,0.6,0.4,1,0.6c0,0,0,0,0.1,0c0.3,0.2,0.7,0.4,1,0.6c0,0,0.1,0,0.1,0.1c0.4,0.2,0.8,0.4,1.2,0.6l0,0
				c0.3,0.2,0.6,0.3,0.9,0.5c0,0,0.1,0,0.1,0.1c0.2,0.1,0.4,0.2,0.5,0.3l-0.9,1.9l-5.3,11c-1.6,3.2-0.2,7.1,3,8.7l12.7,6.1
				c3.2,1.6,7.1,0.2,8.7-3l6-12.5l0.2-0.4c0.2,0.1,0.4,0.2,0.5,0.2c0,0,0.1,0,0.1,0.1c0.4,0.2,0.7,0.3,1.1,0.5l0,0
				c0.4,0.2,0.7,0.3,1.1,0.5c0.1,0,0.1,0,0.2,0.1c0.4,0.1,0.7,0.3,1,0.4h0.1c0.3,0.1,0.7,0.3,1,0.4h0.1c0.3,0.1,0.7,0.3,1,0.4
				c0.1,0,0.1,0,0.2,0.1c0.3,0.1,0.7,0.2,1,0.4l0,0c8.3,2.8,14.7,2.6,18.3-4.8C204,129.7,196.5,108.2,178.6,99.6z"/>
			<g>
				<path class="st7" d="M196.5,139.4c5.7-11.8-1.4-32-18.2-40.1s-37-0.9-42.7,10.8c-3.5,7.3,0.5,12.2,8,16.8c0,0,0.1,0,0.1,0.1
					c0.3,0.2,0.6,0.4,0.9,0.5c0,0,0,0,0.1,0c0.3,0.2,0.6,0.3,0.9,0.5c0,0,0,0,0.1,0c0.3,0.2,0.6,0.3,0.9,0.5c0,0,0.1,0,0.1,0.1
					c0.6,0.4,1.3,0.7,2,1.1c0,0,0.1,0,0.1,0.1c0.2,0.1,0.3,0.2,0.5,0.3l-0.9,1.8l-4.9,10.3c-1.5,3-0.2,6.7,2.9,8.1l12,5.7
					c3,1.5,6.7,0.2,8.1-2.9l5.7-11.8l0.2-0.4c0.2,0.1,0.3,0.2,0.5,0.2c0,0,0.1,0,0.1,0.1c0.3,0.2,0.7,0.3,1,0.5l0,0
					c0.3,0.1,0.7,0.3,1,0.4c0.1,0,0.1,0,0.2,0.1c0.3,0.1,0.7,0.3,1,0.4h0.1c0.3,0.1,0.6,0.3,0.9,0.4h0.1c0.3,0.1,0.6,0.2,0.9,0.4
					c0,0,0.1,0,0.1,0.1c0.3,0.1,0.6,0.2,0.9,0.3l0,0l0,0C187.1,146.6,193.1,146.4,196.5,139.4z"/>
				<g>
					<path class="st8" d="M146.6,119.5c0,0-6,2.3,2.9,6.5l-1.6,3.3c0.3,0.1,0.6,0.3,0.8,0.4c0,0,0.1,0,0.1,0.1
						c0.2,0.1,0.3,0.2,0.5,0.3l0.4-0.7l3.3-6.8C153,122.6,156.3,115.3,146.6,119.5z"/>
					<path class="st8" d="M182.4,136.7c-2.8-10.2-6.4-3.1-6.4-3.1l-3.3,6.8l-0.4,0.7c0.2,0.1,0.3,0.2,0.5,0.2c0,0,0.1,0,0.1,0.1
						c0.3,0.1,0.6,0.3,0.9,0.4l1.6-3.3C184.3,142.8,182.4,136.7,182.4,136.7z"/>
				</g>
			</g>
		</g>
	</g>
	<g>
		<defs>
			<path id="SVGID_31_" d="M145.9,170.2H34.1c-13.5,0-24.4-10.9-24.4-24.4V34.1c0-13.5,10.9-24.4,24.4-24.4h111.7
				c13.5,0,24.4,10.9,24.4,24.4v111.7C170.2,159.3,159.3,170.2,145.9,170.2z"/>
		</defs>
		<clipPath id="SVGID_32_">
			<use xlink:href="#SVGID_31_"  style="overflow:visible;"/>
		</clipPath>
		<g class="st23">
			<path class="st6" d="M118.5,117.6c-18.5,7.1-27.8,27.9-22.8,40.9c3.1,8,9.8,8.5,18.9,6.1h0.1c0.3-0.1,0.7-0.2,1-0.3
				c0,0,0,0,0.1,0c0.4-0.1,0.7-0.2,1.1-0.3c0,0,0,0,0.1,0c0.4-0.1,0.7-0.2,1.1-0.3h0.1c0.4-0.1,0.9-0.3,1.3-0.4l0,0
				c0.3-0.1,0.6-0.2,1-0.3h0.1c0.2-0.1,0.4-0.1,0.6-0.2l0.8,2l4.3,11.4c1.3,3.4,5,5,8.4,3.8l13.2-5c3.3-1.3,5-5,3.7-8.4l-5-13
				l-0.2-0.4c0.2-0.1,0.4-0.2,0.6-0.2c0,0,0.1,0,0.1-0.1c0.4-0.2,0.7-0.3,1.1-0.5l0,0c0.4-0.2,0.7-0.3,1.1-0.5c0.1,0,0.1,0,0.2-0.1
				c0.3-0.2,0.7-0.3,1-0.5h0.1c0.3-0.2,0.7-0.3,1-0.5h0.1c0.3-0.2,0.6-0.3,1-0.5c0.1,0,0.1,0,0.1-0.1c0.3-0.2,0.6-0.3,0.9-0.5l0,0
				c7.8-4.1,12-8.9,9.1-16.6C157.9,119.8,137.1,110.5,118.5,117.6z"/>
			<g>
				<path class="st7" d="M159.7,132c-4.7-12.2-24.2-21-41.6-14.3S92,143.9,96.6,156.1c2.9,7.5,9.2,8,17.7,5.7h0.1
					c0.3-0.1,0.7-0.2,1-0.3c0,0,0,0,0.1,0c0.3-0.1,0.7-0.2,1-0.3c0,0,0,0,0.1,0c0.3-0.1,0.7-0.2,1-0.3h0.1c0.7-0.2,1.4-0.5,2.1-0.7
					h0.1c0.2-0.1,0.4-0.1,0.5-0.2l0.7,1.9l4.1,10.7c1.2,3.1,4.7,4.7,7.9,3.5l12.4-4.7c3.1-1.2,4.7-4.7,3.5-7.9l-4.7-12.2l-0.1-0.4
					c0.2-0.1,0.3-0.1,0.5-0.2c0,0,0.1,0,0.1-0.1c0.3-0.1,0.7-0.3,1-0.4l0,0c0.3-0.1,0.7-0.3,1-0.4c0.1,0,0.1,0,0.2-0.1
					c0.3-0.1,0.7-0.3,1-0.4h0.1c0.3-0.1,0.6-0.3,0.9-0.4h0.1c0.3-0.1,0.6-0.3,0.9-0.4c0,0,0.1,0,0.1-0.1c0.3-0.2,0.6-0.3,0.9-0.5
					l0,0l0,0C158.5,143.7,162.5,139.2,159.7,132z"/>
				<g>
					<path class="st8" d="M111,154.5c0,0-2.5,5.9,6.7,2.4l1.3,3.4c0.3-0.1,0.6-0.2,0.9-0.3h0.1c0.2-0.1,0.4-0.1,0.5-0.2l-0.3-0.8
						l-2.7-7.1C117.6,152,114.6,144.6,111,154.5z"/>
					<path class="st8" d="M148,140.4c-9.3-5-6.6,2.5-6.6,2.5l2.7,7.1l0.3,0.8c0.2-0.1,0.3-0.1,0.5-0.2c0,0,0.1,0,0.1-0.1
						c0.3-0.1,0.6-0.2,0.9-0.4l-1.3-3.4C153.8,143.1,148,140.4,148,140.4z"/>
				</g>
			</g>
		</g>
	</g>
	<g>
		<defs>
			<path id="SVGID_33_" d="M145.9,170.2H34.1c-13.5,0-24.4-10.9-24.4-24.4V34.1c0-13.5,10.9-24.4,24.4-24.4h111.7
				c13.5,0,24.4,10.9,24.4,24.4v111.7C170.2,159.3,159.3,170.2,145.9,170.2z"/>
		</defs>
		<clipPath id="SVGID_34_">
			<use xlink:href="#SVGID_33_"  style="overflow:visible;"/>
		</clipPath>
		<g class="st24">
			<path class="st6" d="M108.3,92.3c-17.9-8.6-39.4-1-45.4,11.5c-3.7,7.7,0.6,13,8.6,17.9l0.1,0.1c0.3,0.2,0.6,0.4,0.9,0.6
				c0,0,0,0,0.1,0c0.3,0.2,0.6,0.4,1,0.6c0,0,0,0,0.1,0c0.3,0.2,0.7,0.4,1,0.6c0,0,0.1,0,0.1,0.1c0.4,0.2,0.8,0.4,1.2,0.6l0,0
				c0.3,0.2,0.6,0.3,0.9,0.5c0,0,0.1,0,0.1,0.1c0.2,0.1,0.4,0.2,0.5,0.3l-0.9,1.9l-5.3,11c-1.6,3.2-0.2,7.1,3,8.7l12.7,6.1
				c3.2,1.6,7.1,0.2,8.7-3l6-12.5l0.2-0.4c0.2,0.1,0.4,0.2,0.5,0.2c0,0,0.1,0,0.1,0.1c0.4,0.2,0.7,0.3,1.1,0.5l0,0
				c0.4,0.2,0.7,0.3,1.1,0.5c0.1,0,0.1,0,0.2,0.1c0.4,0.1,0.7,0.3,1,0.4h0.1c0.3,0.1,0.7,0.3,1,0.4h0.1c0.3,0.1,0.7,0.3,1,0.4
				c0.1,0,0.1,0,0.2,0.1c0.3,0.1,0.7,0.2,1,0.4l0,0c8.3,2.8,14.7,2.6,18.3-4.8C133.7,122.5,126.2,100.9,108.3,92.3z"/>
			<g>
				<path class="st7" d="M126.1,132.2c5.7-11.8-1.4-32-18.2-40.1s-37-0.9-42.7,10.8c-3.5,7.3,0.5,12.2,8,16.8c0,0,0.1,0,0.1,0.1
					c0.3,0.2,0.6,0.4,0.9,0.5c0,0,0,0,0.1,0c0.3,0.2,0.6,0.3,0.9,0.5c0,0,0,0,0.1,0c0.3,0.2,0.6,0.3,0.9,0.5c0,0,0.1,0,0.1,0.1
					c0.6,0.4,1.3,0.7,2,1.1c0,0,0.1,0,0.1,0.1c0.2,0.1,0.3,0.2,0.5,0.3l-0.9,1.8L73.2,135c-1.5,3-0.2,6.7,2.9,8.1l12,5.7
					c3,1.5,6.7,0.2,8.1-2.9l5.7-11.8l0.2-0.4c0.2,0.1,0.3,0.2,0.5,0.2c0,0,0.1,0,0.1,0.1c0.3,0.2,0.7,0.3,1,0.5l0,0
					c0.3,0.1,0.7,0.3,1,0.4c0.1,0,0.1,0,0.2,0.1c0.3,0.1,0.7,0.3,1,0.4h0.1c0.3,0.1,0.6,0.3,0.9,0.4h0.1c0.3,0.1,0.6,0.2,0.9,0.4
					c0,0,0.1,0,0.1,0.1c0.3,0.1,0.6,0.2,0.9,0.3l0,0l0,0C116.8,139.4,122.8,139.2,126.1,132.2z"/>
				<g>
					<path class="st8" d="M76.2,112.3c0,0-6,2.3,2.9,6.5l-1.6,3.3c0.3,0.1,0.6,0.3,0.8,0.4c0,0,0.1,0,0.1,0.1
						c0.2,0.1,0.3,0.2,0.5,0.3l0.4-0.7l3.3-6.8C82.6,115.3,86,108,76.2,112.3z"/>
					<path class="st8" d="M112,129.4c-2.8-10.2-6.4-3.1-6.4-3.1l-3.3,6.8l-0.4,0.7c0.2,0.1,0.3,0.2,0.5,0.2c0,0,0.1,0,0.1,0.1
						c0.3,0.1,0.6,0.3,0.9,0.4l1.6-3.3C114,135.5,112,129.4,112,129.4z"/>
				</g>
			</g>
		</g>
	</g>
	<g>
		<defs>
			<path id="SVGID_35_" d="M145.9,170.2H34.1c-13.5,0-24.4-10.9-24.4-24.4V34.1c0-13.5,10.9-24.4,24.4-24.4h111.7
				c13.5,0,24.4,10.9,24.4,24.4v111.7C170.2,159.3,159.3,170.2,145.9,170.2z"/>
		</defs>
		<clipPath id="SVGID_36_">
			<use xlink:href="#SVGID_35_"  style="overflow:visible;"/>
		</clipPath>
		<g class="st25">
			<path class="st6" d="M185.9,166.6c-4.3-19.4-23.6-31.5-37.2-28.5c-8.4,1.9-9.8,8.5-8.7,17.8v0.1c0,0.4,0.1,0.7,0.1,1.1v0.1
				c0.1,0.4,0.1,0.7,0.2,1.1v0.1c0.1,0.4,0.1,0.7,0.2,1.1c0,0.1,0,0.1,0,0.2c0.1,0.4,0.2,0.9,0.2,1.4l0,0c0.1,0.3,0.1,0.7,0.2,1v0.1
				c0,0.2,0.1,0.4,0.1,0.6l-2.1,0.5L127,166c-3.5,0.8-5.7,4.3-4.9,7.8l3.1,13.8c0.8,3.5,4.3,5.7,7.8,4.9l13.6-3l0.4-0.1
				c0.1,0.2,0.1,0.4,0.1,0.6v0.1c0.1,0.4,0.2,0.8,0.3,1.2l0,0c0.1,0.4,0.2,0.8,0.3,1.1c0,0.1,0,0.1,0,0.2c0.1,0.4,0.2,0.7,0.3,1.1
				v0.1c0.1,0.3,0.2,0.7,0.3,1v0.1c0.1,0.3,0.2,0.7,0.3,1c0,0.1,0,0.1,0.1,0.2c0.1,0.3,0.2,0.7,0.3,1l0,0c3,8.3,7.1,13.1,15.1,11.3
				C178,205.2,190.2,185.9,185.9,166.6z"/>
			<g>
				<path class="st7" d="M165.7,205.3c12.7-2.9,24.2-20.9,20.2-39.1c-4.1-18.2-22.2-29.6-35-26.7c-7.9,1.8-9.2,8-8.2,16.7v0.1
					c0,0.3,0.1,0.7,0.1,1c0,0,0,0,0,0.1c0,0.3,0.1,0.7,0.2,1c0,0,0,0,0,0.1c0.1,0.4,0.1,0.7,0.2,1.1v0.1c0.1,0.7,0.3,1.5,0.4,2.2
					v0.1c0,0.2,0.1,0.4,0.1,0.6l-2,0.4l-11.2,2.5c-3.3,0.7-5.4,4-4.6,7.3l2.9,13c0.7,3.3,4,5.4,7.3,4.6l12.7-2.9l0.4-0.1
					c0,0.2,0.1,0.4,0.1,0.5v0.1c0.1,0.4,0.2,0.7,0.3,1.1l0,0c0.1,0.4,0.2,0.7,0.3,1.1c0,0.1,0,0.1,0,0.2c0.1,0.3,0.2,0.7,0.3,1v0.1
					c0.1,0.3,0.2,0.7,0.3,1v0.1c0.1,0.3,0.2,0.6,0.3,1c0,0.1,0,0.1,0,0.1c0.1,0.3,0.2,0.6,0.3,0.9l0,0l0,0
					C154.2,202.4,158.1,207,165.7,205.3z"/>
				<g>
					<path class="st8" d="M150.4,153.8c0,0-5.5-3.3-3.3,6.3l-3.6,0.8c0.1,0.3,0.1,0.6,0.2,0.9v0.1c0,0.2,0.1,0.4,0.1,0.6l0.8-0.2
						l7.4-1.7C151.9,160.7,159.7,158.8,150.4,153.8z"/>
				</g>
			</g>
		</g>
	</g>
	<g>
		<defs>
			<path id="SVGID_37_" d="M145.9,170.2H34.1c-13.5,0-24.4-10.9-24.4-24.4V34.1c0-13.5,10.9-24.4,24.4-24.4h111.7
				c13.5,0,24.4,10.9,24.4,24.4v111.7C170.2,159.3,159.3,170.2,145.9,170.2z"/>
		</defs>
		<clipPath id="SVGID_38_">
			<use xlink:href="#SVGID_37_"  style="overflow:visible;"/>
		</clipPath>
		<g class="st26">
			<path class="st6" d="M89.8,134.9c-4.3-19.4-23.6-31.5-37.2-28.5c-8.4,1.9-9.8,8.5-8.7,17.8v0.1c0,0.4,0.1,0.7,0.1,1.1v0.1
				c0.1,0.4,0.1,0.7,0.2,1.1v0.1c0.1,0.4,0.1,0.7,0.2,1.1c0,0.1,0,0.1,0,0.2c0.1,0.4,0.2,0.9,0.2,1.4l0,0c0.1,0.3,0.1,0.7,0.2,1v0.1
				c0,0.2,0.1,0.4,0.1,0.6l-2.1,0.5l-11.9,2.7c-3.5,0.8-5.7,4.3-4.9,7.8l3.1,13.8c0.8,3.5,4.3,5.7,7.8,4.9l13.6-3l0.4-0.1
				c0.1,0.2,0.1,0.4,0.1,0.6v0.1c0.1,0.4,0.2,0.8,0.3,1.2l0,0c0.1,0.4,0.2,0.8,0.3,1.1c0,0.1,0,0.1,0,0.2c0.1,0.4,0.2,0.7,0.3,1.1
				v0.1c0.1,0.3,0.2,0.7,0.3,1v0.1c0.1,0.3,0.2,0.7,0.3,1c0,0.1,0,0.1,0.1,0.2c0.1,0.3,0.2,0.7,0.3,1l0,0c3,8.3,7.1,13.1,15.1,11.3
				C82,173.5,94.2,154.2,89.8,134.9z"/>
			<g>
				<path class="st7" d="M69.6,173.6c12.7-2.9,24.2-20.9,20.2-39.1c-4.1-18.2-22.2-29.6-35-26.7c-7.9,1.8-9.2,8-8.2,16.7v0.1
					c0,0.3,0.1,0.7,0.1,1c0,0,0,0,0,0.1c0,0.3,0.1,0.7,0.2,1c0,0,0,0,0,0.1c0.1,0.4,0.1,0.7,0.2,1.1v0.1c0.1,0.7,0.3,1.5,0.4,2.2
					v0.1c0,0.2,0.1,0.4,0.1,0.6l-2,0.4l-11.2,2.5c-3.3,0.7-5.4,4-4.6,7.3l2.9,13c0.7,3.3,4,5.4,7.3,4.6l12.7-2.9l0.4-0.1
					c0,0.2,0.1,0.4,0.1,0.5v0.1c0.1,0.4,0.2,0.7,0.3,1.1l0,0c0.1,0.4,0.2,0.7,0.3,1.1c0,0.1,0,0.1,0,0.2c0.1,0.3,0.2,0.7,0.3,1v0.1
					c0.1,0.3,0.2,0.7,0.3,1v0.1c0.1,0.3,0.2,0.6,0.3,1c0,0.1,0,0.1,0,0.1c0.1,0.3,0.2,0.6,0.3,0.9l0,0l0,0
					C58.2,170.7,62.1,175.3,69.6,173.6z"/>
				<g>
					<path class="st8" d="M54.3,122.1c0,0-5.5-3.3-3.3,6.3l-3.6,0.8c0.1,0.3,0.1,0.6,0.2,0.9v0.1c0,0.2,0.1,0.4,0.1,0.6l0.8-0.2
						l7.4-1.7C55.9,129,63.7,127.1,54.3,122.1z"/>
					<path class="st8" d="M63,160.8c6.3-8.5-1.6-6.9-1.6-6.9l-7.4,1.7l-0.8,0.2c0,0.2,0.1,0.4,0.1,0.5v0.1c0.1,0.3,0.2,0.6,0.2,0.9
						l3.6-0.8C59.5,166.1,63,160.8,63,160.8z"/>
				</g>
			</g>
		</g>
	</g>
	<g>
		<defs>
			<path id="SVGID_39_" d="M145.9,170.2H34.1c-13.5,0-24.4-10.9-24.4-24.4V34.1c0-13.5,10.9-24.4,24.4-24.4h111.7
				c13.5,0,24.4,10.9,24.4,24.4v111.7C170.2,159.3,159.3,170.2,145.9,170.2z"/>
		</defs>
		<clipPath id="SVGID_40_">
			<use xlink:href="#SVGID_39_"  style="overflow:visible;"/>
		</clipPath>
		<g class="st27">
			<path class="st6" d="M52.6,56.6C48.2,37.2,28.9,25,15.4,28.1C7,30,5.5,36.6,6.7,45.9V46c0,0.4,0.1,0.7,0.1,1.1v0.1
				c0.1,0.4,0.1,0.7,0.2,1.1v0.1c0.1,0.4,0.1,0.7,0.2,1.1c0,0.1,0,0.1,0,0.2c0.1,0.4,0.2,0.9,0.2,1.4l0,0c0.1,0.3,0.1,0.7,0.2,1v0.1
				c0,0.2,0.1,0.4,0.1,0.6l-2.1,0.5L-6.3,56c-3.5,0.8-5.7,4.3-4.9,7.8L-8,77.4c0.8,3.5,4.3,5.7,7.8,4.9l13.6-3l0.4-0.1
				c0.1,0.2,0.1,0.4,0.1,0.6v0.1c0.1,0.4,0.2,0.8,0.3,1.2l0,0c0.1,0.4,0.2,0.8,0.3,1.1c0,0.1,0,0.1,0,0.2c0.1,0.4,0.2,0.7,0.3,1.1
				v0.1c0.1,0.3,0.2,0.7,0.3,1v0.1c0.1,0.3,0.2,0.7,0.3,1c0,0.1,0,0.1,0.1,0.2c0.1,0.3,0.2,0.7,0.3,1l0,0c3,8.3,7.1,13.1,15.1,11.3
				C44.7,95.1,56.9,75.9,52.6,56.6z"/>
			<g>
				<path class="st7" d="M32.4,95.3c12.7-2.9,24.2-20.9,20.2-39.1c-4.1-18.2-22.2-29.6-35-26.7c-7.9,1.8-9.2,8-8.2,16.7v0.1
					c0,0.3,0.1,0.7,0.1,1c0,0,0,0,0,0.1c0,0.3,0.1,0.7,0.2,1c0,0,0,0,0,0.1c0.1,0.4,0.1,0.7,0.2,1.1v0.1c0.1,0.7,0.3,1.5,0.4,2.2V52
					c0,0.2,0.1,0.4,0.1,0.6l-2,0.4l-11.2,2.5c-3.3,0.7-5.4,4-4.6,7.3l2.9,13c0.7,3.3,4,5.4,7.3,4.6l12.7-2.9l0.4-0.1
					c0,0.2,0.1,0.4,0.1,0.5V78c0.1,0.4,0.2,0.7,0.3,1.1l0,0c0.1,0.4,0.2,0.7,0.3,1.1c0,0.1,0,0.1,0,0.2c0.1,0.3,0.2,0.7,0.3,1v0.1
					c0.1,0.3,0.2,0.7,0.3,1v0.1c0.1,0.3,0.2,0.6,0.3,1c0,0.1,0,0.1,0,0.1c0.1,0.3,0.2,0.6,0.3,0.9l0,0l0,0
					C20.9,92.4,24.8,97,32.4,95.3z"/>
				<g>
					<path class="st8" d="M17.1,43.8c0,0-5.5-3.3-3.3,6.3l-3.6,0.8c0.1,0.3,0.1,0.6,0.2,0.9v0.1c0,0.2,0.1,0.4,0.1,0.6l0.8-0.2
						l7.4-1.7C18.6,50.7,26.4,48.8,17.1,43.8z"/>
					<path class="st8" d="M25.8,82.5c6.3-8.5-1.6-6.9-1.6-6.9l-7.4,1.7L16,77.4c0,0.2,0.1,0.4,0.1,0.5V78c0.1,0.3,0.2,0.6,0.2,0.9
						l3.6-0.8C22.2,87.8,25.8,82.5,25.8,82.5z"/>
				</g>
			</g>
		</g>
	</g>
</g>
</svg>
