<?xml version="1.0" encoding="utf-8"?>
<!-- Generator: Adobe Illustrator 22.0.1, SVG Export Plug-In . SVG Version: 6.00 Build 0)  -->
<svg version="1.1" id="Layer_1" xmlns="http://www.w3.org/2000/svg" xmlns:xlink="http://www.w3.org/1999/xlink" x="0px" y="0px"
	 viewBox="0 0 180 180" style="enable-background:new 0 0 180 180;" xml:space="preserve">
<style type="text/css">
	.st0{fill:#A4AEB3;}
	.st1{fill:#C3D4D4;}
	.st2{fill:#8B9E9C;}
	.st3{fill:#D1E3DC;}
	.st4{fill:#AAC2C0;}
	.st5{clip-path:url(#SVGID_2_);}
	.st6{opacity:0.21;fill:#161715;enable-background:new    ;}
	.st7{fill:#474A44;}
	.st8{fill:#2F3333;}
	.st9{fill:#3E454C;}
	.st10{fill:#FFEB79;}
	.st11{clip-path:url(#SVGID_4_);}
	.st12{clip-path:url(#SVGID_6_);}
	.st13{clip-path:url(#SVGID_8_);}
	.st14{clip-path:url(#SVGID_10_);}
	.st15{clip-path:url(#SVGID_12_);}
	.st16{clip-path:url(#SVGID_14_);}
	.st17{clip-path:url(#SVGID_16_);}
	.st18{clip-path:url(#SVGID_18_);}
	.st19{clip-path:url(#SVGID_20_);}
	.st20{clip-path:url(#SVGID_22_);}
	.st21{clip-path:url(#SVGID_24_);}
	.st22{clip-path:url(#SVGID_26_);}
	.st23{clip-path:url(#SVGID_28_);}
	.st24{clip-path:url(#SVGID_30_);}
	.st25{clip-path:url(#SVGID_32_);}
	.st26{clip-path:url(#SVGID_34_);}
	.st27{clip-path:url(#SVGID_36_);}
	.st28{clip-path:url(#SVGID_38_);}
	.st29{clip-path:url(#SVGID_40_);}
	.st30{clip-path:url(#SVGID_42_);}
	.st31{clip-path:url(#SVGID_44_);}
	.st32{clip-path:url(#SVGID_46_);}
	.st33{clip-path:url(#SVGID_48_);}
	.st34{clip-path:url(#SVGID_50_);}
	.st35{clip-path:url(#SVGID_52_);}
	.st36{clip-path:url(#SVGID_54_);}
	.st37{clip-path:url(#SVGID_56_);}
	.st38{clip-path:url(#SVGID_58_);}
	.st39{clip-path:url(#SVGID_60_);}
	.st40{clip-path:url(#SVGID_62_);}
	.st41{clip-path:url(#SVGID_64_);}
	.st42{clip-path:url(#SVGID_66_);}
	.st43{clip-path:url(#SVGID_68_);}
	.st44{clip-path:url(#SVGID_70_);}
	.st45{clip-path:url(#SVGID_72_);}
	.st46{clip-path:url(#SVGID_74_);}
</style>
<g>
	<path class="st0" d="M178,180H2c-1.1,0-2-0.9-2-2V2c0-1.1,0.9-2,2-2h176c1.1,0,2,0.9,2,2v176C180,179.1,179.1,180,178,180z"/>
</g>
<g>
	<path class="st1" d="M165.5,176.9h-151c-6.3,0-11.4-5.1-11.4-11.4v-151c0-6.3,5.1-11.4,11.4-11.4h150.9c6.3,0,11.4,5.1,11.4,11.4
		v150.9C176.9,171.8,171.8,176.9,165.5,176.9z"/>
</g>
<g>
	<path class="st2" d="M148.3,173.8H31.7c-14.1,0-25.5-11.4-25.5-25.5V31.7c0-14.1,11.4-25.5,25.5-25.5h116.7
		c14.1,0,25.5,11.4,25.5,25.5v116.7C173.8,162.4,162.4,173.8,148.3,173.8z"/>
</g>
<g>
	<path class="st3" d="M145,169H35c-13.3,0-24-10.8-24-24V35c0-13.3,10.8-24,24-24h110c13.3,0,24,10.8,24,24v110
		C169,158.3,158.3,169,145,169z"/>
</g>
<circle class="st1" cx="90" cy="90" r="46"/>
<g>
	<circle class="st1" cx="90" cy="90" r="46"/>
</g>
<g>
	<path class="st4" d="M136,90c0,25.4-20.6,46-46,46V44C115.4,44,136,64.6,136,90z"/>
</g>
<g>
	<path class="st2" d="M78,134.4c3.8,1,7.8,1.6,12,1.6s8.2-0.6,12-1.6V45.6c-3.8-1-7.8-1.6-12-1.6s-8.2,0.6-12,1.6V134.4z"/>
</g>
<g>
	<path class="st3" d="M79.6,134.8c3.4,0.8,6.8,1.2,10.4,1.2s7.1-0.4,10.4-1.2V45.2C97.1,44.4,93.6,44,90,44s-7.1,0.4-10.4,1.2V134.8
		z"/>
</g>
<g>
	<g>
		<defs>
			<path id="SVGID_1_" d="M145.9,170.2H34.1c-13.5,0-24.4-10.9-24.4-24.4V34.1c0-13.5,10.9-24.4,24.4-24.4h111.7
				c13.5,0,24.4,10.9,24.4,24.4v111.7C170.2,159.3,159.3,170.2,145.9,170.2z"/>
		</defs>
		<clipPath id="SVGID_2_">
			<use xlink:href="#SVGID_1_"  style="overflow:visible;"/>
		</clipPath>
		<g class="st5">
			<path class="st6" d="M97.1,79.5c-11,0-19.9-11.4-19.9-25.3s8.9-25.3,19.9-25.3S117,40.3,117,54.2S108,79.5,97.1,79.5z"/>
			<path class="st7" d="M115.4,53.5c0,12.9-8,23.3-17.9,23.3S79.6,66.4,79.6,53.5s8-23.3,17.9-23.3
				C107.4,30.1,115.4,40.6,115.4,53.5z"/>
			<path class="st8" d="M97.5,30.1c-0.2,0-0.3,0-0.5,0v46.6c0.2,0,0.3,0,0.5,0c9.9,0,17.9-10.4,17.9-23.3
				C115.4,40.6,107.4,30.1,97.5,30.1z"/>
			<path class="st9" d="M97.5,30.1c-3.4,0-6.6,1.3-9.4,3.4c1.4,3.8,5.1,6.5,9.4,6.5s8-2.7,9.4-6.5C104.1,31.4,100.9,30.1,97.5,30.1z
				"/>
			<path class="st10" d="M97.5,30.1c-1.6,0-3.1,0.3-4.5,0.8c0.8,1.7,2.5,2.9,4.5,2.9s3.7-1.2,4.5-2.9
				C100.6,30.4,99.1,30.1,97.5,30.1z"/>
		</g>
	</g>
	<g>
		<defs>
			<path id="SVGID_3_" d="M145.9,170.2H34.1c-13.5,0-24.4-10.9-24.4-24.4V34.1c0-13.5,10.9-24.4,24.4-24.4h111.7
				c13.5,0,24.4,10.9,24.4,24.4v111.7C170.2,159.3,159.3,170.2,145.9,170.2z"/>
		</defs>
		<clipPath id="SVGID_4_">
			<use xlink:href="#SVGID_3_"  style="overflow:visible;"/>
		</clipPath>
		<g class="st11">
			<path class="st6" d="M7,48.8c-8.8-6.5-9.2-21-0.9-32.2s22.3-15,31.1-8.5s9.2,21,0.9,32.2S15.8,55.3,7,48.8z"/>
			<path class="st7" d="M37.3,38.8c-7.7,10.3-20.4,14-28.3,8.1C1,41,0.8,27.8,8.5,17.5s20.4-14,28.3-8.1S44.9,28.4,37.3,38.8z"/>
			<path class="st8" d="M36.8,9.4c-0.1-0.1-0.3-0.2-0.4-0.3L8.6,46.5c0.1,0.1,0.3,0.2,0.4,0.3c8,5.9,20.6,2.3,28.3-8.1
				C44.9,28.4,44.7,15.3,36.8,9.4z"/>
			<path class="st9" d="M36.8,9.4c-2.8-2-6.1-2.9-9.6-2.8c-1.2,3.9,0.2,8.3,3.6,10.8c3.5,2.6,8,2.6,11.4,0.3
				C41.3,14.3,39.5,11.4,36.8,9.4z"/>
			<path class="st10" d="M36.8,9.4c-1.3-0.9-2.6-1.6-4.1-2.1c-0.4,1.9,0.3,3.8,1.9,5c1.6,1.2,3.7,1.3,5.4,0.4
				C39.1,11.4,38,10.3,36.8,9.4z"/>
		</g>
	</g>
	<g>
		<defs>
			<path id="SVGID_5_" d="M145.9,170.2H34.1c-13.5,0-24.4-10.9-24.4-24.4V34.1c0-13.5,10.9-24.4,24.4-24.4h111.7
				c13.5,0,24.4,10.9,24.4,24.4v111.7C170.2,159.3,159.3,170.2,145.9,170.2z"/>
		</defs>
		<clipPath id="SVGID_6_">
			<use xlink:href="#SVGID_5_"  style="overflow:visible;"/>
		</clipPath>
		<g class="st12">
			<path class="st6" d="M19.3,168.8c-8.8-6.5-9.2-21-0.9-32.2s22.3-15,31.1-8.5s9.2,21,0.9,32.2S28.1,175.3,19.3,168.8z"/>
			<path class="st7" d="M49.6,158.8c-7.7,10.3-20.4,14-28.3,8.1c-8-5.9-8.2-19.1-0.5-29.4c7.7-10.3,20.4-14,28.3-8.1
				S57.3,148.4,49.6,158.8z"/>
			<path class="st8" d="M49.1,129.4c-0.1-0.1-0.3-0.2-0.4-0.3l-27.8,37.4c0.1,0.1,0.3,0.2,0.4,0.3c8,5.9,20.6,2.3,28.3-8.1
				C57.3,148.4,57,135.3,49.1,129.4z"/>
			<path class="st9" d="M49.1,129.4c-2.8-2-6.1-2.9-9.6-2.8c-1.2,3.9,0.2,8.3,3.6,10.8c3.5,2.6,8,2.6,11.4,0.3
				C53.7,134.3,51.8,131.4,49.1,129.4z"/>
			<path class="st10" d="M49.1,129.4c-1.3-0.9-2.6-1.6-4.1-2.1c-0.4,1.9,0.3,3.8,1.9,5c1.6,1.2,3.7,1.3,5.4,0.4
				C51.4,131.4,50.4,130.3,49.1,129.4z"/>
		</g>
	</g>
	<g>
		<defs>
			<path id="SVGID_7_" d="M145.9,170.2H34.1c-13.5,0-24.4-10.9-24.4-24.4V34.1c0-13.5,10.9-24.4,24.4-24.4h111.7
				c13.5,0,24.4,10.9,24.4,24.4v111.7C170.2,159.3,159.3,170.2,145.9,170.2z"/>
		</defs>
		<clipPath id="SVGID_8_">
			<use xlink:href="#SVGID_7_"  style="overflow:visible;"/>
		</clipPath>
		<g class="st13">
			<path class="st6" d="M111.6,129.8c-8.8-6.5-9.2-21-0.9-32.2s22.3-15,31.1-8.5s9.2,21,0.9,32.2S120.5,136.3,111.6,129.8z"/>
			<path class="st7" d="M141.9,119.8c-7.7,10.3-20.4,14-28.3,8.1c-8-5.9-8.2-19.1-0.5-29.4s20.4-14,28.3-8.1
				C149.4,96.3,149.6,109.4,141.9,119.8z"/>
			<path class="st8" d="M141.4,90.4c-0.1-0.1-0.3-0.2-0.4-0.3l-27.8,37.4c0.1,0.1,0.3,0.2,0.4,0.3c8,5.9,20.6,2.3,28.3-8.1
				C149.6,109.4,149.4,96.3,141.4,90.4z"/>
			<path class="st9" d="M141.4,90.4c-2.8-2-6.1-2.9-9.6-2.8c-1.2,3.9,0.2,8.3,3.6,10.8c3.5,2.6,8,2.6,11.4,0.3
				C146,95.3,144.2,92.4,141.4,90.4z"/>
			<path class="st10" d="M141.4,90.4c-1.3-0.9-2.6-1.6-4.1-2.1c-0.4,1.9,0.3,3.8,1.9,5c1.6,1.2,3.7,1.3,5.4,0.4
				C143.7,92.4,142.7,91.3,141.4,90.4z"/>
		</g>
	</g>
	<g>
		<defs>
			<path id="SVGID_9_" d="M145.9,170.2H34.1c-13.5,0-24.4-10.9-24.4-24.4V34.1c0-13.5,10.9-24.4,24.4-24.4h111.7
				c13.5,0,24.4,10.9,24.4,24.4v111.7C170.2,159.3,159.3,170.2,145.9,170.2z"/>
		</defs>
		<clipPath id="SVGID_10_">
			<use xlink:href="#SVGID_9_"  style="overflow:visible;"/>
		</clipPath>
		<g class="st14">
			<path class="st6" d="M139.8,47c-8.8-6.5-9.2-21-0.9-32.2s22.3-15,31.1-8.5s9.2,21,0.9,32.2S148.6,53.6,139.8,47z"/>
			<path class="st7" d="M170.1,37c-7.7,10.3-20.4,14-28.3,8.1c-8-5.9-8.2-19.1-0.5-29.4s20.4-14,28.3-8.1
				C177.6,13.5,177.8,26.7,170.1,37z"/>
			<path class="st8" d="M169.6,7.6c-0.1-0.1-0.3-0.2-0.4-0.3l-27.8,37.4c0.1,0.1,0.3,0.2,0.4,0.3c8,5.9,20.6,2.3,28.3-8.1
				C177.8,26.7,177.6,13.5,169.6,7.6z"/>
			<path class="st9" d="M169.6,7.6c-2.8-2-6.1-2.9-9.6-2.8c-1.2,3.9,0.2,8.3,3.6,10.8c3.5,2.6,8,2.6,11.4,0.3
				C174.2,12.5,172.4,9.6,169.6,7.6z"/>
			<path class="st10" d="M169.6,7.6c-1.3-0.9-2.6-1.6-4.1-2.1c-0.4,1.9,0.3,3.8,1.9,5c1.6,1.2,3.7,1.3,5.4,0.4
				C171.9,9.6,170.9,8.5,169.6,7.6z"/>
		</g>
	</g>
	<g>
		<defs>
			<path id="SVGID_11_" d="M145.9,170.2H34.1c-13.5,0-24.4-10.9-24.4-24.4V34.1c0-13.5,10.9-24.4,24.4-24.4h111.7
				c13.5,0,24.4,10.9,24.4,24.4v111.7C170.2,159.3,159.3,170.2,145.9,170.2z"/>
		</defs>
		<clipPath id="SVGID_12_">
			<use xlink:href="#SVGID_11_"  style="overflow:visible;"/>
		</clipPath>
		<g class="st15">
			<path class="st6" d="M82.1,101.5c-5,9.8-19.2,12.6-31.6,6.3C38.1,101.4,32,88.3,37,78.5s19.2-12.6,31.6-6.3
				C81.1,78.6,87.1,91.7,82.1,101.5z"/>
			<path class="st7" d="M67.2,73.3C78.7,79.1,84.4,91,79.9,99.9c-4.5,8.8-17.5,11.2-28.9,5.4c-11.5-5.9-17.1-17.7-12.6-26.6
				C42.8,69.8,55.8,67.4,67.2,73.3z"/>
			<path class="st8" d="M38.3,78.7c-0.1,0.1-0.1,0.3-0.2,0.5l41.5,21.2c0.1-0.1,0.2-0.3,0.2-0.4c4.5-8.8-1.2-20.7-12.6-26.6
				C55.8,67.4,42.8,69.8,38.3,78.7z"/>
			<path class="st9" d="M38.3,78.7c-1.6,3.1-1.9,6.5-1.2,9.9c4,0.5,8.1-1.5,10.1-5.4c2-3.8,1.2-8.3-1.6-11.3
				C42.4,73.3,39.9,75.6,38.3,78.7z"/>
			<path class="st10" d="M38.3,78.7c-0.7,1.4-1.2,2.9-1.4,4.4c1.9,0.1,3.7-0.9,4.7-2.7c0.9-1.8,0.6-3.9-0.5-5.4
				C40,76,39,77.3,38.3,78.7z"/>
		</g>
	</g>
	<g>
		<defs>
			<path id="SVGID_13_" d="M145.9,170.2H34.1c-13.5,0-24.4-10.9-24.4-24.4V34.1c0-13.5,10.9-24.4,24.4-24.4h111.7
				c13.5,0,24.4,10.9,24.4,24.4v111.7C170.2,159.3,159.3,170.2,145.9,170.2z"/>
		</defs>
		<clipPath id="SVGID_14_">
			<use xlink:href="#SVGID_13_"  style="overflow:visible;"/>
		</clipPath>
		<g class="st16">
			<path class="st6" d="M77.8,34.4c-5,9.8-19.2,12.6-31.6,6.3S27.7,21.1,32.7,11.3S51.9-1.3,64.3,5S82.8,24.6,77.8,34.4z"/>
			<path class="st7" d="M62.9,6.1C74.4,12,80.1,23.9,75.6,32.7s-17.5,11.2-28.9,5.4C35.2,32.2,29.5,20.3,34,11.5S51.4,0.3,62.9,6.1z
				"/>
			<path class="st8" d="M34,11.5c-0.1,0.1-0.1,0.3-0.2,0.5l41.5,21.2c0.1-0.1,0.2-0.3,0.2-0.4C80,24,74.3,12.1,62.9,6.2
				C51.4,0.3,38.5,2.7,34,11.5z"/>
			<path class="st9" d="M34,11.5c-1.6,3.1-1.9,6.5-1.2,9.9c4,0.5,8.1-1.5,10.1-5.4c2-3.8,1.2-8.3-1.6-11.3
				C38.1,6.2,35.6,8.5,34,11.5z"/>
			<path class="st10" d="M34,11.5c-0.7,1.4-1.2,2.9-1.4,4.4c1.9,0.1,3.7-0.9,4.7-2.7c0.9-1.8,0.6-3.9-0.5-5.4
				C35.6,8.9,34.7,10.1,34,11.5z"/>
		</g>
	</g>
	<g>
		<defs>
			<path id="SVGID_15_" d="M145.9,170.2H34.1c-13.5,0-24.4-10.9-24.4-24.4V34.1c0-13.5,10.9-24.4,24.4-24.4h111.7
				c13.5,0,24.4,10.9,24.4,24.4v111.7C170.2,159.3,159.3,170.2,145.9,170.2z"/>
		</defs>
		<clipPath id="SVGID_16_">
			<use xlink:href="#SVGID_15_"  style="overflow:visible;"/>
		</clipPath>
		<g class="st17">
			<path class="st6" d="M178.3,122.7c-5,9.8-19.2,12.6-31.6,6.3c-12.4-6.3-18.5-19.5-13.5-29.3s19.2-12.6,31.6-6.3
				C177.2,99.7,183.2,112.9,178.3,122.7z"/>
			<path class="st7" d="M163.4,94.4c11.5,5.9,17.1,17.7,12.6,26.6c-4.5,8.8-17.5,11.2-28.9,5.4c-11.5-5.9-17.1-17.7-12.6-26.6
				C138.9,91,151.9,88.6,163.4,94.4z"/>
			<path class="st8" d="M134.4,99.8c-0.1,0.1-0.1,0.3-0.2,0.5l41.5,21.2c0.1-0.1,0.2-0.3,0.2-0.4c4.5-8.8-1.2-20.7-12.6-26.6
				C151.9,88.6,138.9,91,134.4,99.8z"/>
			<path class="st9" d="M134.4,99.8c-1.6,3.1-1.9,6.5-1.2,9.9c4,0.5,8.1-1.5,10.1-5.4c2-3.8,1.2-8.3-1.6-11.3
				C138.6,94.5,136,96.8,134.4,99.8z"/>
			<path class="st10" d="M134.4,99.8c-0.7,1.4-1.2,2.9-1.4,4.4c1.9,0.1,3.7-0.9,4.7-2.7c0.9-1.8,0.6-3.9-0.5-5.4
				C136.1,97.2,135.1,98.4,134.4,99.8z"/>
		</g>
	</g>
	<g>
		<defs>
			<path id="SVGID_17_" d="M145.9,170.2H34.1c-13.5,0-24.4-10.9-24.4-24.4V34.1c0-13.5,10.9-24.4,24.4-24.4h111.7
				c13.5,0,24.4,10.9,24.4,24.4v111.7C170.2,159.3,159.3,170.2,145.9,170.2z"/>
		</defs>
		<clipPath id="SVGID_18_">
			<use xlink:href="#SVGID_17_"  style="overflow:visible;"/>
		</clipPath>
		<g class="st18">
			<path class="st6" d="M185.9,66.7c-5,9.8-19.2,12.6-31.6,6.3s-18.5-19.5-13.5-29.3s19.2-12.6,31.6-6.3S190.9,56.9,185.9,66.7z"/>
			<path class="st7" d="M171,38.4c11.5,5.9,17.1,17.7,12.6,26.6c-4.5,8.8-17.5,11.2-28.9,5.4c-11.5-5.9-17.1-17.7-12.6-26.6
				C146.6,35,159.5,32.6,171,38.4z"/>
			<path class="st8" d="M142.1,43.8c-0.1,0.1-0.1,0.3-0.2,0.5l41.5,21.2c0.1-0.1,0.2-0.3,0.2-0.4c4.5-8.8-1.2-20.7-12.6-26.6
				C159.5,32.6,146.6,35,142.1,43.8z"/>
			<path class="st9" d="M142.1,43.8c-1.6,3.1-1.9,6.5-1.2,9.9c4,0.5,8.1-1.5,10.1-5.4c2-3.8,1.2-8.3-1.6-11.3
				C146.2,38.5,143.7,40.8,142.1,43.8z"/>
			<path class="st10" d="M142.1,43.8c-0.7,1.4-1.2,2.9-1.4,4.4c1.9,0.1,3.7-0.9,4.7-2.7c0.9-1.8,0.6-3.9-0.5-5.4
				C143.7,41.2,142.8,42.4,142.1,43.8z"/>
		</g>
	</g>
	<g>
		<defs>
			<path id="SVGID_19_" d="M145.9,170.2H34.1c-13.5,0-24.4-10.9-24.4-24.4V34.1c0-13.5,10.9-24.4,24.4-24.4h111.7
				c13.5,0,24.4,10.9,24.4,24.4v111.7C170.2,159.3,159.3,170.2,145.9,170.2z"/>
		</defs>
		<clipPath id="SVGID_20_">
			<use xlink:href="#SVGID_19_"  style="overflow:visible;"/>
		</clipPath>
		<g class="st19">
			<path class="st6" d="M135.2,164.4c-11-0.3-19.6-12-19.1-25.9c0.4-14,9.7-25,20.7-24.7s19.6,12,19.1,25.9S146.2,164.7,135.2,164.4
				z"/>
			<path class="st7" d="M154.4,138.9c-0.4,12.9-8.8,23.1-18.7,22.8s-17.6-11-17.2-23.9s8.8-23.1,18.6-22.8
				C147.1,115.3,154.8,126,154.4,138.9z"/>
			<path class="st8" d="M137.2,115c-0.2,0-0.3,0-0.5,0l-1.5,46.6c0.2,0,0.3,0,0.5,0c9.9,0.3,18.2-9.9,18.7-22.8
				C154.8,126,147.1,115.3,137.2,115z"/>
			<path class="st9" d="M137.2,115c-3.4-0.1-6.7,1-9.5,3.1c1.3,3.9,4.8,6.7,9.2,6.8c4.3,0.1,8-2.5,9.6-6.3
				C143.8,116.5,140.6,115.1,137.2,115z"/>
			<path class="st10" d="M137.2,115c-1.6,0-3.1,0.2-4.6,0.6c0.7,1.7,2.4,3,4.4,3.1s3.8-1.1,4.6-2.8C140.3,115.4,138.8,115,137.2,115
				z"/>
		</g>
	</g>
	<g>
		<defs>
			<path id="SVGID_21_" d="M145.9,170.2H34.1c-13.5,0-24.4-10.9-24.4-24.4V34.1c0-13.5,10.9-24.4,24.4-24.4h111.7
				c13.5,0,24.4,10.9,24.4,24.4v111.7C170.2,159.3,159.3,170.2,145.9,170.2z"/>
		</defs>
		<clipPath id="SVGID_22_">
			<use xlink:href="#SVGID_21_"  style="overflow:visible;"/>
		</clipPath>
		<g class="st20">
			<path class="st6" d="M78.8,195.6c-11-0.3-19.6-12-19.1-25.9c0.4-14,9.7-25,20.7-24.7s19.6,12,19.1,25.9
				C99.1,184.8,89.8,195.9,78.8,195.6z"/>
			<path class="st7" d="M98,170.1c-0.4,12.9-8.8,23.1-18.7,22.8s-17.6-11-17.2-23.9c0.4-12.9,8.8-23.1,18.6-22.8
				C90.7,146.5,98.4,157.2,98,170.1z"/>
			<path class="st8" d="M80.8,146.2c-0.2,0-0.3,0-0.5,0l-1.5,46.6c0.2,0,0.3,0,0.5,0c9.9,0.3,18.2-9.9,18.7-22.8
				C98.4,157.2,90.7,146.5,80.8,146.2z"/>
			<path class="st9" d="M80.8,146.2c-3.4-0.1-6.7,1-9.5,3.1c1.3,3.9,4.8,6.7,9.2,6.8c4.3,0.1,8-2.5,9.6-6.3
				C87.4,147.6,84.2,146.3,80.8,146.2z"/>
			<path class="st10" d="M80.8,146.2c-1.6,0-3.1,0.2-4.6,0.6c0.7,1.7,2.4,3,4.4,3.1s3.8-1.1,4.6-2.8
				C83.8,146.5,82.3,146.2,80.8,146.2z"/>
		</g>
	</g>
	<g>
		<defs>
			<path id="SVGID_23_" d="M145.9,170.2H34.1c-13.5,0-24.4-10.9-24.4-24.4V34.1c0-13.5,10.9-24.4,24.4-24.4h111.7
				c13.5,0,24.4,10.9,24.4,24.4v111.7C170.2,159.3,159.3,170.2,145.9,170.2z"/>
		</defs>
		<clipPath id="SVGID_24_">
			<use xlink:href="#SVGID_23_"  style="overflow:visible;"/>
		</clipPath>
		<g class="st21">
			<path class="st6" d="M99.5,135.8c9.3-5.9,22.9-1.1,30.4,10.7c7.5,11.8,6,26.2-3.3,32.1c-9.3,5.9-22.9,1.1-30.4-10.7
				C88.7,156.1,90.2,141.7,99.5,135.8z"/>
			<path class="st7" d="M97.9,167.7c-6.9-10.9-5.7-24,2.7-29.3s20.7-0.8,27.6,10.1c6.9,10.9,5.7,24-2.7,29.3S104.8,178.6,97.9,167.7
				z"/>
			<path class="st8" d="M125.5,177.8c0.1-0.1,0.3-0.2,0.4-0.3L101,138.1c-0.1,0.1-0.3,0.2-0.4,0.3c-8.4,5.3-9.6,18.4-2.7,29.3
				C104.8,178.6,117.1,183.1,125.5,177.8z"/>
			<path class="st9" d="M125.5,177.8c2.9-1.8,4.9-4.6,6.1-7.9c-3.2-2.5-7.8-2.8-11.4-0.5s-5.3,6.6-4.4,10.5
				C119.2,180.3,122.6,179.7,125.5,177.8z"/>
			<path class="st10" d="M125.5,177.8c1.3-0.8,2.5-1.9,3.4-3.1c-1.6-1-3.7-1.1-5.4,0c-1.7,1.1-2.5,3-2.3,4.9
				C122.8,179.2,124.2,178.7,125.5,177.8z"/>
		</g>
	</g>
	<g>
		<defs>
			<path id="SVGID_25_" d="M145.9,170.2H34.1c-13.5,0-24.4-10.9-24.4-24.4V34.1c0-13.5,10.9-24.4,24.4-24.4h111.7
				c13.5,0,24.4,10.9,24.4,24.4v111.7C170.2,159.3,159.3,170.2,145.9,170.2z"/>
		</defs>
		<clipPath id="SVGID_26_">
			<use xlink:href="#SVGID_25_"  style="overflow:visible;"/>
		</clipPath>
		<g class="st22">
			<path class="st6" d="M110.7-8.6c10.3,3.8,14.8,17.5,10,30.6s-17.1,20.7-27.4,16.9C83,35.2,78.5,21.4,83.3,8.3
				S100.4-12.4,110.7-8.6z"/>
			<path class="st7" d="M84.5,9.5C88.9-2.6,100-9.6,109.3-6.2s13.2,16,8.8,28.1C113.7,34,102.6,41,93.3,37.6
				C84,34.2,80.1,21.6,84.5,9.5z"/>
			<path class="st8" d="M93.3,37.6c0.2,0.1,0.3,0.1,0.5,0.2l16-43.8c-0.2-0.1-0.3-0.1-0.5-0.2C100-9.6,88.9-2.6,84.5,9.5
				S84,34.2,93.3,37.6z"/>
			<path class="st9" d="M93.3,37.6c3.2,1.2,6.7,1.1,10,0c0-4.1-2.5-7.9-6.5-9.4s-8.4-0.2-11,2.9C87.5,34.2,90.1,36.4,93.3,37.6z"/>
			<path class="st10" d="M93.3,37.6c1.5,0.5,3,0.8,4.5,0.8c-0.1-1.9-1.4-3.6-3.3-4.3s-3.9-0.2-5.3,1.2
				C90.5,36.3,91.8,37.1,93.3,37.6z"/>
		</g>
	</g>
	<g>
		<defs>
			<path id="SVGID_27_" d="M145.9,170.2H34.1c-13.5,0-24.4-10.9-24.4-24.4V34.1c0-13.5,10.9-24.4,24.4-24.4h111.7
				c13.5,0,24.4,10.9,24.4,24.4v111.7C170.2,159.3,159.3,170.2,145.9,170.2z"/>
		</defs>
		<clipPath id="SVGID_28_">
			<use xlink:href="#SVGID_27_"  style="overflow:visible;"/>
		</clipPath>
		<g class="st23">
			<path class="st6" d="M166.7,123.7c10.3,3.8,14.8,17.5,10,30.6s-17.1,20.7-27.4,16.9c-10.3-3.8-14.8-17.5-10-30.6
				S156.4,119.9,166.7,123.7z"/>
			<path class="st7" d="M140.5,141.9c4.4-12.1,15.6-19.2,24.9-15.8c9.3,3.4,13.2,16,8.8,28.1s-15.6,19.2-24.9,15.8
				C140,166.5,136.1,154,140.5,141.9z"/>
			<path class="st8" d="M149.3,169.9c0.2,0.1,0.3,0.1,0.5,0.2l16-43.8c-0.2-0.1-0.3-0.1-0.5-0.2c-9.3-3.4-20.4,3.6-24.9,15.8
				C136.1,154,140,166.5,149.3,169.9z"/>
			<path class="st9" d="M149.3,169.9c3.2,1.2,6.7,1.1,10,0c0-4.1-2.5-7.9-6.5-9.4s-8.4-0.2-11,2.9
				C143.5,166.5,146.1,168.8,149.3,169.9z"/>
			<path class="st10" d="M149.3,169.9c1.5,0.5,3,0.8,4.5,0.8c-0.1-1.9-1.4-3.6-3.3-4.3c-1.9-0.7-3.9-0.2-5.3,1.2
				C146.5,168.6,147.8,169.4,149.3,169.9z"/>
		</g>
	</g>
	<g>
		<defs>
			<path id="SVGID_29_" d="M145.9,170.2H34.1c-13.5,0-24.4-10.9-24.4-24.4V34.1c0-13.5,10.9-24.4,24.4-24.4h111.7
				c13.5,0,24.4,10.9,24.4,24.4v111.7C170.2,159.3,159.3,170.2,145.9,170.2z"/>
		</defs>
		<clipPath id="SVGID_30_">
			<use xlink:href="#SVGID_29_"  style="overflow:visible;"/>
		</clipPath>
		<g class="st24">
			<path class="st6" d="M133,15.7c10.3,3.8,14.8,17.5,10,30.6s-17,20.8-27.4,17c-10.3-3.8-14.8-17.5-10-30.6S122.7,11.9,133,15.7z"
				/>
			<path class="st7" d="M106.8,33.9c4.4-12.1,15.6-19.2,24.9-15.8s13.2,16,8.8,28.1S124.9,65.4,115.6,62
				C106.3,58.5,102.4,46,106.8,33.9z"/>
			<path class="st8" d="M115.6,61.9c0.2,0.1,0.3,0.1,0.5,0.2l16-43.8c-0.2-0.1-0.3-0.1-0.5-0.2c-9.3-3.4-20.4,3.6-24.9,15.8
				C102.4,46,106.3,58.5,115.6,61.9z"/>
			<path class="st9" d="M115.6,61.9c3.2,1.2,6.7,1.1,10,0c0-4.1-2.5-7.9-6.5-9.4s-8.4-0.2-11,2.9C109.8,58.5,112.4,60.8,115.6,61.9z
				"/>
			<path class="st10" d="M115.6,61.9c1.5,0.5,3,0.8,4.5,0.8c-0.1-1.9-1.4-3.6-3.3-4.3s-3.9-0.2-5.3,1.2
				C112.8,60.6,114.2,61.4,115.6,61.9z"/>
		</g>
	</g>
	<g>
		<defs>
			<path id="SVGID_31_" d="M145.9,170.2H34.1c-13.5,0-24.4-10.9-24.4-24.4V34.1c0-13.5,10.9-24.4,24.4-24.4h111.7
				c13.5,0,24.4,10.9,24.4,24.4v111.7C170.2,159.3,159.3,170.2,145.9,170.2z"/>
		</defs>
		<clipPath id="SVGID_32_">
			<use xlink:href="#SVGID_31_"  style="overflow:visible;"/>
		</clipPath>
		<g class="st25">
			<path class="st6" d="M108.3,55c4.2-10.1,18.2-14,31.1-8.6s19.9,18,15.7,28.2c-4.2,10.1-18.2,14-31.1,8.6S104,65.2,108.3,55z"/>
			<path class="st7" d="M125.2,82.1c-11.9-5-18.4-16.4-14.6-25.5s16.6-12.5,28.4-7.5c11.9,5,18.4,16.4,14.6,25.5
				C149.9,83.7,137.1,87,125.2,82.1z"/>
			<path class="st8" d="M153.7,74.5c0.1-0.2,0.1-0.3,0.2-0.5l-43-18c-0.1,0.2-0.1,0.3-0.2,0.5c-3.8,9.1,2.7,20.6,14.6,25.5
				C137.1,87,149.9,83.7,153.7,74.5z"/>
			<path class="st9" d="M153.7,74.5c1.3-3.2,1.4-6.6,0.5-10c-4.1-0.2-8,2.1-9.7,6.1s-0.6,8.4,2.4,11.2
				C150,80.2,152.4,77.7,153.7,74.5z"/>
			<path class="st10" d="M153.7,74.5c0.6-1.4,0.9-3,1-4.5c-1.9,0.1-3.7,1.2-4.4,3.1c-0.8,1.9-0.3,3.9,0.9,5.3
				C152.2,77.3,153.1,76,153.7,74.5z"/>
		</g>
	</g>
	<g>
		<defs>
			<path id="SVGID_33_" d="M145.9,170.2H34.1c-13.5,0-24.4-10.9-24.4-24.4V34.1c0-13.5,10.9-24.4,24.4-24.4h111.7
				c13.5,0,24.4,10.9,24.4,24.4v111.7C170.2,159.3,159.3,170.2,145.9,170.2z"/>
		</defs>
		<clipPath id="SVGID_34_">
			<use xlink:href="#SVGID_33_"  style="overflow:visible;"/>
		</clipPath>
		<g class="st26">
			<path class="st6" d="M68.3,90.7c4.2-10.1,18.2-14,31.1-8.6s19.9,18,15.7,28.2c-4.2,10.1-18.2,14-31.1,8.6S64,100.8,68.3,90.7z"/>
			<path class="st7" d="M85.2,117.7c-11.9-5-18.4-16.4-14.6-25.5S87.2,79.7,99,84.7c11.9,5,18.4,16.4,14.6,25.5
				C109.9,119.3,97.1,122.7,85.2,117.7z"/>
			<path class="st8" d="M113.7,110.2c0.1-0.2,0.1-0.3,0.2-0.5l-43-18c-0.1,0.2-0.1,0.3-0.2,0.5c-3.8,9.1,2.7,20.6,14.6,25.5
				C97.1,122.7,109.9,119.3,113.7,110.2z"/>
			<path class="st9" d="M113.7,110.2c1.3-3.2,1.4-6.6,0.5-10c-4.1-0.2-8,2.1-9.7,6.1s-0.6,8.4,2.4,11.2
				C110,115.8,112.4,113.4,113.7,110.2z"/>
			<path class="st10" d="M113.7,110.2c0.6-1.4,0.9-3,1-4.5c-1.9,0.1-3.7,1.2-4.4,3.1c-0.8,1.9-0.3,3.9,0.9,5.3
				C112.2,112.9,113.1,111.6,113.7,110.2z"/>
		</g>
	</g>
	<g>
		<defs>
			<path id="SVGID_35_" d="M145.9,170.2H34.1c-13.5,0-24.4-10.9-24.4-24.4V34.1c0-13.5,10.9-24.4,24.4-24.4h111.7
				c13.5,0,24.4,10.9,24.4,24.4v111.7C170.2,159.3,159.3,170.2,145.9,170.2z"/>
		</defs>
		<clipPath id="SVGID_36_">
			<use xlink:href="#SVGID_35_"  style="overflow:visible;"/>
		</clipPath>
		<g class="st27">
			<path class="st6" d="M27.2,34.2c4.2-10.1,18.2-14,31.1-8.6s19.9,18,15.7,28.2c-4.2,10.1-18.2,14-31.1,8.6S23,44.4,27.2,34.2z"/>
			<path class="st7" d="M44.2,61.2c-11.9-5-18.4-16.4-14.6-25.5S46.2,23.2,58,28.2c11.9,5,18.4,16.4,14.6,25.5
				C68.8,62.8,56.1,66.2,44.2,61.2z"/>
			<path class="st8" d="M72.6,53.7c0.1-0.2,0.1-0.3,0.2-0.5l-43-18c-0.1,0.2-0.1,0.3-0.2,0.5c-3.8,9.1,2.7,20.6,14.6,25.5
				C56.1,66.2,68.8,62.8,72.6,53.7z"/>
			<path class="st9" d="M72.6,53.7c1.3-3.2,1.4-6.6,0.5-10c-4.1-0.2-8,2.1-9.7,6.1s-0.6,8.4,2.4,11.2C68.9,59.3,71.3,56.9,72.6,53.7
				z"/>
			<path class="st10" d="M72.6,53.7c0.6-1.4,0.9-3,1-4.5c-1.9,0.1-3.7,1.2-4.4,3.1c-0.8,1.9-0.3,3.9,0.9,5.3
				C71.2,56.4,72,55.2,72.6,53.7z"/>
		</g>
	</g>
	<g>
		<defs>
			<path id="SVGID_37_" d="M145.9,170.2H34.1c-13.5,0-24.4-10.9-24.4-24.4V34.1c0-13.5,10.9-24.4,24.4-24.4h111.7
				c13.5,0,24.4,10.9,24.4,24.4v111.7C170.2,159.3,159.3,170.2,145.9,170.2z"/>
		</defs>
		<clipPath id="SVGID_38_">
			<use xlink:href="#SVGID_37_"  style="overflow:visible;"/>
		</clipPath>
		<g class="st28">
			<path class="st6" d="M83.3,164.7c-7.3,8.2-21.8,7.2-32.2-2.1s-12.9-23.6-5.5-31.8c7.3-8.2,21.8-7.2,32.2,2.1
				S90.6,156.5,83.3,164.7z"/>
			<path class="st7" d="M76.2,133.6c9.6,8.6,12,21.6,5.4,28.9c-6.6,7.4-19.8,6.4-29.3-2.2c-9.6-8.6-12-21.6-5.4-28.9
				C53.5,124,66.6,125,76.2,133.6z"/>
			<path class="st8" d="M46.8,131.3c-0.1,0.1-0.2,0.3-0.3,0.4l34.7,31.2c0.1-0.1,0.2-0.2,0.3-0.4c6.6-7.4,4.2-20.3-5.4-28.9
				C66.6,125,53.5,124,46.8,131.3z"/>
			<path class="st9" d="M46.8,131.3c-2.3,2.6-3.5,5.8-3.7,9.3c3.8,1.5,8.2,0.6,11.1-2.6c2.9-3.2,3.3-7.7,1.4-11.3
				C52.2,127.2,49.1,128.8,46.8,131.3z"/>
			<path class="st10" d="M46.8,131.3c-1,1.2-1.9,2.5-2.5,3.9c1.8,0.6,3.9,0.1,5.2-1.4s1.6-3.6,0.9-5.3
				C49.1,129.2,47.9,130.2,46.8,131.3z"/>
		</g>
	</g>
	<g>
		<defs>
			<path id="SVGID_39_" d="M145.9,170.2H34.1c-13.5,0-24.4-10.9-24.4-24.4V34.1c0-13.5,10.9-24.4,24.4-24.4h111.7
				c13.5,0,24.4,10.9,24.4,24.4v111.7C170.2,159.3,159.3,170.2,145.9,170.2z"/>
		</defs>
		<clipPath id="SVGID_40_">
			<use xlink:href="#SVGID_39_"  style="overflow:visible;"/>
		</clipPath>
		<g class="st29">
			<path class="st6" d="M69.6,179.3c-7.3,8.2-21.8,7.2-32.2-2.1s-12.9-23.6-5.5-31.8c7.3-8.2,21.8-7.2,32.2,2.1S77,171.2,69.6,179.3
				z"/>
			<path class="st7" d="M62.5,148.2c9.6,8.6,12,21.6,5.4,28.9c-6.6,7.4-19.8,6.4-29.3-2.2c-9.6-8.6-12-21.6-5.4-28.9
				C39.8,138.6,52.9,139.6,62.5,148.2z"/>
			<path class="st8" d="M33.2,146c-0.1,0.1-0.2,0.3-0.3,0.4l34.7,31.2c0.1-0.1,0.2-0.2,0.3-0.4c6.6-7.4,4.2-20.3-5.4-28.9
				C52.9,139.6,39.8,138.6,33.2,146z"/>
			<path class="st9" d="M33.2,146c-2.3,2.6-3.5,5.8-3.7,9.3c3.8,1.5,8.2,0.6,11.1-2.6c2.9-3.2,3.3-7.7,1.4-11.3
				C38.5,141.9,35.5,143.4,33.2,146z"/>
			<path class="st10" d="M33.2,146c-1,1.2-1.9,2.5-2.5,3.9c1.8,0.6,3.9,0.1,5.2-1.4s1.6-3.6,0.9-5.3C35.4,143.9,34.2,144.8,33.2,146
				z"/>
		</g>
	</g>
	<g>
		<defs>
			<path id="SVGID_41_" d="M145.9,170.2H34.1c-13.5,0-24.4-10.9-24.4-24.4V34.1c0-13.5,10.9-24.4,24.4-24.4h111.7
				c13.5,0,24.4,10.9,24.4,24.4v111.7C170.2,159.3,159.3,170.2,145.9,170.2z"/>
		</defs>
		<clipPath id="SVGID_42_">
			<use xlink:href="#SVGID_41_"  style="overflow:visible;"/>
		</clipPath>
		<g class="st30">
			<path class="st6" d="M110.7,108.4c10.3,3.8,14.8,17.5,10,30.6s-17.1,20.7-27.4,16.9s-14.8-17.5-10-30.6S100.4,104.7,110.7,108.4z
				"/>
			<path class="st7" d="M84.5,126.6c4.4-12.1,15.6-19.2,24.9-15.8s13.2,16,8.8,28.1c-4.4,12.1-15.6,19.2-24.9,15.8
				S80.1,138.7,84.5,126.6z"/>
			<path class="st8" d="M93.3,154.7c0.2,0.1,0.3,0.1,0.5,0.2l16-43.8c-0.2-0.1-0.3-0.1-0.5-0.2c-9.3-3.4-20.4,3.6-24.9,15.8
				C80.1,138.7,84,151.3,93.3,154.7z"/>
			<path class="st9" d="M93.3,154.7c3.2,1.2,6.7,1.1,10,0c0-4.1-2.5-7.9-6.5-9.4s-8.4-0.2-11,2.9C87.5,151.2,90.1,153.5,93.3,154.7z
				"/>
			<path class="st10" d="M93.3,154.7c1.5,0.5,3,0.8,4.5,0.8c-0.1-1.9-1.4-3.6-3.3-4.3s-3.9-0.2-5.3,1.2
				C90.5,153.4,91.8,154.1,93.3,154.7z"/>
		</g>
	</g>
	<g>
		<defs>
			<path id="SVGID_43_" d="M145.9,170.2H34.1c-13.5,0-24.4-10.9-24.4-24.4V34.1c0-13.5,10.9-24.4,24.4-24.4h111.7
				c13.5,0,24.4,10.9,24.4,24.4v111.7C170.2,159.3,159.3,170.2,145.9,170.2z"/>
		</defs>
		<clipPath id="SVGID_44_">
			<use xlink:href="#SVGID_43_"  style="overflow:visible;"/>
		</clipPath>
		<g class="st31">
			<path class="st6" d="M113.7,62.8c9.8-5,22.9,1,29.3,13.4s3.7,26.6-6.1,31.6s-22.9-1-29.3-13.4C101.2,82.1,104,67.9,113.7,62.8z"
				/>
			<path class="st7" d="M109.3,94.4c-5.9-11.5-3.6-24.4,5.2-29c8.8-4.5,20.7,1.1,26.6,12.5c5.9,11.5,3.6,24.4-5.2,29
				C127.2,111.5,115.3,105.9,109.3,94.4z"/>
			<path class="st8" d="M136,106.9c0.1-0.1,0.3-0.2,0.4-0.2L115,65.3c-0.2,0.1-0.3,0.1-0.5,0.2c-8.8,4.5-11.2,17.5-5.2,29
				C115.3,105.9,127.2,111.5,136,106.9z"/>
			<path class="st9" d="M136,106.9c3-1.6,5.3-4.2,6.7-7.3c-3-2.8-7.5-3.5-11.3-1.5s-5.8,6.1-5.3,10.1
				C129.5,108.9,132.9,108.5,136,106.9z"/>
			<path class="st10" d="M136,106.9c1.4-0.7,2.6-1.7,3.7-2.8c-1.5-1.2-3.6-1.4-5.4-0.5c-1.8,0.9-2.8,2.8-2.7,4.7
				C133.1,108.1,134.6,107.7,136,106.9z"/>
		</g>
	</g>
	<g>
		<defs>
			<path id="SVGID_45_" d="M145.9,170.2H34.1c-13.5,0-24.4-10.9-24.4-24.4V34.1c0-13.5,10.9-24.4,24.4-24.4h111.7
				c13.5,0,24.4,10.9,24.4,24.4v111.7C170.2,159.3,159.3,170.2,145.9,170.2z"/>
		</defs>
		<clipPath id="SVGID_46_">
			<use xlink:href="#SVGID_45_"  style="overflow:visible;"/>
		</clipPath>
		<g class="st32">
			<path class="st6" d="M85.8,39c9.8,4.9,12.8,19,6.6,31.6C86.2,83,73.2,89.2,63.3,84.4c-9.8-4.9-12.8-19-6.6-31.6S76,34.1,85.8,39z
				"/>
			<path class="st7" d="M57.8,54.2c5.7-11.5,17.6-17.3,26.4-12.9c8.9,4.4,11.4,17.3,5.7,28.9C84.2,81.7,72.4,87.4,63.5,83
				S52.1,65.7,57.8,54.2z"/>
			<path class="st8" d="M63.5,83c0.1,0.1,0.3,0.1,0.5,0.2l20.7-41.8c-0.1-0.1-0.3-0.2-0.4-0.2c-8.9-4.4-20.7,1.4-26.4,12.9
				C52.1,65.7,54.6,78.6,63.5,83z"/>
			<path class="st9" d="M63.5,83c3.1,1.5,6.5,1.8,9.9,1.1c0.4-4-1.6-8.1-5.5-10s-8.3-1.1-11.3,1.7C58.1,79,60.4,81.5,63.5,83z"/>
			<path class="st10" d="M63.5,83c1.4,0.7,2.9,1.1,4.4,1.3c0.1-1.9-1-3.7-2.8-4.6c-1.8-0.9-3.9-0.6-5.4,0.6
				C60.8,81.4,62.1,82.3,63.5,83z"/>
		</g>
	</g>
	<g>
		<defs>
			<path id="SVGID_47_" d="M145.9,170.2H34.1c-13.5,0-24.4-10.9-24.4-24.4V34.1c0-13.5,10.9-24.4,24.4-24.4h111.7
				c13.5,0,24.4,10.9,24.4,24.4v111.7C170.2,159.3,159.3,170.2,145.9,170.2z"/>
		</defs>
		<clipPath id="SVGID_48_">
			<use xlink:href="#SVGID_47_"  style="overflow:visible;"/>
		</clipPath>
		<g class="st33">
			<path class="st6" d="M174.3,94.7c-7.3,8.2-21.8,7.2-32.2-2.1s-12.9-23.6-5.5-31.8c7.3-8.2,21.8-7.2,32.2,2.1
				S181.6,86.5,174.3,94.7z"/>
			<path class="st7" d="M167.2,63.6c9.6,8.6,12,21.6,5.4,28.9c-6.6,7.4-19.8,6.4-29.3-2.3c-9.6-8.6-12-21.6-5.4-28.9
				C144.5,54,157.6,55,167.2,63.6z"/>
			<path class="st8" d="M137.8,61.3c-0.1,0.1-0.2,0.3-0.3,0.4l34.7,31.2c0.1-0.1,0.2-0.2,0.3-0.4c6.6-7.4,4.2-20.3-5.4-28.9
				C157.6,55,144.5,54,137.8,61.3z"/>
			<path class="st9" d="M137.8,61.3c-2.3,2.6-3.5,5.8-3.7,9.3c3.8,1.5,8.2,0.6,11.1-2.6c2.9-3.2,3.3-7.7,1.4-11.3
				C143.2,57.2,140.1,58.8,137.8,61.3z"/>
			<path class="st10" d="M137.8,61.3c-1,1.2-1.9,2.5-2.5,3.9c1.8,0.6,3.9,0.1,5.2-1.4s1.6-3.6,0.9-5.3
				C140.1,59.2,138.9,60.2,137.8,61.3z"/>
		</g>
	</g>
	<g>
		<defs>
			<path id="SVGID_49_" d="M145.9,170.2H34.1c-13.5,0-24.4-10.9-24.4-24.4V34.1c0-13.5,10.9-24.4,24.4-24.4h111.7
				c13.5,0,24.4,10.9,24.4,24.4v111.7C170.2,159.3,159.3,170.2,145.9,170.2z"/>
		</defs>
		<clipPath id="SVGID_50_">
			<use xlink:href="#SVGID_49_"  style="overflow:visible;"/>
		</clipPath>
		<g class="st34">
			<path class="st6" d="M160.6,109.3c-7.3,8.2-21.8,7.2-32.2-2.1s-12.9-23.6-5.5-31.8c7.3-8.2,21.8-7.2,32.2,2.1
				C165.5,86.9,168,101.2,160.6,109.3z"/>
			<path class="st7" d="M153.5,78.2c9.6,8.6,12,21.6,5.4,28.9c-6.6,7.4-19.8,6.4-29.3-2.3c-9.6-8.6-12-21.6-5.4-28.9
				C130.8,68.6,143.9,69.6,153.5,78.2z"/>
			<path class="st8" d="M124.2,76c-0.1,0.1-0.2,0.3-0.3,0.4l34.7,31.2c0.1-0.1,0.2-0.2,0.3-0.4c6.6-7.4,4.2-20.3-5.4-28.9
				C143.9,69.6,130.8,68.6,124.2,76z"/>
			<path class="st9" d="M124.2,76c-2.3,2.6-3.5,5.8-3.7,9.3c3.8,1.5,8.2,0.6,11.1-2.6c2.9-3.2,3.3-7.7,1.4-11.3
				C129.5,71.9,126.5,73.4,124.2,76z"/>
			<path class="st10" d="M124.2,76c-1,1.2-1.9,2.5-2.5,3.9c1.8,0.6,3.9,0.1,5.2-1.4c1.3-1.5,1.6-3.6,0.9-5.3
				C126.4,73.9,125.2,74.8,124.2,76z"/>
		</g>
	</g>
	<g>
		<defs>
			<path id="SVGID_51_" d="M145.9,170.2H34.1c-13.5,0-24.4-10.9-24.4-24.4V34.1c0-13.5,10.9-24.4,24.4-24.4h111.7
				c13.5,0,24.4,10.9,24.4,24.4v111.7C170.2,159.3,159.3,170.2,145.9,170.2z"/>
		</defs>
		<clipPath id="SVGID_52_">
			<use xlink:href="#SVGID_51_"  style="overflow:visible;"/>
		</clipPath>
		<g class="st35">
			<path class="st6" d="M200.1,42.2c10.3,3.8,14.8,17.5,10,30.6s-17.1,20.8-27.4,17c-10.3-3.8-14.8-17.5-10-30.6
				S189.8,38.4,200.1,42.2z"/>
			<path class="st7" d="M173.9,60.4c4.4-12.1,15.6-19.2,24.9-15.8c9.3,3.4,13.2,16,8.8,28.1S192,91.9,182.7,88.5
				C173.4,85.1,169.5,72.5,173.9,60.4z"/>
			<path class="st8" d="M182.7,88.5c0.2,0.1,0.3,0.1,0.5,0.2l16-43.8c-0.2-0.1-0.3-0.1-0.5-0.2c-9.3-3.4-20.4,3.6-24.9,15.8
				C169.5,72.5,173.4,85.1,182.7,88.5z"/>
			<path class="st9" d="M182.7,88.5c3.2,1.2,6.7,1.1,10,0c0-4.1-2.5-7.9-6.5-9.4s-8.4-0.2-11,2.9C176.9,85,179.5,87.3,182.7,88.5z"
				/>
			<path class="st10" d="M182.7,88.5c1.5,0.5,3,0.8,4.5,0.8c-0.1-1.9-1.4-3.6-3.3-4.3c-1.9-0.7-3.9-0.2-5.3,1.2
				C179.9,87.1,181.3,87.9,182.7,88.5z"/>
		</g>
	</g>
	<g>
		<defs>
			<path id="SVGID_53_" d="M145.9,170.2H34.1c-13.5,0-24.4-10.9-24.4-24.4V34.1c0-13.5,10.9-24.4,24.4-24.4h111.7
				c13.5,0,24.4,10.9,24.4,24.4v111.7C170.2,159.3,159.3,170.2,145.9,170.2z"/>
		</defs>
		<clipPath id="SVGID_54_">
			<use xlink:href="#SVGID_53_"  style="overflow:visible;"/>
		</clipPath>
		<g class="st36">
			<path class="st6" d="M145.9-1.4c9.8,4.9,12.8,19,6.6,31.6S133.2,48.9,123.4,44s-12.8-19-6.6-31.6S136.1-6.2,145.9-1.4z"/>
			<path class="st7" d="M117.8,13.8c5.7-11.5,17.6-17.3,26.4-12.9c8.9,4.4,11.4,17.3,5.7,28.9c-5.7,11.5-17.6,17.3-26.4,12.9
				S112.1,25.4,117.8,13.8z"/>
			<path class="st8" d="M123.5,42.7c0.1,0.1,0.3,0.1,0.5,0.2l20.7-41.8c-0.1-0.1-0.3-0.2-0.4-0.2c-8.9-4.4-20.7,1.4-26.4,12.9
				C112.1,25.4,114.7,38.3,123.5,42.7z"/>
			<path class="st9" d="M123.5,42.7c3.1,1.5,6.5,1.8,9.9,1.1c0.4-4-1.6-8.1-5.5-10c-3.9-1.9-8.3-1.1-11.3,1.7
				C118.1,38.6,120.5,41.2,123.5,42.7z"/>
			<path class="st10" d="M123.5,42.7c1.4,0.7,2.9,1.1,4.4,1.3c0.1-1.9-1-3.7-2.8-4.6c-1.8-0.9-3.9-0.6-5.4,0.6
				C120.9,41.1,122.1,42,123.5,42.7z"/>
		</g>
	</g>
	<g>
		<defs>
			<path id="SVGID_55_" d="M145.9,170.2H34.1c-13.5,0-24.4-10.9-24.4-24.4V34.1c0-13.5,10.9-24.4,24.4-24.4h111.7
				c13.5,0,24.4,10.9,24.4,24.4v111.7C170.2,159.3,159.3,170.2,145.9,170.2z"/>
		</defs>
		<clipPath id="SVGID_56_">
			<use xlink:href="#SVGID_55_"  style="overflow:visible;"/>
		</clipPath>
		<g class="st37">
			<path class="st6" d="M119.1,88.5c-2.8,10.6-16.1,16.4-29.6,12.8S67.3,86.1,70.1,75.5c2.8-10.6,16.1-16.4,29.6-12.8
				S121.9,77.9,119.1,88.5z"/>
			<path class="st7" d="M98.6,64c12.5,3.3,20.5,13.7,18,23.3S101.9,102,89.5,98.7C77,95.4,69,85,71.5,75.4S86.1,60.7,98.6,64z"/>
			<path class="st8" d="M71.4,75.4c0,0.2-0.1,0.3-0.1,0.5l45.1,11.9c0-0.2,0.1-0.3,0.1-0.5c2.5-9.6-5.5-20-18-23.3
				C86.1,60.7,74,65.8,71.4,75.4z"/>
			<path class="st9" d="M71.4,75.4c-0.9,3.3-0.5,6.7,0.9,9.9c4-0.4,7.6-3.2,8.7-7.4c1.1-4.2-0.6-8.4-3.9-10.7
				C74.3,69.3,72.3,72.1,71.4,75.4z"/>
			<path class="st10" d="M71.4,75.4C71,76.9,70.9,78.5,71,80c1.9-0.3,3.5-1.7,4-3.6s-0.2-3.9-1.7-5.1C72.5,72.5,71.8,73.9,71.4,75.4
				z"/>
		</g>
	</g>
	<g>
		<defs>
			<path id="SVGID_57_" d="M145.9,170.2H34.1c-13.5,0-24.4-10.9-24.4-24.4V34.1c0-13.5,10.9-24.4,24.4-24.4h111.7
				c13.5,0,24.4,10.9,24.4,24.4v111.7C170.2,159.3,159.3,170.2,145.9,170.2z"/>
		</defs>
		<clipPath id="SVGID_58_">
			<use xlink:href="#SVGID_57_"  style="overflow:visible;"/>
		</clipPath>
		<g class="st38">
			<path class="st6" d="M160.5,162.8c-2.8,10.6-16.1,16.4-29.6,12.8c-13.5-3.6-22.2-15.1-19.4-25.8c2.8-10.6,16.1-16.4,29.6-12.8
				C154.6,140.6,163.3,152.2,160.5,162.8z"/>
			<path class="st7" d="M140,138.4c12.5,3.3,20.5,13.7,18,23.3s-14.7,14.7-27.1,11.4c-12.5-3.3-20.5-13.7-18-23.3
				C115.4,140.2,127.5,135.1,140,138.4z"/>
			<path class="st8" d="M112.8,149.7c0,0.2-0.1,0.3-0.1,0.5l45.1,11.9c0-0.2,0.1-0.3,0.1-0.5c2.5-9.6-5.5-20-18-23.3
				C127.5,135.1,115.4,140.2,112.8,149.7z"/>
			<path class="st9" d="M112.8,149.7c-0.9,3.3-0.5,6.7,0.9,9.9c4-0.4,7.6-3.2,8.7-7.4s-0.6-8.4-3.9-10.7
				C115.7,143.6,113.7,146.4,112.8,149.7z"/>
			<path class="st10" d="M112.8,149.7c-0.4,1.5-0.5,3.1-0.4,4.6c1.9-0.3,3.5-1.7,4-3.6c0.5-1.9-0.2-3.9-1.7-5.1
				C113.9,146.8,113.2,148.2,112.8,149.7z"/>
		</g>
	</g>
	<g>
		<defs>
			<path id="SVGID_59_" d="M145.9,170.2H34.1c-13.5,0-24.4-10.9-24.4-24.4V34.1c0-13.5,10.9-24.4,24.4-24.4h111.7
				c13.5,0,24.4,10.9,24.4,24.4v111.7C170.2,159.3,159.3,170.2,145.9,170.2z"/>
		</defs>
		<clipPath id="SVGID_60_">
			<use xlink:href="#SVGID_59_"  style="overflow:visible;"/>
		</clipPath>
		<g class="st39">
			<path class="st6" d="M49.9,90.3c-10.7,2.6-22-6.4-25.3-19.9S27.4,43.6,38.1,41s22,6.4,25.3,19.9C66.7,74.6,60.6,87.7,49.9,90.3z"
				/>
			<path class="st7" d="M61.7,60.6c3,12.5-2.3,24.6-12,26.9c-9.6,2.3-19.9-5.9-22.9-18.5c-3-12.5,2.3-24.6,12-26.9
				C48.4,39.8,58.7,48.1,61.7,60.6z"/>
			<path class="st8" d="M38.8,42.2c-0.2,0-0.3,0.1-0.5,0.1l10.9,45.3c0.2,0,0.3-0.1,0.5-0.1c9.6-2.3,15-14.4,12-26.9
				C58.7,48.1,48.4,39.8,38.8,42.2z"/>
			<path class="st9" d="M38.8,42.2c-3.3,0.8-6.2,2.8-8.3,5.5c2.3,3.4,6.5,5.2,10.6,4.2c4.2-1,7.1-4.5,7.6-8.6
				C45.5,41.8,42.1,41.3,38.8,42.2z"/>
			<path class="st10" d="M38.8,42.2c-1.5,0.4-2.9,1-4.2,1.8c1.2,1.5,3.1,2.2,5.1,1.8c2-0.5,3.4-2,3.7-3.9
				C41.8,41.7,40.3,41.8,38.8,42.2z"/>
		</g>
	</g>
	<g>
		<defs>
			<path id="SVGID_61_" d="M145.9,170.2H34.1c-13.5,0-24.4-10.9-24.4-24.4V34.1c0-13.5,10.9-24.4,24.4-24.4h111.7
				c13.5,0,24.4,10.9,24.4,24.4v111.7C170.2,159.3,159.3,170.2,145.9,170.2z"/>
		</defs>
		<clipPath id="SVGID_62_">
			<use xlink:href="#SVGID_61_"  style="overflow:visible;"/>
		</clipPath>
		<g class="st40">
			<path class="st6" d="M80.9,49.7c-10.7,2.6-22-6.4-25.3-19.9S58.4,3,69.1,0.4s22,6.4,25.3,19.9C97.7,34,91.6,47.1,80.9,49.7z"/>
			<path class="st7" d="M92.7,20c3,12.5-2.3,24.6-12,26.9c-9.6,2.3-19.9-5.9-22.9-18.5c-3-12.5,2.3-24.6,12-26.9
				C79.4-0.8,89.7,7.5,92.7,20z"/>
			<path class="st8" d="M69.8,1.6c-0.2,0-0.3,0.1-0.5,0.1L80.2,47c0.2,0,0.3-0.1,0.5-0.1c9.6-2.3,15-14.4,12-26.9S79.4-0.8,69.8,1.6
				z"/>
			<path class="st9" d="M69.8,1.6c-3.3,0.8-6.2,2.8-8.3,5.5c2.3,3.4,6.5,5.2,10.6,4.2c4.2-1,7.1-4.5,7.6-8.6
				C76.5,1.2,73.1,0.7,69.8,1.6z"/>
			<path class="st10" d="M69.8,1.6c-1.5,0.4-2.9,1-4.2,1.8c1.2,1.5,3.1,2.2,5.1,1.8c2-0.5,3.4-2,3.7-3.9C72.8,1.1,71.3,1.2,69.8,1.6
				z"/>
		</g>
	</g>
	<g>
		<defs>
			<path id="SVGID_63_" d="M145.9,170.2H34.1c-13.5,0-24.4-10.9-24.4-24.4V34.1c0-13.5,10.9-24.4,24.4-24.4h111.7
				c13.5,0,24.4,10.9,24.4,24.4v111.7C170.2,159.3,159.3,170.2,145.9,170.2z"/>
		</defs>
		<clipPath id="SVGID_64_">
			<use xlink:href="#SVGID_63_"  style="overflow:visible;"/>
		</clipPath>
		<g class="st41">
			<path class="st6" d="M2.7,38.2c7.6-8,22-6.6,32.1,3s12.2,24,4.6,31.9c-7.6,8-22,6.6-32.1-3S-4.8,46.1,2.7,38.2z"/>
			<path class="st7" d="M9,69.5c-9.3-8.9-11.4-21.9-4.5-29.1c6.8-7.2,19.9-5.8,29.3,3.1C43,52.4,45,65.4,38.2,72.6
				C31.4,79.8,18.3,78.4,9,69.5z"/>
			<path class="st8" d="M38.2,72.6c0.1-0.1,0.2-0.2,0.3-0.4L4.8,40.1c-0.1,0.1-0.2,0.2-0.4,0.3C-2.4,47.6-0.4,60.6,9,69.5
				C18.3,78.4,31.4,79.8,38.2,72.6z"/>
			<path class="st9" d="M38.2,72.6c2.4-2.5,3.7-5.7,4-9.1c-3.7-1.6-8.2-0.9-11.2,2.3c-3,3.1-3.5,7.6-1.7,11.3
				C32.7,76.5,35.9,75.1,38.2,72.6z"/>
			<path class="st10" d="M38.2,72.6c1.1-1.1,1.9-2.4,2.6-3.8c-1.8-0.6-3.8-0.2-5.2,1.3s-1.7,3.5-1,5.3
				C35.9,74.6,37.1,73.7,38.2,72.6z"/>
		</g>
	</g>
	<g>
		<defs>
			<path id="SVGID_65_" d="M145.9,170.2H34.1c-13.5,0-24.4-10.9-24.4-24.4V34.1c0-13.5,10.9-24.4,24.4-24.4h111.7
				c13.5,0,24.4,10.9,24.4,24.4v111.7C170.2,159.3,159.3,170.2,145.9,170.2z"/>
		</defs>
		<clipPath id="SVGID_66_">
			<use xlink:href="#SVGID_65_"  style="overflow:visible;"/>
		</clipPath>
		<g class="st42">
			<path class="st6" d="M-0.3,70.5c7.6-8,22-6.6,32.1,3s12.2,23.9,4.6,31.9s-22,6.6-32.1-3S-7.8,78.5-0.3,70.5z"/>
			<path class="st7" d="M6,101.8c-9.3-8.9-11.4-21.9-4.5-29.1c6.8-7.2,19.9-5.8,29.3,3.1c9.3,8.9,11.4,21.9,4.5,29.1
				S15.3,110.7,6,101.8z"/>
			<path class="st8" d="M35.2,104.9c0.1-0.1,0.2-0.2,0.3-0.4L1.8,72.4c-0.1,0.1-0.2,0.2-0.4,0.3c-6.8,7.2-4.8,20.2,4.5,29.1
				C15.3,110.7,28.4,112.1,35.2,104.9z"/>
			<path class="st9" d="M35.2,104.9c2.4-2.5,3.7-5.7,4-9.1C35.5,94.1,31,94.9,28,98s-3.5,7.6-1.7,11.3
				C29.7,108.9,32.9,107.4,35.2,104.9z"/>
			<path class="st10" d="M35.2,104.9c1.1-1.1,1.9-2.4,2.6-3.8c-1.8-0.6-3.8-0.2-5.2,1.3c-1.4,1.5-1.7,3.5-1,5.3
				C32.9,107,34.1,106,35.2,104.9z"/>
		</g>
	</g>
	<g>
		<defs>
			<path id="SVGID_67_" d="M145.9,170.2H34.1c-13.5,0-24.4-10.9-24.4-24.4V34.1c0-13.5,10.9-24.4,24.4-24.4h111.7
				c13.5,0,24.4,10.9,24.4,24.4v111.7C170.2,159.3,159.3,170.2,145.9,170.2z"/>
		</defs>
		<clipPath id="SVGID_68_">
			<use xlink:href="#SVGID_67_"  style="overflow:visible;"/>
		</clipPath>
		<g class="st43">
			<path class="st6" d="M50.4,104.8c7.6-8,22-6.6,32.1,3s12.2,23.9,4.6,31.9s-22,6.6-32.1-3S42.8,112.8,50.4,104.8z"/>
			<path class="st7" d="M56.6,136.1c-9.3-8.9-11.4-21.9-4.5-29.1c6.8-7.2,19.9-5.8,29.3,3.1c9.3,8.9,11.4,21.9,4.5,29.1
				C79.1,146.4,66,145,56.6,136.1z"/>
			<path class="st8" d="M85.9,139.2c0.1-0.1,0.2-0.2,0.3-0.4l-33.8-32.2c-0.1,0.1-0.2,0.2-0.4,0.3c-6.8,7.2-4.8,20.2,4.5,29.1
				C66,145,79.1,146.4,85.9,139.2z"/>
			<path class="st9" d="M85.9,139.2c2.4-2.5,3.7-5.7,4-9.1c-3.7-1.6-8.2-0.9-11.2,2.3c-3,3.1-3.5,7.6-1.7,11.3
				C80.4,143.2,83.5,141.7,85.9,139.2z"/>
			<path class="st10" d="M85.9,139.2c1.1-1.1,1.9-2.4,2.6-3.8c-1.8-0.6-3.8-0.2-5.2,1.3c-1.4,1.5-1.7,3.5-1,5.3
				C83.6,141.3,84.8,140.4,85.9,139.2z"/>
		</g>
	</g>
	<g>
		<defs>
			<path id="SVGID_69_" d="M145.9,170.2H34.1c-13.5,0-24.4-10.9-24.4-24.4V34.1c0-13.5,10.9-24.4,24.4-24.4h111.7
				c13.5,0,24.4,10.9,24.4,24.4v111.7C170.2,159.3,159.3,170.2,145.9,170.2z"/>
		</defs>
		<clipPath id="SVGID_70_">
			<use xlink:href="#SVGID_69_"  style="overflow:visible;"/>
		</clipPath>
		<g class="st44">
			<path class="st6" d="M25.7,117.5c9.5,5.5,11.6,19.8,4.6,31.9c-7,12.1-20.4,17.5-29.9,12s-11.6-19.8-4.6-31.9S16.2,112,25.7,117.5
				z"/>
			<path class="st7" d="M-3.3,130.9c6.4-11.2,18.6-16.2,27.2-11.2s10.3,18,3.9,29.2C21.3,160,9.2,165,0.6,160.1
				C-8,155.1-9.7,142.1-3.3,130.9z"/>
			<path class="st8" d="M0.6,160.1c0.1,0.1,0.3,0.2,0.4,0.2L24.3,120c-0.1-0.1-0.3-0.2-0.4-0.3c-8.6-5-20.8,0.1-27.2,11.2
				C-9.7,142.1-8,155.1,0.6,160.1z"/>
			<path class="st9" d="M0.6,160.1c3,1.7,6.4,2.2,9.8,1.7c0.7-4-1.1-8.2-4.8-10.4s-8.3-1.6-11.4,1C-4.5,155.7-2.4,158.4,0.6,160.1z"
				/>
			<path class="st10" d="M0.6,160.1c1.4,0.8,2.8,1.3,4.3,1.6c0.2-1.9-0.7-3.8-2.5-4.8c-1.7-1-3.8-0.8-5.4,0.3
				C-2,158.3-0.8,159.3,0.6,160.1z"/>
		</g>
	</g>
	<g>
		<defs>
			<path id="SVGID_71_" d="M145.9,170.2H34.1c-13.5,0-24.4-10.9-24.4-24.4V34.1c0-13.5,10.9-24.4,24.4-24.4h111.7
				c13.5,0,24.4,10.9,24.4,24.4v111.7C170.2,159.3,159.3,170.2,145.9,170.2z"/>
		</defs>
		<clipPath id="SVGID_72_">
			<use xlink:href="#SVGID_71_"  style="overflow:visible;"/>
		</clipPath>
		<g class="st45">
			<path class="st6" d="M54.3,90c9.5,5.5,11.6,19.8,4.6,31.9s-20.4,17.5-29.9,12s-11.6-19.8-4.6-31.9S44.8,84.5,54.3,90z"/>
			<path class="st7" d="M25.4,103.4C31.8,92.2,44,87.2,52.6,92.1c8.6,5,10.3,18,3.9,29.2s-18.6,16.2-27.2,11.2
				C20.7,127.6,18.9,114.5,25.4,103.4z"/>
			<path class="st8" d="M29.2,132.5c0.1,0.1,0.3,0.2,0.4,0.2L53,92.4c-0.1-0.1-0.3-0.2-0.4-0.3c-8.6-5-20.8,0.1-27.2,11.2
				C18.9,114.5,20.7,127.6,29.2,132.5z"/>
			<path class="st9" d="M29.2,132.5c3,1.7,6.4,2.2,9.8,1.7c0.7-4-1.1-8.2-4.8-10.4c-3.7-2.2-8.3-1.6-11.4,1
				C24.1,128.1,26.3,130.8,29.2,132.5z"/>
			<path class="st10" d="M29.2,132.5c1.4,0.8,2.8,1.3,4.3,1.6c0.2-1.9-0.7-3.8-2.5-4.8c-1.7-1-3.8-0.8-5.4,0.3
				C26.7,130.8,27.9,131.8,29.2,132.5z"/>
		</g>
	</g>
	<g>
		<defs>
			<path id="SVGID_73_" d="M145.9,170.2H34.1c-13.5,0-24.4-10.9-24.4-24.4V34.1c0-13.5,10.9-24.4,24.4-24.4h111.7
				c13.5,0,24.4,10.9,24.4,24.4v111.7C170.2,159.3,159.3,170.2,145.9,170.2z"/>
		</defs>
		<clipPath id="SVGID_74_">
			<use xlink:href="#SVGID_73_"  style="overflow:visible;"/>
		</clipPath>
		<g class="st46">
			<path class="st6" d="M33.6,116.7c-5,9.8-19.1,12.7-31.6,6.3c-12.5-6.3-18.6-19.4-13.6-29.2S7.5,81.1,20,87.5
				S38.5,106.9,33.6,116.7z"/>
			<path class="st7" d="M18.6,88.5c11.5,5.8,17.2,17.7,12.7,26.5s-17.4,11.3-28.9,5.5S-14.8,102.8-10.3,94
				C-5.9,85.1,7.1,82.7,18.6,88.5z"/>
			<path class="st8" d="M-10.3,94c-0.1,0.1-0.1,0.3-0.2,0.5l41.6,21.1c0.1-0.1,0.2-0.3,0.2-0.4c4.5-8.8-1.2-20.7-12.7-26.5
				C7.1,82.7-5.9,85.1-10.3,94z"/>
		</g>
	</g>
</g>
</svg>
