<?xml version="1.0" encoding="utf-8"?>
<!-- Generator: Adobe Illustrator 22.0.1, SVG Export Plug-In . SVG Version: 6.00 Build 0)  -->
<svg version="1.1" id="Layer_1" xmlns="http://www.w3.org/2000/svg" xmlns:xlink="http://www.w3.org/1999/xlink" x="0px" y="0px"
	 width="180px" height="180px" viewBox="0 0 180 180" style="enable-background:new 0 0 180 180;" xml:space="preserve">
<style type="text/css">
	.st0{fill:#ECBA7F;}
	.st1{fill:#ECCAA3;}
	.st2{fill:none;stroke:#A8774F;stroke-width:2;stroke-miterlimit:10;}
	.st3{fill:#D4AF92;}
	.st4{fill:#E6BA8C;}
	.st5{fill:#DEB493;}
	.st6{opacity:0.48;fill:#A8774F;enable-background:new    ;}
	.st7{fill:#85390A;}
	.st8{fill:#C16228;}
	.st9{fill:#E48E45;}
	.st10{fill:#9C430C;}
	.st11{fill:#B85B23;}
	.st12{fill:#F2F4E7;}
	.st13{fill:#DEE6C8;}
</style>
<g id="Spatula">
	<path class="st0" d="M90.1,154.4c-62.2,0-88-15.9-88-24.4c1.8-6.7,10.5-22.6,11.3-23.8c2.1-4,147.2,0.1,149.3,4.1
		c0.8,1.2,15.5,13.2,15.5,19.7C178.2,138.5,152.3,154.4,90.1,154.4z"/>
	<path class="st1" d="M166.1,102.8c-1.9-3.7-7.1-6.4-13.5-7c-15.8-1.4-44.5-5.3-47.3-14.7c-3.4-11.1-7.4-28.6-8.6-37.4
		c-0.2-1.4-2.1-2.5-4.4-2.5h-2.1h-2.1c-2.3,0-4.3,1.1-4.4,2.5c-1.1,8.8-5.2,26.3-8.6,37.4c-2.9,9.4-31.6,13.3-47.3,14.7
		c-6.4,0.6-11.6,3.3-13.5,7c0,0-9.6,17.6-10.2,24.8c-0.6,7.2,22.8,21.9,86.2,21.9s88.2-15.8,86.4-22.8
		C174.7,119.4,166.1,102.8,166.1,102.8z M90.1,48.3c-2.2,0-4-0.9-4-2.1c0-1.2,1.8-2.1,4-2.1s4,0.9,4,2.1
		C94.2,47.4,92.4,48.3,90.1,48.3z"/>
	<path class="st2" d="M165.9,102.6c-1.9-3.7-7.1-6.4-13.5-7c-15.8-1.4-44.5-5.3-47.3-14.7c-3.4-11.1-7.4-28.6-8.6-37.4
		c-0.2-1.4-2.1-2.5-4.4-2.5H90h-2.1c-2.3,0-4.3,1.1-4.4,2.5c-1.1,8.8-5.2,26.3-8.6,37.4C72,90.3,43.4,94.2,27.6,95.6
		c-6.4,0.6-11.6,3.3-13.5,7c0,0-12.1,25.7-12.1,27.1c0,8.5,25.8,24.4,88,24.4s88-15.9,88-24.4C178,128.3,165.9,102.6,165.9,102.6z
		 M90,43.9c2.2,0,4,0.9,4,2.1s-1.8,2-4,2s-4-0.9-4-2.1S87.8,43.9,90,43.9z"/>
	<g>
		<g>
			<path class="st3" d="M54.9,92.7c2.6,5,8.5,10.1,6.7,16.2s-9.6,8.8-12.5,14.6c-4.1,8.2-1.3,19.6,3.5,26.9c0.1,0.2,0.4,0,0.3-0.2
				c-3-6.7-5-13.6-0.7-20.2c3.2-4.9,7.4-8.3,9.6-13.9c1.5-3.9,3-8.6,1.5-12.7C61.7,99,57.5,96.4,54.9,92.7
				C55,92.6,54.9,92.6,54.9,92.7L54.9,92.7z"/>
		</g>
	</g>
	<g>
		<g>
			<path class="st4" d="M17.5,99.1c-5.2,5.7-0.9,10.1,4.3,13.7c3.6,2.5,6.9,6,4.7,10.7c-0.9,2-2,3.9-2.9,6
				c-1.8,4.5-2.7,9.1-3.3,13.9c-0.1,0.5,0.7,0.6,0.9,0.1c1.4-4.5,2.5-9,4.3-13.4c1.3-3.3,4.2-7,3.8-10.7c-0.3-2.4-1.8-4.2-3.6-5.7
				c-1.3-1.1-2.9-1.9-4.3-2.9c-1.1-0.7-2.5-1.5-3.4-2.5C16.5,106.4,16.4,101.2,17.5,99.1L17.5,99.1L17.5,99.1z"/>
		</g>
	</g>
	<g>
		<g>
			<path class="st4" d="M30.6,112.4c-0.4-4,1.1-9.6,6-10.3c6.7-1,6,4.2,5.3,7.6c-1,4.7-3.5,7.2-6.1,11c-4.4,6.5-1.2,13.3-1.1,20.6
				c0,0.3,0.5,0.4,0.5,0.1c0.5-3.2,0.1-6-0.3-9.2c-0.4-3.5-1.1-6.5,0.8-9.7c0.8-1.4,2-2.5,2.9-3.8c2.8-3.9,6.2-10.4,4.5-15.5
				c-1.2-3.4-5.6-2.9-8.3-1.5C30.6,103.8,29.2,108.2,30.6,112.4C30.5,112.4,30.6,112.4,30.6,112.4L30.6,112.4z"/>
		</g>
	</g>
	<g>
		<g>
			<path class="st3" d="M33.1,111c0.3-0.8,0.6-1.6,1-2.3c2.1-0.1,2.6,0.9,1.4,2.8c-0.5,0.9-1.2,1.6-1.6,2.6
				c-1.1,2.5-1.3,5.7-4.5,6.5c-0.2,0.1-0.1,0.4,0.1,0.4c2-0.3,3.1-1.6,3.9-3.4c0.7-1.6,0.9-3.2,1.8-4.7c0.6-0.9,1.1-1.5,1.3-2.6
				c0.1-0.7,0.1-2.6-1-2.8C33.9,107.1,33.4,110,33.1,111L33.1,111L33.1,111z"/>
		</g>
	</g>
	<g>
		<g>
			<path class="st4" d="M96.2,49.5c-11.4,11.8-5.3,31,1.3,43.8c4.2,8.1,9.8,15.1,13.5,23.5c2,4.5,4.3,9.3,5.4,14.1
				c1.1,4.5,0,8.9,0.5,13.4c0.1,0.5,0.7,0.5,0.7,0c0.6-7.5,0.9-12.6-1.9-19.7c-3-7.6-6.2-14.8-10.7-21.6c-4.8-7.4-8.9-14.5-11.6-23
				C90.3,70,88,57.8,96.2,49.5C96.3,49.5,96.2,49.5,96.2,49.5L96.2,49.5z"/>
		</g>
	</g>
	<g>
		<g>
			<path class="st5" d="M149.3,98.5c5.6,5,11.1,9.3,13,16.9c1.9,7.8,2.4,15.8,2.7,23.8c0,0.9,1.3,1.1,1.6,0.2
				c2.2-8.4,1.9-17.8-1.5-25.8C161.8,106.3,155.6,102.8,149.3,98.5L149.3,98.5L149.3,98.5z"/>
		</g>
	</g>
	<g>
		<g>
			<path class="st3" d="M114.6,98.1c0.9,5.2,1.5,10.8,3.4,15.7c2,4.9,7.5,6.4,9.3,11c1.4,3.7,0.7,7.4,3.3,10.8
				c1.9,2.5,5.5,4.9,8.9,4.6c6.5-0.6,6.6-12.9,4.7-17.2c-2-4.4-5.9-8-8.5-12c-3.4-5.4-5.5-11.2-6.4-17.5c-0.1-0.4-0.7-0.3-0.7,0.1
				c-0.1,7.4,3,14.3,7.1,20.3c2,2.9,4.5,5.5,6.1,8.7c1.9,3.6,3.1,16.6-4.7,15.2c-8.9-1.6-5.2-12.6-10.2-17.3c-3.1-2.9-6.3-4.4-8-8.7
				C117,107.5,115.8,102.7,114.6,98.1L114.6,98.1L114.6,98.1z"/>
		</g>
	</g>
	<g>
		<g>
			<path class="st4" d="M79.8,65.2c2.1,3.8,4.1,6.7,4.1,11.2c0,3.8-0.7,7.7-1.7,11.3c-1.4,5.3-6,11.4-5.1,17.1
				c0.8,5.3,5.7,10.6,9.1,14.5c2.1,2.4,4.5,4.4,6.7,6.7c2.4,2.4,3.4,5.1,3.2,8.5c-0.2,2.8-1.8,6.7-4.6,7.7c-0.4,0.2-0.3,0.8,0.2,0.7
				c4.6-1.1,6.4-8.1,5.5-12.2c-0.7-2.9-3-5-5-6.9c-3.7-3.5-7.2-7.3-10.1-11.5c-1.3-1.8-3.1-4.1-3.6-6.3c-0.8-3.6,0.6-6.4,2-9.6
				c1.6-3.8,2.8-7.6,3.5-11.6c0.6-3.4,1.1-7.1,0.4-10.6C83.8,70.6,81.3,68.3,79.8,65.2C79.9,65.1,79.8,65.1,79.8,65.2L79.8,65.2z"/>
		</g>
	</g>
	<g>
		<g>
			<path class="st4" d="M68.4,87.6c0.8,4.8,3.5,9.8,3,14.8c-0.4,5-4.6,7.1-5.5,11.6c-0.1,0.4,0.5,0.8,0.8,0.3
				c2.1-3.7,5.7-6.6,6-11.1C73.2,97.8,70.1,92.6,68.4,87.6L68.4,87.6L68.4,87.6z"/>
		</g>
	</g>
	<g>
		<g>
			<path class="st3" d="M78.4,144.7c-4-1.9-8.5-5-8.5-10c0-3,2.4-6.1,3.4-8.9c1.9-5.3,2.4-11.2,0.8-16.5c-0.1-0.5-1-0.4-0.9,0.1
				c0.7,5.2,1,10.2-0.6,15.3c-0.9,2.9-2.9,5.6-3.4,8.6C68.2,139.4,73.6,142.5,78.4,144.7C78.4,144.8,78.4,144.7,78.4,144.7
				L78.4,144.7z"/>
		</g>
	</g>
	<g>
		<g>
			<path class="st5" d="M88.9,94.2c-3.6,0.5-4.4,5.7-3.6,8.7c0.6,2.3,2.6,4,4.2,5.7c0.7,0.8,1.7,2.5,3,2.5c2.4,0,4.4-6.2,4.1-8.1
				c-0.6-3.6-4.3-8.7-7.6-10.4c-0.4-0.2-0.9,0.3-0.5,0.7c3.7,3.8,8.6,9.4,4.9,14.8c-1,1.4-0.5,1.5-2,0.4c-0.9-0.7-1.8-1.9-2.6-2.7
				c-1.1-1.3-1.9-2.2-2.2-4c-0.4-2.3-0.7-6.3,2.6-6.9C89.5,94.8,89.3,94.1,88.9,94.2L88.9,94.2z"/>
		</g>
	</g>
</g>
<ellipse id="Shadow" class="st6" cx="90.2" cy="119.8" rx="58.4" ry="21.1"/>
<g id="Onion">
	<g>
		<path class="st7" d="M42.9,59.4l3.8,0.2c0,0,6.2,3.8,10.4,3.8c0.1,0,0.2,0,0.4,0c2.4-0.1,9.7-2.1,17.8-2.1c5.8,0,12,1,17.1,4.4
			c4.7,3.1,9.9,8.7,13.4,15.5c8.3-1.9,15.7-2.1,17.4-2.3c3.4-0.4,4.2-1.7,5.6-3.8c0.7-0.9,1.5-1.2,2.3-1.2c1,0,1.8,0.4,1.8,0.4
			s2.7,1.7,0.9,3.2c-2.1,1.8-3.6,5.6-2.2,7.3c1.3,1.7,5.4,6.1,7.5,11.9l0,0c0,0,0.1,0.3,0.3,0.8c0,0.1,0,0.1,0.1,0.2
			c1.3,4.1,5.1,20.1-8.2,30.2c-8.4,6.4-17.4,7.9-24.6,7.9c-6.7,0-11.9-1.3-13.9-1.3c-0.4,0-0.6,0-0.8,0.1c-0.6,0.4-1.4,0.6-2.2,0.6
			c-1.6,0-3.2-0.6-3.2-0.6l0.4-0.3c-1.7-0.5-3-1.7-3-1.7l-3.1-5.1c0,0,0-0.1-0.1-0.2c-1.5,0.2-2.9,0.3-4.4,0.3
			c-12.6,0-24.2-8-32.6-19.2c-9-12-0.1-29,1-36.2s-3.4-9.7-3.4-9.7l1.6-1v-2.1 M42.9,57.4c-0.5,0-1,0.2-1.4,0.5
			c-0.4,0.4-0.6,0.9-0.6,1.5v1.2L40.3,61c-0.6,0.4-1,1-1,1.8c0,0.7,0.4,1.4,1,1.7c0.1,0.1,3.3,2,2.4,7.6c-0.2,1.5-0.9,3.6-1.6,6
			c-2.6,8.6-6.6,21.7,1,31.8c9.5,12.7,22,20,34.2,20c1.1,0,2.2-0.1,3.3-0.2l2.5,4.2c0.1,0.2,0.2,0.3,0.4,0.5c0.1,0.1,1,0.9,2.2,1.5
			c0.2,0.4,0.6,0.7,1.1,0.9c0.2,0.1,2,0.7,3.8,0.7c1.2,0,2.2-0.2,3-0.7c0.6,0,1.7,0.2,3,0.4c2.7,0.4,6.5,0.9,10.9,0.9
			c9.9,0,18.5-2.8,25.8-8.3c14.2-10.8,10.4-27.5,8.9-32.4v-0.1v-0.2c-0.2-0.6-0.3-0.9-0.3-0.9s0,0,0-0.1c-1.9-5.2-5.2-9.3-7-11.4
			c-0.3-0.4-0.5-0.6-0.7-0.9c-0.4-0.5,0.2-3.1,1.9-4.6c0.9-0.8,1.3-1.8,1.2-2.9c-0.2-2-2.1-3.3-2.4-3.5c-0.1,0-0.1-0.1-0.2-0.1
			c-0.2-0.1-1.3-0.6-2.7-0.6c-1.6,0-3,0.7-3.9,2l-0.3,0.4c-1.2,1.7-1.6,2.3-3.9,2.6c-0.3,0-0.8,0.1-1.4,0.1
			c-2.8,0.2-8.4,0.6-14.8,1.9c-3.4-6-8.3-11.5-13.4-14.9c-4.7-3.2-10.8-4.8-18.2-4.8c-5.8,0-11.1,1-14.6,1.6
			c-1.4,0.3-2.7,0.5-3.3,0.5c-0.1,0-0.2,0-0.3,0c-2.9,0-7.7-2.6-9.3-3.5c-0.3-0.2-0.6-0.3-0.9-0.3L42.9,57.4
			C43,57.4,43,57.4,42.9,57.4L42.9,57.4z"/>
	</g>
	<g>
		<path class="st8" d="M42.9,61.7l-1.6,1c0,0,4.5,2.4,3.4,9.7c-1.1,7.2-10,24.2-1,36.2c13.5,18,35.5,27.9,56.2,9.1
			s4.6-43.7-7.6-51.9s-30.7-2.6-34.9-2.3c-4.2,0.2-10.8-3.8-10.8-3.8l-3.8-0.2L42.9,61.7L42.9,61.7z"/>
		<path class="st9" d="M92.4,65.8c-12.2-8.2-30.7-2.6-34.9-2.3c-4.2,0.2-10.8-3.8-10.8-3.8l-3.8-0.2v2.3l-1.6,1c0,0,1.6,0.9,2.7,3.2
			c30.5,1.3,51,14.4,65.7,34.2C111.5,85.7,101,71.6,92.4,65.8z"/>
		<path class="st10" d="M48.9,114.6c13,13.4,31.2,19.2,48.8,5.1C80.3,122,63.8,120.2,48.9,114.6z"/>
		<path class="st11" d="M59.6,63.8c22.7,0.7,41.6,16.9,49.6,37.1C99.4,83.5,79.3,68.9,59.6,63.8z"/>
		<path class="st11" d="M43.5,87.8c9,20.8,31,32.4,52.7,32.5C76.5,117.5,55.5,104.2,43.5,87.8z"/>
		<path class="st11" d="M45.9,70.4c4.1,27,29.9,47.2,55.9,41.8C78.3,113.4,53.7,91.1,45.9,70.4z"/>
		<path class="st11" d="M45.7,70.2c27-4,53.9,14.7,56.4,41.2C96.4,88.4,67.8,71.5,45.7,70.2z"/>
	</g>
	<g>
		<path class="st9" d="M86.6,134.9c0,0,3.6,1.3,5.4,0s21.8,6.6,39.3-6.8c15.4-11.7,7.8-31.2,7.8-31.2L86.6,134.9z"/>
		<path class="st12" d="M133,74.4c0,0,2.7,1.7,0.9,3.2c-2.1,1.8-3.6,5.6-2.2,7.3c2.7,3.5,17.7,19,0.9,34.7S94.2,132.1,91,134.2
			c-3.2,2.1-7-1.3-7-1.3l-3.1-5.1c0,0-10.1-16.1,1.7-33.3c10-14.6,37.2-15.1,40.7-15.4c3.4-0.4,4.2-1.7,5.6-3.8
			C130.4,73.1,133,74.4,133,74.4z"/>
		<path class="st13" d="M124,81.7c-16.7,7.6-35.5,33.6-37.3,49.7C93.8,118.5,108.2,89.6,124,81.7z"/>
		<path class="st13" d="M119.3,81c-19.1,4.7-35.4,28.3-34.9,47.3C88.8,113.8,100.6,87.2,119.3,81z"/>
		<path class="st13" d="M111.2,82.3c-22.4,2.7-35,21.1-29.7,43.3C82.5,109.2,90.2,87.2,111.2,82.3z"/>
		<path class="st13" d="M127.3,80.2c-2.9,18.1-22.9,43.1-38,49.2C99.9,119.2,123.9,97.6,127.3,80.2z"/>
		<path class="st13" d="M129.3,84.5c0.5,19.7-17.8,41.7-36.3,46.2C105.8,122.7,128.2,104.2,129.3,84.5z"/>
		<path class="st13" d="M130.1,92.7c3.3,22.3-11.1,39.3-33.9,40.2C111.8,127.6,131,114.3,130.1,92.7z"/>
		<path class="st8" d="M100.5,135.7c7.8,0.8,19.8,0.8,30.8-7.6c3.1-2.4,5.3-5.1,6.8-7.8C127.2,129.1,115,133.8,100.5,135.7z"/>
	</g>
</g>
</svg>
