<?xml version="1.0" encoding="utf-8"?>
<!-- Generator: Adobe Illustrator 22.0.1, SVG Export Plug-In . SVG Version: 6.00 Build 0)  -->
<svg version="1.1" id="Layer_1" xmlns="http://www.w3.org/2000/svg" xmlns:xlink="http://www.w3.org/1999/xlink" x="0px" y="0px"
	 viewBox="0 0 180 180" style="enable-background:new 0 0 180 180;" xml:space="preserve">
<style type="text/css">
	.st0{fill:#A4AEB3;}
	.st1{fill:#C3D4D4;}
	.st2{fill:#8B9E9C;}
	.st3{fill:#D1E3DC;}
	.st4{fill:#AAC2C0;}
	.st5{clip-path:url(#SVGID_2_);}
	.st6{fill:#CE414B;}
	.st7{fill:#F27C77;}
	.st8{fill:#F49A9A;}
</style>
<g>
	<path class="st0" d="M178,180H2c-1.1,0-2-0.9-2-2V2c0-1.1,0.9-2,2-2h176c1.1,0,2,0.9,2,2v176C180,179.1,179.1,180,178,180z"/>
</g>
<g>
	<path class="st1" d="M165.5,176.9H14.5c-6.3,0-11.4-5.1-11.4-11.4V14.5c0-6.3,5.1-11.4,11.4-11.4h150.9c6.3,0,11.4,5.1,11.4,11.4
		v150.9C176.9,171.8,171.8,176.9,165.5,176.9z"/>
</g>
<g>
	<path class="st2" d="M148.3,173.8H31.7c-14.1,0-25.5-11.4-25.5-25.5V31.7c0-14.1,11.4-25.5,25.5-25.5h116.7
		c14.1,0,25.5,11.4,25.5,25.5v116.7C173.8,162.4,162.4,173.8,148.3,173.8z"/>
</g>
<g>
	<path class="st3" d="M145,169H35c-13.3,0-24-10.8-24-24V35c0-13.3,10.8-24,24-24h110c13.3,0,24,10.8,24,24v110
		C169,158.3,158.3,169,145,169z"/>
</g>
<circle class="st1" cx="90" cy="90" r="46"/>
<g>
	<circle class="st1" cx="90" cy="90" r="46"/>
</g>
<g>
	<path class="st4" d="M136,90c0,25.4-20.6,46-46,46V44C115.4,44,136,64.6,136,90z"/>
</g>
<g>
	<path class="st2" d="M78,134.4c3.8,1,7.8,1.6,12,1.6s8.2-0.6,12-1.6V45.6c-3.8-1-7.8-1.6-12-1.6s-8.2,0.6-12,1.6V134.4z"/>
</g>
<g>
	<path class="st3" d="M79.6,134.8c3.4,0.8,6.8,1.2,10.4,1.2s7.1-0.4,10.4-1.2V45.2C97.1,44.4,93.6,44,90,44s-7.1,0.4-10.4,1.2V134.8
		z"/>
</g>
<g>
	<defs>
		<path id="SVGID_1_" d="M145.9,170.2H34.1c-13.5,0-24.4-10.9-24.4-24.4V34.1c0-13.5,10.9-24.4,24.4-24.4h111.7
			c13.5,0,24.4,10.9,24.4,24.4v111.7C170.2,159.3,159.3,170.2,145.9,170.2z"/>
	</defs>
	<clipPath id="SVGID_2_">
		<use xlink:href="#SVGID_1_"  style="overflow:visible;"/>
	</clipPath>
	<g class="st5">
		<g>
			<path class="st6" d="M-1.6,29.3C-1.6,13.1,11.5,0,27.6,0c16.2,0,29.3,13.1,29.3,29.3c0,16.2-13.1,29.3-29.3,29.3
				C11.5,58.5-1.6,45.4-1.6,29.3z"/>
		</g>
		<g>
			<path class="st7" d="M1.1,29.3C1.1,14.6,13,2.7,27.6,2.7c14.6,0,26.5,11.9,26.5,26.5c0,14.6-11.9,26.5-26.5,26.5
				C13,55.8,1.1,43.9,1.1,29.3z"/>
		</g>
		<path class="st8" d="M41.3,47.7c-1.8,0-3.2,1.4-3.2,3.2c0,0.9,0.4,1.7,1,2.3c1.9-0.9,3.6-2,5.2-3.3C43.9,48.6,42.7,47.7,41.3,47.7
			z"/>
		<path class="st8" d="M3.8,30.5c0-1.8,1.4-3.2,3.2-3.2c1.8,0,3.2,1.4,3.2,3.2c0,1.8-1.4,3.2-3.2,3.2C5.3,33.7,3.8,32.3,3.8,30.5z"
			/>
		<path class="st8" d="M18.7,26.1c0-1.8,1.4-3.2,3.2-3.2s3.2,1.4,3.2,3.2c0,1.8-1.4,3.2-3.2,3.2S18.7,27.8,18.7,26.1z"/>
		<path class="st8" d="M47.2,47.1c1.4-1.6,2.7-3.3,3.7-5.1c-0.5-0.3-1-0.4-1.6-0.4c-1.8,0-3.2,1.4-3.2,3.2
			C46.1,45.7,46.5,46.5,47.2,47.1z"/>
		<path class="st8" d="M17,53.6c0.3-0.5,0.5-1.1,0.5-1.8c0-1.8-1.4-3.2-3.2-3.2c-1.2,0-2.3,0.7-2.8,1.8C13.2,51.6,15.1,52.7,17,53.6
			z"/>
		<path class="st8" d="M44.5,13.9c1.4,0,2.6-0.9,3-2.2c-1.3-1.5-2.7-2.8-4.3-3.9c-1.1,0.5-1.9,1.6-1.9,2.9
			C41.3,12.5,42.7,13.9,44.5,13.9z"/>
		<path class="st8" d="M44.1,22.3c0-1.8,1.4-3.2,3.2-3.2c1.8,0,3.2,1.4,3.2,3.2c0,1.8-1.4,3.2-3.2,3.2C45.5,25.5,44.1,24,44.1,22.3z
			"/>
		<path class="st8" d="M12,12.8c0-1.1,0.9-2,2-2c1.1,0,2,0.9,2,2c0,1.1-0.9,2-2,2C12.9,14.8,12,13.9,12,12.8z"/>
		<path class="st8" d="M47.3,35.1c0-1.1,0.9-2,2-2c1.1,0,2,0.9,2,2c0,1.1-0.9,2-2,2C48.2,37.1,47.3,36.2,47.3,35.1z"/>
		<path class="st8" d="M23,52.9c0-1.1,0.9-2,2-2c1.1,0,2,0.9,2,2c0,1.1-0.9,2-2,2C23.9,55,23,54,23,52.9z"/>
		<path class="st8" d="M11.2,41.6c0-1.1,0.9-2,2-2c1.1,0,2,0.9,2,2c0,1.1-0.9,2-2,2C12.1,43.6,11.2,42.7,11.2,41.6z"/>
		<path class="st8" d="M34.6,10.7c0-1.1,0.9-2,2-2c1.1,0,2,0.9,2,2c0,1.1-0.9,2-2,2C35.5,12.8,34.6,11.8,34.6,10.7z"/>
		<path class="st8" d="M28.9,34.3c0-1.1,0.9-2,2-2c1.1,0,2,0.9,2,2c0,1.1-0.9,2-2,2C29.9,36.3,28.9,35.4,28.9,34.3z"/>
		<path class="st8" d="M3.8,22.3c1.1,0,2-0.9,2-2c0-1.1-0.9-2-2-2c-0.1,0-0.2,0-0.4,0c-0.5,1-0.9,2.1-1.2,3.2
			C2.6,22,3.2,22.3,3.8,22.3z"/>
		<path class="st8" d="M23.6,6.8c0-1.1,0.9-2,2-2c1.1,0,2,0.9,2,2c0,1.1-0.9,2-2,2C24.5,8.8,23.6,7.9,23.6,6.8z"/>
	</g>
	<g class="st5">
		<g>
			<path class="st6" d="M-12.6,73.3C-12.6,57.1,0.5,44,16.6,44c16.2,0,29.3,13.1,29.3,29.3c0,16.2-13.1,29.3-29.3,29.3
				C0.5,102.5-12.6,89.4-12.6,73.3z"/>
		</g>
		<g>
			<path class="st7" d="M-9.9,73.3c0-14.6,11.9-26.5,26.5-26.5c14.6,0,26.5,11.9,26.5,26.5c0,14.6-11.9,26.5-26.5,26.5
				C2,99.8-9.9,87.9-9.9,73.3z"/>
		</g>
		<path class="st8" d="M30.3,91.7c-1.8,0-3.2,1.4-3.2,3.2c0,0.9,0.4,1.7,1,2.3c1.9-0.9,3.6-2,5.2-3.3C32.9,92.6,31.7,91.7,30.3,91.7
			z"/>
		<path class="st8" d="M7.7,70.1c0-1.8,1.4-3.2,3.2-3.2s3.2,1.4,3.2,3.2c0,1.8-1.4,3.2-3.2,3.2S7.7,71.8,7.7,70.1z"/>
		<path class="st8" d="M36.2,91.1c1.4-1.6,2.7-3.3,3.7-5.1c-0.5-0.3-1-0.4-1.6-0.4c-1.8,0-3.2,1.4-3.2,3.2
			C35.1,89.7,35.5,90.5,36.2,91.1z"/>
		<path class="st8" d="M6,97.6c0.3-0.5,0.5-1.1,0.5-1.8c0-1.8-1.4-3.2-3.2-3.2c-1.2,0-2.3,0.7-2.8,1.8C2.2,95.6,4.1,96.7,6,97.6z"/>
		<path class="st8" d="M33.5,57.9c1.4,0,2.6-0.9,3-2.2c-1.3-1.5-2.7-2.8-4.3-3.9c-1.1,0.5-1.9,1.6-1.9,2.9
			C30.3,56.5,31.7,57.9,33.5,57.9z"/>
		<path class="st8" d="M33.1,66.3c0-1.8,1.4-3.2,3.2-3.2c1.8,0,3.2,1.4,3.2,3.2c0,1.8-1.4,3.2-3.2,3.2C34.5,69.5,33.1,68,33.1,66.3z
			"/>
		<path class="st8" d="M1,56.8c0-1.1,0.9-2,2-2c1.1,0,2,0.9,2,2c0,1.1-0.9,2-2,2C1.9,58.8,1,57.9,1,56.8z"/>
		<path class="st8" d="M36.3,79.1c0-1.1,0.9-2,2-2c1.1,0,2,0.9,2,2c0,1.1-0.9,2-2,2C37.2,81.1,36.3,80.2,36.3,79.1z"/>
		<path class="st8" d="M12,96.9c0-1.1,0.9-2,2-2c1.1,0,2,0.9,2,2c0,1.1-0.9,2-2,2C12.9,99,12,98,12,96.9z"/>
		<path class="st8" d="M0.2,85.6c0-1.1,0.9-2,2-2c1.1,0,2,0.9,2,2c0,1.1-0.9,2-2,2C1.1,87.6,0.2,86.7,0.2,85.6z"/>
		<path class="st8" d="M23.6,54.7c0-1.1,0.9-2,2-2c1.1,0,2,0.9,2,2c0,1.1-0.9,2-2,2C24.5,56.8,23.6,55.8,23.6,54.7z"/>
		<path class="st8" d="M17.9,78.3c0-1.1,0.9-2,2-2c1.1,0,2,0.9,2,2c0,1.1-0.9,2-2,2C18.9,80.3,17.9,79.4,17.9,78.3z"/>
		<path class="st8" d="M12.6,50.8c0-1.1,0.9-2,2-2c1.1,0,2,0.9,2,2c0,1.1-0.9,2-2,2C13.5,52.8,12.6,51.9,12.6,50.8z"/>
	</g>
	<g class="st5">
		<g>
			<path class="st6" d="M81,156.3c0-16.2,13.1-29.3,29.3-29.3c16.2,0,29.3,13.1,29.3,29.3c0,16.2-13.1,29.3-29.3,29.3
				C94.1,185.5,81,172.4,81,156.3z"/>
		</g>
		<g>
			<path class="st7" d="M83.8,156.3c0-14.6,11.9-26.5,26.5-26.5c14.6,0,26.5,11.9,26.5,26.5c0,14.6-11.9,26.5-26.5,26.5
				C95.6,182.8,83.8,170.9,83.8,156.3z"/>
		</g>
		<path class="st8" d="M124,174.7c-1.8,0-3.2,1.4-3.2,3.2c0,0.9,0.4,1.7,1,2.3c1.9-0.9,3.6-2,5.2-3.3
			C126.5,175.6,125.3,174.7,124,174.7z"/>
		<path class="st8" d="M86.5,157.5c0-1.8,1.4-3.2,3.2-3.2c1.8,0,3.2,1.4,3.2,3.2c0,1.8-1.4,3.2-3.2,3.2
			C87.9,160.7,86.5,159.3,86.5,157.5z"/>
		<path class="st8" d="M101.3,153.1c0-1.8,1.4-3.2,3.2-3.2c1.8,0,3.2,1.4,3.2,3.2c0,1.8-1.4,3.2-3.2,3.2
			C102.8,156.3,101.3,154.8,101.3,153.1z"/>
		<path class="st8" d="M129.9,174.1c1.4-1.6,2.7-3.3,3.7-5.1c-0.5-0.3-1-0.4-1.6-0.4c-1.8,0-3.2,1.4-3.2,3.2
			C128.8,172.7,129.2,173.5,129.9,174.1z"/>
		<path class="st8" d="M99.7,180.6c0.3-0.5,0.5-1.1,0.5-1.8c0-1.8-1.4-3.2-3.2-3.2c-1.2,0-2.3,0.7-2.8,1.8
			C95.9,178.6,97.7,179.7,99.7,180.6z"/>
		<path class="st8" d="M127.1,140.9c1.4,0,2.6-0.9,3-2.2c-1.3-1.5-2.7-2.8-4.3-3.9c-1.1,0.5-1.9,1.6-1.9,2.9
			C124,139.5,125.4,140.9,127.1,140.9z"/>
		<path class="st8" d="M126.8,149.3c0-1.8,1.4-3.2,3.2-3.2c1.8,0,3.2,1.4,3.2,3.2c0,1.8-1.4,3.2-3.2,3.2
			C128.2,152.5,126.8,151,126.8,149.3z"/>
		<path class="st8" d="M94.6,139.8c0-1.1,0.9-2,2-2c1.1,0,2,0.9,2,2c0,1.1-0.9,2-2,2C95.5,141.8,94.6,140.9,94.6,139.8z"/>
		<path class="st8" d="M129.9,162.1c0-1.1,0.9-2,2-2c1.1,0,2,0.9,2,2c0,1.1-0.9,2-2,2C130.8,164.1,129.9,163.2,129.9,162.1z"/>
		<path class="st8" d="M105.7,179.9c0-1.1,0.9-2,2-2c1.1,0,2,0.9,2,2c0,1.1-0.9,2-2,2C106.6,182,105.7,181,105.7,179.9z"/>
		<path class="st8" d="M93.9,168.6c0-1.1,0.9-2,2-2c1.1,0,2,0.9,2,2c0,1.1-0.9,2-2,2C94.8,170.6,93.9,169.7,93.9,168.6z"/>
		<path class="st8" d="M117.3,137.7c0-1.1,0.9-2,2-2c1.1,0,2,0.9,2,2c0,1.1-0.9,2-2,2C118.2,139.8,117.3,138.8,117.3,137.7z"/>
		<path class="st8" d="M111.6,161.3c0-1.1,0.9-2,2-2c1.1,0,2,0.9,2,2c0,1.1-0.9,2-2,2C112.5,163.3,111.6,162.4,111.6,161.3z"/>
		<path class="st8" d="M86.5,149.3c1.1,0,2-0.9,2-2c0-1.1-0.9-2-2-2c-0.1,0-0.2,0-0.4,0c-0.5,1-0.9,2.1-1.2,3.2
			C85.3,149,85.9,149.3,86.5,149.3z"/>
		<path class="st8" d="M106.2,133.8c0-1.1,0.9-2,2-2c1.1,0,2,0.9,2,2c0,1.1-0.9,2-2,2C107.1,135.8,106.2,134.9,106.2,133.8z"/>
	</g>
	<g class="st5">
		<g>
			<path class="st6" d="M-7.6,113.9c0-16.2,13.1-29.3,29.3-29.3c16.2,0,29.3,13.1,29.3,29.3c0,16.2-13.1,29.3-29.3,29.3
				C5.5,143.2-7.6,130.1-7.6,113.9z"/>
		</g>
		<g>
			<path class="st7" d="M-4.9,113.9c0-14.6,11.9-26.5,26.5-26.5c14.6,0,26.5,11.9,26.5,26.5c0,14.6-11.9,26.5-26.5,26.5
				C7,140.4-4.9,128.6-4.9,113.9z"/>
		</g>
		<path class="st8" d="M35.3,132.4c-1.8,0-3.2,1.4-3.2,3.2c0,0.9,0.4,1.7,1,2.3c1.9-0.9,3.6-2,5.2-3.3
			C37.9,133.3,36.7,132.4,35.3,132.4z"/>
		<path class="st8" d="M-2.2,115.2c0-1.8,1.4-3.2,3.2-3.2c1.8,0,3.2,1.4,3.2,3.2c0,1.8-1.4,3.2-3.2,3.2
			C-0.7,118.4-2.2,116.9-2.2,115.2z"/>
		<path class="st8" d="M12.7,110.7c0-1.8,1.4-3.2,3.2-3.2s3.2,1.4,3.2,3.2c0,1.8-1.4,3.2-3.2,3.2S12.7,112.5,12.7,110.7z"/>
		<path class="st8" d="M41.2,131.8c1.4-1.6,2.7-3.3,3.7-5.1c-0.5-0.3-1-0.4-1.6-0.4c-1.8,0-3.2,1.4-3.2,3.2
			C40.1,130.4,40.5,131.2,41.2,131.8z"/>
		<path class="st8" d="M11,138.2c0.3-0.5,0.5-1.1,0.5-1.8c0-1.8-1.4-3.2-3.2-3.2c-1.2,0-2.3,0.7-2.8,1.8
			C7.2,136.3,9.1,137.4,11,138.2z"/>
		<path class="st8" d="M38.5,98.6c1.4,0,2.6-0.9,3-2.2c-1.3-1.5-2.7-2.8-4.3-3.9c-1.1,0.5-1.9,1.6-1.9,2.9
			C35.3,97.1,36.7,98.6,38.5,98.6z"/>
		<path class="st8" d="M38.1,106.9c0-1.8,1.4-3.2,3.2-3.2c1.8,0,3.2,1.4,3.2,3.2c0,1.8-1.4,3.2-3.2,3.2
			C39.5,110.1,38.1,108.7,38.1,106.9z"/>
		<path class="st8" d="M6,97.4c0-1.1,0.9-2,2-2c1.1,0,2,0.9,2,2c0,1.1-0.9,2-2,2C6.9,99.4,6,98.5,6,97.4z"/>
		<path class="st8" d="M41.3,119.8c0-1.1,0.9-2,2-2c1.1,0,2,0.9,2,2c0,1.1-0.9,2-2,2C42.2,121.8,41.3,120.9,41.3,119.8z"/>
		<path class="st8" d="M17,137.6c0-1.1,0.9-2,2-2c1.1,0,2,0.9,2,2c0,1.1-0.9,2-2,2C17.9,139.6,17,138.7,17,137.6z"/>
		<path class="st8" d="M5.2,126.2c0-1.1,0.9-2,2-2c1.1,0,2,0.9,2,2c0,1.1-0.9,2-2,2C6.1,128.2,5.2,127.3,5.2,126.2z"/>
		<path class="st8" d="M28.6,95.4c0-1.1,0.9-2,2-2c1.1,0,2,0.9,2,2c0,1.1-0.9,2-2,2C29.5,97.4,28.6,96.5,28.6,95.4z"/>
		<path class="st8" d="M22.9,119c0-1.1,0.9-2,2-2c1.1,0,2,0.9,2,2c0,1.1-0.9,2-2,2C23.9,121,22.9,120.1,22.9,119z"/>
		<path class="st8" d="M17.6,91.5c0-1.1,0.9-2,2-2c1.1,0,2,0.9,2,2c0,1.1-0.9,2-2,2C18.5,93.5,17.6,92.6,17.6,91.5z"/>
	</g>
	<g class="st5">
		<g>
			<path class="st6" d="M75.7,84.3c0-16.2,13.1-29.3,29.3-29.3c16.2,0,29.3,13.1,29.3,29.3c0,16.2-13.1,29.3-29.3,29.3
				C88.8,113.5,75.7,100.4,75.7,84.3z"/>
		</g>
		<g>
			<path class="st7" d="M78.4,84.3c0-14.6,11.9-26.5,26.5-26.5c14.6,0,26.5,11.9,26.5,26.5c0,14.6-11.9,26.5-26.5,26.5
				C90.3,110.8,78.4,98.9,78.4,84.3z"/>
		</g>
		<path class="st8" d="M118.6,102.7c-1.8,0-3.2,1.4-3.2,3.2c0,0.9,0.4,1.7,1,2.3c1.9-0.9,3.6-2,5.2-3.3
			C121.2,103.6,120,102.7,118.6,102.7z"/>
		<path class="st8" d="M81.2,85.5c0-1.8,1.4-3.2,3.2-3.2c1.8,0,3.2,1.4,3.2,3.2c0,1.8-1.4,3.2-3.2,3.2
			C82.6,88.7,81.2,87.3,81.2,85.5z"/>
		<path class="st8" d="M96,81.1c0-1.8,1.4-3.2,3.2-3.2s3.2,1.4,3.2,3.2c0,1.8-1.4,3.2-3.2,3.2S96,82.8,96,81.1z"/>
		<path class="st8" d="M124.5,102.1c1.4-1.6,2.7-3.3,3.7-5.1c-0.5-0.3-1-0.4-1.6-0.4c-1.8,0-3.2,1.4-3.2,3.2
			C123.5,100.7,123.9,101.5,124.5,102.1z"/>
		<path class="st8" d="M94.3,108.6c0.3-0.5,0.5-1.1,0.5-1.8c0-1.8-1.4-3.2-3.2-3.2c-1.2,0-2.3,0.7-2.8,1.8
			C90.6,106.6,92.4,107.7,94.3,108.6z"/>
		<path class="st8" d="M121.8,68.9c1.4,0,2.6-0.9,3-2.2c-1.3-1.5-2.7-2.8-4.3-3.9c-1.1,0.5-1.9,1.6-1.9,2.9
			C118.6,67.5,120,68.9,121.8,68.9z"/>
		<path class="st8" d="M121.4,77.3c0-1.8,1.4-3.2,3.2-3.2c1.8,0,3.2,1.4,3.2,3.2c0,1.8-1.4,3.2-3.2,3.2
			C122.9,80.5,121.4,79,121.4,77.3z"/>
		<path class="st8" d="M89.3,67.8c0-1.1,0.9-2,2-2c1.1,0,2,0.9,2,2c0,1.1-0.9,2-2,2C90.2,69.8,89.3,68.9,89.3,67.8z"/>
		<path class="st8" d="M124.6,90.1c0-1.1,0.9-2,2-2c1.1,0,2,0.9,2,2c0,1.1-0.9,2-2,2C125.5,92.1,124.6,91.2,124.6,90.1z"/>
		<path class="st8" d="M100.3,107.9c0-1.1,0.9-2,2-2c1.1,0,2,0.9,2,2c0,1.1-0.9,2-2,2C101.2,110,100.3,109,100.3,107.9z"/>
		<path class="st8" d="M88.5,96.6c0-1.1,0.9-2,2-2c1.1,0,2,0.9,2,2c0,1.1-0.9,2-2,2C89.5,98.6,88.5,97.7,88.5,96.6z"/>
		<path class="st8" d="M112,65.7c0-1.1,0.9-2,2-2c1.1,0,2,0.9,2,2c0,1.1-0.9,2-2,2C112.9,67.8,112,66.8,112,65.7z"/>
		<path class="st8" d="M106.3,89.3c0-1.1,0.9-2,2-2c1.1,0,2,0.9,2,2c0,1.1-0.9,2-2,2C107.2,91.3,106.3,90.4,106.3,89.3z"/>
		<path class="st8" d="M81.2,77.3c1.1,0,2-0.9,2-2c0-1.1-0.9-2-2-2c-0.1,0-0.2,0-0.4,0c-0.5,1-0.9,2.1-1.2,3.2
			C80,77,80.5,77.3,81.2,77.3z"/>
		<path class="st8" d="M100.9,61.8c0-1.1,0.9-2,2-2c1.1,0,2,0.9,2,2c0,1.1-0.9,2-2,2C101.8,63.8,100.9,62.9,100.9,61.8z"/>
	</g>
	<g class="st5">
		<g>
			<path class="st6" d="M26,30.9C26,14.8,39.1,1.7,55.3,1.7c16.2,0,29.3,13.1,29.3,29.3c0,16.2-13.1,29.3-29.3,29.3
				C39.1,60.2,26,47.1,26,30.9z"/>
		</g>
		<g>
			<path class="st7" d="M28.7,30.9c0-14.6,11.9-26.5,26.5-26.5c14.6,0,26.5,11.9,26.5,26.5c0,14.6-11.9,26.5-26.5,26.5
				C40.6,57.4,28.7,45.6,28.7,30.9z"/>
		</g>
		<path class="st8" d="M68.9,49.4c-1.8,0-3.2,1.4-3.2,3.2c0,0.9,0.4,1.7,1,2.3c1.9-0.9,3.6-2,5.2-3.3C71.5,50.3,70.3,49.4,68.9,49.4
			z"/>
		<path class="st8" d="M31.5,32.2c0-1.8,1.4-3.2,3.2-3.2c1.8,0,3.2,1.4,3.2,3.2c0,1.8-1.4,3.2-3.2,3.2
			C32.9,35.4,31.5,33.9,31.5,32.2z"/>
		<path class="st8" d="M46.3,27.7c0-1.8,1.4-3.2,3.2-3.2c1.8,0,3.2,1.4,3.2,3.2c0,1.8-1.4,3.2-3.2,3.2
			C47.7,30.9,46.3,29.5,46.3,27.7z"/>
		<path class="st8" d="M74.9,48.8c1.4-1.6,2.7-3.3,3.7-5.1c-0.5-0.3-1-0.4-1.6-0.4c-1.8,0-3.2,1.4-3.2,3.2
			C73.8,47.4,74.2,48.2,74.9,48.8z"/>
		<path class="st8" d="M44.7,55.2c0.3-0.5,0.5-1.1,0.5-1.8c0-1.8-1.4-3.2-3.2-3.2c-1.2,0-2.3,0.7-2.8,1.8
			C40.9,53.3,42.7,54.4,44.7,55.2z"/>
		<path class="st8" d="M72.1,15.6c1.4,0,2.6-0.9,3-2.2c-1.3-1.5-2.7-2.8-4.3-3.9c-1.1,0.5-1.9,1.6-1.9,2.9
			C68.9,14.1,70.4,15.6,72.1,15.6z"/>
		<path class="st8" d="M71.7,23.9c0-1.8,1.4-3.2,3.2-3.2c1.8,0,3.2,1.4,3.2,3.2c0,1.8-1.4,3.2-3.2,3.2
			C73.2,27.1,71.7,25.7,71.7,23.9z"/>
		<path class="st8" d="M39.6,14.4c0-1.1,0.9-2,2-2c1.1,0,2,0.9,2,2c0,1.1-0.9,2-2,2C40.5,16.4,39.6,15.5,39.6,14.4z"/>
		<path class="st8" d="M74.9,36.8c0-1.1,0.9-2,2-2c1.1,0,2,0.9,2,2c0,1.1-0.9,2-2,2C75.8,38.8,74.9,37.9,74.9,36.8z"/>
		<path class="st8" d="M50.6,54.6c0-1.1,0.9-2,2-2c1.1,0,2,0.9,2,2c0,1.1-0.9,2-2,2C51.5,56.6,50.6,55.7,50.6,54.6z"/>
		<path class="st8" d="M38.9,43.2c0-1.1,0.9-2,2-2c1.1,0,2,0.9,2,2c0,1.1-0.9,2-2,2C39.8,45.2,38.9,44.3,38.9,43.2z"/>
		<path class="st8" d="M62.3,12.4c0-1.1,0.9-2,2-2c1.1,0,2,0.9,2,2c0,1.1-0.9,2-2,2C63.2,14.4,62.3,13.5,62.3,12.4z"/>
		<path class="st8" d="M56.6,36c0-1.1,0.9-2,2-2c1.1,0,2,0.9,2,2c0,1.1-0.9,2-2,2C57.5,38,56.6,37.1,56.6,36z"/>
		<path class="st8" d="M31.5,23.9c1.1,0,2-0.9,2-2c0-1.1-0.9-2-2-2c-0.1,0-0.2,0-0.4,0c-0.5,1-0.9,2.1-1.2,3.2
			C30.3,23.6,30.8,23.9,31.5,23.9z"/>
		<path class="st8" d="M51.2,8.5c0-1.1,0.9-2,2-2c1.1,0,2,0.9,2,2c0,1.1-0.9,2-2,2C52.1,10.5,51.2,9.6,51.2,8.5z"/>
	</g>
	<g class="st5">
		<g>
			<path class="st6" d="M26,70.6c0-16.2,13.1-29.3,29.3-29.3c16.2,0,29.3,13.1,29.3,29.3c0,16.2-13.1,29.3-29.3,29.3
				C39.1,99.8,26,86.7,26,70.6z"/>
		</g>
		<g>
			<path class="st7" d="M28.7,70.6c0-14.6,11.9-26.5,26.5-26.5c14.6,0,26.5,11.9,26.5,26.5c0,14.6-11.9,26.5-26.5,26.5
				C40.6,97.1,28.7,85.2,28.7,70.6z"/>
		</g>
		<path class="st8" d="M68.9,89.1c-1.8,0-3.2,1.4-3.2,3.2c0,0.9,0.4,1.7,1,2.3c1.9-0.9,3.6-2,5.2-3.3C71.5,90,70.3,89.1,68.9,89.1z"
			/>
		<path class="st8" d="M31.5,71.8c0-1.8,1.4-3.2,3.2-3.2c1.8,0,3.2,1.4,3.2,3.2c0,1.8-1.4,3.2-3.2,3.2C32.9,75,31.5,73.6,31.5,71.8z
			"/>
		<path class="st8" d="M46.3,67.4c0-1.8,1.4-3.2,3.2-3.2c1.8,0,3.2,1.4,3.2,3.2c0,1.8-1.4,3.2-3.2,3.2
			C47.7,70.6,46.3,69.2,46.3,67.4z"/>
		<path class="st8" d="M74.9,88.5c1.4-1.6,2.7-3.3,3.7-5.1c-0.5-0.3-1-0.4-1.6-0.4c-1.8,0-3.2,1.4-3.2,3.2
			C73.8,87,74.2,87.9,74.9,88.5z"/>
		<path class="st8" d="M44.7,94.9c0.3-0.5,0.5-1.1,0.5-1.8c0-1.8-1.4-3.2-3.2-3.2c-1.2,0-2.3,0.7-2.8,1.8C40.9,93,42.7,94,44.7,94.9
			z"/>
		<path class="st8" d="M72.1,55.2c1.4,0,2.6-0.9,3-2.2c-1.3-1.5-2.7-2.8-4.3-3.9c-1.1,0.5-1.9,1.6-1.9,2.9
			C68.9,53.8,70.4,55.2,72.1,55.2z"/>
		<path class="st8" d="M71.7,63.6c0-1.8,1.4-3.2,3.2-3.2c1.8,0,3.2,1.4,3.2,3.2c0,1.8-1.4,3.2-3.2,3.2
			C73.2,66.8,71.7,65.4,71.7,63.6z"/>
		<path class="st8" d="M39.6,54.1c0-1.1,0.9-2,2-2c1.1,0,2,0.9,2,2c0,1.1-0.9,2-2,2C40.5,56.1,39.6,55.2,39.6,54.1z"/>
		<path class="st8" d="M74.9,76.4c0-1.1,0.9-2,2-2c1.1,0,2,0.9,2,2c0,1.1-0.9,2-2,2C75.8,78.5,74.9,77.6,74.9,76.4z"/>
		<path class="st8" d="M50.6,94.3c0-1.1,0.9-2,2-2c1.1,0,2,0.9,2,2c0,1.1-0.9,2-2,2C51.5,96.3,50.6,95.4,50.6,94.3z"/>
		<path class="st8" d="M38.9,82.9c0-1.1,0.9-2,2-2c1.1,0,2,0.9,2,2c0,1.1-0.9,2-2,2C39.8,84.9,38.9,84,38.9,82.9z"/>
		<path class="st8" d="M62.3,52.1c0-1.1,0.9-2,2-2c1.1,0,2,0.9,2,2c0,1.1-0.9,2-2,2C63.2,54.1,62.3,53.2,62.3,52.1z"/>
		<path class="st8" d="M56.6,75.6c0-1.1,0.9-2,2-2c1.1,0,2,0.9,2,2c0,1.1-0.9,2-2,2C57.5,77.7,56.6,76.8,56.6,75.6z"/>
		<path class="st8" d="M31.5,63.6c1.1,0,2-0.9,2-2c0-1.1-0.9-2-2-2c-0.1,0-0.2,0-0.4,0c-0.5,1-0.9,2.1-1.2,3.2
			C30.3,63.3,30.8,63.6,31.5,63.6z"/>
		<path class="st8" d="M51.2,48.1c0-1.1,0.9-2,2-2c1.1,0,2,0.9,2,2c0,1.1-0.9,2-2,2C52.1,50.1,51.2,49.2,51.2,48.1z"/>
	</g>
	<g class="st5">
		<g>
			<path class="st6" d="M39.7,115.9c0-16.2,13.1-29.3,29.3-29.3c16.2,0,29.3,13.1,29.3,29.3c0,16.2-13.1,29.3-29.3,29.3
				C52.8,145.2,39.7,132.1,39.7,115.9z"/>
		</g>
		<g>
			<path class="st7" d="M42.4,115.9c0-14.6,11.9-26.5,26.5-26.5c14.6,0,26.5,11.9,26.5,26.5c0,14.6-11.9,26.5-26.5,26.5
				C54.3,142.4,42.4,130.6,42.4,115.9z"/>
		</g>
		<path class="st8" d="M82.6,134.4c-1.8,0-3.2,1.4-3.2,3.2c0,0.9,0.4,1.7,1,2.3c1.9-0.9,3.6-2,5.2-3.3
			C85.2,135.3,84,134.4,82.6,134.4z"/>
		<path class="st8" d="M45.2,117.2c0-1.8,1.4-3.2,3.2-3.2c1.8,0,3.2,1.4,3.2,3.2c0,1.8-1.4,3.2-3.2,3.2
			C46.6,120.4,45.2,118.9,45.2,117.2z"/>
		<path class="st8" d="M60,112.7c0-1.8,1.4-3.2,3.2-3.2s3.2,1.4,3.2,3.2c0,1.8-1.4,3.2-3.2,3.2S60,114.5,60,112.7z"/>
		<path class="st8" d="M88.5,133.8c1.4-1.6,2.7-3.3,3.7-5.1c-0.5-0.3-1-0.4-1.6-0.4c-1.8,0-3.2,1.4-3.2,3.2
			C87.4,132.4,87.9,133.2,88.5,133.8z"/>
		<path class="st8" d="M58.3,140.2c0.3-0.5,0.5-1.1,0.5-1.8c0-1.8-1.4-3.2-3.2-3.2c-1.2,0-2.3,0.7-2.8,1.8
			C54.5,138.3,56.4,139.4,58.3,140.2z"/>
		<path class="st8" d="M85.8,100.6c1.4,0,2.6-0.9,3-2.2c-1.3-1.5-2.7-2.8-4.3-3.9c-1.1,0.5-1.9,1.6-1.9,2.9
			C82.6,99.1,84,100.6,85.8,100.6z"/>
		<path class="st8" d="M85.4,108.9c0-1.8,1.4-3.2,3.2-3.2c1.8,0,3.2,1.4,3.2,3.2c0,1.8-1.4,3.2-3.2,3.2
			C86.8,112.1,85.4,110.7,85.4,108.9z"/>
		<path class="st8" d="M53.3,99.4c0-1.1,0.9-2,2-2c1.1,0,2,0.9,2,2c0,1.1-0.9,2-2,2C54.2,101.4,53.3,100.5,53.3,99.4z"/>
		<path class="st8" d="M88.6,121.8c0-1.1,0.9-2,2-2c1.1,0,2,0.9,2,2c0,1.1-0.9,2-2,2C89.5,123.8,88.6,122.9,88.6,121.8z"/>
		<path class="st8" d="M64.3,139.6c0-1.1,0.9-2,2-2c1.1,0,2,0.9,2,2c0,1.1-0.9,2-2,2C65.2,141.6,64.3,140.7,64.3,139.6z"/>
		<path class="st8" d="M52.5,128.2c0-1.1,0.9-2,2-2c1.1,0,2,0.9,2,2c0,1.1-0.9,2-2,2C53.4,130.2,52.5,129.3,52.5,128.2z"/>
		<path class="st8" d="M75.9,97.4c0-1.1,0.9-2,2-2c1.1,0,2,0.9,2,2c0,1.1-0.9,2-2,2C76.9,99.4,75.9,98.5,75.9,97.4z"/>
		<path class="st8" d="M70.3,121c0-1.1,0.9-2,2-2c1.1,0,2,0.9,2,2c0,1.1-0.9,2-2,2C71.2,123,70.3,122.1,70.3,121z"/>
		<path class="st8" d="M45.2,108.9c1.1,0,2-0.9,2-2c0-1.1-0.9-2-2-2c-0.1,0-0.2,0-0.4,0c-0.5,1-0.9,2.1-1.2,3.2
			C43.9,108.6,44.5,108.9,45.2,108.9z"/>
		<path class="st8" d="M64.9,93.5c0-1.1,0.9-2,2-2c1.1,0,2,0.9,2,2c0,1.1-0.9,2-2,2C65.8,95.5,64.9,94.6,64.9,93.5z"/>
	</g>
	<g class="st5">
		<g>
			<path class="st6" d="M110.5,112.9c0-16.2,13.1-29.3,29.3-29.3c16.2,0,29.3,13.1,29.3,29.3c0,16.2-13.1,29.3-29.3,29.3
				C123.6,142.2,110.5,129.1,110.5,112.9z"/>
		</g>
		<g>
			<path class="st7" d="M113.3,112.9c0-14.6,11.9-26.5,26.5-26.5c14.6,0,26.5,11.9,26.5,26.5c0,14.6-11.9,26.5-26.5,26.5
				C125.1,139.4,113.3,127.6,113.3,112.9z"/>
		</g>
		<path class="st8" d="M153.5,131.4c-1.8,0-3.2,1.4-3.2,3.2c0,0.9,0.4,1.7,1,2.3c1.9-0.9,3.6-2,5.2-3.3
			C156,132.3,154.9,131.4,153.5,131.4z"/>
		<path class="st8" d="M116,114.2c0-1.8,1.4-3.2,3.2-3.2c1.8,0,3.2,1.4,3.2,3.2c0,1.8-1.4,3.2-3.2,3.2
			C117.4,117.4,116,115.9,116,114.2z"/>
		<path class="st8" d="M130.8,109.7c0-1.8,1.4-3.2,3.2-3.2s3.2,1.4,3.2,3.2c0,1.8-1.4,3.2-3.2,3.2S130.8,111.5,130.8,109.7z"/>
		<path class="st8" d="M159.4,130.8c1.4-1.6,2.7-3.3,3.7-5.1c-0.5-0.3-1-0.4-1.6-0.4c-1.8,0-3.2,1.4-3.2,3.2
			C158.3,129.4,158.7,130.2,159.4,130.8z"/>
		<path class="st8" d="M129.2,137.2c0.3-0.5,0.5-1.1,0.5-1.8c0-1.8-1.4-3.2-3.2-3.2c-1.2,0-2.3,0.7-2.8,1.8
			C125.4,135.3,127.2,136.4,129.2,137.2z"/>
		<path class="st8" d="M156.6,97.6c1.4,0,2.6-0.9,3-2.2c-1.3-1.5-2.7-2.8-4.3-3.9c-1.1,0.5-1.9,1.6-1.9,2.9
			C153.5,96.1,154.9,97.6,156.6,97.6z"/>
		<path class="st8" d="M156.3,105.9c0-1.8,1.4-3.2,3.2-3.2c1.8,0,3.2,1.4,3.2,3.2c0,1.8-1.4,3.2-3.2,3.2
			C157.7,109.1,156.3,107.7,156.3,105.9z"/>
		<path class="st8" d="M124.1,96.4c0-1.1,0.9-2,2-2c1.1,0,2,0.9,2,2c0,1.1-0.9,2-2,2C125,98.4,124.1,97.5,124.1,96.4z"/>
		<path class="st8" d="M159.4,118.8c0-1.1,0.9-2,2-2c1.1,0,2,0.9,2,2c0,1.1-0.9,2-2,2C160.4,120.8,159.4,119.9,159.4,118.8z"/>
		<path class="st8" d="M135.2,136.6c0-1.1,0.9-2,2-2c1.1,0,2,0.9,2,2c0,1.1-0.9,2-2,2C136.1,138.6,135.2,137.7,135.2,136.6z"/>
		<path class="st8" d="M123.4,125.2c0-1.1,0.9-2,2-2c1.1,0,2,0.9,2,2c0,1.1-0.9,2-2,2C124.3,127.2,123.4,126.3,123.4,125.2z"/>
		<path class="st8" d="M146.8,94.4c0-1.1,0.9-2,2-2c1.1,0,2,0.9,2,2c0,1.1-0.9,2-2,2C147.7,96.4,146.8,95.5,146.8,94.4z"/>
		<path class="st8" d="M141.1,118c0-1.1,0.9-2,2-2c1.1,0,2,0.9,2,2c0,1.1-0.9,2-2,2C142,120,141.1,119.1,141.1,118z"/>
		<path class="st8" d="M116,105.9c1.1,0,2-0.9,2-2c0-1.1-0.9-2-2-2c-0.1,0-0.2,0-0.4,0c-0.5,1-0.9,2.1-1.2,3.2
			C114.8,105.6,115.4,105.9,116,105.9z"/>
		<path class="st8" d="M135.7,90.5c0-1.1,0.9-2,2-2c1.1,0,2,0.9,2,2c0,1.1-0.9,2-2,2C136.6,92.5,135.7,91.6,135.7,90.5z"/>
	</g>
	<g class="st5">
		<g>
			<path class="st6" d="M64.2,20.9c0-16.2,13.1-29.3,29.3-29.3c16.2,0,29.3,13.1,29.3,29.3c0,16.2-13.1,29.3-29.3,29.3
				C77.3,50.2,64.2,37.1,64.2,20.9z"/>
		</g>
		<g>
			<path class="st7" d="M66.9,20.9c0-14.6,11.9-26.5,26.5-26.5c14.6,0,26.5,11.9,26.5,26.5c0,14.6-11.9,26.5-26.5,26.5
				C78.8,47.4,66.9,35.6,66.9,20.9z"/>
		</g>
		<path class="st8" d="M107.1,39.4c-1.8,0-3.2,1.4-3.2,3.2c0,0.9,0.4,1.7,1,2.3c1.9-0.9,3.6-2,5.2-3.3
			C109.7,40.3,108.5,39.4,107.1,39.4z"/>
		<path class="st8" d="M69.7,22.2c0-1.8,1.4-3.2,3.2-3.2c1.8,0,3.2,1.4,3.2,3.2c0,1.8-1.4,3.2-3.2,3.2
			C71.1,25.4,69.7,23.9,69.7,22.2z"/>
		<path class="st8" d="M84.5,17.7c0-1.8,1.4-3.2,3.2-3.2c1.8,0,3.2,1.4,3.2,3.2c0,1.8-1.4,3.2-3.2,3.2
			C85.9,20.9,84.5,19.5,84.5,17.7z"/>
		<path class="st8" d="M113,38.8c1.4-1.6,2.7-3.3,3.7-5.1c-0.5-0.3-1-0.4-1.6-0.4c-1.8,0-3.2,1.4-3.2,3.2
			C112,37.4,112.4,38.2,113,38.8z"/>
		<path class="st8" d="M82.9,45.2c0.3-0.5,0.5-1.1,0.5-1.8c0-1.8-1.4-3.2-3.2-3.2c-1.2,0-2.3,0.7-2.8,1.8
			C79.1,43.3,80.9,44.4,82.9,45.2z"/>
		<path class="st8" d="M110.3,5.6c1.4,0,2.6-0.9,3-2.2c-1.3-1.5-2.7-2.8-4.3-3.9c-1.1,0.5-1.9,1.6-1.9,2.9
			C107.1,4.1,108.6,5.6,110.3,5.6z"/>
		<path class="st8" d="M109.9,13.9c0-1.8,1.4-3.2,3.2-3.2c1.8,0,3.2,1.4,3.2,3.2c0,1.8-1.4,3.2-3.2,3.2
			C111.4,17.1,109.9,15.7,109.9,13.9z"/>
		<path class="st8" d="M77.8,4.4c0-1.1,0.9-2,2-2c1.1,0,2,0.9,2,2c0,1.1-0.9,2-2,2C78.7,6.4,77.8,5.5,77.8,4.4z"/>
		<path class="st8" d="M113.1,26.8c0-1.1,0.9-2,2-2c1.1,0,2,0.9,2,2c0,1.1-0.9,2-2,2C114,28.8,113.1,27.9,113.1,26.8z"/>
		<path class="st8" d="M88.8,44.6c0-1.1,0.9-2,2-2c1.1,0,2,0.9,2,2c0,1.1-0.9,2-2,2C89.7,46.6,88.8,45.7,88.8,44.6z"/>
		<path class="st8" d="M77,33.2c0-1.1,0.9-2,2-2c1.1,0,2,0.9,2,2c0,1.1-0.9,2-2,2C78,35.2,77,34.3,77,33.2z"/>
		<path class="st8" d="M100.5,2.4c0-1.1,0.9-2,2-2c1.1,0,2,0.9,2,2c0,1.1-0.9,2-2,2C101.4,4.4,100.5,3.5,100.5,2.4z"/>
		<path class="st8" d="M94.8,26c0-1.1,0.9-2,2-2c1.1,0,2,0.9,2,2c0,1.1-0.9,2-2,2C95.7,28,94.8,27.1,94.8,26z"/>
		<path class="st8" d="M69.7,13.9c1.1,0,2-0.9,2-2c0-1.1-0.9-2-2-2c-0.1,0-0.2,0-0.4,0c-0.5,1-0.9,2.1-1.2,3.2
			C68.5,13.6,69,13.9,69.7,13.9z"/>
		<path class="st8" d="M89.4-1.5c0-1.1,0.9-2,2-2c1.1,0,2,0.9,2,2c0,1.1-0.9,2-2,2C90.3,0.5,89.4-0.4,89.4-1.5z"/>
	</g>
	<g class="st5">
		<g>
			<path class="st6" d="M60.7,53.3C60.7,37.1,73.8,24,90,24c16.2,0,29.3,13.1,29.3,29.3c0,16.2-13.1,29.3-29.3,29.3
				C73.8,82.5,60.7,69.4,60.7,53.3z"/>
		</g>
		<g>
			<path class="st7" d="M63.5,53.3c0-14.6,11.9-26.5,26.5-26.5c14.6,0,26.5,11.9,26.5,26.5c0,14.6-11.9,26.5-26.5,26.5
				C75.4,79.8,63.5,67.9,63.5,53.3z"/>
		</g>
		<path class="st8" d="M103.7,71.7c-1.8,0-3.2,1.4-3.2,3.2c0,0.9,0.4,1.7,1,2.3c1.9-0.9,3.6-2,5.2-3.3
			C106.2,72.6,105.1,71.7,103.7,71.7z"/>
		<path class="st8" d="M66.2,54.5c0-1.8,1.4-3.2,3.2-3.2c1.8,0,3.2,1.4,3.2,3.2c0,1.8-1.4,3.2-3.2,3.2
			C67.7,57.7,66.2,56.3,66.2,54.5z"/>
		<path class="st8" d="M81.1,50.1c0-1.8,1.4-3.2,3.2-3.2c1.8,0,3.2,1.4,3.2,3.2c0,1.8-1.4,3.2-3.2,3.2
			C82.5,53.3,81.1,51.8,81.1,50.1z"/>
		<path class="st8" d="M109.6,71.1c1.4-1.6,2.7-3.3,3.7-5.1c-0.5-0.3-1-0.4-1.6-0.4c-1.8,0-3.2,1.4-3.2,3.2
			C108.5,69.7,108.9,70.5,109.6,71.1z"/>
		<path class="st8" d="M79.4,77.6c0.3-0.5,0.5-1.1,0.5-1.8c0-1.8-1.4-3.2-3.2-3.2c-1.2,0-2.3,0.7-2.8,1.8
			C75.6,75.6,77.4,76.7,79.4,77.6z"/>
		<path class="st8" d="M106.9,37.9c1.4,0,2.6-0.9,3-2.2c-1.3-1.5-2.7-2.8-4.3-3.9c-1.1,0.5-1.9,1.6-1.9,2.9
			C103.7,36.5,105.1,37.9,106.9,37.9z"/>
		<path class="st8" d="M106.5,46.3c0-1.8,1.4-3.2,3.2-3.2c1.8,0,3.2,1.4,3.2,3.2c0,1.8-1.4,3.2-3.2,3.2
			C107.9,49.5,106.5,48,106.5,46.3z"/>
		<path class="st8" d="M74.3,36.8c0-1.1,0.9-2,2-2c1.1,0,2,0.9,2,2c0,1.1-0.9,2-2,2C75.3,38.8,74.3,37.9,74.3,36.8z"/>
		<path class="st8" d="M109.7,59.1c0-1.1,0.9-2,2-2c1.1,0,2,0.9,2,2c0,1.1-0.9,2-2,2C110.6,61.1,109.7,60.2,109.7,59.1z"/>
		<path class="st8" d="M85.4,76.9c0-1.1,0.9-2,2-2c1.1,0,2,0.9,2,2c0,1.1-0.9,2-2,2C86.3,79,85.4,78,85.4,76.9z"/>
		<path class="st8" d="M73.6,65.6c0-1.1,0.9-2,2-2c1.1,0,2,0.9,2,2c0,1.1-0.9,2-2,2C74.5,67.6,73.6,66.7,73.6,65.6z"/>
		<path class="st8" d="M97,34.7c0-1.1,0.9-2,2-2c1.1,0,2,0.9,2,2c0,1.1-0.9,2-2,2C97.9,36.8,97,35.8,97,34.7z"/>
		<path class="st8" d="M91.3,58.3c0-1.1,0.9-2,2-2c1.1,0,2,0.9,2,2c0,1.1-0.9,2-2,2C92.2,60.3,91.3,59.4,91.3,58.3z"/>
		<path class="st8" d="M66.2,46.3c1.1,0,2-0.9,2-2c0-1.1-0.9-2-2-2c-0.1,0-0.2,0-0.4,0c-0.5,1-0.9,2.1-1.2,3.2
			C65,46,65.6,46.3,66.2,46.3z"/>
		<path class="st8" d="M85.9,30.8c0-1.1,0.9-2,2-2c1.1,0,2,0.9,2,2c0,1.1-0.9,2-2,2C86.9,32.8,85.9,31.9,85.9,30.8z"/>
	</g>
	<g class="st5">
		<g>
			<path class="st6" d="M121.5,22.9c0-16.2,13.1-29.3,29.3-29.3c16.2,0,29.3,13.1,29.3,29.3c0,16.2-13.1,29.3-29.3,29.3
				C134.6,52.2,121.5,39.1,121.5,22.9z"/>
		</g>
		<g>
			<path class="st7" d="M124.2,22.9c0-14.6,11.9-26.5,26.5-26.5c14.6,0,26.5,11.9,26.5,26.5c0,14.6-11.9,26.5-26.5,26.5
				C136.1,49.4,124.2,37.6,124.2,22.9z"/>
		</g>
		<path class="st8" d="M164.4,41.4c-1.8,0-3.2,1.4-3.2,3.2c0,0.9,0.4,1.7,1,2.3c1.9-0.9,3.6-2,5.2-3.3
			C167,42.3,165.8,41.4,164.4,41.4z"/>
		<path class="st8" d="M127,24.2c0-1.8,1.4-3.2,3.2-3.2c1.8,0,3.2,1.4,3.2,3.2c0,1.8-1.4,3.2-3.2,3.2C128.4,27.4,127,25.9,127,24.2z
			"/>
		<path class="st8" d="M141.8,19.7c0-1.8,1.4-3.2,3.2-3.2c1.8,0,3.2,1.4,3.2,3.2c0,1.8-1.4,3.2-3.2,3.2
			C143.2,22.9,141.8,21.5,141.8,19.7z"/>
		<path class="st8" d="M170.3,40.8c1.4-1.6,2.7-3.3,3.7-5.1c-0.5-0.3-1-0.4-1.6-0.4c-1.8,0-3.2,1.4-3.2,3.2
			C169.3,39.4,169.7,40.2,170.3,40.8z"/>
		<path class="st8" d="M140.1,47.2c0.3-0.5,0.5-1.1,0.5-1.8c0-1.8-1.4-3.2-3.2-3.2c-1.2,0-2.3,0.7-2.8,1.8
			C136.4,45.3,138.2,46.4,140.1,47.2z"/>
		<path class="st8" d="M167.6,7.6c1.4,0,2.6-0.9,3-2.2c-1.3-1.5-2.7-2.8-4.3-3.9c-1.1,0.5-1.9,1.6-1.9,2.9
			C164.4,6.1,165.8,7.6,167.6,7.6z"/>
		<path class="st8" d="M167.2,15.9c0-1.8,1.4-3.2,3.2-3.2c1.8,0,3.2,1.4,3.2,3.2c0,1.8-1.4,3.2-3.2,3.2
			C168.7,19.1,167.2,17.7,167.2,15.9z"/>
		<path class="st8" d="M135.1,6.4c0-1.1,0.9-2,2-2c1.1,0,2,0.9,2,2c0,1.1-0.9,2-2,2C136,8.4,135.1,7.5,135.1,6.4z"/>
		<path class="st8" d="M170.4,28.8c0-1.1,0.9-2,2-2c1.1,0,2,0.9,2,2c0,1.1-0.9,2-2,2C171.3,30.8,170.4,29.9,170.4,28.8z"/>
		<path class="st8" d="M146.1,46.6c0-1.1,0.9-2,2-2c1.1,0,2,0.9,2,2c0,1.1-0.9,2-2,2C147,48.6,146.1,47.7,146.1,46.6z"/>
		<path class="st8" d="M134.3,35.2c0-1.1,0.9-2,2-2c1.1,0,2,0.9,2,2c0,1.1-0.9,2-2,2C135.3,37.2,134.3,36.3,134.3,35.2z"/>
		<path class="st8" d="M157.8,4.4c0-1.1,0.9-2,2-2c1.1,0,2,0.9,2,2c0,1.1-0.9,2-2,2C158.7,6.4,157.8,5.5,157.8,4.4z"/>
		<path class="st8" d="M152.1,28c0-1.1,0.9-2,2-2c1.1,0,2,0.9,2,2c0,1.1-0.9,2-2,2C153,30,152.1,29.1,152.1,28z"/>
		<path class="st8" d="M127,15.9c1.1,0,2-0.9,2-2c0-1.1-0.9-2-2-2c-0.1,0-0.2,0-0.4,0c-0.5,1-0.9,2.1-1.2,3.2
			C125.8,15.6,126.3,15.9,127,15.9z"/>
		<path class="st8" d="M146.7,0.5c0-1.1,0.9-2,2-2c1.1,0,2,0.9,2,2c0,1.1-0.9,2-2,2C147.6,2.5,146.7,1.6,146.7,0.5z"/>
	</g>
	<g class="st5">
		<g>
			<path class="st6" d="M0,144.6c0-16.2,13.1-29.3,29.3-29.3c16.2,0,29.3,13.1,29.3,29.3c0,16.2-13.1,29.3-29.3,29.3
				C13.1,173.8,0,160.7,0,144.6z"/>
		</g>
		<g>
			<path class="st7" d="M2.7,144.6c0-14.6,11.9-26.5,26.5-26.5c14.6,0,26.5,11.9,26.5,26.5c0,14.6-11.9,26.5-26.5,26.5
				C14.6,171.1,2.7,159.2,2.7,144.6z"/>
		</g>
		<path class="st8" d="M42.9,163c-1.8,0-3.2,1.4-3.2,3.2c0,0.9,0.4,1.7,1,2.3c1.9-0.9,3.6-2,5.2-3.3C45.5,163.9,44.3,163,42.9,163z"
			/>
		<path class="st8" d="M5.5,145.8c0-1.8,1.4-3.2,3.2-3.2c1.8,0,3.2,1.4,3.2,3.2c0,1.8-1.4,3.2-3.2,3.2C6.9,149,5.5,147.6,5.5,145.8z
			"/>
		<path class="st8" d="M20.3,141.4c0-1.8,1.4-3.2,3.2-3.2c1.8,0,3.2,1.4,3.2,3.2c0,1.8-1.4,3.2-3.2,3.2
			C21.7,144.6,20.3,143.1,20.3,141.4z"/>
		<path class="st8" d="M48.9,162.4c1.4-1.6,2.7-3.3,3.7-5.1c-0.5-0.3-1-0.4-1.6-0.4c-1.8,0-3.2,1.4-3.2,3.2
			C47.8,161,48.2,161.8,48.9,162.4z"/>
		<path class="st8" d="M18.7,168.9c0.3-0.5,0.5-1.1,0.5-1.8c0-1.8-1.4-3.2-3.2-3.2c-1.2,0-2.3,0.7-2.8,1.8
			C14.9,166.9,16.7,168,18.7,168.9z"/>
		<path class="st8" d="M46.1,129.2c1.4,0,2.6-0.9,3-2.2c-1.3-1.5-2.7-2.8-4.3-3.9c-1.1,0.5-1.9,1.6-1.9,2.9
			C42.9,127.8,44.4,129.2,46.1,129.2z"/>
		<path class="st8" d="M45.7,137.6c0-1.8,1.4-3.2,3.2-3.2c1.8,0,3.2,1.4,3.2,3.2c0,1.8-1.4,3.2-3.2,3.2
			C47.2,140.8,45.7,139.3,45.7,137.6z"/>
		<path class="st8" d="M13.6,128.1c0-1.1,0.9-2,2-2c1.1,0,2,0.9,2,2c0,1.1-0.9,2-2,2C14.5,130.1,13.6,129.2,13.6,128.1z"/>
		<path class="st8" d="M48.9,150.4c0-1.1,0.9-2,2-2c1.1,0,2,0.9,2,2c0,1.1-0.9,2-2,2C49.8,152.4,48.9,151.5,48.9,150.4z"/>
		<path class="st8" d="M24.6,168.2c0-1.1,0.9-2,2-2c1.1,0,2,0.9,2,2c0,1.1-0.9,2-2,2C25.5,170.3,24.6,169.4,24.6,168.2z"/>
		<path class="st8" d="M12.9,156.9c0-1.1,0.9-2,2-2c1.1,0,2,0.9,2,2c0,1.1-0.9,2-2,2C13.8,158.9,12.9,158,12.9,156.9z"/>
		<path class="st8" d="M36.3,126c0-1.1,0.9-2,2-2c1.1,0,2,0.9,2,2c0,1.1-0.9,2-2,2C37.2,128.1,36.3,127.1,36.3,126z"/>
		<path class="st8" d="M30.6,149.6c0-1.1,0.9-2,2-2c1.1,0,2,0.9,2,2c0,1.1-0.9,2-2,2C31.5,151.6,30.6,150.7,30.6,149.6z"/>
		<path class="st8" d="M5.5,137.6c1.1,0,2-0.9,2-2c0-1.1-0.9-2-2-2c-0.1,0-0.2,0-0.4,0c-0.5,1-0.9,2.1-1.2,3.2
			C4.3,137.3,4.8,137.6,5.5,137.6z"/>
		<path class="st8" d="M25.2,122.1c0-1.1,0.9-2,2-2c1.1,0,2,0.9,2,2c0,1.1-0.9,2-2,2C26.1,124.1,25.2,123.2,25.2,122.1z"/>
	</g>
	<g class="st5">
		<g>
			<path class="st6" d="M67.3,121.2c0-16.2,13.1-29.3,29.3-29.3c16.2,0,29.3,13.1,29.3,29.3c0,16.2-13.1,29.3-29.3,29.3
				C80.4,150.5,67.3,137.4,67.3,121.2z"/>
		</g>
		<g>
			<path class="st7" d="M70.1,121.2c0-14.6,11.9-26.5,26.5-26.5c14.6,0,26.5,11.9,26.5,26.5c0,14.6-11.9,26.5-26.5,26.5
				C81.9,147.7,70.1,135.9,70.1,121.2z"/>
		</g>
		<path class="st8" d="M110.3,139.7c-1.8,0-3.2,1.4-3.2,3.2c0,0.9,0.4,1.7,1,2.3c1.9-0.9,3.6-2,5.2-3.3
			C112.8,140.6,111.7,139.7,110.3,139.7z"/>
		<path class="st8" d="M72.8,122.5c0-1.8,1.4-3.2,3.2-3.2c1.8,0,3.2,1.4,3.2,3.2c0,1.8-1.4,3.2-3.2,3.2
			C74.2,125.7,72.8,124.2,72.8,122.5z"/>
		<path class="st8" d="M87.6,118c0-1.8,1.4-3.2,3.2-3.2s3.2,1.4,3.2,3.2c0,1.8-1.4,3.2-3.2,3.2S87.6,119.8,87.6,118z"/>
		<path class="st8" d="M116.2,139.1c1.4-1.6,2.7-3.3,3.7-5.1c-0.5-0.3-1-0.4-1.6-0.4c-1.8,0-3.2,1.4-3.2,3.2
			C115.1,137.7,115.5,138.5,116.2,139.1z"/>
		<path class="st8" d="M86,145.5c0.3-0.5,0.5-1.1,0.5-1.8c0-1.8-1.4-3.2-3.2-3.2c-1.2,0-2.3,0.7-2.8,1.8
			C82.2,143.6,84,144.7,86,145.5z"/>
		<path class="st8" d="M113.4,105.9c1.4,0,2.6-0.9,3-2.2c-1.3-1.5-2.7-2.8-4.3-3.9c-1.1,0.5-1.9,1.6-1.9,2.9
			C110.3,104.4,111.7,105.9,113.4,105.9z"/>
		<path class="st8" d="M113.1,114.2c0-1.8,1.4-3.2,3.2-3.2c1.8,0,3.2,1.4,3.2,3.2c0,1.8-1.4,3.2-3.2,3.2
			C114.5,117.4,113.1,116,113.1,114.2z"/>
		<path class="st8" d="M80.9,104.7c0-1.1,0.9-2,2-2c1.1,0,2,0.9,2,2c0,1.1-0.9,2-2,2C81.8,106.7,80.9,105.8,80.9,104.7z"/>
		<path class="st8" d="M116.3,127.1c0-1.1,0.9-2,2-2c1.1,0,2,0.9,2,2c0,1.1-0.9,2-2,2C117.2,129.1,116.3,128.2,116.3,127.1z"/>
		<path class="st8" d="M92,144.9c0-1.1,0.9-2,2-2c1.1,0,2,0.9,2,2c0,1.1-0.9,2-2,2C92.9,146.9,92,146,92,144.9z"/>
		<path class="st8" d="M80.2,133.5c0-1.1,0.9-2,2-2c1.1,0,2,0.9,2,2c0,1.1-0.9,2-2,2C81.1,135.6,80.2,134.6,80.2,133.5z"/>
		<path class="st8" d="M103.6,102.7c0-1.1,0.9-2,2-2c1.1,0,2,0.9,2,2c0,1.1-0.9,2-2,2C104.5,104.7,103.6,103.8,103.6,102.7z"/>
		<path class="st8" d="M97.9,126.3c0-1.1,0.9-2,2-2c1.1,0,2,0.9,2,2c0,1.1-0.9,2-2,2C98.8,128.3,97.9,127.4,97.9,126.3z"/>
		<path class="st8" d="M72.8,114.2c1.1,0,2-0.9,2-2c0-1.1-0.9-2-2-2c-0.1,0-0.2,0-0.4,0c-0.5,1-0.9,2.1-1.2,3.2
			C71.6,113.9,72.2,114.2,72.8,114.2z"/>
		<path class="st8" d="M92.5,98.8c0-1.1,0.9-2,2-2c1.1,0,2,0.9,2,2c0,1.1-0.9,2-2,2C93.4,100.8,92.5,99.9,92.5,98.8z"/>
	</g>
	<g class="st5">
		<g>
			<path class="st6" d="M35.7,156.6c0-16.2,13.1-29.3,29.3-29.3c16.2,0,29.3,13.1,29.3,29.3c0,16.2-13.1,29.3-29.3,29.3
				C48.8,185.8,35.7,172.7,35.7,156.6z"/>
		</g>
		<g>
			<path class="st7" d="M38.4,156.6c0-14.6,11.9-26.5,26.5-26.5c14.6,0,26.5,11.9,26.5,26.5c0,14.6-11.9,26.5-26.5,26.5
				C50.3,183.1,38.4,171.2,38.4,156.6z"/>
		</g>
		<path class="st8" d="M78.6,175c-1.8,0-3.2,1.4-3.2,3.2c0,0.9,0.4,1.7,1,2.3c1.9-0.9,3.6-2,5.2-3.3C81.2,175.9,80,175,78.6,175z"/>
		<path class="st8" d="M41.2,157.8c0-1.8,1.4-3.2,3.2-3.2c1.8,0,3.2,1.4,3.2,3.2c0,1.8-1.4,3.2-3.2,3.2
			C42.6,161,41.2,159.6,41.2,157.8z"/>
		<path class="st8" d="M56,153.4c0-1.8,1.4-3.2,3.2-3.2c1.8,0,3.2,1.4,3.2,3.2c0,1.8-1.4,3.2-3.2,3.2C57.4,156.6,56,155.1,56,153.4z
			"/>
		<path class="st8" d="M84.5,174.4c1.4-1.6,2.7-3.3,3.7-5.1c-0.5-0.3-1-0.4-1.6-0.4c-1.8,0-3.2,1.4-3.2,3.2
			C83.4,173,83.9,173.8,84.5,174.4z"/>
		<path class="st8" d="M54.3,180.9c0.3-0.5,0.5-1.1,0.5-1.8c0-1.8-1.4-3.2-3.2-3.2c-1.2,0-2.3,0.7-2.8,1.8
			C50.5,178.9,52.4,180,54.3,180.9z"/>
		<path class="st8" d="M81.8,141.2c1.4,0,2.6-0.9,3-2.2c-1.3-1.5-2.7-2.8-4.3-3.9c-1.1,0.5-1.9,1.6-1.9,2.9
			C78.6,139.8,80,141.2,81.8,141.2z"/>
		<path class="st8" d="M81.4,149.6c0-1.8,1.4-3.2,3.2-3.2c1.8,0,3.2,1.4,3.2,3.2c0,1.8-1.4,3.2-3.2,3.2
			C82.8,152.8,81.4,151.3,81.4,149.6z"/>
		<path class="st8" d="M49.3,140.1c0-1.1,0.9-2,2-2c1.1,0,2,0.9,2,2c0,1.1-0.9,2-2,2C50.2,142.1,49.3,141.2,49.3,140.1z"/>
		<path class="st8" d="M84.6,162.4c0-1.1,0.9-2,2-2c1.1,0,2,0.9,2,2c0,1.1-0.9,2-2,2C85.5,164.4,84.6,163.5,84.6,162.4z"/>
		<path class="st8" d="M60.3,180.2c0-1.1,0.9-2,2-2c1.1,0,2,0.9,2,2c0,1.1-0.9,2-2,2C61.2,182.3,60.3,181.4,60.3,180.2z"/>
		<path class="st8" d="M48.5,168.9c0-1.1,0.9-2,2-2c1.1,0,2,0.9,2,2c0,1.1-0.9,2-2,2C49.4,170.9,48.5,170,48.5,168.9z"/>
		<path class="st8" d="M71.9,138c0-1.1,0.9-2,2-2c1.1,0,2,0.9,2,2c0,1.1-0.9,2-2,2C72.9,140.1,71.9,139.1,71.9,138z"/>
		<path class="st8" d="M66.3,161.6c0-1.1,0.9-2,2-2c1.1,0,2,0.9,2,2c0,1.1-0.9,2-2,2C67.2,163.6,66.3,162.7,66.3,161.6z"/>
		<path class="st8" d="M41.2,149.6c1.1,0,2-0.9,2-2c0-1.1-0.9-2-2-2c-0.1,0-0.2,0-0.4,0c-0.5,1-0.9,2.1-1.2,3.2
			C39.9,149.3,40.5,149.6,41.2,149.6z"/>
		<path class="st8" d="M60.9,134.1c0-1.1,0.9-2,2-2c1.1,0,2,0.9,2,2c0,1.1-0.9,2-2,2C61.8,136.1,60.9,135.2,60.9,134.1z"/>
	</g>
	<g class="st5">
		<g>
			<path class="st6" d="M129.3,106.7c0-16.2,13.1-29.3,29.3-29.3c16.2,0,29.3,13.1,29.3,29.3c0,16.2-13.1,29.3-29.3,29.3
				C142.4,136,129.3,122.9,129.3,106.7z"/>
		</g>
		<g>
			<path class="st7" d="M132.1,106.7c0-14.6,11.9-26.5,26.5-26.5c14.6,0,26.5,11.9,26.5,26.5c0,14.6-11.9,26.5-26.5,26.5
				C143.9,133.3,132.1,121.4,132.1,106.7z"/>
		</g>
		<path class="st8" d="M172.3,125.2c-1.8,0-3.2,1.4-3.2,3.2c0,0.9,0.4,1.7,1,2.3c1.9-0.9,3.6-2,5.2-3.3
			C174.8,126.1,173.7,125.2,172.3,125.2z"/>
		<path class="st8" d="M134.8,108c0-1.8,1.4-3.2,3.2-3.2c1.8,0,3.2,1.4,3.2,3.2c0,1.8-1.4,3.2-3.2,3.2
			C136.2,111.2,134.8,109.8,134.8,108z"/>
		<path class="st8" d="M149.6,103.6c0-1.8,1.4-3.2,3.2-3.2c1.8,0,3.2,1.4,3.2,3.2c0,1.8-1.4,3.2-3.2,3.2
			C151.1,106.7,149.6,105.3,149.6,103.6z"/>
		<path class="st8" d="M178.2,124.6c1.4-1.6,2.7-3.3,3.7-5.1c-0.5-0.3-1-0.4-1.6-0.4c-1.8,0-3.2,1.4-3.2,3.2
			C177.1,123.2,177.5,124,178.2,124.6z"/>
		<path class="st8" d="M148,131.1c0.3-0.5,0.5-1.1,0.5-1.8c0-1.8-1.4-3.2-3.2-3.2c-1.2,0-2.3,0.7-2.8,1.8
			C144.2,129.1,146,130.2,148,131.1z"/>
		<path class="st8" d="M175.4,91.4c1.4,0,2.6-0.9,3-2.2c-1.3-1.5-2.7-2.8-4.3-3.9c-1.1,0.5-1.9,1.6-1.9,2.9
			C172.3,90,173.7,91.4,175.4,91.4z"/>
		<path class="st8" d="M175.1,99.8c0-1.8,1.4-3.2,3.2-3.2c1.8,0,3.2,1.4,3.2,3.2c0,1.8-1.4,3.2-3.2,3.2
			C176.5,102.9,175.1,101.5,175.1,99.8z"/>
		<path class="st8" d="M142.9,90.2c0-1.1,0.9-2,2-2c1.1,0,2,0.9,2,2c0,1.1-0.9,2-2,2C143.8,92.3,142.9,91.4,142.9,90.2z"/>
		<path class="st8" d="M178.3,112.6c0-1.1,0.9-2,2-2c1.1,0,2,0.9,2,2c0,1.1-0.9,2-2,2C179.2,114.6,178.3,113.7,178.3,112.6z"/>
		<path class="st8" d="M154,130.4c0-1.1,0.9-2,2-2c1.1,0,2,0.9,2,2c0,1.1-0.9,2-2,2C154.9,132.4,154,131.5,154,130.4z"/>
		<path class="st8" d="M142.2,119c0-1.1,0.9-2,2-2c1.1,0,2,0.9,2,2c0,1.1-0.9,2-2,2C143.1,121.1,142.2,120.2,142.2,119z"/>
		<path class="st8" d="M165.6,88.2c0-1.1,0.9-2,2-2c1.1,0,2,0.9,2,2c0,1.1-0.9,2-2,2C166.5,90.2,165.6,89.3,165.6,88.2z"/>
		<path class="st8" d="M159.9,111.8c0-1.1,0.9-2,2-2c1.1,0,2,0.9,2,2c0,1.1-0.9,2-2,2C160.8,113.8,159.9,112.9,159.9,111.8z"/>
		<path class="st8" d="M134.8,99.8c1.1,0,2-0.9,2-2c0-1.1-0.9-2-2-2c-0.1,0-0.2,0-0.4,0c-0.5,1-0.9,2.1-1.2,3.2
			C133.6,99.5,134.2,99.8,134.8,99.8z"/>
		<path class="st8" d="M154.5,84.3c0-1.1,0.9-2,2-2c1.1,0,2,0.9,2,2c0,1.1-0.9,2-2,2C155.4,86.3,154.5,85.4,154.5,84.3z"/>
	</g>
	<g class="st5">
		<g>
			<path class="st6" d="M121.5,156.1c0-16.2,13.1-29.3,29.3-29.3c16.2,0,29.3,13.1,29.3,29.3c0,16.2-13.1,29.3-29.3,29.3
				C134.6,185.3,121.5,172.2,121.5,156.1z"/>
		</g>
		<g>
			<path class="st7" d="M124.2,156.1c0-14.6,11.9-26.5,26.5-26.5c14.6,0,26.5,11.9,26.5,26.5c0,14.6-11.9,26.5-26.5,26.5
				C136.1,182.6,124.2,170.7,124.2,156.1z"/>
		</g>
		<path class="st8" d="M164.4,174.5c-1.8,0-3.2,1.4-3.2,3.2c0,0.9,0.4,1.7,1,2.3c1.9-0.9,3.6-2,5.2-3.3
			C167,175.4,165.8,174.5,164.4,174.5z"/>
		<path class="st8" d="M127,157.3c0-1.8,1.4-3.2,3.2-3.2c1.8,0,3.2,1.4,3.2,3.2c0,1.8-1.4,3.2-3.2,3.2
			C128.4,160.5,127,159.1,127,157.3z"/>
		<path class="st8" d="M141.8,152.9c0-1.8,1.4-3.2,3.2-3.2c1.8,0,3.2,1.4,3.2,3.2c0,1.8-1.4,3.2-3.2,3.2
			C143.2,156.1,141.8,154.7,141.8,152.9z"/>
		<path class="st8" d="M170.3,173.9c1.4-1.6,2.7-3.3,3.7-5.1c-0.5-0.3-1-0.4-1.6-0.4c-1.8,0-3.2,1.4-3.2,3.2
			C169.3,172.5,169.7,173.4,170.3,173.9z"/>
		<path class="st8" d="M140.1,180.4c0.3-0.5,0.5-1.1,0.5-1.8c0-1.8-1.4-3.2-3.2-3.2c-1.2,0-2.3,0.7-2.8,1.8
			C136.4,178.5,138.2,179.5,140.1,180.4z"/>
		<path class="st8" d="M167.6,140.7c1.4,0,2.6-0.9,3-2.2c-1.3-1.5-2.7-2.8-4.3-3.9c-1.1,0.5-1.9,1.6-1.9,2.9
			C164.4,139.3,165.8,140.7,167.6,140.7z"/>
		<path class="st8" d="M167.2,149.1c0-1.8,1.4-3.2,3.2-3.2c1.8,0,3.2,1.4,3.2,3.2c0,1.8-1.4,3.2-3.2,3.2
			C168.7,152.3,167.2,150.9,167.2,149.1z"/>
		<path class="st8" d="M135.1,139.6c0-1.1,0.9-2,2-2c1.1,0,2,0.9,2,2c0,1.1-0.9,2-2,2C136,141.6,135.1,140.7,135.1,139.6z"/>
		<path class="st8" d="M170.4,161.9c0-1.1,0.9-2,2-2c1.1,0,2,0.9,2,2c0,1.1-0.9,2-2,2C171.3,164,170.4,163.1,170.4,161.9z"/>
		<path class="st8" d="M146.1,179.8c0-1.1,0.9-2,2-2c1.1,0,2,0.9,2,2c0,1.1-0.9,2-2,2C147,181.8,146.1,180.9,146.1,179.8z"/>
		<path class="st8" d="M134.3,168.4c0-1.1,0.9-2,2-2c1.1,0,2,0.9,2,2c0,1.1-0.9,2-2,2C135.3,170.4,134.3,169.5,134.3,168.4z"/>
		<path class="st8" d="M157.8,137.5c0-1.1,0.9-2,2-2c1.1,0,2,0.9,2,2c0,1.1-0.9,2-2,2C158.7,139.6,157.8,138.7,157.8,137.5z"/>
		<path class="st8" d="M152.1,161.1c0-1.1,0.9-2,2-2c1.1,0,2,0.9,2,2c0,1.1-0.9,2-2,2C153,163.2,152.1,162.2,152.1,161.1z"/>
		<path class="st8" d="M127,149.1c1.1,0,2-0.9,2-2c0-1.1-0.9-2-2-2c-0.1,0-0.2,0-0.4,0c-0.5,1-0.9,2.1-1.2,3.2
			C125.8,148.8,126.3,149.1,127,149.1z"/>
		<path class="st8" d="M146.7,133.6c0-1.1,0.9-2,2-2c1.1,0,2,0.9,2,2c0,1.1-0.9,2-2,2C147.6,135.6,146.7,134.7,146.7,133.6z"/>
	</g>
	<g class="st5">
		<g>
			<path class="st6" d="M95.5,35.4c0-16.2,13.1-29.3,29.3-29.3c16.2,0,29.3,13.1,29.3,29.3c0,16.2-13.1,29.3-29.3,29.3
				C108.6,64.7,95.5,51.6,95.5,35.4z"/>
		</g>
		<g>
			<path class="st7" d="M98.2,35.4c0-14.6,11.9-26.5,26.5-26.5c14.6,0,26.5,11.9,26.5,26.5c0,14.6-11.9,26.5-26.5,26.5
				C110.1,62,98.2,50.1,98.2,35.4z"/>
		</g>
		<path class="st8" d="M138.4,53.9c-1.8,0-3.2,1.4-3.2,3.2c0,0.9,0.4,1.7,1,2.3c1.9-0.9,3.6-2,5.2-3.3
			C141,54.8,139.8,53.9,138.4,53.9z"/>
		<path class="st8" d="M101,36.7c0-1.8,1.4-3.2,3.2-3.2c1.8,0,3.2,1.4,3.2,3.2c0,1.8-1.4,3.2-3.2,3.2C102.4,39.9,101,38.5,101,36.7z
			"/>
		<path class="st8" d="M115.8,32.3c0-1.8,1.4-3.2,3.2-3.2s3.2,1.4,3.2,3.2c0,1.8-1.4,3.2-3.2,3.2S115.8,34,115.8,32.3z"/>
		<path class="st8" d="M144.3,53.3c1.4-1.6,2.7-3.3,3.7-5.1c-0.5-0.3-1-0.4-1.6-0.4c-1.8,0-3.2,1.4-3.2,3.2
			C143.3,51.9,143.7,52.7,144.3,53.3z"/>
		<path class="st8" d="M114.1,59.8c0.3-0.5,0.5-1.1,0.5-1.8c0-1.8-1.4-3.2-3.2-3.2c-1.2,0-2.3,0.7-2.8,1.8
			C110.4,57.8,112.2,58.9,114.1,59.8z"/>
		<path class="st8" d="M141.6,20.1c1.4,0,2.6-0.9,3-2.2c-1.3-1.5-2.7-2.8-4.3-3.9c-1.1,0.5-1.9,1.6-1.9,2.9
			C138.4,18.7,139.8,20.1,141.6,20.1z"/>
		<path class="st8" d="M141.2,28.5c0-1.8,1.4-3.2,3.2-3.2c1.8,0,3.2,1.4,3.2,3.2c0,1.8-1.4,3.2-3.2,3.2
			C142.7,31.6,141.2,30.2,141.2,28.5z"/>
		<path class="st8" d="M109.1,18.9c0-1.1,0.9-2,2-2c1.1,0,2,0.9,2,2c0,1.1-0.9,2-2,2C110,21,109.1,20.1,109.1,18.9z"/>
		<path class="st8" d="M144.4,41.3c0-1.1,0.9-2,2-2c1.1,0,2,0.9,2,2c0,1.1-0.9,2-2,2C145.3,43.3,144.4,42.4,144.4,41.3z"/>
		<path class="st8" d="M120.1,59.1c0-1.1,0.9-2,2-2c1.1,0,2,0.9,2,2c0,1.1-0.9,2-2,2C121,61.1,120.1,60.2,120.1,59.1z"/>
		<path class="st8" d="M108.3,47.7c0-1.1,0.9-2,2-2c1.1,0,2,0.9,2,2c0,1.1-0.9,2-2,2C109.3,49.8,108.3,48.9,108.3,47.7z"/>
		<path class="st8" d="M131.8,16.9c0-1.1,0.9-2,2-2c1.1,0,2,0.9,2,2c0,1.1-0.9,2-2,2C132.7,18.9,131.8,18,131.8,16.9z"/>
		<path class="st8" d="M126.1,40.5c0-1.1,0.9-2,2-2c1.1,0,2,0.9,2,2c0,1.1-0.9,2-2,2C127,42.5,126.1,41.6,126.1,40.5z"/>
		<path class="st8" d="M101,28.5c1.1,0,2-0.9,2-2c0-1.1-0.9-2-2-2c-0.1,0-0.2,0-0.4,0c-0.5,1-0.9,2.1-1.2,3.2
			C99.8,28.2,100.3,28.5,101,28.5z"/>
		<path class="st8" d="M120.7,13c0-1.1,0.9-2,2-2c1.1,0,2,0.9,2,2c0,1.1-0.9,2-2,2C121.6,15,120.7,14.1,120.7,13z"/>
	</g>
	<g class="st5">
		<g>
			<path class="st6" d="M124.7,66.2c0-16.2,13.1-29.3,29.3-29.3c16.2,0,29.3,13.1,29.3,29.3c0,16.2-13.1,29.3-29.3,29.3
				C137.8,95.5,124.7,82.4,124.7,66.2z"/>
		</g>
		<g>
			<path class="st7" d="M127.5,66.2c0-14.6,11.9-26.5,26.5-26.5c14.6,0,26.5,11.9,26.5,26.5c0,14.6-11.9,26.5-26.5,26.5
				C139.4,92.7,127.5,80.9,127.5,66.2z"/>
		</g>
		<path class="st8" d="M167.7,84.7c-1.8,0-3.2,1.4-3.2,3.2c0,0.9,0.4,1.7,1,2.3c1.9-0.9,3.6-2,5.2-3.3
			C170.2,85.6,169.1,84.7,167.7,84.7z"/>
		<path class="st8" d="M130.2,67.5c0-1.8,1.4-3.2,3.2-3.2c1.8,0,3.2,1.4,3.2,3.2c0,1.8-1.4,3.2-3.2,3.2
			C131.7,70.7,130.2,69.2,130.2,67.5z"/>
		<path class="st8" d="M145.1,63c0-1.8,1.4-3.2,3.2-3.2s3.2,1.4,3.2,3.2c0,1.8-1.4,3.2-3.2,3.2S145.1,64.8,145.1,63z"/>
		<path class="st8" d="M173.6,84.1c1.4-1.6,2.7-3.3,3.7-5.1c-0.5-0.3-1-0.4-1.6-0.4c-1.8,0-3.2,1.4-3.2,3.2
			C172.5,82.6,172.9,83.5,173.6,84.1z"/>
		<path class="st8" d="M143.4,90.5c0.3-0.5,0.5-1.1,0.5-1.8c0-1.8-1.4-3.2-3.2-3.2c-1.2,0-2.3,0.7-2.8,1.8
			C139.6,88.6,141.4,89.7,143.4,90.5z"/>
		<path class="st8" d="M170.9,50.9c1.4,0,2.6-0.9,3-2.2c-1.3-1.5-2.7-2.8-4.3-3.9c-1.1,0.5-1.9,1.6-1.9,2.9
			C167.7,49.4,169.1,50.9,170.9,50.9z"/>
		<path class="st8" d="M170.5,59.2c0-1.8,1.4-3.2,3.2-3.2c1.8,0,3.2,1.4,3.2,3.2c0,1.8-1.4,3.2-3.2,3.2
			C171.9,62.4,170.5,61,170.5,59.2z"/>
		<path class="st8" d="M138.3,49.7c0-1.1,0.9-2,2-2c1.1,0,2,0.9,2,2c0,1.1-0.9,2-2,2C139.3,51.7,138.3,50.8,138.3,49.7z"/>
		<path class="st8" d="M173.7,72.1c0-1.1,0.9-2,2-2c1.1,0,2,0.9,2,2c0,1.1-0.9,2-2,2C174.6,74.1,173.7,73.2,173.7,72.1z"/>
		<path class="st8" d="M149.4,89.9c0-1.1,0.9-2,2-2c1.1,0,2,0.9,2,2c0,1.1-0.9,2-2,2C150.3,91.9,149.4,91,149.4,89.9z"/>
		<path class="st8" d="M137.6,78.5c0-1.1,0.9-2,2-2c1.1,0,2,0.9,2,2c0,1.1-0.9,2-2,2C138.5,80.5,137.6,79.6,137.6,78.5z"/>
		<path class="st8" d="M161,47.7c0-1.1,0.9-2,2-2c1.1,0,2,0.9,2,2c0,1.1-0.9,2-2,2C161.9,49.7,161,48.8,161,47.7z"/>
		<path class="st8" d="M155.3,71.3c0-1.1,0.9-2,2-2c1.1,0,2,0.9,2,2c0,1.1-0.9,2-2,2C156.2,73.3,155.3,72.4,155.3,71.3z"/>
		<path class="st8" d="M130.2,59.2c1.1,0,2-0.9,2-2c0-1.1-0.9-2-2-2c-0.1,0-0.2,0-0.4,0c-0.5,1-0.9,2.1-1.2,3.2
			C129,58.9,129.6,59.2,130.2,59.2z"/>
		<path class="st8" d="M149.9,43.8c0-1.1,0.9-2,2-2c1.1,0,2,0.9,2,2c0,1.1-0.9,2-2,2C150.9,45.8,149.9,44.9,149.9,43.8z"/>
	</g>
</g>
</svg>
