<?xml version="1.0" encoding="utf-8"?>
<!-- Generator: Adobe Illustrator 22.0.1, SVG Export Plug-In . SVG Version: 6.00 Build 0)  -->
<svg version="1.1" id="Layer_1" xmlns="http://www.w3.org/2000/svg" xmlns:xlink="http://www.w3.org/1999/xlink" x="0px" y="0px"
	 width="180px" height="180px" viewBox="0 0 180 180" style="enable-background:new 0 0 180 180;" xml:space="preserve">
<style type="text/css">
	.st0{fill:#ECBA7F;}
	.st1{fill:#ECCAA3;}
	.st2{fill:none;stroke:#A8774F;stroke-width:2;stroke-miterlimit:10;}
	.st3{fill:#D4AF92;}
	.st4{fill:#E6BA8C;}
	.st5{fill:#DEB493;}
	.st6{opacity:0.48;fill:#A8774F;enable-background:new    ;}
	.st7{fill:#F28E24;}
	.st8{fill:#7AB534;}
	.st9{fill:#89BB40;}
	.st10{fill:#7CB33B;}
	.st11{fill:#71A537;}
	.st12{fill:#5C822D;}
	.st13{fill:#FECF3B;}
	.st14{fill:#E69F25;}
	.st15{fill:#F2B634;}
</style>
<g id="Spatula">
	<path class="st0" d="M90.1,154.4c-62.2,0-88-15.9-88-24.4c1.8-6.7,10.5-22.6,11.3-23.8c2.1-4,147.2,0.1,149.3,4.1
		c0.8,1.2,15.5,13.2,15.5,19.7C178.2,138.5,152.3,154.4,90.1,154.4z"/>
	<path class="st1" d="M166.1,102.8c-1.9-3.7-7.1-6.4-13.5-7c-15.8-1.4-44.5-5.3-47.3-14.7c-3.4-11.1-7.4-28.6-8.6-37.4
		c-0.2-1.4-2.1-2.5-4.4-2.5h-2.1h-2.1c-2.3,0-4.3,1.1-4.4,2.5c-1.1,8.8-5.2,26.3-8.6,37.4c-2.9,9.4-31.6,13.3-47.3,14.7
		c-6.4,0.6-11.6,3.3-13.5,7c0,0-9.6,17.6-10.2,24.8c-0.6,7.2,22.8,21.9,86.2,21.9s88.2-15.8,86.4-22.8
		C174.7,119.4,166.1,102.8,166.1,102.8z M90.1,48.3c-2.2,0-4-0.9-4-2.1c0-1.2,1.8-2.1,4-2.1s4,0.9,4,2.1
		C94.2,47.4,92.4,48.3,90.1,48.3z"/>
	<path class="st2" d="M165.9,102.6c-1.9-3.7-7.1-6.4-13.5-7c-15.8-1.4-44.5-5.3-47.3-14.7c-3.4-11.1-7.4-28.6-8.6-37.4
		c-0.2-1.4-2.1-2.5-4.4-2.5H90h-2.1c-2.3,0-4.3,1.1-4.4,2.5c-1.1,8.8-5.2,26.3-8.6,37.4C72,90.3,43.4,94.2,27.6,95.6
		c-6.4,0.6-11.6,3.3-13.5,7c0,0-12.1,25.7-12.1,27.1c0,8.5,25.8,24.4,88,24.4s88-15.9,88-24.4C178,128.3,165.9,102.6,165.9,102.6z
		 M90,43.9c2.2,0,4,0.9,4,2.1s-1.8,2-4,2s-4-0.9-4-2.1S87.8,43.9,90,43.9z"/>
	<g>
		<g>
			<path class="st3" d="M54.9,92.7c2.6,5,8.5,10.1,6.7,16.2s-9.6,8.8-12.5,14.6c-4.1,8.2-1.3,19.6,3.5,26.9c0.1,0.2,0.4,0,0.3-0.2
				c-3-6.7-5-13.6-0.7-20.2c3.2-4.9,7.4-8.3,9.6-13.9c1.5-3.9,3-8.6,1.5-12.7C61.7,99,57.5,96.4,54.9,92.7
				C55,92.6,54.9,92.6,54.9,92.7L54.9,92.7z"/>
		</g>
	</g>
	<g>
		<g>
			<path class="st4" d="M17.5,99.1c-5.2,5.7-0.9,10.1,4.3,13.7c3.6,2.5,6.9,6,4.7,10.7c-0.9,2-2,3.9-2.9,6
				c-1.8,4.5-2.7,9.1-3.3,13.9c-0.1,0.5,0.7,0.6,0.9,0.1c1.4-4.5,2.5-9,4.3-13.4c1.3-3.3,4.2-7,3.8-10.7c-0.3-2.4-1.8-4.2-3.6-5.7
				c-1.3-1.1-2.9-1.9-4.3-2.9c-1.1-0.7-2.5-1.5-3.4-2.5C16.5,106.4,16.4,101.2,17.5,99.1L17.5,99.1L17.5,99.1z"/>
		</g>
	</g>
	<g>
		<g>
			<path class="st4" d="M30.6,112.4c-0.4-4,1.1-9.6,6-10.3c6.7-1,6,4.2,5.3,7.6c-1,4.7-3.5,7.2-6.1,11c-4.4,6.5-1.2,13.3-1.1,20.6
				c0,0.3,0.5,0.4,0.5,0.1c0.5-3.2,0.1-6-0.3-9.2c-0.4-3.5-1.1-6.5,0.8-9.7c0.8-1.4,2-2.5,2.9-3.8c2.8-3.9,6.2-10.4,4.5-15.5
				c-1.2-3.4-5.6-2.9-8.3-1.5C30.6,103.8,29.2,108.2,30.6,112.4C30.5,112.4,30.6,112.4,30.6,112.4L30.6,112.4z"/>
		</g>
	</g>
	<g>
		<g>
			<path class="st3" d="M33.1,111c0.3-0.8,0.6-1.6,1-2.3c2.1-0.1,2.6,0.9,1.4,2.8c-0.5,0.9-1.2,1.6-1.6,2.6
				c-1.1,2.5-1.3,5.7-4.5,6.5c-0.2,0.1-0.1,0.4,0.1,0.4c2-0.3,3.1-1.6,3.9-3.4c0.7-1.6,0.9-3.2,1.8-4.7c0.6-0.9,1.1-1.5,1.3-2.6
				c0.1-0.7,0.1-2.6-1-2.8C33.9,107.1,33.4,110,33.1,111L33.1,111L33.1,111z"/>
		</g>
	</g>
	<g>
		<g>
			<path class="st4" d="M96.2,49.5c-11.4,11.8-5.3,31,1.3,43.8c4.2,8.1,9.8,15.1,13.5,23.5c2,4.5,4.3,9.3,5.4,14.1
				c1.1,4.5,0,8.9,0.5,13.4c0.1,0.5,0.7,0.5,0.7,0c0.6-7.5,0.9-12.6-1.9-19.7c-3-7.6-6.2-14.8-10.7-21.6c-4.8-7.4-8.9-14.5-11.6-23
				C90.3,70,88,57.8,96.2,49.5C96.3,49.5,96.2,49.5,96.2,49.5L96.2,49.5z"/>
		</g>
	</g>
	<g>
		<g>
			<path class="st5" d="M149.3,98.5c5.6,5,11.1,9.3,13,16.9c1.9,7.8,2.4,15.8,2.7,23.8c0,0.9,1.3,1.1,1.6,0.2
				c2.2-8.4,1.9-17.8-1.5-25.8C161.8,106.3,155.6,102.8,149.3,98.5L149.3,98.5L149.3,98.5z"/>
		</g>
	</g>
	<g>
		<g>
			<path class="st3" d="M114.6,98.1c0.9,5.2,1.5,10.8,3.4,15.7c2,4.9,7.5,6.4,9.3,11c1.4,3.7,0.7,7.4,3.3,10.8
				c1.9,2.5,5.5,4.9,8.9,4.6c6.5-0.6,6.6-12.9,4.7-17.2c-2-4.4-5.9-8-8.5-12c-3.4-5.4-5.5-11.2-6.4-17.5c-0.1-0.4-0.7-0.3-0.7,0.1
				c-0.1,7.4,3,14.3,7.1,20.3c2,2.9,4.5,5.5,6.1,8.7c1.9,3.6,3.1,16.6-4.7,15.2c-8.9-1.6-5.2-12.6-10.2-17.3c-3.1-2.9-6.3-4.4-8-8.7
				C117,107.5,115.8,102.7,114.6,98.1L114.6,98.1L114.6,98.1z"/>
		</g>
	</g>
	<g>
		<g>
			<path class="st4" d="M79.8,65.2c2.1,3.8,4.1,6.7,4.1,11.2c0,3.8-0.7,7.7-1.7,11.3c-1.4,5.3-6,11.4-5.1,17.1
				c0.8,5.3,5.7,10.6,9.1,14.5c2.1,2.4,4.5,4.4,6.7,6.7c2.4,2.4,3.4,5.1,3.2,8.5c-0.2,2.8-1.8,6.7-4.6,7.7c-0.4,0.2-0.3,0.8,0.2,0.7
				c4.6-1.1,6.4-8.1,5.5-12.2c-0.7-2.9-3-5-5-6.9c-3.7-3.5-7.2-7.3-10.1-11.5c-1.3-1.8-3.1-4.1-3.6-6.3c-0.8-3.6,0.6-6.4,2-9.6
				c1.6-3.8,2.8-7.6,3.5-11.6c0.6-3.4,1.1-7.1,0.4-10.6C83.8,70.6,81.3,68.3,79.8,65.2C79.9,65.1,79.8,65.1,79.8,65.2L79.8,65.2z"/>
		</g>
	</g>
	<g>
		<g>
			<path class="st4" d="M68.4,87.6c0.8,4.8,3.5,9.8,3,14.8c-0.4,5-4.6,7.1-5.5,11.6c-0.1,0.4,0.5,0.8,0.8,0.3
				c2.1-3.7,5.7-6.6,6-11.1C73.2,97.8,70.1,92.6,68.4,87.6L68.4,87.6L68.4,87.6z"/>
		</g>
	</g>
	<g>
		<g>
			<path class="st3" d="M78.4,144.7c-4-1.9-8.5-5-8.5-10c0-3,2.4-6.1,3.4-8.9c1.9-5.3,2.4-11.2,0.8-16.5c-0.1-0.5-1-0.4-0.9,0.1
				c0.7,5.2,1,10.2-0.6,15.3c-0.9,2.9-2.9,5.6-3.4,8.6C68.2,139.4,73.6,142.5,78.4,144.7C78.4,144.8,78.4,144.7,78.4,144.7
				L78.4,144.7z"/>
		</g>
	</g>
	<g>
		<g>
			<path class="st5" d="M88.9,94.2c-3.6,0.5-4.4,5.7-3.6,8.7c0.6,2.3,2.6,4,4.2,5.7c0.7,0.8,1.7,2.5,3,2.5c2.4,0,4.4-6.2,4.1-8.1
				c-0.6-3.6-4.3-8.7-7.6-10.4c-0.4-0.2-0.9,0.3-0.5,0.7c3.7,3.8,8.6,9.4,4.9,14.8c-1,1.4-0.5,1.5-2,0.4c-0.9-0.7-1.8-1.9-2.6-2.7
				c-1.1-1.3-1.9-2.2-2.2-4c-0.4-2.3-0.7-6.3,2.6-6.9C89.5,94.8,89.3,94.1,88.9,94.2L88.9,94.2z"/>
		</g>
	</g>
</g>
<ellipse id="Shadow" class="st6" cx="90.2" cy="119.8" rx="58.4" ry="21.1"/>
<g id="Pineapple">
	<g>
		<path class="st7" d="M72.2,62.5c0.9,0,1.9,0,2.8,0c21.9,0.8,33.8,14,38.1,20.2c7.4-3.3,12.4-8.8,15.1-16.5
			c1.4,6.2,1.6,11.6,0.6,16.2c4.5-2.9,7.6-7.4,9.3-13.3c1.4,7,1.2,12.8-0.4,17.4c3.5-2.9,5.7-6.8,6.6-11.8
			c2.3,7.1,2.4,12.8,0.4,17.3c5.1,1.2,10,2.8,14.4,4.9c-4.3,2.4-9.1,4.2-14.2,5.6c2.3,4.4,2.5,10.2,0.5,17.4
			c-1.1-5-3.5-8.8-7.1-11.5c1.9,4.5,2.3,10.3,1.2,17.4c-2-5.8-5.3-10.1-9.9-12.8c1.2,4.5,1.3,9.9,0.2,16.2
			c-3.1-7.7-8.6-13.1-16.4-16c-4.5,6.7-15.7,19.4-36.6,21c-2.1,0.2-4.2,0.2-6.1,0.2c-24.2,0-34.9-12.3-35.1-20.9
			c-0.2-9.3-0.3-14.3-0.3-14.3s-0.1-5-0.3-14.3C34.5,76,45.5,62.5,72.2,62.5 M72.2,60.5c-8.4,0-23.8,1.5-33.4,11.3
			c-3.9,4-6.1,8.9-6,13.3L33,99.4l0.3,14.3c0.2,8.8,10.4,22.8,37.1,22.8c2,0,4.2-0.1,6.3-0.3c20.3-1.6,31.8-13,37.2-20.6
			c6.6,2.8,11.1,7.5,13.8,14.3c0.3,0.8,1,1.3,1.9,1.3c0.1,0,0.1,0,0.2,0c0.9-0.1,1.6-0.8,1.8-1.6c0.8-4.3,1-8.2,0.7-11.8
			c2.2,2.3,3.9,5.2,5.2,8.7c0.3,0.8,1,1.3,1.9,1.3c0.1,0,0.1,0,0.2,0c0.9-0.1,1.7-0.8,1.8-1.7c0.6-3.6,0.7-7,0.5-10.1
			c0.6,1.3,1.1,2.8,1.5,4.3c0.2,0.9,1,1.5,1.9,1.6l0,0c0.9,0,1.7-0.6,1.9-1.5c1.8-6.6,1.9-12.2,0.3-16.7c4.7-1.4,8.7-3.1,12.4-5.1
			c0.7-0.4,1.1-1.1,1-1.8c0-0.7-0.5-1.4-1.1-1.8c-3.7-1.8-7.9-3.3-12.6-4.5c1.3-4.5,1-10.1-1.1-16.5c-0.3-0.8-1-1.4-1.9-1.4h-0.1
			c-0.9,0.1-1.7,0.7-1.8,1.6c-0.3,1.6-0.7,3.1-1.3,4.4c0.1-3.1-0.3-6.4-1-10c-0.2-0.9-1-1.6-1.9-1.6H138c-0.9,0-1.7,0.6-1.9,1.4
			c-1.1,3.6-2.7,6.6-4.8,9c0.1-3.6-0.3-7.5-1.3-11.8c-0.2-0.9-0.9-1.5-1.8-1.5h-0.1c-0.8,0-1.6,0.5-1.9,1.3
			c-2.4,6.7-6.5,11.5-12.6,14.6c-5-6.6-17.3-18.9-38.7-19.7C74.1,60.5,73.1,60.5,72.2,60.5L72.2,60.5z"/>
	</g>
	<g>
		<path class="st8" d="M159,97c-9.7-4.7-21.5-6.8-34.1-7.7l0.4,16.8C137.9,104.8,149.5,102.2,159,97z"/>
		<path class="st9" d="M132.3,105.4c7,2.4,11.3,7.3,13,14.6c3.4-12.4,0.5-20.6-8.7-24.6L132.3,105.4z"/>
		<path class="st9" d="M132,90c6.9-2.7,11-7.8,12.3-15.2c4,12.2,1.4,20.6-7.6,25L132,90z"/>
		<path class="st10" d="M122.3,110.2c8.5,1.9,14.1,7.2,17.1,15.6c2.3-15.2-2.2-24.6-13.5-28.1L122.3,110.2z"/>
		<path class="st10" d="M121.7,85.6c8.4-2.3,13.8-7.8,16.4-16.4c3,15.1-1.1,24.7-12.2,28.7L121.7,85.6z"/>
		<path class="st11" d="M144.5,97.3c-9.7-4.7-21.5-6.8-34.1-7.7l0.4,16.8C123.4,105.1,135,102.5,144.5,97.3z"/>
		<path class="st12" d="M106.8,111.5c11.3,2.1,18.9,8.1,22.8,17.8c3.2-17.4-2.8-28.1-18-32.1L106.8,111.5z"/>
		<path class="st12" d="M106.2,85.1c11.2-2.6,18.5-8.9,22-18.8c4,17.2-1.5,28.2-16.5,32.8L106.2,85.1z"/>
	</g>
	<path class="st13" d="M76.6,134.3c28.6-2.3,39-25.1,39-25.1l-2.4-2.6l4.6-4.4l-4.8-4.6l4.6-4.8l-4.8-4.2l2.3-2.7
		c0,0-11.4-22.3-40.1-23.3S34.5,75.7,34.7,85S35,99.3,35,99.3s0.1,5,0.3,14.3C35.6,123,48,136.6,76.6,134.3z"/>
	<path class="st14" d="M112.1,114.8c-32,1.8-58.1-8.5-76.1-35.7c-0.9,2.1-1.4,4.1-1.3,5.9c0.2,9.3,0.3,14.3,0.3,14.3s0.1,5,0.3,14.3
		s12.6,22.9,41.2,20.6C96,132.8,107,121.7,112.1,114.8z"/>
	<g>
		<path class="st15" d="M79.4,110.5c-0.5-5.6-12.7-11.2-15-8s4.7,5.9,4.9,8.3c0.2,2.4-5.1,4.3-4.5,8
			C65.3,122.3,79.9,116.1,79.4,110.5z"/>
		<path class="st15" d="M80.9,128.7c-0.1-4-12.1-8.5-14.5-5.3s4.1,3.2,4.4,5.5s-8.2,3.8-4.7,4.9C70.7,135.3,81,134.3,80.9,128.7z"/>
		<path class="st15" d="M95.4,108.3c-0.5-4.9-11-9.8-13.1-7s4.1,5.1,4.3,7.2c0.2,2.1-4.5,3.8-4,6.9S95.8,113.2,95.4,108.3z"/>
		<path class="st15" d="M97.5,124.9c-0.5-4.9-11.7-7.9-13.8-5.1c-2.1,2.8,3.4,3,3.6,5c0.2,2.1-4.6,1.3-4.1,4.4
			C83.8,132.4,98,129.8,97.5,124.9z"/>
		<path class="st15" d="M111.9,103.5c-0.5-4.9-11.9-4.8-14-2.1c-2.1,2.8,6,2.8,6.3,4.8c0.2,2.1-6.5,4.4-6,7.6
			C98.7,117,112.4,108.3,111.9,103.5z"/>
		<path class="st15" d="M113.6,112.7c1.6-4.6-12.3,2.5-14.3,5.3c-2.1,2.8,5.9-1.1,6.1,1s-8.8,7.8-5.7,7
			C103.8,124.8,112.2,116.8,113.6,112.7z"/>
		<path class="st15" d="M61.4,111.1c0.2-4.8-11.2-11.2-13.9-8.8s3.9,5.6,3.9,7.6s-5.6,3-5.5,6.1C46,119.1,61.2,115.9,61.4,111.1z"/>
		<path class="st15" d="M63.1,128.3c0.2-4.8-11.8-11.6-14.6-9.2s3.8,3.9,3.8,5.9s-4.1-0.4-4,2.7C48.5,130.9,63,133.1,63.1,128.3z"/>
		<path class="st15" d="M44.5,113.3c0.7-3.2-5.4-13.5-7.4-12.2s2.1,6.9,1.8,8.2c-0.3,1.3-2,2.4-2.3,4.5
			C36.2,116,43.4,117.9,44.5,113.3z"/>
		<path class="st15" d="M78.8,86.3C78.6,91.9,66.7,98,64.2,95s4.4-6.1,4.5-8.5s-5.3-4.1-4.9-7.8C64.2,75.1,79.1,80.6,78.8,86.3z"/>
		<path class="st15" d="M79.5,68c0.1,4-11.7,9.1-14.2,6s4-3.4,4.1-5.7c0.1-2.4-8.3-3.4-4.9-4.7C69.1,61.9,79.4,62.4,79.5,68z"/>
		<path class="st15" d="M94.9,87.7c-0.2,4.9-10.6,10.3-12.8,7.6c-2.2-2.7,3.8-5.3,4-7.4c0.1-2.1-4.6-3.6-4.3-6.8
			S95.2,82.8,94.9,87.7z"/>
		<path class="st15" d="M96.3,71c-0.2,4.9-11.3,8.4-13.6,5.7c-2.2-2.7,3.3-3.1,3.4-5.2s-4.6-1.1-4.2-4.2S96.6,66.1,96.3,71z"/>
		<path class="st15" d="M111.6,91.8c-0.2,4.9-11.7,5.4-13.9,2.7c-2.2-2.7,5.9-3,6-5.1s-6.6-4.1-6.3-7.3S111.9,86.9,111.6,91.8z"/>
		<path class="st15" d="M112.9,82.5c1.8,4.6-12.4-2-14.6-4.7s5.9,0.8,6-1.3c0.1-2.1-9.1-7.4-6-6.7C102.6,70.9,111.4,78.5,112.9,82.5
			z"/>
		<path class="st15" d="M60.8,86.4c0.4,4.8-10.6,11.7-13.5,9.4c-2.9-2.2,3.6-5.8,3.5-7.8s-5.7-2.7-5.7-5.8
			C45.1,79.1,60.4,81.7,60.8,86.4z"/>
		<path class="st15" d="M61.8,69.1c0.4,4.8-11.3,12.1-14.2,9.9s3.6-4.1,3.5-6.1S47,73.5,47,70.3C47.1,67.2,61.4,64.4,61.8,69.1z"/>
		<path class="st15" d="M43.8,85c0.9,3.2-4.8,13.7-6.9,12.5c-2.1-1.2,1.8-7,1.4-8.3c-0.4-1.3-2.1-2.3-2.5-4.4S42.6,80.5,43.8,85z"/>
	</g>
</g>
</svg>
