<?xml version="1.0" encoding="utf-8"?>
<!-- Generator: Adobe Illustrator 22.0.1, SVG Export Plug-In . SVG Version: 6.00 Build 0)  -->
<svg version="1.1" id="Layer_1" xmlns="http://www.w3.org/2000/svg" xmlns:xlink="http://www.w3.org/1999/xlink" x="0px" y="0px"
	 width="180px" height="180px" viewBox="0 0 180 180" style="enable-background:new 0 0 180 180;" xml:space="preserve">
<style type="text/css">
	.st0{fill:#ECBA7F;}
	.st1{fill:#ECCAA3;}
	.st2{fill:none;stroke:#A8774F;stroke-width:2;stroke-miterlimit:10;}
	.st3{fill:#D4AF92;}
	.st4{fill:#E6BA8C;}
	.st5{fill:#DEB493;}
	.st6{opacity:0.48;fill:#A8774F;enable-background:new    ;}
	.st7{fill:#A62931;}
	.st8{fill:#781116;}
	.st9{fill:#BC393E;}
	.st10{fill:#42080E;}
	.st11{fill:#EBE1CE;}
	.st12{fill:#C7BFB0;}
</style>
<g id="Spatula">
	<path class="st0" d="M90.1,154.4c-62.2,0-88-15.9-88-24.4c1.8-6.7,10.5-22.6,11.3-23.8c2.1-4,147.2,0.1,149.3,4.1
		c0.8,1.2,15.5,13.2,15.5,19.7C178.2,138.5,152.3,154.4,90.1,154.4z"/>
	<path class="st1" d="M166.1,102.8c-1.9-3.7-7.1-6.4-13.5-7c-15.8-1.4-44.5-5.3-47.3-14.7c-3.4-11.1-7.4-28.6-8.6-37.4
		c-0.2-1.4-2.1-2.5-4.4-2.5h-2.1h-2.1c-2.3,0-4.3,1.1-4.4,2.5c-1.1,8.8-5.2,26.3-8.6,37.4c-2.9,9.4-31.6,13.3-47.3,14.7
		c-6.4,0.6-11.6,3.3-13.5,7c0,0-9.6,17.6-10.2,24.8c-0.6,7.2,22.8,21.9,86.2,21.9s88.2-15.8,86.4-22.8
		C174.7,119.4,166.1,102.8,166.1,102.8z M90.1,48.3c-2.2,0-4-0.9-4-2.1c0-1.2,1.8-2.1,4-2.1s4,0.9,4,2.1
		C94.2,47.4,92.4,48.3,90.1,48.3z"/>
	<path class="st2" d="M165.9,102.6c-1.9-3.7-7.1-6.4-13.5-7c-15.8-1.4-44.5-5.3-47.3-14.7c-3.4-11.1-7.4-28.6-8.6-37.4
		c-0.2-1.4-2.1-2.5-4.4-2.5H90h-2.1c-2.3,0-4.3,1.1-4.4,2.5c-1.1,8.8-5.2,26.3-8.6,37.4C72,90.3,43.4,94.2,27.6,95.6
		c-6.4,0.6-11.6,3.3-13.5,7c0,0-12.1,25.7-12.1,27.1c0,8.5,25.8,24.4,88,24.4s88-15.9,88-24.4C178,128.3,165.9,102.6,165.9,102.6z
		 M90,43.9c2.2,0,4,0.9,4,2.1s-1.8,2-4,2s-4-0.9-4-2.1S87.8,43.9,90,43.9z"/>
	<g>
		<g>
			<path class="st3" d="M54.9,92.7c2.6,5,8.5,10.1,6.7,16.2s-9.6,8.8-12.5,14.6c-4.1,8.2-1.3,19.6,3.5,26.9c0.1,0.2,0.4,0,0.3-0.2
				c-3-6.7-5-13.6-0.7-20.2c3.2-4.9,7.4-8.3,9.6-13.9c1.5-3.9,3-8.6,1.5-12.7C61.7,99,57.5,96.4,54.9,92.7
				C55,92.6,54.9,92.6,54.9,92.7L54.9,92.7z"/>
		</g>
	</g>
	<g>
		<g>
			<path class="st4" d="M17.5,99.1c-5.2,5.7-0.9,10.1,4.3,13.7c3.6,2.5,6.9,6,4.7,10.7c-0.9,2-2,3.9-2.9,6
				c-1.8,4.5-2.7,9.1-3.3,13.9c-0.1,0.5,0.7,0.6,0.9,0.1c1.4-4.5,2.5-9,4.3-13.4c1.3-3.3,4.2-7,3.8-10.7c-0.3-2.4-1.8-4.2-3.6-5.7
				c-1.3-1.1-2.9-1.9-4.3-2.9c-1.1-0.7-2.5-1.5-3.4-2.5C16.5,106.4,16.4,101.2,17.5,99.1L17.5,99.1L17.5,99.1z"/>
		</g>
	</g>
	<g>
		<g>
			<path class="st4" d="M30.6,112.4c-0.4-4,1.1-9.6,6-10.3c6.7-1,6,4.2,5.3,7.6c-1,4.7-3.5,7.2-6.1,11c-4.4,6.5-1.2,13.3-1.1,20.6
				c0,0.3,0.5,0.4,0.5,0.1c0.5-3.2,0.1-6-0.3-9.2c-0.4-3.5-1.1-6.5,0.8-9.7c0.8-1.4,2-2.5,2.9-3.8c2.8-3.9,6.2-10.4,4.5-15.5
				c-1.2-3.4-5.6-2.9-8.3-1.5C30.6,103.8,29.2,108.2,30.6,112.4C30.5,112.4,30.6,112.4,30.6,112.4L30.6,112.4z"/>
		</g>
	</g>
	<g>
		<g>
			<path class="st3" d="M33.1,111c0.3-0.8,0.6-1.6,1-2.3c2.1-0.1,2.6,0.9,1.4,2.8c-0.5,0.9-1.2,1.6-1.6,2.6
				c-1.1,2.5-1.3,5.7-4.5,6.5c-0.2,0.1-0.1,0.4,0.1,0.4c2-0.3,3.1-1.6,3.9-3.4c0.7-1.6,0.9-3.2,1.8-4.7c0.6-0.9,1.1-1.5,1.3-2.6
				c0.1-0.7,0.1-2.6-1-2.8C33.9,107.1,33.4,110,33.1,111L33.1,111L33.1,111z"/>
		</g>
	</g>
	<g>
		<g>
			<path class="st4" d="M96.2,49.5c-11.4,11.8-5.3,31,1.3,43.8c4.2,8.1,9.8,15.1,13.5,23.5c2,4.5,4.3,9.3,5.4,14.1
				c1.1,4.5,0,8.9,0.5,13.4c0.1,0.5,0.7,0.5,0.7,0c0.6-7.5,0.9-12.6-1.9-19.7c-3-7.6-6.2-14.8-10.7-21.6c-4.8-7.4-8.9-14.5-11.6-23
				C90.3,70,88,57.8,96.2,49.5C96.3,49.5,96.2,49.5,96.2,49.5L96.2,49.5z"/>
		</g>
	</g>
	<g>
		<g>
			<path class="st5" d="M149.3,98.5c5.6,5,11.1,9.3,13,16.9c1.9,7.8,2.4,15.8,2.7,23.8c0,0.9,1.3,1.1,1.6,0.2
				c2.2-8.4,1.9-17.8-1.5-25.8C161.8,106.3,155.6,102.8,149.3,98.5L149.3,98.5L149.3,98.5z"/>
		</g>
	</g>
	<g>
		<g>
			<path class="st3" d="M114.6,98.1c0.9,5.2,1.5,10.8,3.4,15.7c2,4.9,7.5,6.4,9.3,11c1.4,3.7,0.7,7.4,3.3,10.8
				c1.9,2.5,5.5,4.9,8.9,4.6c6.5-0.6,6.6-12.9,4.7-17.2c-2-4.4-5.9-8-8.5-12c-3.4-5.4-5.5-11.2-6.4-17.5c-0.1-0.4-0.7-0.3-0.7,0.1
				c-0.1,7.4,3,14.3,7.1,20.3c2,2.9,4.5,5.5,6.1,8.7c1.9,3.6,3.1,16.6-4.7,15.2c-8.9-1.6-5.2-12.6-10.2-17.3c-3.1-2.9-6.3-4.4-8-8.7
				C117,107.5,115.8,102.7,114.6,98.1L114.6,98.1L114.6,98.1z"/>
		</g>
	</g>
	<g>
		<g>
			<path class="st4" d="M79.8,65.2c2.1,3.8,4.1,6.7,4.1,11.2c0,3.8-0.7,7.7-1.7,11.3c-1.4,5.3-6,11.4-5.1,17.1
				c0.8,5.3,5.7,10.6,9.1,14.5c2.1,2.4,4.5,4.4,6.7,6.7c2.4,2.4,3.4,5.1,3.2,8.5c-0.2,2.8-1.8,6.7-4.6,7.7c-0.4,0.2-0.3,0.8,0.2,0.7
				c4.6-1.1,6.4-8.1,5.5-12.2c-0.7-2.9-3-5-5-6.9c-3.7-3.5-7.2-7.3-10.1-11.5c-1.3-1.8-3.1-4.1-3.6-6.3c-0.8-3.6,0.6-6.4,2-9.6
				c1.6-3.8,2.8-7.6,3.5-11.6c0.6-3.4,1.1-7.1,0.4-10.6C83.8,70.6,81.3,68.3,79.8,65.2C79.9,65.1,79.8,65.1,79.8,65.2L79.8,65.2z"/>
		</g>
	</g>
	<g>
		<g>
			<path class="st4" d="M68.4,87.6c0.8,4.8,3.5,9.8,3,14.8c-0.4,5-4.6,7.1-5.5,11.6c-0.1,0.4,0.5,0.8,0.8,0.3
				c2.1-3.7,5.7-6.6,6-11.1C73.2,97.8,70.1,92.6,68.4,87.6L68.4,87.6L68.4,87.6z"/>
		</g>
	</g>
	<g>
		<g>
			<path class="st3" d="M78.4,144.7c-4-1.9-8.5-5-8.5-10c0-3,2.4-6.1,3.4-8.9c1.9-5.3,2.4-11.2,0.8-16.5c-0.1-0.5-1-0.4-0.9,0.1
				c0.7,5.2,1,10.2-0.6,15.3c-0.9,2.9-2.9,5.6-3.4,8.6C68.2,139.4,73.6,142.5,78.4,144.7C78.4,144.8,78.4,144.7,78.4,144.7
				L78.4,144.7z"/>
		</g>
	</g>
	<g>
		<g>
			<path class="st5" d="M88.9,94.2c-3.6,0.5-4.4,5.7-3.6,8.7c0.6,2.3,2.6,4,4.2,5.7c0.7,0.8,1.7,2.5,3,2.5c2.4,0,4.4-6.2,4.1-8.1
				c-0.6-3.6-4.3-8.7-7.6-10.4c-0.4-0.2-0.9,0.3-0.5,0.7c3.7,3.8,8.6,9.4,4.9,14.8c-1,1.4-0.5,1.5-2,0.4c-0.9-0.7-1.8-1.9-2.6-2.7
				c-1.1-1.3-1.9-2.2-2.2-4c-0.4-2.3-0.7-6.3,2.6-6.9C89.5,94.8,89.3,94.1,88.9,94.2L88.9,94.2z"/>
		</g>
	</g>
</g>
<ellipse id="Shadow" class="st6" cx="90.2" cy="119.8" rx="58.4" ry="21.1"/>
<g id="Sausage">
	<g>
		<path class="st7" d="M67.1,79.1c1.6,0,3.2,0.3,4.7,0.9c17.2,3.2,33.3,3.4,48-0.1v47.8c-18.6-0.9-36.2-2.9-52.7-6
			c-8.9,0-16.2-9.5-16.2-21.3S58.2,79.1,67.1,79.1z"/>
		<path class="st7" d="M56.8,92.8c-4.6-0.4-3-10.2-9.3-10.2c-6.8,0-13.1,6.5-10.8,11.3c2.3,4.7-6.2,2.1-7.3,7.3
			c-0.8,4.1,5.2,9.9,12.1,6.2c8.2-4.4,12.4,1.7,12.4,1.7L56.8,92.8z"/>
		<path class="st8" d="M51,100.5c0-3.8,0.8-7.4,2.1-10.5c17.5,21.2,39.3,34.2,66.7,36.3v1.6c-18.6-0.9-36.2-2.9-52.7-6
			C58.2,121.8,51,112.2,51,100.5z"/>
		<ellipse class="st9" cx="119.8" cy="103.9" rx="20.7" ry="23.9"/>
		<g>
			<path class="st10" d="M67.1,79.1c1.6,0,3.2,0.3,4.7,0.9c8.7,1.6,17.2,2.5,25.3,2.5c5.4,0,10.7-0.4,15.9-1.2
				c2.1-0.9,4.4-1.3,6.8-1.3c11.4,0,20.7,10.7,20.7,23.9s-9.3,23.9-20.7,23.9c-0.6,0-1.3,0-1.9-0.1c-17.9-0.9-34.8-2.9-50.7-5.9
				c-7.2,0-13.3-6.2-15.4-14.7c-1.1-0.7-2.6-1.3-4.5-1.3c-1.6,0-3.5,0.4-5.7,1.6c-1.6,0.8-3.1,1.2-4.5,1.2c-4.8,0-8.3-4.2-7.6-7.4
				c1.1-5.1,9.6-2.5,7.3-7.3c-2.3-4.7,4-11.3,10.8-11.3l0,0c3.8,0,4.8,3.6,5.9,6.5C56.3,83.1,61.3,79.1,67.1,79.1 M67.1,77.1
				c-5.2,0-10,2.8-13.4,7.6c-1.1-2.1-2.9-4.1-6.2-4.1c-4.7,0-9.4,2.6-11.8,6.5c-1.6,2.6-1.9,5.3-0.8,7.7C35,94.9,35,94.9,35,95
				c-0.4,0.2-1,0.3-1.4,0.5c-2.1,0.6-5.4,1.6-6.1,5.2c-0.4,2,0.2,4.2,1.8,6.1c1.9,2.3,4.8,3.7,7.8,3.7c1.8,0,3.7-0.5,5.4-1.5
				c1.7-0.9,3.2-1.4,4.7-1.4c1,0,1.9,0.2,2.8,0.7c2.6,9.2,9.2,15.3,16.9,15.4c15.8,3,32.9,5,50.8,5.9c0.7,0.1,1.4,0.1,2.1,0.1
				c12.5,0,22.7-11.6,22.7-25.9s-10.2-25.9-22.7-25.9c-2.5,0-5,0.5-7.3,1.4c-4.9,0.8-10,1.1-15.3,1.1c-7.7,0-16-0.8-24.7-2.4
				C70.7,77.5,68.9,77.1,67.1,77.1L67.1,77.1z"/>
		</g>
		<path class="st8" d="M36.7,93.9c-0.4-0.8-0.5-1.7-0.5-2.5c3.9,3.2,9.2,12.1,17.8,16.7v0.1c-0.5-0.2-1-0.3-1.6-0.5
			c-0.9-0.8-2.4-1.6-4.3-1.8c-5.7-2.8-10.5-6.4-14.3-8.3C36.1,96.9,37.9,96.4,36.7,93.9z"/>
		<path class="st11" d="M80.9,81.5c6.7,0.8,13.1,1.2,19.4,1c-6.8,3.9-11.5,12-11.5,21.4c0,10.7,6.1,19.7,14.4,22.8
			c-9.4-0.8-18.4-1.9-27.2-3.4c-5.2-4.3-8.6-11.4-8.6-19.4C67.4,93.6,73,84.8,80.9,81.5z"/>
		<path class="st12" d="M95,120.9c2.3,2.6,5.1,4.7,8.3,5.8l0,0c-2.3-0.2-4.6-0.4-6.9-0.7c0,0,0,0-0.1,0c-2.3-0.2-4.5-0.5-6.8-0.8
			h-0.1c-2.2-0.3-4.5-0.6-6.7-0.9c0,0,0,0-0.1,0c-2.2-0.3-4.4-0.7-6.6-1c-5.1-4.2-8.4-11-8.6-18.8C75.7,111.7,84.9,117.2,95,120.9z"
			/>
	</g>
	<g>
		<g>
			<g>
				<path class="st10" d="M139.3,113.4c10.2,0,18.4,4.3,18.4,9.6v1.7c0,5.3-8.2,9.6-18.4,9.6s-18.4-4.3-18.4-9.6V123
					C120.9,117.7,129.2,113.4,139.3,113.4 M139.3,111.4c-11.4,0-20.4,5.1-20.4,11.6v1.7c0,6.5,9,11.6,20.4,11.6s20.4-5.1,20.4-11.6
					V123C159.7,116.5,150.8,111.4,139.3,111.4L139.3,111.4z"/>
			</g>
		</g>
		<path class="st7" d="M157.7,123v1.7c0,5.3-8.2,9.6-18.4,9.6s-18.4-4.3-18.4-9.6V123H157.7z"/>
		<ellipse class="st9" cx="139.3" cy="123" rx="18.4" ry="9.6"/>
	</g>
</g>
</svg>
