<?xml version="1.0" encoding="utf-8"?>
<!-- Generator: Adobe Illustrator 22.0.1, SVG Export Plug-In . SVG Version: 6.00 Build 0)  -->
<svg version="1.1" id="Layer_1" xmlns="http://www.w3.org/2000/svg" xmlns:xlink="http://www.w3.org/1999/xlink" x="0px" y="0px"
	 viewBox="0 0 1420 800" style="enable-background:new 0 0 1420 800;" xml:space="preserve">
<style type="text/css">
	.st0{fill:url(#SVGID_1_);}
	.st1{fill:#DCF9F8;}
	.st2{fill:#718988;}
	.st3{fill:#915E36;}
	.st4{fill:#FFFFFF;}
	.st5{fill:#41A62A;}
	.st6{fill:#E2001A;}
	.st7{fill:#00632E;}
	.st8{font-family:'ArialMT';}
	.st9{font-size:50px;}
	.st10{letter-spacing:2;}
	.st11{fill:#C6C7C8;}
	.st12{fill:#3E3D40;}
	.st13{fill:#ECEDED;}
	.st14{fill:#222023;}
	.st15{fill:#41281B;}
	.st16{fill:#F8B334;}
	.st17{fill:#E7511E;}
	.st18{opacity:0.6;fill:#F6F6F6;enable-background:new    ;}
	.st19{fill:#FF695E;}
	.st20{opacity:0.1;}
	.st21{fill:#B07F48;}
	.st22{fill:#CA9E64;}
	.st23{fill:#F9C472;}
	.st24{fill:#E2AF6A;}
	.st25{fill:#7C4D25;}
	.st26{fill:#B98555;}
	.st27{fill:#F6F6F6;}
	.st28{fill:#BE0A26;}
	.st29{opacity:0.3;fill:#FFFFFF;enable-background:new    ;}
	.st30{fill:#A80B29;}
	.st31{fill:#415E2E;}
	.st32{fill:#F29400;}
</style>
<g id="Objects">
	<g>
		<g>
			<linearGradient id="SVGID_1_" gradientUnits="userSpaceOnUse" x1="710" y1="2" x2="710" y2="800.0401">
				<stop  offset="0" style="stop-color:#DCF9F8"/>
				<stop  offset="1" style="stop-color:#9DBFBF"/>
			</linearGradient>
			<rect class="st0" width="1420" height="800"/>
			<rect class="st1" width="1420" height="100.1"/>
			<rect class="st2" width="1420" height="97.7"/>
		</g>
		<g>
			<g>
				<rect x="435.7" y="50.5" class="st3" width="539" height="194.1"/>
				<rect x="511" class="st3" width="10" height="53"/>
				<rect x="889" class="st3" width="10" height="53"/>
			</g>
			<g>
				<g>
					<rect x="445.5" y="61.1" class="st4" width="519.3" height="173.1"/>
					<rect x="445.5" y="61.1" class="st5" width="172.4" height="173.1"/>
					<rect x="792.9" y="61.1" class="st6" width="172.4" height="173.1"/>
				</g>
				<g>
					<g>
						<text transform="matrix(1 0 0 1 635.8813 126.499)" class="st7 st8 st9 st10">PIZZA</text>
					</g>
					<g>
						<rect x="649" y="150" class="st11" width="111.3" height="8"/>
						<rect x="649" y="167.7" class="st11" width="111.3" height="8"/>
						<rect x="649" y="186.3" class="st11" width="111.3" height="8"/>
						<rect x="649" y="205" class="st11" width="111.3" height="8"/>
					</g>
				</g>
			</g>
		</g>
		<g>
			<g>
				<g>
					<g>
						<g>
							<g>
								<g>
									<g>
										<g>
											<path class="st12" d="M455.6,273.1v65.1c0,24.1-16.4,43.7-36.7,43.7h-34.5c-20.3,0-36.7-19.6-36.7-43.7v-65.1H455.6z"/>
											<rect x="395.1" y="372.7" class="st12" width="13.1" height="372.4"/>
										</g>
										<g>
											<path class="st13" d="M425,470.5c0,3.3-2.7,6-6,6h-34c-3.3,0-6-2.7-6-6l0,0c0-3.3,2.7-6,6-6h34
												C422.3,464.5,425,467.2,425,470.5L425,470.5z"/>
											<circle class="st12" cx="384.8" cy="470.3" r="2.2"/>
											<circle class="st12" cx="418.8" cy="470.3" r="2.2"/>
										</g>
									</g>
								</g>
							</g>
						</g>
						<path class="st14" d="M444.8,272.9v56.7c0,21-13.2,38.1-29.4,38.1h-27.6c-16.2,0-29.4-17-29.4-38.1v-56.7H444.8z"/>
					</g>
					<g>
						<g>
							<g>
								<g>
									<g>
										<g>
											<g>
												<g>
													<rect x="528" y="580" class="st15" width="56.5" height="35"/>
													<rect x="743" y="580" class="st15" width="56.5" height="35"/>
												</g>
											</g>
										</g>
										<path class="st15" d="M453.5,542.8c0-141.6,73.1-256.3,210.5-256.3s210.5,114.8,210.5,256.3H453.5z"/>
										<g>
											<g>
												<path class="st12" d="M481.3,530.9C481.3,411.7,544.8,315,664,315s182.6,96.6,182.6,215.9H481.3z"/>
												<path class="st14" d="M481.3,530.9C481.3,411.7,544.8,315,664,315s182.6,96.6,182.6,215.9H481.3z"/>
											</g>
											<g>
												<g>
													<path class="st16" d="M591,521.4c0,15.1-10.8,27.3-24.2,27.3s-24.2-12.2-24.2-27.3c0-15.1,24.2-39.1,24.2-39.1
														S591,506.3,591,521.4z"/>
													<path class="st17" d="M582.6,524.6c0,9.9-7.1,17.8-15.8,17.8s-15.8-8-15.8-17.8c0-9.9,7.1-17.8,15.8-17.8
														C575.5,506.7,582.6,514.7,582.6,524.6z"/>
												</g>
												<g>
													<path class="st16" d="M544.7,524c0,10-7.1,18-15.9,18c-8.8,0-15.9-8.1-15.9-18c0-10,15.9-25.8,15.9-25.8
														S544.7,514.1,544.7,524z"/>
													<path class="st17" d="M539.2,526.2c0,6.5-4.7,11.8-10.4,11.8s-10.4-5.3-10.4-11.8s4.7-11.8,10.4-11.8
														S539.2,519.7,539.2,526.2z"/>
												</g>
												<g>
													<path class="st16" d="M706.2,521.4c0,15.1-10.8,27.3-24.2,27.3s-24.2-12.2-24.2-27.3c0-15.1,24.2-39.1,24.2-39.1
														S706.2,506.3,706.2,521.4z"/>
													<path class="st17" d="M697.8,524.6c0,9.9-7.1,17.8-15.8,17.8s-15.8-8-15.8-17.8c0-9.9,7.1-17.8,15.8-17.8
														S697.8,514.7,697.8,524.6z"/>
												</g>
												<g>
													<path class="st16" d="M623.7,528.6c0,11.1-8,20.1-17.8,20.1s-17.8-9-17.8-20.1s17.8-28.8,17.8-28.8
														S623.7,517.4,623.7,528.6z"/>
													<ellipse class="st17" cx="605.9" cy="530.9" rx="11.6" ry="13.1"/>
												</g>
												<g>
													<path class="st16" d="M662.5,525.3c0,12.9-9.3,23.4-20.7,23.4s-20.7-10.5-20.7-23.4s20.7-33.4,20.7-33.4
														S662.5,512.4,662.5,525.3z"/>
													<ellipse class="st17" cx="641.9" cy="528.1" rx="13.5" ry="15.2"/>
												</g>
											</g>
											<rect x="439.8" y="529" class="st15" width="448.3" height="55.5"/>
										</g>
									</g>
								</g>
							</g>
						</g>
						<g>
							<path class="st18" d="M648.8,94.2c11.1,22.7-10.7,56.1-48.6,74.7c-38,18.5-77.7,15.2-88.8-7.5
								c-11.1-22.7,10.7-56.1,48.6-74.7C598,68.1,637.7,71.5,648.8,94.2z"/>
							<path class="st18" d="M619.1,202.7c0-26.1-24.5-47.2-54.7-47.2s-54.7,21.2-54.7,47.2c0,26.1,24.5,47.2,54.7,47.2
								S619.1,228.8,619.1,202.7z"/>
							<path class="st18" d="M644.6,246.2c0-17-16.1-30.7-36-30.7s-36,13.8-36,30.7c0,17,16.1,30.7,36,30.7
								C628.5,277,644.6,263.2,644.6,246.2z"/>
							<path class="st18" d="M628.6,320.4c0-17-16.1-30.7-36-30.7s-36,13.8-36,30.7c0,17,16.1,30.7,36,30.7S628.6,337.4,628.6,320.4
								z"/>
							<path class="st18" d="M683.6,333.2c0-7.9-7.7-14.2-17.2-14.2s-17.2,6.4-17.2,14.2c0,7.9,7.7,14.2,17.2,14.2
								C675.9,347.5,683.6,341.1,683.6,333.2z"/>
							<path class="st18" d="M601.3,55.1c0-7.9-7.7-14.2-17.2-14.2s-17.2,6.4-17.2,14.2c0,7.9,7.7,14.2,17.2,14.2
								C593.6,69.4,601.3,63,601.3,55.1z"/>
							<path class="st18" d="M653.6,374.5c0-5-4.4-9-9.7-9c-5.4,0-9.7,4-9.7,9s4.4,9,9.7,9C649.2,383.5,653.6,379.5,653.6,374.5z"/>
						</g>
					</g>
					<g>
						<g>
							<g>
								<g>
									<g>
										<path class="st13" d="M1075.7,352.8c0,9.1-7.4,16.5-16.5,16.5H912.8c-9.1,0-16.5-7.4-16.5-16.5l0,0
											c0-9.1,7.4-16.5,16.5-16.5h146.3C1068.3,336.3,1075.7,343.7,1075.7,352.8L1075.7,352.8z"/>
										<path class="st19" d="M902,429.4c0.2-0.4,0.3-0.7,0.5-1.1l0,0l22.3-53.3v-21.6h6.4v17.9l38.3,16l-8.9,21.2
											c3.5,2.5,7,7.1,9.5,12.8c4.4,10.1,3.9,20.1-1.1,22.2c-3.5,1.5-8.4-1.3-12.5-6.8c-1.1,4.4-2.6,9-4.5,13.5
											c-11.2,26.7-31.5,43.7-45.3,37.9C892.9,482.5,890.8,456.1,902,429.4z"/>
									</g>
								</g>
							</g>
						</g>
						<g>
							<g>
								<g>
									<g>
										<g>
											<path class="st15" d="M1065.4,413.8h-22.7v-58.5c0-6.5-5.2-11.7-11.7-11.7s-11.7,5.2-11.7,11.7v58.5h-22.7
												c-7.6,0-13.8,6.2-13.8,13.8v115.7c0,7.6,6.2,13.8,13.8,13.8h68.9c7.6,0,13.8-6.2,13.8-13.8V427.6
												C1079.2,420,1073,413.8,1065.4,413.8z"/>
											<path class="st3" d="M1065.4,413.8h-22.7v-58.5c0-6.5-5.2-11.7-11.7-11.7s-11.7,5.2-11.7,11.7v58.5h-22.7
												c-7.6,0-13.8,6.2-13.8,13.8v115.7c0,7.6,6.2,13.8,13.8,13.8h68.9c7.6,0,13.8-6.2,13.8-13.8V427.6
												C1079.2,420,1073,413.8,1065.4,413.8z"/>
											<path class="st15" d="M1036.5,355.6c0,3-2.5,5.5-5.5,5.5l0,0c-3,0-5.5-2.5-5.5-5.5l0,0c0-3,2.5-5.5,5.5-5.5l0,0
												C1034,350.1,1036.5,352.6,1036.5,355.6L1036.5,355.6z"/>
										</g>
									</g>
								</g>
							</g>
							<g>
								<g>
									<g>
										<g>
											<path class="st15" d="M933.2,355c0,3-2.5,5.5-5.5,5.5l0,0c-3,0-5.5-2.5-5.5-5.5l0,0c0-3,2.5-5.5,5.5-5.5l0,0
												C930.7,349.5,933.2,351.9,933.2,355L933.2,355z"/>
											<path class="st15" d="M986.2,355c0,3-2.5,5.5-5.5,5.5l0,0c-3,0-5.5-2.5-5.5-5.5l0,0c0-3,2.5-5.5,5.5-5.5l0,0
												C983.7,349.5,986.2,351.9,986.2,355L986.2,355z"/>
										</g>
									</g>
								</g>
							</g>
						</g>
					</g>
				</g>
				<g>
					<g>
						<g>
							<path class="st15" d="M1070.8,695.7h-29.3V683h-186v12.7h-27.3c-3.7,0-6.7,2.8-6.7,6.3s3,6.3,6.7,6.3h27.3V721h186v-12.7
								h29.3c3.7,0,6.7-2.8,6.7-6.3S1074.5,695.7,1070.8,695.7z"/>
							<g>
								<g>
									<g class="st20">
									</g>
									<g>
										<g>
											<path class="st21" d="M1077.5,702c0,3.5-3,6.3-6.7,6.3H828.2c-3.7,0-6.7-2.8-6.7-6.3l0,0c0-3.5,3-6.3,6.7-6.3h242.6
												C1074.5,695.7,1077.5,698.5,1077.5,702L1077.5,702z"/>
											<rect x="855.5" y="683" class="st22" width="186" height="38"/>
										</g>
									</g>
								</g>
							</g>
						</g>
						<g>
							<g>
								<g>
									<g>
										<g>
											<rect x="567.1" y="707.1" class="st15" width="183" height="12"/>
										</g>
									</g>
								</g>
								<g>
									<g>
										<g class="st20">
										</g>
										<g>
											<rect x="567.1" y="707.1" class="st3" width="183" height="12"/>
										</g>
									</g>
								</g>
							</g>
							<g>
								<path class="st23" d="M733.6,691.7c0-15.2-15.4-32.2-34.3-32.2c-19,0-34.3,17.1-34.3,32.2c0,15.2,15.4,15.3,34.3,15.3
									C718.2,707,733.6,706.9,733.6,691.7z"/>
								<path class="st24" d="M733.6,691.7c0-15.2-15.4-32.2-34.3-32.2C710.5,668,716,676,716,691.7c0,15.2-5.5,15.3-16.8,15.3
									C718.2,707,733.6,706.9,733.6,691.7z"/>
							</g>
							<g>
								<path class="st23" d="M659.9,695c0-11.9-13.1-25.3-29.4-25.3c-16.2,0-29.4,13.4-29.4,25.3c0,11.9,13.1,12,29.4,12
									C646.7,707,659.9,706.9,659.9,695z"/>
								<path class="st24" d="M659.9,695c0-11.9-13.1-25.3-29.4-25.3c9.7,6.7,14.4,13,14.4,25.3c0,11.9-4.7,12-14.4,12
									C646.7,707,659.9,706.9,659.9,695z"/>
							</g>
						</g>
						<g>
							<g>
								<g>
									<g>
										<g>
											<g>
												<g>
													<path class="st3" d="M379.9,619.2c0,6.1-5,11.1-11.1,11.1h-6.9c-6.1,0-11.1-5-11.1-11.1l0,0c0-6.1,5-11.1,11.1-11.1
														h6.9C375,608.1,379.9,613.1,379.9,619.2L379.9,619.2z"/>
												</g>
												<g>
													<path class="st3" d="M377.3,669.4c-1-3-2.7-12.5-3.6-16.6c-1.5-7,3.1-14.4,3.1-14.4c2.5-0.8,0.6-2.8,0.6-2.8
														c-2.5-2.8-1.4-6.1-1.4-6.1h-10.5h-0.3h-10.5c0,0,1.1,3.3-1.4,6.1c0,0-1.9,1.9,0.6,2.8c0,0,4.5,7.5,3,14.4
														c-0.9,4.2-2.6,13.6-3.6,16.6c-2.3,6.6-7.2,17.2,0.8,27.7h10.3h1.9h10.3C384.5,686.6,379.6,676,377.3,669.4z"/>
												</g>
												<g>
													<path class="st25" d="M378.2,629.1c0,0.7-0.6,1.2-1.2,1.2h-23.3c-0.7,0-1.2-0.6-1.2-1.2l0,0c0-0.7,0.6-1.2,1.2-1.2H377
														C377.7,627.8,378.2,628.4,378.2,629.1L378.2,629.1z"/>
												</g>
												<g>
													<path class="st26" d="M378.1,697.5c0,0.7-0.6,1.2-1.2,1.2h-23.3c-0.7,0-1.2-0.6-1.2-1.2l0,0c0-0.7,0.6-1.2,1.2-1.2
														h23.3C377.6,696.3,378.1,696.8,378.1,697.5L378.1,697.5z"/>
												</g>
												<g>
													<path class="st26" d="M378.2,636.9c0,0.7-0.6,1.2-1.2,1.2h-23.3c-0.7,0-1.2-0.6-1.2-1.2l0,0c0-0.7,0.6-1.2,1.2-1.2H377
														C377.7,635.7,378.2,636.2,378.2,636.9L378.2,636.9z"/>
												</g>
												<g>
													<path class="st3" d="M380.2,711.2c0,4.4-0.7,7.9-1.5,7.9h-27c-0.8,0-1.4-3.6-1.4-7.9l0,0c0-4.4,0.7-7.9,1.5-7.9h27
														C379.5,703.3,380.2,706.8,380.2,711.2L380.2,711.2z"/>
												</g>
												<g>
													<path class="st25" d="M380.3,701.9c0,1.8-0.7,3.2-1.5,3.2h-27c-0.8,0-1.4-1.4-1.4-3.2l0,0c0-1.8,0.7-3.2,1.5-3.2h27
														C379.7,698.7,380.3,700.2,380.3,701.9L380.3,701.9z"/>
												</g>
												<g>
													<path class="st15" d="M367.8,605.6c0,1.5-1.2,2.6-2.6,2.6c-1.5,0-2.6-1.2-2.6-2.6c0-1.5,1.2-2.6,2.6-2.6
														C366.7,603,367.8,604.2,367.8,605.6z"/>
												</g>
											</g>
										</g>
									</g>
								</g>
							</g>
							<g>
								<g>
									<g>
										<g>
											<path class="st13" d="M490.9,686.8c11.7-0.1,21.2,7,21.3,15.9c0.1,8.9-9.3,16.2-21,16.3s-21.2-7-21.3-16
												C469.8,694.2,479.2,686.9,490.9,686.8z"/>
										</g>
									</g>
								</g>
								<g>
									<g>
										<g>
											<path class="st27" d="M522.9,686.8c11.7-0.1,21.2,7,21.3,15.9s-9.3,16.2-21,16.3s-21.2-7-21.3-16
												C501.8,694.2,511.2,686.9,522.9,686.8z"/>
										</g>
									</g>
								</g>
								<g>
									<g>
										<g>
											<g>
												<g>
													<g>
														<path class="st7" d="M399.1,678.3c0,0,8.6-3.1,10,6.1C409.1,684.4,403.3,686.4,399.1,678.3z"/>
														<path class="st7" d="M417.9,677.9c0,0-8.7-2.7-9.8,6.6C408.2,684.5,414,686.2,417.9,677.9z"/>
														<path class="st7" d="M408.3,672c0,0-6,7.5,0.7,12.9C409,684.9,413,679.7,408.3,672z"/>
													</g>
													<ellipse class="st28" cx="409.1" cy="700.5" rx="22.5" ry="18.7"/>
													<path class="st29" d="M406.7,692.5c0-2.2-2.6-4-5.7-4c-3.2,0-5.7,1.8-5.7,4s2.6,4,5.7,4S406.7,694.7,406.7,692.5z"/>
												</g>
												<path class="st30" d="M431.5,700.5c0,10.4-10.1,18.7-22.5,18.7c8.6,0,13.6-8.4,13.6-18.7c0-10.4-4.6-18.7-13.6-18.7
													C421.5,681.7,431.5,690.1,431.5,700.5z"/>
											</g>
										</g>
									</g>
								</g>
								<g>
									<g>
										<g>
											<g>
												<g>
													<g>
														<path class="st7" d="M436.1,684.9c0,0,6.8,0.7,5.4,7.9C441.6,692.8,437,692.2,436.1,684.9z"/>
														<path class="st7" d="M444.2,683.5c0,0-6.2,3.4-2.8,9.6C441.4,693.1,445.5,690.7,444.2,683.5z"/>
													</g>
													<path class="st28" d="M458.7,704.4c0,8.2-7.6,14.8-17.1,14.8c-9.4,0-17.1-6.6-17.1-14.8s7.6-14.8,17.1-14.8
														C451.1,689.6,458.7,696.2,458.7,704.4z"/>
													<path class="st29" d="M436.2,695.3c-1.1-0.9-3.1-0.4-4.4,1.1c-1.3,1.6-1.4,3.6-0.3,4.5s3.1,0.4,4.4-1.1
														S437.3,696.3,436.2,695.3z"/>
												</g>
												<path class="st30" d="M458.7,704.4c0,8.2-7.6,14.8-17.1,14.8c6.5,0,10.3-6.6,10.3-14.8s-3.5-14.8-10.3-14.8
													C451.1,689.6,458.7,696.2,458.7,704.4z"/>
											</g>
										</g>
									</g>
								</g>
								<g>
									<g>
										<g>
											<g>
												<g>
													<path class="st31" d="M444.7,705.5l-3.2-0.7c0,0-6.7-6.1-1.1-6.6c0,0,1.7-1-1-1.8c0,0-4.7,1.1,0.1,7.6l1.8,1.8l1.4,3.2
														L444.7,705.5z"/>
												</g>
												<g>
													<path class="st32" d="M486.5,711.1c0,0,10.9-10.2-0.6-3.1c0,0-12,5.6-19.9,3.6c-7.9-1.9-9.6-2.6-13-4.3
														s-5.2-3.5-6.5-3.2s-9.8,4.4-0.3,11.1c4.7,3.3,12.7,4.4,20.6,4.3C466.8,719.5,481.1,717.3,486.5,711.1z"/>
												</g>
											</g>
										</g>
									</g>
								</g>
							</g>
						</g>
					</g>
				</g>
			</g>
			<g>
				<g>
					<g>
						<rect x="310" y="719" class="st15" width="800" height="81"/>
					</g>
				</g>
			</g>
		</g>
	</g>
</g>
</svg>
